<svg width="772" height="732" viewBox="0 0 772 732" fill="none" xmlns="http://www.w3.org/2000/svg">
<g filter="url(#filter0_i_7228_1027)">
<rect x="104" y="190" width="565" height="53" rx="12" fill="#326EE1"/>
<rect x="104" y="190" width="565" height="53" rx="12" fill="url(#paint0_linear_7228_1027)" fill-opacity="0.1"/>
</g>
<rect x="104.5" y="190.5" width="564" height="52" rx="11.5" stroke="white" stroke-opacity="0.4"/>
<path d="M356.17 212.006C357.077 212.006 357.824 212.115 358.412 212.334C359.005 212.553 359.444 212.883 359.731 213.325C360.019 213.767 360.162 214.326 360.162 215C360.162 215.456 360.076 215.854 359.902 216.196C359.729 216.538 359.501 216.827 359.219 217.064C358.936 217.301 358.631 217.495 358.303 217.646L361.242 222H358.891L356.505 218.165H355.377V222H353.258V212.006H356.17ZM356.02 213.742H355.377V216.442H356.061C356.762 216.442 357.264 216.326 357.564 216.094C357.87 215.857 358.022 215.51 358.022 215.055C358.022 214.581 357.858 214.243 357.53 214.043C357.207 213.842 356.703 213.742 356.02 213.742ZM366.731 222L364.325 214.159H364.264C364.273 214.346 364.286 214.629 364.305 215.007C364.327 215.381 364.348 215.779 364.366 216.203C364.384 216.627 364.394 217.01 364.394 217.352V222H362.5V212.006H365.385L367.75 219.648H367.791L370.3 212.006H373.185V222H371.209V217.27C371.209 216.955 371.214 216.593 371.223 216.183C371.236 215.772 371.252 215.383 371.271 215.014C371.289 214.64 371.302 214.36 371.312 214.173H371.25L368.673 222H366.731ZM381.606 219.225C381.606 219.817 381.463 220.332 381.176 220.77C380.889 221.207 380.469 221.544 379.918 221.781C379.371 222.018 378.706 222.137 377.922 222.137C377.576 222.137 377.236 222.114 376.903 222.068C376.575 222.023 376.258 221.957 375.953 221.87C375.652 221.779 375.365 221.667 375.092 221.535V219.566C375.566 219.776 376.058 219.965 376.568 220.134C377.079 220.302 377.585 220.387 378.086 220.387C378.432 220.387 378.71 220.341 378.92 220.25C379.134 220.159 379.289 220.034 379.385 219.874C379.48 219.715 379.528 219.532 379.528 219.327C379.528 219.076 379.444 218.862 379.275 218.685C379.107 218.507 378.874 218.34 378.578 218.186C378.286 218.031 377.956 217.864 377.587 217.687C377.354 217.577 377.102 217.445 376.828 217.29C376.555 217.131 376.295 216.937 376.049 216.709C375.803 216.481 375.6 216.205 375.44 215.882C375.285 215.554 375.208 215.162 375.208 214.706C375.208 214.109 375.345 213.599 375.618 213.175C375.892 212.751 376.281 212.427 376.787 212.204C377.298 211.976 377.899 211.862 378.592 211.862C379.111 211.862 379.606 211.924 380.075 212.047C380.549 212.165 381.044 212.339 381.559 212.566L380.875 214.214C380.415 214.027 380.002 213.883 379.638 213.783C379.273 213.678 378.902 213.626 378.523 213.626C378.259 213.626 378.034 213.669 377.847 213.756C377.66 213.838 377.519 213.956 377.423 214.111C377.327 214.262 377.279 214.437 377.279 214.638C377.279 214.875 377.348 215.075 377.484 215.239C377.626 215.399 377.835 215.554 378.113 215.704C378.396 215.854 378.747 216.03 379.166 216.23C379.676 216.472 380.112 216.725 380.472 216.989C380.836 217.249 381.117 217.557 381.312 217.912C381.508 218.263 381.606 218.701 381.606 219.225ZM392.284 222H389.591L385.243 214.439H385.182C385.2 214.754 385.216 215.071 385.229 215.39C385.243 215.709 385.257 216.028 385.271 216.347C385.284 216.661 385.298 216.978 385.312 217.297V222H383.418V212.006H386.091L390.432 219.491H390.479C390.47 219.181 390.459 218.874 390.445 218.568C390.432 218.263 390.418 217.958 390.404 217.652C390.395 217.347 390.386 217.042 390.377 216.736V212.006H392.284V222ZM401.588 218.165C401.588 218.803 401.501 219.368 401.328 219.86C401.16 220.353 400.911 220.77 400.583 221.111C400.259 221.449 399.868 221.704 399.407 221.877C398.951 222.05 398.437 222.137 397.862 222.137C397.325 222.137 396.83 222.05 396.379 221.877C395.932 221.704 395.543 221.449 395.21 221.111C394.882 220.77 394.627 220.353 394.444 219.86C394.267 219.368 394.178 218.803 394.178 218.165C394.178 217.317 394.328 216.6 394.629 216.012C394.93 215.424 395.358 214.977 395.914 214.672C396.47 214.367 397.133 214.214 397.903 214.214C398.619 214.214 399.252 214.367 399.804 214.672C400.36 214.977 400.795 215.424 401.109 216.012C401.428 216.6 401.588 217.317 401.588 218.165ZM396.304 218.165C396.304 218.666 396.358 219.088 396.468 219.43C396.577 219.771 396.748 220.029 396.98 220.202C397.213 220.375 397.516 220.462 397.89 220.462C398.259 220.462 398.557 220.375 398.785 220.202C399.018 220.029 399.186 219.771 399.291 219.43C399.4 219.088 399.455 218.666 399.455 218.165C399.455 217.659 399.4 217.24 399.291 216.907C399.186 216.57 399.018 216.317 398.785 216.148C398.553 215.98 398.25 215.896 397.876 215.896C397.325 215.896 396.924 216.085 396.673 216.463C396.427 216.841 396.304 217.409 396.304 218.165ZM407.576 214.214C407.681 214.214 407.802 214.221 407.938 214.234C408.08 214.243 408.194 214.257 408.28 214.275L408.123 216.23C408.055 216.208 407.957 216.192 407.829 216.183C407.706 216.169 407.599 216.162 407.508 216.162C407.239 216.162 406.977 216.196 406.722 216.265C406.471 216.333 406.245 216.445 406.045 216.6C405.844 216.75 405.685 216.951 405.566 217.201C405.452 217.447 405.396 217.75 405.396 218.11V222H403.311V214.357H404.89L405.197 215.643H405.3C405.45 215.383 405.637 215.146 405.86 214.932C406.088 214.713 406.346 214.54 406.633 214.412C406.924 214.28 407.239 214.214 407.576 214.214ZM418.644 214.214C419.509 214.214 420.163 214.437 420.605 214.884C421.052 215.326 421.275 216.037 421.275 217.017V222H419.184V217.536C419.184 216.989 419.09 216.577 418.903 216.299C418.716 216.021 418.427 215.882 418.035 215.882C417.484 215.882 417.092 216.08 416.859 216.477C416.627 216.868 416.511 217.431 416.511 218.165V222H414.426V217.536C414.426 217.172 414.385 216.866 414.303 216.62C414.221 216.374 414.095 216.189 413.927 216.066C413.758 215.943 413.542 215.882 413.277 215.882C412.89 215.882 412.585 215.98 412.361 216.176C412.143 216.367 411.985 216.652 411.89 217.03C411.799 217.404 411.753 217.862 411.753 218.404V222H409.668V214.357H411.261L411.541 215.335H411.657C411.812 215.071 412.006 214.856 412.238 214.692C412.475 214.528 412.735 214.408 413.018 214.33C413.3 214.253 413.587 214.214 413.879 214.214C414.439 214.214 414.913 214.305 415.301 214.487C415.693 214.67 415.993 214.952 416.203 215.335H416.388C416.616 214.943 416.937 214.658 417.352 214.48C417.771 214.303 418.201 214.214 418.644 214.214Z" fill="white"/>
<rect x="372.5" y="349.5" width="29" height="29" rx="14.5" fill="black"/>
<rect x="372.5" y="349.5" width="29" height="29" rx="14.5" stroke="#6D6D6D"/>
<path d="M387.572 364.08H391.479V365.818H387.572V369.764H385.834V365.818H381.938V364.08H385.834V360.096H387.572V364.08Z" fill="white"/>
<rect x="372.5" y="563.5" width="29" height="29" rx="14.5" fill="black"/>
<rect x="372.5" y="563.5" width="29" height="29" rx="14.5" stroke="#6D6D6D"/>
<path d="M387.572 578.08H391.479V579.818H387.572V583.764H385.834V579.818H381.938V578.08H385.834V574.096H387.572V578.08Z" fill="white"/>
<g filter="url(#filter1_i_7228_1027)">
<rect x="104" y="412" width="565" height="53" rx="12" fill="#326EE1"/>
<rect x="104" y="412" width="565" height="53" rx="12" fill="url(#paint1_linear_7228_1027)" fill-opacity="0.1"/>
</g>
<rect x="104.5" y="412.5" width="564" height="52" rx="11.5" stroke="white" stroke-opacity="0.4"/>
<path d="M356.17 434.006C357.077 434.006 357.824 434.115 358.412 434.334C359.005 434.553 359.444 434.883 359.731 435.325C360.019 435.767 360.162 436.326 360.162 437C360.162 437.456 360.076 437.854 359.902 438.196C359.729 438.538 359.501 438.827 359.219 439.064C358.936 439.301 358.631 439.495 358.303 439.646L361.242 444H358.891L356.505 440.165H355.377V444H353.258V434.006H356.17ZM356.02 435.742H355.377V438.442H356.061C356.762 438.442 357.264 438.326 357.564 438.094C357.87 437.857 358.022 437.51 358.022 437.055C358.022 436.581 357.858 436.243 357.53 436.043C357.207 435.842 356.703 435.742 356.02 435.742ZM366.731 444L364.325 436.159H364.264C364.273 436.346 364.286 436.629 364.305 437.007C364.327 437.381 364.348 437.779 364.366 438.203C364.384 438.627 364.394 439.01 364.394 439.352V444H362.5V434.006H365.385L367.75 441.648H367.791L370.3 434.006H373.185V444H371.209V439.27C371.209 438.955 371.214 438.593 371.223 438.183C371.236 437.772 371.252 437.383 371.271 437.014C371.289 436.64 371.302 436.36 371.312 436.173H371.25L368.673 444H366.731ZM381.606 441.225C381.606 441.817 381.463 442.332 381.176 442.77C380.889 443.207 380.469 443.544 379.918 443.781C379.371 444.018 378.706 444.137 377.922 444.137C377.576 444.137 377.236 444.114 376.903 444.068C376.575 444.023 376.258 443.957 375.953 443.87C375.652 443.779 375.365 443.667 375.092 443.535V441.566C375.566 441.776 376.058 441.965 376.568 442.134C377.079 442.302 377.585 442.387 378.086 442.387C378.432 442.387 378.71 442.341 378.92 442.25C379.134 442.159 379.289 442.034 379.385 441.874C379.48 441.715 379.528 441.532 379.528 441.327C379.528 441.076 379.444 440.862 379.275 440.685C379.107 440.507 378.874 440.34 378.578 440.186C378.286 440.031 377.956 439.864 377.587 439.687C377.354 439.577 377.102 439.445 376.828 439.29C376.555 439.131 376.295 438.937 376.049 438.709C375.803 438.481 375.6 438.205 375.44 437.882C375.285 437.554 375.208 437.162 375.208 436.706C375.208 436.109 375.345 435.599 375.618 435.175C375.892 434.751 376.281 434.427 376.787 434.204C377.298 433.976 377.899 433.862 378.592 433.862C379.111 433.862 379.606 433.924 380.075 434.047C380.549 434.165 381.044 434.339 381.559 434.566L380.875 436.214C380.415 436.027 380.002 435.883 379.638 435.783C379.273 435.678 378.902 435.626 378.523 435.626C378.259 435.626 378.034 435.669 377.847 435.756C377.66 435.838 377.519 435.956 377.423 436.111C377.327 436.262 377.279 436.437 377.279 436.638C377.279 436.875 377.348 437.075 377.484 437.239C377.626 437.399 377.835 437.554 378.113 437.704C378.396 437.854 378.747 438.03 379.166 438.23C379.676 438.472 380.112 438.725 380.472 438.989C380.836 439.249 381.117 439.557 381.312 439.912C381.508 440.263 381.606 440.701 381.606 441.225ZM392.284 444H389.591L385.243 436.439H385.182C385.2 436.754 385.216 437.071 385.229 437.39C385.243 437.709 385.257 438.028 385.271 438.347C385.284 438.661 385.298 438.978 385.312 439.297V444H383.418V434.006H386.091L390.432 441.491H390.479C390.47 441.181 390.459 440.874 390.445 440.568C390.432 440.263 390.418 439.958 390.404 439.652C390.395 439.347 390.386 439.042 390.377 438.736V434.006H392.284V444ZM401.588 440.165C401.588 440.803 401.501 441.368 401.328 441.86C401.16 442.353 400.911 442.77 400.583 443.111C400.259 443.449 399.868 443.704 399.407 443.877C398.951 444.05 398.437 444.137 397.862 444.137C397.325 444.137 396.83 444.05 396.379 443.877C395.932 443.704 395.543 443.449 395.21 443.111C394.882 442.77 394.627 442.353 394.444 441.86C394.267 441.368 394.178 440.803 394.178 440.165C394.178 439.317 394.328 438.6 394.629 438.012C394.93 437.424 395.358 436.977 395.914 436.672C396.47 436.367 397.133 436.214 397.903 436.214C398.619 436.214 399.252 436.367 399.804 436.672C400.36 436.977 400.795 437.424 401.109 438.012C401.428 438.6 401.588 439.317 401.588 440.165ZM396.304 440.165C396.304 440.666 396.358 441.088 396.468 441.43C396.577 441.771 396.748 442.029 396.98 442.202C397.213 442.375 397.516 442.462 397.89 442.462C398.259 442.462 398.557 442.375 398.785 442.202C399.018 442.029 399.186 441.771 399.291 441.43C399.4 441.088 399.455 440.666 399.455 440.165C399.455 439.659 399.4 439.24 399.291 438.907C399.186 438.57 399.018 438.317 398.785 438.148C398.553 437.98 398.25 437.896 397.876 437.896C397.325 437.896 396.924 438.085 396.673 438.463C396.427 438.841 396.304 439.409 396.304 440.165ZM407.576 436.214C407.681 436.214 407.802 436.221 407.938 436.234C408.08 436.243 408.194 436.257 408.28 436.275L408.123 438.23C408.055 438.208 407.957 438.192 407.829 438.183C407.706 438.169 407.599 438.162 407.508 438.162C407.239 438.162 406.977 438.196 406.722 438.265C406.471 438.333 406.245 438.445 406.045 438.6C405.844 438.75 405.685 438.951 405.566 439.201C405.452 439.447 405.396 439.75 405.396 440.11V444H403.311V436.357H404.89L405.197 437.643H405.3C405.45 437.383 405.637 437.146 405.86 436.932C406.088 436.713 406.346 436.54 406.633 436.412C406.924 436.28 407.239 436.214 407.576 436.214ZM418.644 436.214C419.509 436.214 420.163 436.437 420.605 436.884C421.052 437.326 421.275 438.037 421.275 439.017V444H419.184V439.536C419.184 438.989 419.09 438.577 418.903 438.299C418.716 438.021 418.427 437.882 418.035 437.882C417.484 437.882 417.092 438.08 416.859 438.477C416.627 438.868 416.511 439.431 416.511 440.165V444H414.426V439.536C414.426 439.172 414.385 438.866 414.303 438.62C414.221 438.374 414.095 438.189 413.927 438.066C413.758 437.943 413.542 437.882 413.277 437.882C412.89 437.882 412.585 437.98 412.361 438.176C412.143 438.367 411.985 438.652 411.89 439.03C411.799 439.404 411.753 439.862 411.753 440.404V444H409.668V436.357H411.261L411.541 437.335H411.657C411.812 437.071 412.006 436.856 412.238 436.692C412.475 436.528 412.735 436.408 413.018 436.33C413.3 436.253 413.587 436.214 413.879 436.214C414.439 436.214 414.913 436.305 415.301 436.487C415.693 436.67 415.993 436.952 416.203 437.335H416.388C416.616 436.943 416.937 436.658 417.352 436.48C417.771 436.303 418.201 436.214 418.644 436.214Z" fill="white"/>
<g filter="url(#filter2_i_7228_1027)">
<rect x="104" y="489" width="565" height="53" rx="12" fill="#7759FF"/>
<rect x="104" y="489" width="565" height="53" rx="12" fill="url(#paint2_linear_7228_1027)" fill-opacity="0.1"/>
</g>
<rect x="104.5" y="489.5" width="564" height="52" rx="11.5" stroke="white" stroke-opacity="0.4"/>
<rect x="639" y="496" width="20" height="20" rx="5" fill="black" fill-opacity="0.2"/>
<path d="M649.601 505.456H652.335V506.673H649.601V509.435H648.384V506.673H645.656V505.456H648.384V502.667H649.601V505.456Z" fill="white"/>
<path d="M355.343 521H353.258V511.006H358.986V512.742H355.343V515.319H358.733V517.049H355.343V521ZM363.929 513.214C364.635 513.214 365.243 513.351 365.754 513.624C366.264 513.893 366.659 514.285 366.937 514.8C367.215 515.315 367.354 515.944 367.354 516.687V517.698H362.425C362.448 518.286 362.623 518.749 362.951 519.086C363.284 519.419 363.744 519.585 364.332 519.585C364.82 519.585 365.266 519.535 365.672 519.435C366.077 519.334 366.494 519.184 366.923 518.983V520.597C366.545 520.784 366.148 520.92 365.733 521.007C365.323 521.093 364.824 521.137 364.236 521.137C363.471 521.137 362.792 520.995 362.199 520.713C361.611 520.43 361.149 520 360.812 519.421C360.479 518.842 360.312 518.113 360.312 517.233C360.312 516.34 360.463 515.597 360.764 515.005C361.069 514.408 361.493 513.961 362.035 513.665C362.577 513.364 363.209 513.214 363.929 513.214ZM363.942 514.697C363.537 514.697 363.2 514.827 362.931 515.087C362.666 515.347 362.514 515.755 362.473 516.311H365.398C365.394 516.001 365.337 515.725 365.228 515.483C365.123 515.242 364.963 515.05 364.749 514.909C364.539 514.768 364.271 514.697 363.942 514.697ZM372.2 513.214C372.907 513.214 373.515 513.351 374.025 513.624C374.536 513.893 374.93 514.285 375.208 514.8C375.486 515.315 375.625 515.944 375.625 516.687V517.698H370.696C370.719 518.286 370.895 518.749 371.223 519.086C371.555 519.419 372.016 519.585 372.604 519.585C373.091 519.585 373.538 519.535 373.943 519.435C374.349 519.334 374.766 519.184 375.194 518.983V520.597C374.816 520.784 374.42 520.92 374.005 521.007C373.595 521.093 373.096 521.137 372.508 521.137C371.742 521.137 371.063 520.995 370.471 520.713C369.883 520.43 369.42 520 369.083 519.421C368.75 518.842 368.584 518.113 368.584 517.233C368.584 516.34 368.734 515.597 369.035 515.005C369.34 514.408 369.764 513.961 370.307 513.665C370.849 513.364 371.48 513.214 372.2 513.214ZM372.214 514.697C371.808 514.697 371.471 514.827 371.202 515.087C370.938 515.347 370.785 515.755 370.744 516.311H373.67C373.665 516.001 373.608 515.725 373.499 515.483C373.394 515.242 373.235 515.05 373.021 514.909C372.811 514.768 372.542 514.697 372.214 514.697ZM379.74 521.137C378.888 521.137 378.193 520.804 377.655 520.139C377.122 519.469 376.855 518.487 376.855 517.192C376.855 515.884 377.127 514.896 377.669 514.226C378.211 513.551 378.92 513.214 379.795 513.214C380.16 513.214 380.481 513.264 380.759 513.364C381.037 513.465 381.276 513.599 381.477 513.768C381.682 513.936 381.855 514.125 381.996 514.335H382.064C382.037 514.189 382.003 513.975 381.962 513.692C381.925 513.405 381.907 513.111 381.907 512.811V510.363H383.999V521H382.399L381.996 520.009H381.907C381.775 520.218 381.609 520.41 381.408 520.583C381.212 520.752 380.978 520.886 380.704 520.986C380.431 521.087 380.109 521.137 379.74 521.137ZM380.472 519.476C381.041 519.476 381.442 519.307 381.675 518.97C381.912 518.628 382.037 518.115 382.051 517.432V517.206C382.051 516.463 381.937 515.896 381.709 515.504C381.481 515.107 381.057 514.909 380.438 514.909C379.977 514.909 379.617 515.107 379.357 515.504C379.098 515.9 378.968 516.472 378.968 517.22C378.968 517.967 379.098 518.53 379.357 518.908C379.622 519.286 379.993 519.476 380.472 519.476ZM385.503 518.102V516.393H389.174V518.102H385.503ZM392.94 521H390.855V511.006H396.584V512.742H392.94V515.319H396.331V517.049H392.94V521ZM405.32 517.165C405.32 517.803 405.234 518.368 405.061 518.86C404.892 519.353 404.644 519.77 404.315 520.111C403.992 520.449 403.6 520.704 403.14 520.877C402.684 521.05 402.169 521.137 401.595 521.137C401.057 521.137 400.562 521.05 400.111 520.877C399.665 520.704 399.275 520.449 398.942 520.111C398.614 519.77 398.359 519.353 398.177 518.86C397.999 518.368 397.91 517.803 397.91 517.165C397.91 516.317 398.061 515.6 398.361 515.012C398.662 514.424 399.09 513.977 399.646 513.672C400.202 513.367 400.866 513.214 401.636 513.214C402.351 513.214 402.985 513.367 403.536 513.672C404.092 513.977 404.527 514.424 404.842 515.012C405.161 515.6 405.32 516.317 405.32 517.165ZM400.036 517.165C400.036 517.666 400.091 518.088 400.2 518.43C400.31 518.771 400.48 519.029 400.713 519.202C400.945 519.375 401.248 519.462 401.622 519.462C401.991 519.462 402.29 519.375 402.518 519.202C402.75 519.029 402.919 518.771 403.023 518.43C403.133 518.088 403.188 517.666 403.188 517.165C403.188 516.659 403.133 516.24 403.023 515.907C402.919 515.57 402.75 515.317 402.518 515.148C402.285 514.98 401.982 514.896 401.608 514.896C401.057 514.896 400.656 515.085 400.405 515.463C400.159 515.841 400.036 516.409 400.036 517.165ZM411.309 513.214C411.413 513.214 411.534 513.221 411.671 513.234C411.812 513.243 411.926 513.257 412.013 513.275L411.855 515.23C411.787 515.208 411.689 515.192 411.562 515.183C411.438 515.169 411.331 515.162 411.24 515.162C410.971 515.162 410.709 515.196 410.454 515.265C410.203 515.333 409.978 515.445 409.777 515.6C409.577 515.75 409.417 515.951 409.299 516.201C409.185 516.447 409.128 516.75 409.128 517.11V521H407.043V513.357H408.622L408.93 514.643H409.032C409.183 514.383 409.369 514.146 409.593 513.932C409.821 513.713 410.078 513.54 410.365 513.412C410.657 513.28 410.971 513.214 411.309 513.214ZM419.683 521L419.095 518.327C419.063 518.168 419.01 517.933 418.938 517.623C418.865 517.309 418.785 516.974 418.698 516.618C418.616 516.258 418.539 515.925 418.466 515.62C418.397 515.315 418.347 515.091 418.315 514.95H418.254C418.222 515.091 418.172 515.315 418.104 515.62C418.035 515.925 417.958 516.258 417.871 516.618C417.789 516.978 417.712 517.318 417.639 517.637C417.566 517.951 417.511 518.19 417.475 518.354L416.859 521H414.617L412.443 513.357H414.521L415.403 516.741C415.463 516.978 415.52 517.261 415.574 517.589C415.629 517.912 415.677 518.227 415.718 518.532C415.763 518.833 415.798 519.072 415.82 519.25H415.875C415.884 519.118 415.902 518.942 415.93 518.724C415.962 518.505 415.996 518.279 416.032 518.047C416.073 517.81 416.11 517.598 416.142 517.411C416.178 517.22 416.205 517.09 416.224 517.021L417.167 513.357H419.464L420.359 517.021C420.391 517.154 420.432 517.363 420.482 517.65C420.537 517.938 420.585 518.234 420.626 518.539C420.667 518.84 420.69 519.077 420.694 519.25H420.749C420.767 519.095 420.799 518.865 420.845 518.56C420.89 518.254 420.943 517.935 421.002 517.603C421.066 517.265 421.13 516.978 421.193 516.741L422.109 513.357H424.153L421.952 521H419.683ZM428.521 513.2C429.547 513.2 430.333 513.424 430.88 513.87C431.427 514.317 431.7 514.996 431.7 515.907V521H430.244L429.841 519.961H429.786C429.567 520.234 429.344 520.458 429.116 520.631C428.888 520.804 428.626 520.932 428.33 521.014C428.034 521.096 427.674 521.137 427.25 521.137C426.799 521.137 426.393 521.05 426.033 520.877C425.678 520.704 425.397 520.439 425.192 520.084C424.987 519.724 424.885 519.268 424.885 518.717C424.885 517.906 425.17 517.309 425.739 516.926C426.309 516.538 427.163 516.324 428.303 516.283L429.629 516.242V515.907C429.629 515.506 429.524 515.212 429.314 515.025C429.105 514.839 428.813 514.745 428.439 514.745C428.07 514.745 427.708 514.798 427.353 514.902C426.997 515.007 426.642 515.139 426.286 515.299L425.596 513.891C426.001 513.676 426.455 513.508 426.956 513.385C427.462 513.262 427.984 513.2 428.521 513.2ZM429.629 517.459L428.822 517.486C428.148 517.505 427.678 517.625 427.414 517.849C427.154 518.072 427.024 518.366 427.024 518.73C427.024 519.049 427.118 519.277 427.305 519.414C427.492 519.546 427.735 519.612 428.036 519.612C428.483 519.612 428.859 519.48 429.164 519.216C429.474 518.951 429.629 518.576 429.629 518.088V517.459ZM438.119 513.214C438.224 513.214 438.345 513.221 438.481 513.234C438.623 513.243 438.737 513.257 438.823 513.275L438.666 515.23C438.598 515.208 438.5 515.192 438.372 515.183C438.249 515.169 438.142 515.162 438.051 515.162C437.782 515.162 437.52 515.196 437.265 515.265C437.014 515.333 436.788 515.445 436.588 515.6C436.387 515.75 436.228 515.951 436.109 516.201C435.995 516.447 435.938 516.75 435.938 517.11V521H433.854V513.357H435.433L435.74 514.643H435.843C435.993 514.383 436.18 514.146 436.403 513.932C436.631 513.713 436.889 513.54 437.176 513.412C437.467 513.28 437.782 513.214 438.119 513.214ZM442.631 521.137C441.779 521.137 441.084 520.804 440.546 520.139C440.013 519.469 439.746 518.487 439.746 517.192C439.746 515.884 440.017 514.896 440.56 514.226C441.102 513.551 441.811 513.214 442.686 513.214C443.05 513.214 443.371 513.264 443.649 513.364C443.927 513.465 444.167 513.599 444.367 513.768C444.572 513.936 444.745 514.125 444.887 514.335H444.955C444.928 514.189 444.894 513.975 444.853 513.692C444.816 513.405 444.798 513.111 444.798 512.811V510.363H446.89V521H445.29L444.887 520.009H444.798C444.666 520.218 444.499 520.41 444.299 520.583C444.103 520.752 443.868 520.886 443.595 520.986C443.321 521.087 443 521.137 442.631 521.137ZM443.362 519.476C443.932 519.476 444.333 519.307 444.565 518.97C444.802 518.628 444.928 518.115 444.941 517.432V517.206C444.941 516.463 444.827 515.896 444.6 515.504C444.372 515.107 443.948 514.909 443.328 514.909C442.868 514.909 442.508 515.107 442.248 515.504C441.988 515.9 441.858 516.472 441.858 517.22C441.858 517.967 441.988 518.53 442.248 518.908C442.512 519.286 442.884 519.476 443.362 519.476Z" fill="white"/>
<g filter="url(#filter3_i_7228_1027)">
<rect x="104" y="275" width="565" height="53" rx="12" fill="#01A7BA"/>
<rect x="104" y="275" width="565" height="53" rx="12" fill="url(#paint3_linear_7228_1027)" fill-opacity="0.1"/>
</g>
<rect x="104.5" y="275.5" width="564" height="52" rx="11.5" stroke="white" stroke-opacity="0.4"/>
<rect x="639" y="282" width="20" height="20" rx="5" fill="black" fill-opacity="0.2"/>
<path d="M649.601 291.456H652.335V292.673H649.601V295.435H648.384V292.673H645.656V291.456H648.384V288.667H649.601V291.456Z" fill="white"/>
<path d="M359.376 307L358.651 304.621H355.008L354.283 307H352L355.527 296.965H358.118L361.659 307H359.376ZM358.146 302.844L357.421 300.52C357.375 300.365 357.314 300.166 357.236 299.925C357.163 299.679 357.088 299.43 357.011 299.18C356.938 298.924 356.879 298.703 356.833 298.517C356.787 298.703 356.724 298.936 356.642 299.214C356.564 299.487 356.489 299.747 356.416 299.993C356.343 300.239 356.291 300.415 356.259 300.52L355.541 302.844H358.146ZM365.979 305.476C366.207 305.476 366.428 305.453 366.643 305.407C366.861 305.362 367.078 305.305 367.292 305.236V306.788C367.069 306.888 366.791 306.97 366.458 307.034C366.13 307.103 365.77 307.137 365.378 307.137C364.922 307.137 364.512 307.064 364.147 306.918C363.787 306.768 363.503 306.51 363.293 306.146C363.088 305.776 362.985 305.264 362.985 304.607V300.923H361.987V300.041L363.136 299.344L363.737 297.73H365.07V299.357H367.21V300.923H365.07V304.607C365.07 304.899 365.152 305.118 365.316 305.264C365.485 305.405 365.706 305.476 365.979 305.476ZM372.063 305.476C372.291 305.476 372.512 305.453 372.727 305.407C372.945 305.362 373.162 305.305 373.376 305.236V306.788C373.153 306.888 372.875 306.97 372.542 307.034C372.214 307.103 371.854 307.137 371.462 307.137C371.006 307.137 370.596 307.064 370.231 306.918C369.871 306.768 369.587 306.51 369.377 306.146C369.172 305.776 369.069 305.264 369.069 304.607V300.923H368.071V300.041L369.22 299.344L369.821 297.73H371.154V299.357H373.294V300.923H371.154V304.607C371.154 304.899 371.236 305.118 371.4 305.264C371.569 305.405 371.79 305.476 372.063 305.476ZM378.079 299.214C378.785 299.214 379.394 299.351 379.904 299.624C380.415 299.893 380.809 300.285 381.087 300.8C381.365 301.315 381.504 301.944 381.504 302.687V303.698H376.575C376.598 304.286 376.773 304.749 377.102 305.086C377.434 305.419 377.895 305.585 378.482 305.585C378.97 305.585 379.417 305.535 379.822 305.435C380.228 305.334 380.645 305.184 381.073 304.983V306.597C380.695 306.784 380.299 306.92 379.884 307.007C379.474 307.093 378.975 307.137 378.387 307.137C377.621 307.137 376.942 306.995 376.35 306.713C375.762 306.43 375.299 306 374.962 305.421C374.629 304.842 374.463 304.113 374.463 303.233C374.463 302.34 374.613 301.597 374.914 301.005C375.219 300.408 375.643 299.961 376.186 299.665C376.728 299.364 377.359 299.214 378.079 299.214ZM378.093 300.697C377.687 300.697 377.35 300.827 377.081 301.087C376.817 301.347 376.664 301.755 376.623 302.311H379.549C379.544 302.001 379.487 301.725 379.378 301.483C379.273 301.242 379.114 301.05 378.899 300.909C378.69 300.768 378.421 300.697 378.093 300.697ZM387.54 299.214C388.356 299.214 389.012 299.437 389.509 299.884C390.006 300.326 390.254 301.037 390.254 302.017V307H388.169V302.536C388.169 301.989 388.069 301.577 387.868 301.299C387.672 301.021 387.362 300.882 386.938 300.882C386.3 300.882 385.865 301.098 385.633 301.531C385.4 301.964 385.284 302.589 385.284 303.404V307H383.199V299.357H384.792L385.072 300.335H385.188C385.353 300.071 385.555 299.856 385.797 299.692C386.043 299.528 386.314 299.408 386.61 299.33C386.911 299.253 387.221 299.214 387.54 299.214ZM395.62 305.476C395.848 305.476 396.069 305.453 396.283 305.407C396.502 305.362 396.718 305.305 396.933 305.236V306.788C396.709 306.888 396.431 306.97 396.099 307.034C395.771 307.103 395.41 307.137 395.019 307.137C394.563 307.137 394.153 307.064 393.788 306.918C393.428 306.768 393.143 306.51 392.934 306.146C392.729 305.776 392.626 305.264 392.626 304.607V300.923H391.628V300.041L392.776 299.344L393.378 297.73H394.711V299.357H396.851V300.923H394.711V304.607C394.711 304.899 394.793 305.118 394.957 305.264C395.126 305.405 395.347 305.476 395.62 305.476ZM400.569 299.357V307H398.484V299.357H400.569ZM399.53 296.363C399.84 296.363 400.107 296.436 400.33 296.582C400.553 296.723 400.665 296.99 400.665 297.382C400.665 297.769 400.553 298.038 400.33 298.188C400.107 298.334 399.84 298.407 399.53 298.407C399.216 298.407 398.947 298.334 398.724 298.188C398.505 298.038 398.396 297.769 398.396 297.382C398.396 296.99 398.505 296.723 398.724 296.582C398.947 296.436 399.216 296.363 399.53 296.363ZM409.709 303.165C409.709 303.803 409.622 304.368 409.449 304.86C409.281 305.353 409.032 305.77 408.704 306.111C408.381 306.449 407.989 306.704 407.528 306.877C407.073 307.05 406.558 307.137 405.983 307.137C405.446 307.137 404.951 307.05 404.5 306.877C404.053 306.704 403.664 306.449 403.331 306.111C403.003 305.77 402.748 305.353 402.565 304.86C402.388 304.368 402.299 303.803 402.299 303.165C402.299 302.317 402.449 301.6 402.75 301.012C403.051 300.424 403.479 299.977 404.035 299.672C404.591 299.367 405.254 299.214 406.024 299.214C406.74 299.214 407.373 299.367 407.925 299.672C408.481 299.977 408.916 300.424 409.23 301.012C409.549 301.6 409.709 302.317 409.709 303.165ZM404.425 303.165C404.425 303.666 404.479 304.088 404.589 304.43C404.698 304.771 404.869 305.029 405.102 305.202C405.334 305.375 405.637 305.462 406.011 305.462C406.38 305.462 406.678 305.375 406.906 305.202C407.139 305.029 407.307 304.771 407.412 304.43C407.521 304.088 407.576 303.666 407.576 303.165C407.576 302.659 407.521 302.24 407.412 301.907C407.307 301.57 407.139 301.317 406.906 301.148C406.674 300.98 406.371 300.896 405.997 300.896C405.446 300.896 405.045 301.085 404.794 301.463C404.548 301.841 404.425 302.409 404.425 303.165ZM415.772 299.214C416.588 299.214 417.244 299.437 417.741 299.884C418.238 300.326 418.486 301.037 418.486 302.017V307H416.401V302.536C416.401 301.989 416.301 301.577 416.101 301.299C415.905 301.021 415.595 300.882 415.171 300.882C414.533 300.882 414.098 301.098 413.865 301.531C413.633 301.964 413.517 302.589 413.517 303.404V307H411.432V299.357H413.024L413.305 300.335H413.421C413.585 300.071 413.788 299.856 414.029 299.692C414.275 299.528 414.547 299.408 414.843 299.33C415.144 299.253 415.453 299.214 415.772 299.214Z" fill="white"/>
<rect x="104.5" y="0.5" width="564" height="54" rx="11.5" fill="#2D2D2D" stroke="#474747"/>
<path d="M352.447 33H350.335V28.6865H346.377V33H344.258V23.0059H346.377V26.9229H350.335V23.0059H352.447V33ZM356.897 25.3574V33H354.812V25.3574H356.897ZM355.858 22.3633C356.168 22.3633 356.435 22.4362 356.658 22.582C356.882 22.7233 356.993 22.9899 356.993 23.3818C356.993 23.7692 356.882 24.0381 356.658 24.1885C356.435 24.3343 356.168 24.4072 355.858 24.4072C355.544 24.4072 355.275 24.3343 355.052 24.1885C354.833 24.0381 354.724 23.7692 354.724 23.3818C354.724 22.9899 354.833 22.7233 355.052 22.582C355.275 22.4362 355.544 22.3633 355.858 22.3633ZM361.512 33.1367C360.66 33.1367 359.965 32.804 359.427 32.1387C358.894 31.4688 358.627 30.4867 358.627 29.1924C358.627 27.8844 358.898 26.8955 359.44 26.2256C359.983 25.5511 360.691 25.2139 361.566 25.2139C361.931 25.2139 362.252 25.264 362.53 25.3643C362.808 25.4645 363.048 25.599 363.248 25.7676C363.453 25.9362 363.626 26.1253 363.768 26.335H363.836C363.809 26.1891 363.774 25.9749 363.733 25.6924C363.697 25.4053 363.679 25.1113 363.679 24.8105V22.3633H365.771V33H364.171L363.768 32.0088H363.679C363.547 32.2184 363.38 32.4098 363.18 32.583C362.984 32.7516 362.749 32.8861 362.476 32.9863C362.202 33.0866 361.881 33.1367 361.512 33.1367ZM362.243 31.4756C362.813 31.4756 363.214 31.307 363.446 30.9697C363.683 30.6279 363.809 30.1152 363.822 29.4316V29.2061C363.822 28.4632 363.708 27.8958 363.48 27.5039C363.253 27.1074 362.829 26.9092 362.209 26.9092C361.749 26.9092 361.389 27.1074 361.129 27.5039C360.869 27.9004 360.739 28.4723 360.739 29.2197C360.739 29.9671 360.869 30.5299 361.129 30.9082C361.393 31.2865 361.765 31.4756 362.243 31.4756ZM370.371 33.1367C369.519 33.1367 368.824 32.804 368.286 32.1387C367.753 31.4688 367.486 30.4867 367.486 29.1924C367.486 27.8844 367.757 26.8955 368.3 26.2256C368.842 25.5511 369.551 25.2139 370.426 25.2139C370.79 25.2139 371.112 25.264 371.39 25.3643C371.668 25.4645 371.907 25.599 372.107 25.7676C372.312 25.9362 372.486 26.1253 372.627 26.335H372.695C372.668 26.1891 372.634 25.9749 372.593 25.6924C372.556 25.4053 372.538 25.1113 372.538 24.8105V22.3633H374.63V33H373.03L372.627 32.0088H372.538C372.406 32.2184 372.24 32.4098 372.039 32.583C371.843 32.7516 371.608 32.8861 371.335 32.9863C371.062 33.0866 370.74 33.1367 370.371 33.1367ZM371.103 31.4756C371.672 31.4756 372.073 31.307 372.306 30.9697C372.543 30.6279 372.668 30.1152 372.682 29.4316V29.2061C372.682 28.4632 372.568 27.8958 372.34 27.5039C372.112 27.1074 371.688 26.9092 371.068 26.9092C370.608 26.9092 370.248 27.1074 369.988 27.5039C369.729 27.9004 369.599 28.4723 369.599 29.2197C369.599 29.9671 369.729 30.5299 369.988 30.9082C370.253 31.2865 370.624 31.4756 371.103 31.4756ZM379.962 25.2139C380.668 25.2139 381.277 25.3506 381.787 25.624C382.298 25.8929 382.692 26.2848 382.97 26.7998C383.248 27.3148 383.387 27.9437 383.387 28.6865V29.6982H378.458C378.481 30.2861 378.656 30.7487 378.984 31.0859C379.317 31.4186 379.777 31.585 380.365 31.585C380.853 31.585 381.299 31.5348 381.705 31.4346C382.111 31.3343 382.528 31.1839 382.956 30.9834V32.5967C382.578 32.7835 382.181 32.9202 381.767 33.0068C381.356 33.0934 380.857 33.1367 380.27 33.1367C379.504 33.1367 378.825 32.9954 378.232 32.7129C377.645 32.4303 377.182 31.9997 376.845 31.4209C376.512 30.8421 376.346 30.113 376.346 29.2334C376.346 28.3402 376.496 27.5973 376.797 27.0049C377.102 26.4079 377.526 25.9613 378.068 25.665C378.611 25.3643 379.242 25.2139 379.962 25.2139ZM379.976 26.6973C379.57 26.6973 379.233 26.8271 378.964 27.0869C378.7 27.3467 378.547 27.7546 378.506 28.3105H381.432C381.427 28.0007 381.37 27.7249 381.261 27.4834C381.156 27.2419 380.996 27.0505 380.782 26.9092C380.573 26.7679 380.304 26.6973 379.976 26.6973ZM389.423 25.2139C390.239 25.2139 390.895 25.4372 391.392 25.8838C391.888 26.3258 392.137 27.0368 392.137 28.0166V33H390.052V28.5361C390.052 27.9893 389.951 27.5768 389.751 27.2988C389.555 27.0208 389.245 26.8818 388.821 26.8818C388.183 26.8818 387.748 27.0983 387.516 27.5312C387.283 27.9642 387.167 28.5885 387.167 29.4043V33H385.082V25.3574H386.675L386.955 26.335H387.071C387.235 26.0706 387.438 25.8564 387.68 25.6924C387.926 25.5283 388.197 25.4076 388.493 25.3301C388.794 25.2526 389.104 25.2139 389.423 25.2139ZM403.252 30.7305C403.252 31.25 403.129 31.6898 402.883 32.0498C402.641 32.4053 402.279 32.6764 401.796 32.8633C401.313 33.0456 400.711 33.1367 399.991 33.1367C399.458 33.1367 399 33.1025 398.617 33.0342C398.239 32.9658 397.856 32.8519 397.469 32.6924V30.9697C397.883 31.1566 398.328 31.3115 398.802 31.4346C399.28 31.5531 399.7 31.6123 400.06 31.6123C400.465 31.6123 400.755 31.5531 400.928 31.4346C401.105 31.3115 401.194 31.152 401.194 30.9561C401.194 30.8285 401.158 30.7145 401.085 30.6143C401.017 30.5094 400.866 30.3932 400.634 30.2656C400.401 30.1335 400.037 29.9626 399.54 29.7529C399.062 29.5524 398.667 29.3496 398.357 29.1445C398.052 28.9395 397.824 28.6979 397.674 28.4199C397.528 28.1374 397.455 27.7796 397.455 27.3467C397.455 26.6403 397.729 26.1094 398.275 25.7539C398.827 25.3939 399.563 25.2139 400.483 25.2139C400.957 25.2139 401.409 25.2617 401.837 25.3574C402.27 25.4531 402.714 25.6058 403.17 25.8154L402.541 27.3193C402.163 27.1553 401.805 27.0208 401.468 26.916C401.135 26.8112 400.796 26.7588 400.449 26.7588C400.144 26.7588 399.914 26.7998 399.759 26.8818C399.604 26.9639 399.526 27.0892 399.526 27.2578C399.526 27.3809 399.565 27.4902 399.643 27.5859C399.725 27.6816 399.88 27.7887 400.107 27.9072C400.34 28.0212 400.679 28.1693 401.126 28.3516C401.559 28.5293 401.935 28.7161 402.254 28.9121C402.573 29.1035 402.819 29.3428 402.992 29.6299C403.165 29.9124 403.252 30.2793 403.252 30.7305ZM408.099 31.4756C408.326 31.4756 408.548 31.4528 408.762 31.4072C408.98 31.3617 409.197 31.3047 409.411 31.2363V32.7881C409.188 32.8883 408.91 32.9704 408.577 33.0342C408.249 33.1025 407.889 33.1367 407.497 33.1367C407.041 33.1367 406.631 33.0638 406.267 32.918C405.907 32.7676 405.622 32.5101 405.412 32.1455C405.207 31.7764 405.104 31.2637 405.104 30.6074V26.9229H404.106V26.041L405.255 25.3438L405.856 23.7305H407.189V25.3574H409.329V26.9229H407.189V30.6074C407.189 30.8991 407.271 31.1178 407.436 31.2637C407.604 31.4049 407.825 31.4756 408.099 31.4756ZM414.094 25.2002C415.119 25.2002 415.905 25.4235 416.452 25.8701C416.999 26.3167 417.272 26.9958 417.272 27.9072V33H415.816L415.413 31.9609H415.358C415.14 32.2344 414.916 32.4577 414.688 32.6309C414.461 32.804 414.199 32.9316 413.902 33.0137C413.606 33.0957 413.246 33.1367 412.822 33.1367C412.371 33.1367 411.965 33.0501 411.605 32.877C411.25 32.7038 410.97 32.4395 410.765 32.084C410.56 31.724 410.457 31.2682 410.457 30.7168C410.457 29.9056 410.742 29.3086 411.312 28.9258C411.881 28.5384 412.736 28.3242 413.875 28.2832L415.201 28.2422V27.9072C415.201 27.5062 415.096 27.2122 414.887 27.0254C414.677 26.8385 414.385 26.7451 414.012 26.7451C413.643 26.7451 413.28 26.7975 412.925 26.9023C412.569 27.0072 412.214 27.1393 411.858 27.2988L411.168 25.8906C411.574 25.6764 412.027 25.5078 412.528 25.3848C413.034 25.2617 413.556 25.2002 414.094 25.2002ZM415.201 29.459L414.395 29.4863C413.72 29.5046 413.251 29.6253 412.986 29.8486C412.727 30.0719 412.597 30.3659 412.597 30.7305C412.597 31.0495 412.69 31.2773 412.877 31.4141C413.064 31.5462 413.308 31.6123 413.608 31.6123C414.055 31.6123 414.431 31.4801 414.736 31.2158C415.046 30.9515 415.201 30.5755 415.201 30.0879V29.459ZM422.646 31.4756C422.873 31.4756 423.094 31.4528 423.309 31.4072C423.527 31.3617 423.744 31.3047 423.958 31.2363V32.7881C423.735 32.8883 423.457 32.9704 423.124 33.0342C422.796 33.1025 422.436 33.1367 422.044 33.1367C421.588 33.1367 421.178 33.0638 420.813 32.918C420.453 32.7676 420.169 32.5101 419.959 32.1455C419.754 31.7764 419.651 31.2637 419.651 30.6074V26.9229H418.653V26.041L419.802 25.3438L420.403 23.7305H421.736V25.3574H423.876V26.9229H421.736V30.6074C421.736 30.8991 421.818 31.1178 421.982 31.2637C422.151 31.4049 422.372 31.4756 422.646 31.4756ZM428.661 25.2139C429.368 25.2139 429.976 25.3506 430.486 25.624C430.997 25.8929 431.391 26.2848 431.669 26.7998C431.947 27.3148 432.086 27.9437 432.086 28.6865V29.6982H427.157C427.18 30.2861 427.355 30.7487 427.684 31.0859C428.016 31.4186 428.477 31.585 429.064 31.585C429.552 31.585 429.999 31.5348 430.404 31.4346C430.81 31.3343 431.227 31.1839 431.655 30.9834V32.5967C431.277 32.7835 430.881 32.9202 430.466 33.0068C430.056 33.0934 429.557 33.1367 428.969 33.1367C428.203 33.1367 427.524 32.9954 426.932 32.7129C426.344 32.4303 425.881 31.9997 425.544 31.4209C425.211 30.8421 425.045 30.113 425.045 29.2334C425.045 28.3402 425.195 27.5973 425.496 27.0049C425.801 26.4079 426.225 25.9613 426.768 25.665C427.31 25.3643 427.941 25.2139 428.661 25.2139ZM428.675 26.6973C428.269 26.6973 427.932 26.8271 427.663 27.0869C427.399 27.3467 427.246 27.7546 427.205 28.3105H430.131C430.126 28.0007 430.069 27.7249 429.96 27.4834C429.855 27.2419 429.696 27.0505 429.481 26.9092C429.272 26.7679 429.003 26.6973 428.675 26.6973ZM439.503 25.3574V33H437.418V25.3574H439.503ZM438.464 22.3633C438.774 22.3633 439.04 22.4362 439.264 22.582C439.487 22.7233 439.599 22.9899 439.599 23.3818C439.599 23.7692 439.487 24.0381 439.264 24.1885C439.04 24.3343 438.774 24.4072 438.464 24.4072C438.149 24.4072 437.881 24.3343 437.657 24.1885C437.438 24.0381 437.329 23.7692 437.329 23.3818C437.329 22.9899 437.438 22.7233 437.657 22.582C437.881 22.4362 438.149 22.3633 438.464 22.3633ZM446.038 25.2139C446.854 25.2139 447.51 25.4372 448.007 25.8838C448.504 26.3258 448.752 27.0368 448.752 28.0166V33H446.667V28.5361C446.667 27.9893 446.567 27.5768 446.366 27.2988C446.17 27.0208 445.86 26.8818 445.437 26.8818C444.799 26.8818 444.363 27.0983 444.131 27.5312C443.898 27.9642 443.782 28.5885 443.782 29.4043V33H441.697V25.3574H443.29L443.57 26.335H443.687C443.851 26.0706 444.053 25.8564 444.295 25.6924C444.541 25.5283 444.812 25.4076 445.108 25.3301C445.409 25.2526 445.719 25.2139 446.038 25.2139Z" fill="white"/>
<rect x="104.5" y="677.5" width="564" height="54" rx="11.5" fill="#2D2D2D" stroke="#474747"/>
<path d="M352.447 710H350.335V705.687H346.377V710H344.258V700.006H346.377V703.923H350.335V700.006H352.447V710ZM356.897 702.357V710H354.812V702.357H356.897ZM355.858 699.363C356.168 699.363 356.435 699.436 356.658 699.582C356.882 699.723 356.993 699.99 356.993 700.382C356.993 700.769 356.882 701.038 356.658 701.188C356.435 701.334 356.168 701.407 355.858 701.407C355.544 701.407 355.275 701.334 355.052 701.188C354.833 701.038 354.724 700.769 354.724 700.382C354.724 699.99 354.833 699.723 355.052 699.582C355.275 699.436 355.544 699.363 355.858 699.363ZM361.512 710.137C360.66 710.137 359.965 709.804 359.427 709.139C358.894 708.469 358.627 707.487 358.627 706.192C358.627 704.884 358.898 703.896 359.44 703.226C359.983 702.551 360.691 702.214 361.566 702.214C361.931 702.214 362.252 702.264 362.53 702.364C362.808 702.465 363.048 702.599 363.248 702.768C363.453 702.936 363.626 703.125 363.768 703.335H363.836C363.809 703.189 363.774 702.975 363.733 702.692C363.697 702.405 363.679 702.111 363.679 701.811V699.363H365.771V710H364.171L363.768 709.009H363.679C363.547 709.218 363.38 709.41 363.18 709.583C362.984 709.752 362.749 709.886 362.476 709.986C362.202 710.087 361.881 710.137 361.512 710.137ZM362.243 708.476C362.813 708.476 363.214 708.307 363.446 707.97C363.683 707.628 363.809 707.115 363.822 706.432V706.206C363.822 705.463 363.708 704.896 363.48 704.504C363.253 704.107 362.829 703.909 362.209 703.909C361.749 703.909 361.389 704.107 361.129 704.504C360.869 704.9 360.739 705.472 360.739 706.22C360.739 706.967 360.869 707.53 361.129 707.908C361.393 708.286 361.765 708.476 362.243 708.476ZM370.371 710.137C369.519 710.137 368.824 709.804 368.286 709.139C367.753 708.469 367.486 707.487 367.486 706.192C367.486 704.884 367.757 703.896 368.3 703.226C368.842 702.551 369.551 702.214 370.426 702.214C370.79 702.214 371.112 702.264 371.39 702.364C371.668 702.465 371.907 702.599 372.107 702.768C372.312 702.936 372.486 703.125 372.627 703.335H372.695C372.668 703.189 372.634 702.975 372.593 702.692C372.556 702.405 372.538 702.111 372.538 701.811V699.363H374.63V710H373.03L372.627 709.009H372.538C372.406 709.218 372.24 709.41 372.039 709.583C371.843 709.752 371.608 709.886 371.335 709.986C371.062 710.087 370.74 710.137 370.371 710.137ZM371.103 708.476C371.672 708.476 372.073 708.307 372.306 707.97C372.543 707.628 372.668 707.115 372.682 706.432V706.206C372.682 705.463 372.568 704.896 372.34 704.504C372.112 704.107 371.688 703.909 371.068 703.909C370.608 703.909 370.248 704.107 369.988 704.504C369.729 704.9 369.599 705.472 369.599 706.22C369.599 706.967 369.729 707.53 369.988 707.908C370.253 708.286 370.624 708.476 371.103 708.476ZM379.962 702.214C380.668 702.214 381.277 702.351 381.787 702.624C382.298 702.893 382.692 703.285 382.97 703.8C383.248 704.315 383.387 704.944 383.387 705.687V706.698H378.458C378.481 707.286 378.656 707.749 378.984 708.086C379.317 708.419 379.777 708.585 380.365 708.585C380.853 708.585 381.299 708.535 381.705 708.435C382.111 708.334 382.528 708.184 382.956 707.983V709.597C382.578 709.784 382.181 709.92 381.767 710.007C381.356 710.093 380.857 710.137 380.27 710.137C379.504 710.137 378.825 709.995 378.232 709.713C377.645 709.43 377.182 709 376.845 708.421C376.512 707.842 376.346 707.113 376.346 706.233C376.346 705.34 376.496 704.597 376.797 704.005C377.102 703.408 377.526 702.961 378.068 702.665C378.611 702.364 379.242 702.214 379.962 702.214ZM379.976 703.697C379.57 703.697 379.233 703.827 378.964 704.087C378.7 704.347 378.547 704.755 378.506 705.311H381.432C381.427 705.001 381.37 704.725 381.261 704.483C381.156 704.242 380.996 704.05 380.782 703.909C380.573 703.768 380.304 703.697 379.976 703.697ZM389.423 702.214C390.239 702.214 390.895 702.437 391.392 702.884C391.888 703.326 392.137 704.037 392.137 705.017V710H390.052V705.536C390.052 704.989 389.951 704.577 389.751 704.299C389.555 704.021 389.245 703.882 388.821 703.882C388.183 703.882 387.748 704.098 387.516 704.531C387.283 704.964 387.167 705.589 387.167 706.404V710H385.082V702.357H386.675L386.955 703.335H387.071C387.235 703.071 387.438 702.856 387.68 702.692C387.926 702.528 388.197 702.408 388.493 702.33C388.794 702.253 389.104 702.214 389.423 702.214ZM403.252 707.73C403.252 708.25 403.129 708.69 402.883 709.05C402.641 709.405 402.279 709.676 401.796 709.863C401.313 710.046 400.711 710.137 399.991 710.137C399.458 710.137 399 710.103 398.617 710.034C398.239 709.966 397.856 709.852 397.469 709.692V707.97C397.883 708.157 398.328 708.312 398.802 708.435C399.28 708.553 399.7 708.612 400.06 708.612C400.465 708.612 400.755 708.553 400.928 708.435C401.105 708.312 401.194 708.152 401.194 707.956C401.194 707.828 401.158 707.715 401.085 707.614C401.017 707.509 400.866 707.393 400.634 707.266C400.401 707.133 400.037 706.963 399.54 706.753C399.062 706.552 398.667 706.35 398.357 706.145C398.052 705.939 397.824 705.698 397.674 705.42C397.528 705.137 397.455 704.78 397.455 704.347C397.455 703.64 397.729 703.109 398.275 702.754C398.827 702.394 399.563 702.214 400.483 702.214C400.957 702.214 401.409 702.262 401.837 702.357C402.27 702.453 402.714 702.606 403.17 702.815L402.541 704.319C402.163 704.155 401.805 704.021 401.468 703.916C401.135 703.811 400.796 703.759 400.449 703.759C400.144 703.759 399.914 703.8 399.759 703.882C399.604 703.964 399.526 704.089 399.526 704.258C399.526 704.381 399.565 704.49 399.643 704.586C399.725 704.682 399.88 704.789 400.107 704.907C400.34 705.021 400.679 705.169 401.126 705.352C401.559 705.529 401.935 705.716 402.254 705.912C402.573 706.104 402.819 706.343 402.992 706.63C403.165 706.912 403.252 707.279 403.252 707.73ZM408.099 708.476C408.326 708.476 408.548 708.453 408.762 708.407C408.98 708.362 409.197 708.305 409.411 708.236V709.788C409.188 709.888 408.91 709.97 408.577 710.034C408.249 710.103 407.889 710.137 407.497 710.137C407.041 710.137 406.631 710.064 406.267 709.918C405.907 709.768 405.622 709.51 405.412 709.146C405.207 708.776 405.104 708.264 405.104 707.607V703.923H404.106V703.041L405.255 702.344L405.856 700.73H407.189V702.357H409.329V703.923H407.189V707.607C407.189 707.899 407.271 708.118 407.436 708.264C407.604 708.405 407.825 708.476 408.099 708.476ZM414.094 702.2C415.119 702.2 415.905 702.424 416.452 702.87C416.999 703.317 417.272 703.996 417.272 704.907V710H415.816L415.413 708.961H415.358C415.14 709.234 414.916 709.458 414.688 709.631C414.461 709.804 414.199 709.932 413.902 710.014C413.606 710.096 413.246 710.137 412.822 710.137C412.371 710.137 411.965 710.05 411.605 709.877C411.25 709.704 410.97 709.439 410.765 709.084C410.56 708.724 410.457 708.268 410.457 707.717C410.457 706.906 410.742 706.309 411.312 705.926C411.881 705.538 412.736 705.324 413.875 705.283L415.201 705.242V704.907C415.201 704.506 415.096 704.212 414.887 704.025C414.677 703.839 414.385 703.745 414.012 703.745C413.643 703.745 413.28 703.798 412.925 703.902C412.569 704.007 412.214 704.139 411.858 704.299L411.168 702.891C411.574 702.676 412.027 702.508 412.528 702.385C413.034 702.262 413.556 702.2 414.094 702.2ZM415.201 706.459L414.395 706.486C413.72 706.505 413.251 706.625 412.986 706.849C412.727 707.072 412.597 707.366 412.597 707.73C412.597 708.049 412.69 708.277 412.877 708.414C413.064 708.546 413.308 708.612 413.608 708.612C414.055 708.612 414.431 708.48 414.736 708.216C415.046 707.951 415.201 707.576 415.201 707.088V706.459ZM422.646 708.476C422.873 708.476 423.094 708.453 423.309 708.407C423.527 708.362 423.744 708.305 423.958 708.236V709.788C423.735 709.888 423.457 709.97 423.124 710.034C422.796 710.103 422.436 710.137 422.044 710.137C421.588 710.137 421.178 710.064 420.813 709.918C420.453 709.768 420.169 709.51 419.959 709.146C419.754 708.776 419.651 708.264 419.651 707.607V703.923H418.653V703.041L419.802 702.344L420.403 700.73H421.736V702.357H423.876V703.923H421.736V707.607C421.736 707.899 421.818 708.118 421.982 708.264C422.151 708.405 422.372 708.476 422.646 708.476ZM428.661 702.214C429.368 702.214 429.976 702.351 430.486 702.624C430.997 702.893 431.391 703.285 431.669 703.8C431.947 704.315 432.086 704.944 432.086 705.687V706.698H427.157C427.18 707.286 427.355 707.749 427.684 708.086C428.016 708.419 428.477 708.585 429.064 708.585C429.552 708.585 429.999 708.535 430.404 708.435C430.81 708.334 431.227 708.184 431.655 707.983V709.597C431.277 709.784 430.881 709.92 430.466 710.007C430.056 710.093 429.557 710.137 428.969 710.137C428.203 710.137 427.524 709.995 426.932 709.713C426.344 709.43 425.881 709 425.544 708.421C425.211 707.842 425.045 707.113 425.045 706.233C425.045 705.34 425.195 704.597 425.496 704.005C425.801 703.408 426.225 702.961 426.768 702.665C427.31 702.364 427.941 702.214 428.661 702.214ZM428.675 703.697C428.269 703.697 427.932 703.827 427.663 704.087C427.399 704.347 427.246 704.755 427.205 705.311H430.131C430.126 705.001 430.069 704.725 429.96 704.483C429.855 704.242 429.696 704.05 429.481 703.909C429.272 703.768 429.003 703.697 428.675 703.697ZM444.363 706.165C444.363 706.803 444.277 707.368 444.104 707.86C443.935 708.353 443.687 708.77 443.358 709.111C443.035 709.449 442.643 709.704 442.183 709.877C441.727 710.05 441.212 710.137 440.638 710.137C440.1 710.137 439.605 710.05 439.154 709.877C438.708 709.704 438.318 709.449 437.985 709.111C437.657 708.77 437.402 708.353 437.22 707.86C437.042 707.368 436.953 706.803 436.953 706.165C436.953 705.317 437.104 704.6 437.404 704.012C437.705 703.424 438.133 702.977 438.689 702.672C439.245 702.367 439.909 702.214 440.679 702.214C441.394 702.214 442.028 702.367 442.579 702.672C443.135 702.977 443.57 703.424 443.885 704.012C444.204 704.6 444.363 705.317 444.363 706.165ZM439.079 706.165C439.079 706.666 439.134 707.088 439.243 707.43C439.353 707.771 439.523 708.029 439.756 708.202C439.988 708.375 440.291 708.462 440.665 708.462C441.034 708.462 441.333 708.375 441.561 708.202C441.793 708.029 441.962 707.771 442.066 707.43C442.176 707.088 442.23 706.666 442.23 706.165C442.23 705.659 442.176 705.24 442.066 704.907C441.962 704.57 441.793 704.317 441.561 704.148C441.328 703.98 441.025 703.896 440.651 703.896C440.1 703.896 439.699 704.085 439.448 704.463C439.202 704.841 439.079 705.409 439.079 706.165ZM453.1 702.357V710H451.5L451.22 709.022H451.11C450.946 709.282 450.741 709.494 450.495 709.658C450.249 709.822 449.978 709.943 449.682 710.021C449.385 710.098 449.078 710.137 448.759 710.137C448.212 710.137 447.736 710.041 447.33 709.85C446.924 709.654 446.608 709.351 446.38 708.94C446.157 708.53 446.045 707.997 446.045 707.341V702.357H448.13V706.821C448.13 707.368 448.228 707.781 448.424 708.059C448.62 708.337 448.932 708.476 449.36 708.476C449.784 708.476 450.117 708.38 450.358 708.188C450.6 707.993 450.769 707.708 450.864 707.334C450.965 706.956 451.015 706.495 451.015 705.953V702.357H453.1ZM458.507 708.476C458.735 708.476 458.956 708.453 459.17 708.407C459.389 708.362 459.605 708.305 459.819 708.236V709.788C459.596 709.888 459.318 709.97 458.985 710.034C458.657 710.103 458.297 710.137 457.905 710.137C457.45 710.137 457.039 710.064 456.675 709.918C456.315 709.768 456.03 709.51 455.82 709.146C455.615 708.776 455.513 708.264 455.513 707.607V703.923H454.515V703.041L455.663 702.344L456.265 700.73H457.598V702.357H459.737V703.923H457.598V707.607C457.598 707.899 457.68 708.118 457.844 708.264C458.012 708.405 458.233 708.476 458.507 708.476Z" fill="white"/>
<path d="M386.646 188.354C386.842 188.549 387.158 188.549 387.354 188.354L390.536 185.172C390.731 184.976 390.731 184.66 390.536 184.464C390.34 184.269 390.024 184.269 389.828 184.464L387 187.293L384.172 184.464C383.976 184.269 383.66 184.269 383.464 184.464C383.269 184.66 383.269 184.976 383.464 185.172L386.646 188.354ZM387 55L386.5 55L386.5 188L387 188L387.5 188L387.5 55L387 55Z" fill="white" fill-opacity="0.8"/>
<path d="M386.646 674.354C386.842 674.549 387.158 674.549 387.354 674.354L390.536 671.172C390.731 670.976 390.731 670.66 390.536 670.464C390.34 670.269 390.024 670.269 389.828 670.464L387 673.293L384.172 670.464C383.976 670.269 383.66 670.269 383.464 670.464C383.269 670.66 383.269 670.976 383.464 671.172L386.646 674.354ZM387 593L386.5 593L386.5 674L387 674L387.5 674L387.5 593L387 593Z" fill="white" fill-opacity="0.8"/>
<path d="M386.646 275.354C386.842 275.549 387.158 275.549 387.354 275.354L390.536 272.172C390.731 271.976 390.731 271.66 390.536 271.464C390.34 271.269 390.024 271.269 389.828 271.464L387 274.293L384.172 271.464C383.976 271.269 383.66 271.269 383.464 271.464C383.269 271.66 383.269 271.976 383.464 272.172L386.646 275.354ZM387 243L386.5 243L386.5 275L387 275L387.5 275L387.5 243L387 243Z" fill="white" fill-opacity="0.8"/>
<path d="M386.646 349.354C386.842 349.549 387.158 349.549 387.354 349.354L390.536 346.172C390.731 345.976 390.731 345.66 390.536 345.464C390.34 345.269 390.024 345.269 389.828 345.464L387 348.293L384.172 345.464C383.976 345.269 383.66 345.269 383.464 345.464C383.269 345.66 383.269 345.976 383.464 346.172L386.646 349.354ZM387 328L386.5 328L386.5 349L387 349L387.5 349L387.5 328L387 328Z" fill="white" fill-opacity="0.8"/>
<path d="M386.646 412.354C386.842 412.549 387.158 412.549 387.354 412.354L390.536 409.172C390.731 408.976 390.731 408.66 390.536 408.464C390.34 408.269 390.024 408.269 389.828 408.464L387 411.293L384.172 408.464C383.976 408.269 383.66 408.269 383.464 408.464C383.269 408.66 383.269 408.976 383.464 409.172L386.646 412.354ZM387 379L386.5 379L386.5 412L387 412L387.5 412L387.5 379L387 379Z" fill="white" fill-opacity="0.8"/>
<path d="M386.646 486.354C386.842 486.549 387.158 486.549 387.354 486.354L390.536 483.172C390.731 482.976 390.731 482.66 390.536 482.464C390.34 482.269 390.024 482.269 389.828 482.464L387 485.293L384.172 482.464C383.976 482.269 383.66 482.269 383.464 482.464C383.269 482.66 383.269 482.976 383.464 483.172L386.646 486.354ZM387 465L386.5 465L386.5 486L387 486L387.5 486L387.5 465L387 465Z" fill="white" fill-opacity="0.8"/>
<path d="M386.646 563.354C386.842 563.549 387.158 563.549 387.354 563.354L390.536 560.172C390.731 559.976 390.731 559.66 390.536 559.464C390.34 559.269 390.024 559.269 389.828 559.464L387 562.293L384.172 559.464C383.976 559.269 383.66 559.269 383.464 559.464C383.269 559.66 383.269 559.976 383.464 560.172L386.646 563.354ZM387 542L386.5 542L386.5 563L387 563L387.5 563L387.5 542L387 542Z" fill="white" fill-opacity="0.8"/>
<rect x="0.5" y="96.5" width="771" height="538" rx="19.5" stroke="white" stroke-linecap="round" stroke-dasharray="2 8"/>
<path d="M372.354 364.854C372.549 364.658 372.549 364.342 372.354 364.146L369.172 360.964C368.976 360.769 368.66 360.769 368.464 360.964C368.269 361.16 368.269 361.476 368.464 361.672L371.293 364.5L368.464 367.328C368.269 367.524 368.269 367.84 368.464 368.036C368.66 368.231 368.976 368.231 369.172 368.036L372.354 364.854ZM387.5 136V135.5H68.5V136V136.5H387.5V136ZM56.5 148H56V352.5H56.5H57V148H56.5ZM68.5 364.5V365H372V364.5V364H68.5V364.5ZM56.5 352.5H56C56 359.404 61.5964 365 68.5 365V364.5V364C62.1487 364 57 358.851 57 352.5H56.5ZM68.5 136V135.5C61.5964 135.5 56 141.096 56 148H56.5H57C57 141.649 62.1487 136.5 68.5 136.5V136Z" fill="white" fill-opacity="0.8"/>
<path d="M372.854 578.354C373.049 578.158 373.049 577.842 372.854 577.646L369.672 574.464C369.476 574.269 369.16 574.269 368.964 574.464C368.769 574.66 368.769 574.976 368.964 575.172L371.793 578L368.964 580.828C368.769 581.024 368.769 581.34 368.964 581.536C369.16 581.731 369.476 581.731 369.672 581.536L372.854 578.354ZM388 379V378.5H69V379V379.5H388V379ZM57 391H56.5V566H57H57.5V391H57ZM69 578V578.5H372.5V578V577.5H69V578ZM57 566H56.5C56.5 572.904 62.0964 578.5 69 578.5V578V577.5C62.6487 577.5 57.5 572.351 57.5 566H57ZM69 379V378.5C62.0964 378.5 56.5 384.096 56.5 391H57H57.5C57.5 384.649 62.6487 379.5 69 379.5V379Z" fill="white" fill-opacity="0.8"/>
<rect width="167" height="29" transform="translate(45 83)" fill="black"/>
<path d="M55.5 104V92.5781H57.375V102.406H62.2266V104H55.5ZM67.4062 95.1875C68.5 95.1875 69.3255 95.4297 69.8828 95.9141C70.4453 96.3984 70.7266 97.1536 70.7266 98.1797V104H69.4219L69.0703 102.773H69.0078C68.763 103.086 68.5104 103.344 68.25 103.547C67.9896 103.75 67.6875 103.901 67.3438 104C67.0052 104.104 66.5911 104.156 66.1016 104.156C65.5859 104.156 65.125 104.062 64.7188 103.875C64.3125 103.682 63.9922 103.391 63.7578 103C63.5234 102.609 63.4062 102.115 63.4062 101.516C63.4062 100.625 63.737 99.9557 64.3984 99.5078C65.0651 99.0599 66.0703 98.8125 67.4141 98.7656L68.9141 98.7109V98.2578C68.9141 97.6589 68.7734 97.2318 68.4922 96.9766C68.2161 96.7214 67.8255 96.5938 67.3203 96.5938C66.888 96.5938 66.4688 96.6562 66.0625 96.7812C65.6562 96.9062 65.2604 97.0599 64.875 97.2422L64.2812 95.9453C64.7031 95.7214 65.1823 95.5391 65.7188 95.3984C66.2604 95.2578 66.8229 95.1875 67.4062 95.1875ZM68.9062 99.8672L67.7891 99.9062C66.8724 99.9375 66.2292 100.094 65.8594 100.375C65.4896 100.656 65.3047 101.042 65.3047 101.531C65.3047 101.958 65.4323 102.271 65.6875 102.469C65.9427 102.661 66.2786 102.758 66.6953 102.758C67.3307 102.758 67.8568 102.578 68.2734 102.219C68.6953 101.854 68.9062 101.32 68.9062 100.617V99.8672ZM71.9922 95.3516H73.9922L75.7656 100.289C75.8438 100.513 75.9141 100.734 75.9766 100.953C76.0443 101.167 76.1016 101.378 76.1484 101.586C76.2005 101.794 76.2422 102.003 76.2734 102.211H76.3203C76.3724 101.94 76.4453 101.638 76.5391 101.305C76.638 100.966 76.7474 100.628 76.8672 100.289L78.5703 95.3516H80.5469L76.8359 105.188C76.6224 105.75 76.3594 106.229 76.0469 106.625C75.7396 107.026 75.375 107.328 74.9531 107.531C74.5312 107.74 74.0495 107.844 73.5078 107.844C73.2474 107.844 73.0208 107.828 72.8281 107.797C72.6354 107.771 72.4714 107.742 72.3359 107.711V106.242C72.4453 106.268 72.5833 106.292 72.75 106.312C72.9167 106.333 73.0885 106.344 73.2656 106.344C73.5938 106.344 73.8776 106.279 74.1172 106.148C74.3568 106.018 74.5599 105.833 74.7266 105.594C74.8932 105.359 75.0312 105.091 75.1406 104.789L75.4453 103.977L71.9922 95.3516ZM85.3047 95.1875C86.0755 95.1875 86.737 95.3464 87.2891 95.6641C87.8411 95.9818 88.2656 96.4323 88.5625 97.0156C88.8594 97.599 89.0078 98.2969 89.0078 99.1094V100.094H83.2344C83.2552 100.932 83.4792 101.578 83.9062 102.031C84.3385 102.484 84.9427 102.711 85.7188 102.711C86.2708 102.711 86.7656 102.659 87.2031 102.555C87.6458 102.445 88.1016 102.286 88.5703 102.078V103.57C88.138 103.773 87.6979 103.922 87.25 104.016C86.8021 104.109 86.2656 104.156 85.6406 104.156C84.7917 104.156 84.0443 103.992 83.3984 103.664C82.7578 103.331 82.2552 102.836 81.8906 102.18C81.5312 101.523 81.3516 100.708 81.3516 99.7344C81.3516 98.7656 81.5156 97.9427 81.8438 97.2656C82.1719 96.5885 82.6328 96.0729 83.2266 95.7188C83.8203 95.3646 84.513 95.1875 85.3047 95.1875ZM85.3047 96.5703C84.7266 96.5703 84.2578 96.7578 83.8984 97.1328C83.5443 97.5078 83.3359 98.0573 83.2734 98.7812H87.2109C87.2057 98.349 87.1328 97.9661 86.9922 97.6328C86.8568 97.2995 86.6484 97.0391 86.3672 96.8516C86.0911 96.6641 85.737 96.5703 85.3047 96.5703ZM95.4609 95.1875C95.6068 95.1875 95.7656 95.1953 95.9375 95.2109C96.1094 95.2266 96.2578 95.2474 96.3828 95.2734L96.2109 96.9922C96.1016 96.9609 95.9661 96.9375 95.8047 96.9219C95.6484 96.9062 95.5078 96.8984 95.3828 96.8984C95.0547 96.8984 94.7422 96.9531 94.4453 97.0625C94.1484 97.1667 93.8854 97.3281 93.6562 97.5469C93.4271 97.7604 93.2474 98.0286 93.1172 98.3516C92.987 98.6745 92.9219 99.0495 92.9219 99.4766V104H91.0781V95.3516H92.5156L92.7656 96.875H92.8516C93.0234 96.5677 93.237 96.2865 93.4922 96.0312C93.7474 95.776 94.0391 95.5729 94.3672 95.4219C94.7005 95.2656 95.0651 95.1875 95.4609 95.1875ZM109.281 104H101.547V102.617L104.508 99.6172C105.081 99.0339 105.552 98.5312 105.922 98.1094C106.292 97.6823 106.565 97.2786 106.742 96.8984C106.924 96.5182 107.016 96.1042 107.016 95.6562C107.016 95.1042 106.857 94.6875 106.539 94.4062C106.221 94.1198 105.802 93.9766 105.281 93.9766C104.786 93.9766 104.328 94.0755 103.906 94.2734C103.49 94.4661 103.057 94.7422 102.609 95.1016L101.602 93.8906C101.919 93.6198 102.258 93.3724 102.617 93.1484C102.982 92.9245 103.388 92.7474 103.836 92.6172C104.284 92.4818 104.794 92.4141 105.367 92.4141C106.091 92.4141 106.716 92.5443 107.242 92.8047C107.768 93.0599 108.172 93.4167 108.453 93.875C108.74 94.3333 108.883 94.8672 108.883 95.4766C108.883 96.0911 108.76 96.6589 108.516 97.1797C108.271 97.7005 107.922 98.2161 107.469 98.7266C107.016 99.2318 106.477 99.7812 105.852 100.375L103.875 102.305V102.391H109.281V104ZM116.102 92.5781L111.844 104H110.125L114.383 92.5781H116.102ZM116.969 99.1328C116.969 98.4609 117.016 97.7995 117.109 97.1484C117.208 96.4974 117.375 95.888 117.609 95.3203C117.844 94.7526 118.167 94.2526 118.578 93.8203C118.995 93.388 119.518 93.0495 120.148 92.8047C120.779 92.5547 121.536 92.4297 122.422 92.4297C122.651 92.4297 122.909 92.4401 123.195 92.4609C123.482 92.4818 123.719 92.5156 123.906 92.5625V94.0859C123.703 94.0286 123.479 93.9844 123.234 93.9531C122.995 93.9219 122.755 93.9062 122.516 93.9062C121.557 93.9062 120.81 94.0885 120.273 94.4531C119.737 94.8125 119.354 95.3073 119.125 95.9375C118.896 96.5625 118.763 97.2786 118.727 98.0859H118.82C118.977 97.8255 119.172 97.5938 119.406 97.3906C119.641 97.1875 119.927 97.026 120.266 96.9062C120.604 96.7812 120.997 96.7188 121.445 96.7188C122.112 96.7188 122.693 96.8594 123.188 97.1406C123.682 97.4167 124.062 97.8177 124.328 98.3438C124.599 98.8698 124.734 99.5078 124.734 100.258C124.734 101.065 124.581 101.76 124.273 102.344C123.971 102.927 123.539 103.375 122.977 103.688C122.419 104 121.755 104.156 120.984 104.156C120.417 104.156 119.888 104.052 119.398 103.844C118.914 103.635 118.49 103.323 118.125 102.906C117.76 102.49 117.477 101.969 117.273 101.344C117.07 100.714 116.969 99.9766 116.969 99.1328ZM120.953 102.641C121.547 102.641 122.023 102.448 122.383 102.062C122.747 101.672 122.93 101.076 122.93 100.273C122.93 99.6224 122.768 99.1068 122.445 98.7266C122.128 98.3464 121.648 98.1562 121.008 98.1562C120.57 98.1562 120.188 98.25 119.859 98.4375C119.531 98.625 119.276 98.862 119.094 99.1484C118.917 99.4349 118.828 99.7266 118.828 100.023C118.828 100.326 118.872 100.63 118.961 100.938C119.049 101.245 119.182 101.529 119.359 101.789C119.536 102.044 119.758 102.25 120.023 102.406C120.289 102.562 120.599 102.641 120.953 102.641ZM131.508 104H129.664V96.6484C129.664 96.4036 129.667 96.1589 129.672 95.9141C129.677 95.6693 129.682 95.4297 129.688 95.1953C129.698 94.9609 129.711 94.737 129.727 94.5234C129.617 94.6432 129.482 94.7734 129.32 94.9141C129.164 95.0547 128.997 95.2005 128.82 95.3516L127.508 96.3984L126.586 95.2344L129.977 92.5781H131.508V104Z" fill="white"/>
<rect x="149" y="87.5" width="20" height="20" rx="5" fill="white" fill-opacity="0.2"/>
<path d="M162.335 100.976L155.656 98.0225V97.209L162.335 93.8867V95.2129L157.324 97.5576L162.335 99.6562V100.976Z" fill="white"/>
<rect x="183" y="87.5" width="20" height="20" rx="5" fill="white" fill-opacity="0.2"/>
<path d="M189.656 99.6562L194.667 97.5645L189.656 95.2129V93.8867L196.335 97.209V98.0225L189.656 100.976V99.6562Z" fill="white"/>
<defs>
<filter id="filter0_i_7228_1027" x="104" y="190" width="565" height="53" filterUnits="userSpaceOnUse" color-interpolation-filters="sRGB">
<feFlood flood-opacity="0" result="BackgroundImageFix"/>
<feBlend mode="normal" in="SourceGraphic" in2="BackgroundImageFix" result="shape"/>
<feColorMatrix in="SourceAlpha" type="matrix" values="0 0 0 0 0 0 0 0 0 0 0 0 0 0 0 0 0 0 127 0" result="hardAlpha"/>
<feOffset/>
<feGaussianBlur stdDeviation="5.15"/>
<feComposite in2="hardAlpha" operator="arithmetic" k2="-1" k3="1"/>
<feColorMatrix type="matrix" values="0 0 0 0 1 0 0 0 0 1 0 0 0 0 1 0 0 0 0.25 0"/>
<feBlend mode="normal" in2="shape" result="effect1_innerShadow_7228_1027"/>
</filter>
<filter id="filter1_i_7228_1027" x="104" y="412" width="565" height="53" filterUnits="userSpaceOnUse" color-interpolation-filters="sRGB">
<feFlood flood-opacity="0" result="BackgroundImageFix"/>
<feBlend mode="normal" in="SourceGraphic" in2="BackgroundImageFix" result="shape"/>
<feColorMatrix in="SourceAlpha" type="matrix" values="0 0 0 0 0 0 0 0 0 0 0 0 0 0 0 0 0 0 127 0" result="hardAlpha"/>
<feOffset/>
<feGaussianBlur stdDeviation="5.15"/>
<feComposite in2="hardAlpha" operator="arithmetic" k2="-1" k3="1"/>
<feColorMatrix type="matrix" values="0 0 0 0 1 0 0 0 0 1 0 0 0 0 1 0 0 0 0.25 0"/>
<feBlend mode="normal" in2="shape" result="effect1_innerShadow_7228_1027"/>
</filter>
<filter id="filter2_i_7228_1027" x="104" y="489" width="565" height="53" filterUnits="userSpaceOnUse" color-interpolation-filters="sRGB">
<feFlood flood-opacity="0" result="BackgroundImageFix"/>
<feBlend mode="normal" in="SourceGraphic" in2="BackgroundImageFix" result="shape"/>
<feColorMatrix in="SourceAlpha" type="matrix" values="0 0 0 0 0 0 0 0 0 0 0 0 0 0 0 0 0 0 127 0" result="hardAlpha"/>
<feOffset/>
<feGaussianBlur stdDeviation="5.15"/>
<feComposite in2="hardAlpha" operator="arithmetic" k2="-1" k3="1"/>
<feColorMatrix type="matrix" values="0 0 0 0 1 0 0 0 0 1 0 0 0 0 1 0 0 0 0.25 0"/>
<feBlend mode="normal" in2="shape" result="effect1_innerShadow_7228_1027"/>
</filter>
<filter id="filter3_i_7228_1027" x="104" y="275" width="565" height="53" filterUnits="userSpaceOnUse" color-interpolation-filters="sRGB">
<feFlood flood-opacity="0" result="BackgroundImageFix"/>
<feBlend mode="normal" in="SourceGraphic" in2="BackgroundImageFix" result="shape"/>
<feColorMatrix in="SourceAlpha" type="matrix" values="0 0 0 0 0 0 0 0 0 0 0 0 0 0 0 0 0 0 127 0" result="hardAlpha"/>
<feOffset/>
<feGaussianBlur stdDeviation="5.15"/>
<feComposite in2="hardAlpha" operator="arithmetic" k2="-1" k3="1"/>
<feColorMatrix type="matrix" values="0 0 0 0 1 0 0 0 0 1 0 0 0 0 1 0 0 0 0.25 0"/>
<feBlend mode="normal" in2="shape" result="effect1_innerShadow_7228_1027"/>
</filter>
<linearGradient id="paint0_linear_7228_1027" x1="391.5" y1="238" x2="391.5" y2="190" gradientUnits="userSpaceOnUse">
<stop/>
<stop offset="1" stop-color="#666666"/>
</linearGradient>
<linearGradient id="paint1_linear_7228_1027" x1="391.5" y1="460" x2="391.5" y2="412" gradientUnits="userSpaceOnUse">
<stop/>
<stop offset="1" stop-color="#666666"/>
</linearGradient>
<linearGradient id="paint2_linear_7228_1027" x1="391.5" y1="537" x2="391.5" y2="489" gradientUnits="userSpaceOnUse">
<stop/>
<stop offset="1" stop-color="#666666"/>
</linearGradient>
<linearGradient id="paint3_linear_7228_1027" x1="391.5" y1="323" x2="391.5" y2="275" gradientUnits="userSpaceOnUse">
<stop/>
<stop offset="1" stop-color="#666666"/>
</linearGradient>
</defs>
</svg>
