<svg xmlns="http://www.w3.org/2000/svg" width="860" height="530" viewBox="0 0 860 530">
  <style>
    .box  { fill:#f8f9fa; stroke:#333; stroke-width:1.5; }
    .attn { fill:#e8eef8; stroke:#4466aa; stroke-width:1.5; }
    .ffn  { fill:#f0f8e8; stroke:#448844; stroke-width:1.5; }
    .tok  { fill:#eef;    stroke:#333;   stroke-width:1.5; }
    .note { fill:#fff8e8; stroke:#cc8800; stroke-width:1.5; }
    .title { font: bold 13px sans-serif; fill:#111; }
    .lbl   { font: 12px sans-serif; fill:#111; text-anchor:middle; }
    .sm    { font: 11px monospace;  fill:#555; text-anchor:middle; }
    .loop  { font: bold 12px sans-serif; fill:#c84444; }
    .note-txt { font: 11px sans-serif; fill:#555; }
    .arr  { stroke:#555;    stroke-width:1.5; fill:none; marker-end:url(#ah); }
    .larr { stroke:#c84444; stroke-width:1.5; fill:none; stroke-dasharray:5 3; marker-end:url(#ah-r); }
    .brace { stroke:#c84444; stroke-width:2; fill:none; }
    .div  { stroke:#ddd; stroke-width:1.5; stroke-dasharray:6 4; }
  </style>
  <defs>
    <marker id="ah"   markerWidth="8" markerHeight="6" refX="8" refY="3" orient="auto"><polygon points="0 0,8 3,0 6" fill="#555"/></marker>
    <marker id="ah-r" markerWidth="8" markerHeight="6" refX="8" refY="3" orient="auto"><polygon points="0 0,8 3,0 6" fill="#c84444"/></marker>
  </defs>

  <!-- ===== LEFT PANEL: 层重复 loop ===== -->
  <text x="20" y="22" class="title">① 层重复 loop（prefill / decode 每一步）</text>

  <!-- Input -->
  <rect x="50" y="36" width="200" height="30" rx="4" class="tok"/>
  <text x="150" y="56" class="lbl">Input Tokens / KV Cache</text>
  <path d="M150 66 L150 84" class="arr"/>

  <!-- Layer 1 -->
  <rect x="30" y="84" width="240" height="70" rx="4" class="box"/>
  <text x="52" y="100" class="sm" style="text-anchor:start">Layer 1</text>
  <rect x="46" y="104" width="94" height="22" rx="3" class="attn"/>
  <text x="93" y="119" class="sm">Attention</text>
  <rect x="156" y="104" width="94" height="22" rx="3" class="ffn"/>
  <text x="203" y="119" class="sm">FFN</text>
  <path d="M140 115 L156 115" class="arr"/>
  <path d="M150 154 L150 172" class="arr"/>

  <!-- Layer 2 -->
  <rect x="30" y="172" width="240" height="70" rx="4" class="box"/>
  <text x="52" y="188" class="sm" style="text-anchor:start">Layer 2</text>
  <rect x="46" y="192" width="94" height="22" rx="3" class="attn"/>
  <text x="93" y="207" class="sm">Attention</text>
  <rect x="156" y="192" width="94" height="22" rx="3" class="ffn"/>
  <text x="203" y="207" class="sm">FFN</text>
  <path d="M140 203 L156 203" class="arr"/>
  <path d="M150 242 L150 256" class="arr"/>

  <!-- dots -->
  <text x="150" y="270" class="lbl">⋮</text>
  <path d="M150 278 L150 296" class="arr"/>

  <!-- Layer N -->
  <rect x="30" y="296" width="240" height="70" rx="4" class="box"/>
  <text x="52" y="312" class="sm" style="text-anchor:start">Layer N（DeepSeek: 61 层）</text>
  <rect x="46" y="316" width="94" height="22" rx="3" class="attn"/>
  <text x="93" y="331" class="sm">Attention</text>
  <rect x="156" y="316" width="94" height="22" rx="3" class="ffn"/>
  <text x="203" y="331" class="sm">FFN</text>
  <path d="M140 327 L156 327" class="arr"/>
  <path d="M150 366 L150 384" class="arr"/>

  <!-- Output -->
  <rect x="50" y="384" width="200" height="30" rx="4" class="tok"/>
  <text x="150" y="404" class="lbl">Output Logits</text>

  <!-- Brace -->
  <path d="M282 84 C302 84,302 92,302 100 L302 356 C302 364,302 372,282 372" class="brace"/>
  <text x="308" y="220" class="loop">层重复</text>
  <text x="308" y="236" class="loop">loop</text>
  <text x="308" y="254" class="sm" style="text-anchor:start;fill:#555">Attention kernel</text>
  <text x="308" y="268" class="sm" style="text-anchor:start;fill:#555">被调用 N 次</text>

  <!-- ===== DIVIDER ===== -->
  <line x1="430" y1="26" x2="430" y2="500" class="div"/>

  <!-- ===== RIGHT PANEL: 时间步 loop ===== -->
  <text x="448" y="22" class="title">② 时间步 loop（decode 阶段）</text>

  <!-- Step 1 -->
  <rect x="448" y="36" width="110" height="150" rx="4" class="box"/>
  <text x="503" y="54" class="sm">Step t=1</text>
  <rect x="462" y="62" width="82" height="20" rx="3" class="attn"/>
  <text x="503" y="76" class="sm">Attention</text>
  <text x="503" y="100" class="sm">⋮ N layers ⋮</text>
  <rect x="462" y="112" width="82" height="20" rx="3" class="ffn"/>
  <text x="503" y="126" class="sm">FFN</text>
  <rect x="462" y="148" width="82" height="20" rx="3" class="tok"/>
  <text x="503" y="162" class="sm">→ token₁</text>
  <path d="M558 111 L574 111" class="larr"/>

  <!-- Step 2 -->
  <rect x="574" y="36" width="110" height="150" rx="4" class="box"/>
  <text x="629" y="54" class="sm">Step t=2</text>
  <rect x="588" y="62" width="82" height="20" rx="3" class="attn"/>
  <text x="629" y="76" class="sm">Attention</text>
  <text x="629" y="100" class="sm">⋮ N layers ⋮</text>
  <rect x="588" y="112" width="82" height="20" rx="3" class="ffn"/>
  <text x="629" y="126" class="sm">FFN</text>
  <rect x="588" y="148" width="82" height="20" rx="3" class="tok"/>
  <text x="629" y="162" class="sm">→ token₂</text>
  <path d="M684 111 L700 111" class="larr"/>

  <!-- dots -->
  <text x="720" y="116" class="lbl">→ …</text>

  <!-- KV Cache arrow -->
  <path d="M503 168 Q503 210 629 210 Q700 210 700 168" style="stroke:#4466aa;stroke-width:1.2;fill:none;stroke-dasharray:4 3;marker-end:url(#ah)"/>
  <text x="614" y="226" class="sm" style="fill:#4466aa">KV Cache 累积</text>

  <!-- Note box -->
  <rect x="448" y="290" width="390" height="80" rx="4" class="note"/>
  <text x="466" y="310" class="note-txt">• Attention kernel 在每一层、每一步都被调用</text>
  <text x="466" y="328" class="note-txt">• 这两种重复都不在单个 kernel 源码里写 for 循环</text>
  <text x="466" y="346" class="note-txt">• 它们是调度层在外面反复触发同一类 kernel</text>
  <text x="466" y="364" class="note-txt">• 这一层 loop 的"循环体"= 整个模型的一次前向</text>
</svg>