<svg viewBox="0 0 947 40" xmlns="http://www.w3.org/2000/svg" xmlns:xlink="http://www.w3.org/1999/xlink" width="947.000000" height="40.000000" fill="none" customFrame="#000000">
	<defs>
		<clipPath id="clipPath_17">
			<rect width="947.000000" height="40.000000" x="0.000000" y="0.000000" fill="rgb(255,255,255)" />
		</clipPath>
		<radialGradient id="paint_radial_1" cx="0" cy="0" r="1" gradientUnits="userSpaceOnUse" gradientTransform="matrix(-0.442266,-55.0136,313.876,-2.52332,207.729,28)">
			<stop stop-color="rgb(255,255,255)" offset="0.139335737" stop-opacity="1" />
			<stop stop-color="rgb(255,255,255)" offset="1" stop-opacity="0" />
		</radialGradient>
		<clipPath id="clipPath_18">
			<rect width="929.000000" height="28.000000" x="9.000000" y="6.000000" fill="rgb(255,255,255)" />
		</clipPath>
		<clipPath id="clipPath_19">
			<rect width="209.000000" height="28.000000" x="9.000000" y="6.000000" fill="rgb(255,255,255)" />
		</clipPath>
		<clipPath id="clipPath_20">
			<rect width="66.000000" height="28.000000" x="9.000000" y="6.000000" rx="14.000000" fill="rgb(255,255,255)" />
		</clipPath>
		<clipPath id="clipPath_21">
			<rect width="71.000000" height="28.000000" x="79.000000" y="6.000000" rx="14.000000" fill="rgb(255,255,255)" />
		</clipPath>
		<clipPath id="clipPath_22">
			<rect width="64.000000" height="28.000000" x="154.000000" y="6.000000" rx="14.000000" fill="rgb(255,255,255)" />
		</clipPath>
		<clipPath id="clipPath_23">
			<rect width="444.000000" height="28.000000" x="222.000000" y="6.000000" rx="14.000000" fill="rgb(255,255,255)" />
		</clipPath>
		<g id="pixso_custom_effect_5">
			<effect x="0.000000" y="4.000000" visibility="visible" fill="rgb(138,114,255)" fill-opacity="0.200000003" effectType="dropShadow" stdDeviation="4" radius="0" />
			<effect x="0.000000" y="1.000000" visibility="visible" fill="rgb(255,255,255)" fill-opacity="0.100000001" effectType="innerShadow" stdDeviation="4" radius="0" />
		</g>
		<filter id="filter_5" width="68.000000" height="28.000000" x="222.000000" y="10.000000" filterUnits="userSpaceOnUse" customEffect="url(#pixso_custom_effect_5)" color-interpolation-filters="sRGB">
			<feFlood flood-opacity="0" result="BackgroundImageFix" />
			<feColorMatrix result="hardAlpha" in="SourceAlpha" type="matrix" values="0 0 0 0 0 0 0 0 0 0 0 0 0 0 0 0 0 0 127 0 " />
			<feOffset dx="0.000000" dy="4.000000" in="hardAlpha" />
			<feGaussianBlur stdDeviation="1.33333337" />
			<feComposite k2="-1" k3="1" in2="hardAlpha" operator="out" />
			<feColorMatrix type="matrix" values="0 0 0 0 0.541176 0 0 0 0 0.447059 0 0 0 0 1 0 0 0 0.2 0 " />
			<feBlend result="effect_dropShadow_1" in2="BackgroundImageFix" mode="normal" />
			<feBlend result="shape" in="SourceGraphic" in2="effect_dropShadow_1" mode="normal" />
			<feColorMatrix result="hardAlpha" in="SourceAlpha" type="matrix" values="0 0 0 0 0 0 0 0 0 0 0 0 0 0 0 0 0 0 127 0 " />
			<feOffset dx="0.000000" dy="1.000000" in="hardAlpha" />
			<feGaussianBlur stdDeviation="1.33333337" />
			<feComposite k2="-1" k3="1" in2="hardAlpha" operator="arithmetic" />
			<feColorMatrix type="matrix" values="0 0 0 0 1 0 0 0 0 1 0 0 0 0 1 0 0 0 0.1 0 " />
			<feBlend result="effect_innerShadow_2" in2="shape" mode="normal" />
		</filter>
		<clipPath id="clipPath_24">
			<rect width="60.000000" height="20.000000" x="226.000000" y="10.000000" rx="10.000000" fill="rgb(255,255,255)" />
		</clipPath>
		<clipPath id="clipPath_25">
			<rect width="366.000000" height="14.000000" x="290.000000" y="13.000000" fill="rgb(255,255,255)" />
		</clipPath>
		<g id="pixso_custom_effect_6">
			<effect x="0.000000" y="4.000000" visibility="visible" fill="rgb(106,219,2)" fill-opacity="0.200000003" effectType="dropShadow" stdDeviation="4" radius="0" />
		</g>
		<filter id="filter_6" width="50.000000" height="28.000000" x="322.000000" y="10.000000" filterUnits="userSpaceOnUse" customEffect="url(#pixso_custom_effect_6)" color-interpolation-filters="sRGB">
			<feFlood flood-opacity="0" result="BackgroundImageFix" />
			<feColorMatrix result="hardAlpha" in="SourceAlpha" type="matrix" values="0 0 0 0 0 0 0 0 0 0 0 0 0 0 0 0 0 0 127 0 " />
			<feOffset dx="0.000000" dy="4.000000" in="hardAlpha" />
			<feGaussianBlur stdDeviation="1.33333337" />
			<feComposite k2="-1" k3="1" in2="hardAlpha" operator="out" />
			<feColorMatrix type="matrix" values="0 0 0 0 0.415686 0 0 0 0 0.858824 0 0 0 0 0.00784314 0 0 0 0.2 0 " />
			<feBlend result="effect_dropShadow_1" in2="BackgroundImageFix" mode="normal" />
			<feBlend result="shape" in="SourceGraphic" in2="effect_dropShadow_1" mode="normal" />
		</filter>
		<clipPath id="clipPath_26">
			<rect width="42.000000" height="20.000000" x="326.000000" y="10.000000" rx="10.000000" fill="rgb(255,255,255)" />
		</clipPath>
		<clipPath id="clipPath_27">
			<rect width="59.000000" height="28.000000" x="670.000000" y="6.000000" rx="14.000000" fill="rgb(255,255,255)" />
		</clipPath>
		<clipPath id="clipPath_28">
			<rect width="133.000000" height="28.000000" x="733.000000" y="6.000000" rx="14.000000" fill="rgb(255,255,255)" />
		</clipPath>
		<g id="pixso_custom_effect_7">
			<effect x="0.000000" y="4.000000" visibility="visible" fill="rgb(219,190,2)" fill-opacity="0.200000003" effectType="dropShadow" stdDeviation="4" radius="0" />
		</g>
		<filter id="filter_7" width="61.000000" height="28.000000" x="733.000000" y="10.000000" filterUnits="userSpaceOnUse" customEffect="url(#pixso_custom_effect_7)" color-interpolation-filters="sRGB">
			<feFlood flood-opacity="0" result="BackgroundImageFix" />
			<feColorMatrix result="hardAlpha" in="SourceAlpha" type="matrix" values="0 0 0 0 0 0 0 0 0 0 0 0 0 0 0 0 0 0 127 0 " />
			<feOffset dx="0.000000" dy="4.000000" in="hardAlpha" />
			<feGaussianBlur stdDeviation="1.33333337" />
			<feComposite k2="-1" k3="1" in2="hardAlpha" operator="out" />
			<feColorMatrix type="matrix" values="0 0 0 0 0.858824 0 0 0 0 0.745098 0 0 0 0 0.00784314 0 0 0 0.2 0 " />
			<feBlend result="effect_dropShadow_1" in2="BackgroundImageFix" mode="normal" />
			<feBlend result="shape" in="SourceGraphic" in2="effect_dropShadow_1" mode="normal" />
		</filter>
		<clipPath id="clipPath_29">
			<rect width="53.000000" height="20.000000" x="737.000000" y="10.000000" rx="10.000000" fill="rgb(255,255,255)" />
		</clipPath>
		<clipPath id="clipPath_30">
			<rect width="68.000000" height="14.000000" x="794.000000" y="13.000000" fill="rgb(255,255,255)" />
		</clipPath>
		<clipPath id="clipPath_31">
			<rect width="68.000000" height="5.000000" x="794.000000" y="17.500000" fill="rgb(255,255,255)" />
		</clipPath>
		<clipPath id="clipPath_32">
			<rect width="68.000000" height="28.000000" x="870.000000" y="6.000000" rx="14.000000" fill="rgb(255,255,255)" />
		</clipPath>
		<g id="pixso_custom_effect_8">
			<effect x="0.000000" y="4.000000" visibility="visible" fill="rgb(219,190,2)" fill-opacity="0.200000003" effectType="dropShadow" stdDeviation="4" radius="0" />
		</g>
		<filter id="filter_8" width="68.000000" height="28.000000" x="870.000000" y="10.000000" filterUnits="userSpaceOnUse" customEffect="url(#pixso_custom_effect_8)" color-interpolation-filters="sRGB">
			<feFlood flood-opacity="0" result="BackgroundImageFix" />
			<feColorMatrix result="hardAlpha" in="SourceAlpha" type="matrix" values="0 0 0 0 0 0 0 0 0 0 0 0 0 0 0 0 0 0 127 0 " />
			<feOffset dx="0.000000" dy="4.000000" in="hardAlpha" />
			<feGaussianBlur stdDeviation="1.33333337" />
			<feComposite k2="-1" k3="1" in2="hardAlpha" operator="out" />
			<feColorMatrix type="matrix" values="0 0 0 0 0.858824 0 0 0 0 0.745098 0 0 0 0 0.00784314 0 0 0 0.2 0 " />
			<feBlend result="effect_dropShadow_1" in2="BackgroundImageFix" mode="normal" />
			<feBlend result="shape" in="SourceGraphic" in2="effect_dropShadow_1" mode="normal" />
		</filter>
		<clipPath id="clipPath_33">
			<rect width="60.000000" height="20.000000" x="874.000000" y="10.000000" rx="10.000000" fill="rgb(255,255,255)" />
		</clipPath>
	</defs>
	<g id="nav bar">
		<g id="容器 91333472" customFrame="url(#clipPath_17)">
			<rect id="容器 91333472" width="947.000000" height="40.000000" x="0.000000" y="0.000000" />
			<path id="矩形 77521" d="M20 0L927 0C938.046 0 947 8.9543 947 20C947 31.0457 938.046 40 927 40L20 40C8.95431 40 0 31.0457 0 20C0 8.95431 8.95431 0 20 0Z" fill="rgb(0,0,0)" fill-opacity="0" fill-rule="evenodd" />
			<path id="矩形 77521" d="M20 0L927 0C938.046 0 947 8.9543 947 20C947 31.0457 938.046 40 927 40L20 40C8.95431 40 0 31.0457 0 20C0 8.95431 8.95431 0 20 0Z" fill="url(#paint_radial_1)" fill-opacity="0" fill-rule="evenodd" />
			<path id="矩形 77521" d="M20 0L927 0C938.046 0 947 8.9543 947 20C947 31.0457 938.046 40 927 40L20 40C8.95431 40 0 31.0457 0 20C0 8.95431 8.95431 0 20 0Z" fill="rgb(255,255,255)" fill-opacity="0.150000006" fill-rule="evenodd" />
			<path id="矩形 77521" d="M927 0L20 0C8.95431 0 0 8.95431 0 20C0 31.0457 8.95431 40 20 40L927 40C938.046 40 947 31.0457 947 20C947 8.9543 938.046 0 927 0ZM20 0.499998L927 0.5Q928.446 0.5 929.861 0.708215Q930.398 0.787211 930.93 0.896178Q931.877 1.08992 932.796 1.37539Q933.707 1.65864 934.59 2.0322Q935.327 2.34391 936.034 2.71384Q936.996 3.21787 937.902 3.83Q938.602 4.30267 939.256 4.83174Q940.056 5.47934 940.789 6.21142Q941.498 6.92052 942.128 7.69404Q942.679 8.37119 943.17 9.09771Q943.78 9.99978 944.282 10.958Q944.654 11.6685 944.968 12.4099Q945.354 13.3222 945.643 14.2642Q945.916 15.1536 946.104 16.0695Q946.216 16.6182 946.297 17.1715Q946.5 18.5709 946.5 20Q946.5 21.4294 946.296 22.8291Q946.216 23.3821 946.104 23.9305Q945.917 24.8461 945.643 25.7354Q945.354 26.6776 944.968 27.5901Q944.659 28.32 944.293 29.02Q943.786 29.9898 943.17 30.9023Q942.676 31.6341 942.12 32.3158Q941.493 33.084 940.789 33.7886Q940.064 34.5131 939.272 35.155Q938.611 35.6914 937.902 36.17Q936.996 36.7822 936.033 37.2863Q935.327 37.6562 934.59 37.9678Q933.696 38.346 932.773 38.6317Q931.865 38.9125 930.93 39.1038Q930.398 39.2128 929.861 39.2918Q928.446 39.5 927 39.5L20 39.5Q18.5529 39.5 17.1366 39.2914Q16.6009 39.2125 16.0695 39.1038Q15.1193 38.9094 14.1978 38.6226Q13.2899 38.34 12.4099 37.9678Q11.6729 37.6561 10.9664 37.2862Q10.0038 36.7821 9.09771 36.17Q8.38284 35.687 7.71571 35.1453Q6.93049 34.5077 6.21142 33.7886Q5.49183 33.069 4.85381 32.2832Q4.31255 31.6166 3.83 30.9023Q3.21795 29.9963 2.71395 29.0338Q2.34396 28.3272 2.0322 27.5901Q1.66024 26.7107 1.3778 25.8034Q1.09075 24.8813 0.896176 23.9305Q0.787364 23.3987 0.708437 22.8626Q0.499998 21.4466 0.499998 20Q0.499999 18.5537 0.708359 17.138Q0.78731 16.6016 0.896178 16.0695Q1.09076 15.1187 1.3778 14.1966Q1.66024 13.2893 2.0322 12.4099Q2.3443 11.672 2.71475 10.9647Q3.21844 10.0029 3.83 9.09771Q4.31309 8.38264 4.85501 7.71533Q5.49251 6.93032 6.21142 6.21142Q6.93069 5.49215 7.71612 4.85436Q8.38306 4.3128 9.09771 3.83Q10.0032 3.21827 10.9652 2.71447Q11.6723 2.34418 12.4099 2.0322Q13.2893 1.66023 14.1966 1.37779Q15.1187 1.09075 16.0695 0.896176Q16.6014 0.787345 17.1376 0.708411Q18.5535 0.499998 20 0.499998Z" fill="rgb(255,255,255)" fill-opacity="0.5" fill-rule="evenodd" />
			<g id="容器 91333470" customFrame="url(#clipPath_18)">
				<rect id="容器 91333470" width="929.000000" height="28.000000" x="9.000000" y="6.000000" />
				<g id="容器 91333468" customFrame="url(#clipPath_19)">
					<rect id="容器 91333468" width="209.000000" height="28.000000" x="9.000000" y="6.000000" />
					<g id="容器 91333466" customFrame="url(#clipPath_20)">
						<rect id="容器 91333466" width="66.000000" height="28.000000" x="9.000000" y="6.000000" rx="14.000000" fill="rgb(0,0,0)" />
						<path id="" d="M19.9229 15.2168L21.6631 15.2168L21.6631 22.4414L25.6592 22.4414L25.6592 24L19.9229 24L19.9229 15.2168ZM26.1989 20.8916Q26.1989 19.9189 26.6355 19.1748Q27.0749 18.4307 27.8073 18.0293Q28.5398 17.6279 29.3923 17.6279Q30.2331 17.6279 30.9568 18.0293Q31.6833 18.4307 32.1198 19.1748Q32.5593 19.9189 32.5593 20.8916Q32.5593 21.8643 32.1198 22.6084Q31.6833 23.3525 30.9568 23.748Q30.2331 24.1436 29.3923 24.1436Q28.5398 24.1436 27.8073 23.748Q27.0749 23.3525 26.6355 22.6084Q26.1989 21.8643 26.1989 20.8916ZM27.9275 20.8916Q27.9275 21.7207 28.3405 22.207Q28.7566 22.6934 29.3806 22.6934Q30.0046 22.6934 30.4118 22.207Q30.8191 21.7207 30.8191 20.8916Q30.8191 20.0654 30.4118 19.5732Q30.0046 19.0811 29.3806 19.0811Q28.7566 19.0811 28.3405 19.5732Q27.9275 20.0654 27.9275 20.8916ZM33.4109 20.8916Q33.4109 19.9189 33.8475 19.1748Q34.2869 18.4307 35.0193 18.0293Q35.7518 17.6279 36.6043 17.6279Q37.4451 17.6279 38.1688 18.0293Q38.8953 18.4307 39.3318 19.1748Q39.7713 19.9189 39.7713 20.8916Q39.7713 21.8643 39.3318 22.6084Q38.8953 23.3525 38.1688 23.748Q37.4451 24.1436 36.6043 24.1436Q35.7518 24.1436 35.0193 23.748Q34.2869 23.3525 33.8475 22.6084Q33.4109 21.8643 33.4109 20.8916ZM35.1395 20.8916Q35.1395 21.7207 35.5525 22.207Q35.9686 22.6934 36.5926 22.6934Q37.2166 22.6934 37.6238 22.207Q38.0311 21.7207 38.0311 20.8916Q38.0311 20.0654 37.6238 19.5732Q37.2166 19.0811 36.5926 19.0811Q35.9686 19.0811 35.5525 19.5732Q35.1395 20.0654 35.1395 20.8916ZM44.537 17.6279Q45.2929 17.6279 45.9345 18.0117Q46.5761 18.3955 46.954 19.1396Q47.3319 19.8838 47.3319 20.8916Q47.3319 21.8994 46.954 22.6377Q46.5761 23.376 45.9345 23.7598Q45.2929 24.1436 44.537 24.1436Q43.9599 24.1436 43.4677 23.918Q42.9755 23.6895 42.6532 23.2207L42.6532 26.7832L40.9833 26.7832L40.9833 17.7832L42.4481 17.7832L42.4833 18.1934Q42.495 18.3105 42.5067 18.4453Q42.5214 18.5771 42.5448 18.7207Q42.8671 18.167 43.3886 17.8975Q43.913 17.6279 44.537 17.6279ZM44.1532 22.667Q44.8007 22.667 45.202 22.1953Q45.6034 21.7207 45.6034 20.8916Q45.6034 20.0391 45.2079 19.5469Q44.8124 19.0547 44.1532 19.0547Q43.5292 19.0547 43.0897 19.5176Q42.6532 19.9805 42.6532 20.8916Q42.6532 21.791 43.0839 22.2305Q43.5145 22.667 44.1532 22.667ZM48.8187 18.3955L48.8187 16.7285L51.5081 15.2051L52.8646 15.2051L52.8646 24L51.1009 24L51.1009 17.124L48.8187 18.3955Z" fill="rgb(255,255,255)" fill-rule="nonzero" />
						<path id="path4" d="M0 0L3 3L6 0" stroke="rgb(255,255,255)" stroke-linecap="round" stroke-linejoin="round" stroke-width="1" transform="matrix(-1,0,0,1,65,18.5)" />
					</g>
					<g id="容器 91333467" customFrame="url(#clipPath_21)">
						<rect id="容器 91333467" width="71.000000" height="28.000000" x="79.000000" y="6.000000" rx="14.000000" fill="rgb(0,0,0)" />
						<path id="" d="M93.7988 17.7832L95.4688 17.7832L95.4688 24L93.9922 24Q93.9453 23.2793 93.8955 23.0273Q93.585 23.5928 93.0811 23.8682Q92.5771 24.1436 91.9268 24.1436Q90.8838 24.1436 90.2832 23.4727Q89.6826 22.7988 89.6826 21.5039L89.6826 17.7832L91.3525 17.7832L91.3525 20.9531Q91.3525 22.667 92.457 22.667Q93.0547 22.667 93.4268 22.2012Q93.7988 21.7324 93.7988 20.8916L93.7988 17.7832ZM100.593 17.6279Q101.624 17.6279 102.225 18.3076Q102.825 18.9844 102.825 20.2793L102.825 24L101.155 24L101.155 20.8213Q101.155 19.1162 100.027 19.1162Q99.4267 19.1162 99.0605 19.5791Q98.6972 20.0391 98.6972 20.8799L98.6972 24L97.0273 24L97.0273 17.7832L98.4921 17.7832Q98.5507 18.5156 98.6005 18.7793Q99.2011 17.6279 100.593 17.6279ZM107.577 17.6279Q107.937 17.6279 108.248 17.7363Q108.561 17.8447 108.728 18.0117L108.081 19.2949Q107.767 19.0811 107.372 19.0811Q106.725 19.0811 106.335 19.6201Q105.945 20.1592 105.945 21.1084L105.945 24L104.275 24L104.275 17.7832L105.74 17.7832Q105.799 18.5039 105.849 18.7676Q106.124 18.2051 106.566 17.918Q107.012 17.6279 107.577 17.6279ZM108.667 20.8916Q108.667 19.9189 109.103 19.1748Q109.543 18.4307 110.275 18.0293Q111.008 17.6279 111.86 17.6279Q112.701 17.6279 113.425 18.0293Q114.151 18.4307 114.588 19.1748Q115.027 19.9189 115.027 20.8916Q115.027 21.8643 114.588 22.6084Q114.151 23.3525 113.425 23.748Q112.701 24.1436 111.86 24.1436Q111.008 24.1436 110.275 23.748Q109.543 23.3525 109.103 22.6084Q108.667 21.8643 108.667 20.8916ZM110.395 20.8916Q110.395 21.7207 110.809 22.207Q111.225 22.6934 111.849 22.6934Q112.473 22.6934 112.88 22.207Q113.287 21.7207 113.287 20.8916Q113.287 20.0654 112.88 19.5732Q112.473 19.0811 111.849 19.0811Q111.225 19.0811 110.809 19.5732Q110.395 20.0654 110.395 20.8916ZM117.909 24L116.239 24L116.239 14.8682L117.909 14.8682L117.909 24ZM121.125 24L119.455 24L119.455 14.8682L121.125 14.8682L121.125 24ZM125.024 22.4766L128.539 22.4766L128.539 24L122.481 24L122.481 22.8721L125.132 19.8955Q125.815 19.1279 126.084 18.6914Q126.357 18.252 126.357 17.7832Q126.357 17.2676 126.067 16.957Q125.78 16.6436 125.288 16.6436Q124.784 16.6436 124.4 17.0098Q124.016 17.376 123.811 18.0469L122.443 17.2559Q122.756 16.1895 123.571 15.6182Q124.388 15.0469 125.457 15.0469Q126.295 15.0469 126.913 15.3896Q127.532 15.7324 127.86 16.333Q128.191 16.9307 128.191 17.7012Q128.191 18.457 127.825 19.1104Q127.461 19.7637 126.524 20.8066L125.024 22.4766Z" fill="rgb(255,255,255)" fill-rule="nonzero" />
						<path id="path5" d="M0 0L3 3L6 0" stroke="rgb(255,255,255)" stroke-linecap="round" stroke-linejoin="round" stroke-width="1" transform="matrix(-1,0,0,1,140,18.5)" />
					</g>
					<g id="容器 91333468" customFrame="url(#clipPath_22)">
						<rect id="容器 91333468" width="64.000000" height="28.000000" x="154.000000" y="6.000000" rx="14.000000" fill="rgb(0,0,0)" />
						<path id="" d="M168.333 17.6279Q169.089 17.6279 169.73 18.0117Q170.372 18.3955 170.75 19.1396Q171.128 19.8838 171.128 20.8916Q171.128 21.8994 170.75 22.6377Q170.372 23.376 169.73 23.7598Q169.089 24.1436 168.333 24.1436Q167.756 24.1436 167.264 23.918Q166.771 23.6895 166.449 23.2207L166.449 26.7832L164.779 26.7832L164.779 17.7832L166.244 17.7832L166.279 18.1934Q166.291 18.3105 166.303 18.4453Q166.317 18.5771 166.341 18.7207Q166.663 18.167 167.185 17.8975Q167.709 17.6279 168.333 17.6279ZM167.949 22.667Q168.597 22.667 168.998 22.1953Q169.399 21.7207 169.399 20.8916Q169.399 20.0391 169.004 19.5469Q168.608 19.0547 167.949 19.0547Q167.325 19.0547 166.886 19.5176Q166.449 19.9805 166.449 20.8916Q166.449 21.791 166.88 22.2305Q167.311 22.667 167.949 22.667ZM174.859 17.6279Q176.119 17.6279 176.828 18.3428Q177.537 19.0547 177.537 20.376L177.537 24L176.131 24Q176.119 23.9033 176.101 23.6836Q176.084 23.4609 176.049 23.291Q175.773 23.7246 175.334 23.9355Q174.897 24.1436 174.273 24.1436Q173.623 24.1436 173.09 23.918Q172.556 23.6895 172.243 23.25Q171.932 22.8105 171.932 22.2129Q171.932 21.5889 172.287 21.126Q172.641 20.6631 173.239 20.4111Q173.84 20.1592 174.56 20.1592Q175.208 20.1592 175.893 20.376Q175.855 18.9961 174.716 18.9961Q173.805 18.9961 173.383 19.8105L172.196 19.1279Q172.533 18.4307 173.227 18.0293Q173.925 17.6279 174.859 17.6279ZM175.893 21.4805Q175.293 21.3369 174.848 21.3369Q174.259 21.3369 173.933 21.5479Q173.611 21.7559 173.611 22.1396Q173.611 22.4883 173.869 22.6816Q174.127 22.8721 174.537 22.8721Q175.076 22.8721 175.483 22.5674Q175.893 22.2598 175.893 21.7207L175.893 21.4805ZM183.285 23.6396Q182.672 24.1436 181.58 24.1436Q180.572 24.1436 179.954 23.6104Q179.335 23.0771 179.335 21.6973L179.335 19.1895L178.231 19.1895L178.231 17.7832L179.335 17.7832L179.335 15.876L181.005 15.876L181.005 17.7832L182.877 17.7832L182.877 19.1895L181.005 19.1895L181.005 21.4189Q181.005 22.043 181.219 22.3682Q181.436 22.6934 181.916 22.6934Q182.335 22.6934 182.707 22.4414L183.285 23.6396ZM187.605 17.6279Q188.624 17.6279 189.231 18.3076Q189.837 18.9844 189.837 20.2793L189.837 24L188.167 24L188.167 20.8213Q188.167 19.1162 187.039 19.1162Q186.439 19.1162 186.072 19.5791Q185.709 20.0391 185.709 20.8799L185.709 24L184.039 24L184.039 14.8682L185.709 14.8682L185.709 18.6123Q186.307 17.6279 187.605 17.6279ZM197.217 19.6084Q197.217 21.8291 196.411 22.9863Q195.609 24.1436 194.12 24.1436Q192.632 24.1436 191.82 22.9863Q191.012 21.8291 191.012 19.6084Q191.012 17.376 191.82 16.2129Q192.632 15.0469 194.12 15.0469Q195.609 15.0469 196.411 16.2129Q197.217 17.376 197.217 19.6084ZM192.861 19.6084Q192.861 21.0967 193.165 21.8232Q193.473 22.5469 194.12 22.5469Q194.768 22.5469 195.067 21.8232Q195.368 21.0967 195.368 19.6084Q195.368 18.1084 195.067 17.376Q194.768 16.6436 194.12 16.6436Q193.473 16.6436 193.165 17.3701Q192.861 18.0967 192.861 19.6084Z" fill="rgb(255,255,255)" fill-rule="nonzero" />
						<path id="path5" d="M0 0L3 3L6 0" stroke="rgb(255,255,255)" stroke-linecap="round" stroke-linejoin="round" stroke-width="1" transform="matrix(-1,0,0,1,208,18.5)" />
					</g>
				</g>
				<g id="组合 91331737" customFrame="url(#clipPath_23)">
					<rect id="组合 91331737" width="444.000000" height="28.000000" x="222.000000" y="6.000000" rx="14.000000" fill="rgb(0,0,0)" />
					<g id="容器 6769" filter="url(#filter_5)" customFrame="url(#clipPath_24)">
						<rect id="容器 6769" width="60.000000" height="20.000000" x="226.000000" y="10.000000" rx="10.000000" fill="rgb(114,155,255)" />
						<rect id="容器 6769" width="60.000000" height="20.000000" x="226.000000" y="10.000000" rx="10.000000" fill="rgb(0,0,0)" fill-opacity="0.200000003" />
						<rect id="容器 6769" width="59.000000" height="19.000000" x="226.500000" y="10.500000" rx="9.500000" stroke="rgb(99,213,168)" stroke-opacity="0" stroke-width="1" />
						<g id="ic_public_code_1_1">
							<path id="ic_public_code_2_0" d="M0.00113914 4.68368C0.00113914 3.95137 -0.00142393 3.21906 0.00113914 2.48676C-0.000334159 2.13239 0.0432208 1.77928 0.130758 1.43589C0.322623 0.709076 0.79606 0.277746 1.52214 0.110413C1.88621 0.031753 2.25807 -0.00510089 2.63049 0.00056679C4.03482 0.00056679 5.43926 0.00056679 6.84383 0.00056679C7.19855 -0.00163518 7.55225 0.0389345 7.89726 0.121398C8.64531 0.304475 9.09421 0.778279 9.26521 1.52377C9.34208 1.8761 9.37881 2.23601 9.37469 2.5966C9.37469 4.01606 9.37469 5.43564 9.37469 6.85535C9.37661 7.20665 9.33616 7.5569 9.25422 7.89852C9.07115 8.64694 8.59515 9.09365 7.84966 9.26464C7.48554 9.343 7.11372 9.37985 6.74131 9.37449C5.34284 9.37449 3.9445 9.37449 2.54628 9.37449C2.18884 9.37741 1.83235 9.33745 1.48443 9.25549C0.733081 9.07241 0.281979 8.59641 0.111352 7.84726C0.0242069 7.46646 0.00113914 7.08456 0.00113914 6.69936C0.00113914 6.02759 0.00113914 5.3557 0.00113914 4.68368Z" fill="rgb(255,255,255)" fill-opacity="0" fill-rule="nonzero" transform="matrix(-1,0,0,-1,241.688,24.6875)" />
							<path id="ic_public_code_2_0" d="M0.00113914 2.48676C-0.000334159 2.13239 0.0432208 1.77928 0.130758 1.43589C0.322623 0.709076 0.79606 0.277746 1.52214 0.110413C1.88621 0.031753 2.25807 -0.00510089 2.63049 0.00056679C4.03482 0.00056679 5.43926 0.00056679 6.84383 0.00056679C7.19855 -0.00163518 7.55225 0.0389345 7.89726 0.121398C8.64531 0.304475 9.09421 0.778279 9.26521 1.52377C9.34208 1.8761 9.37881 2.23601 9.37469 2.5966C9.37469 4.01606 9.37469 5.43564 9.37469 6.85535C9.37661 7.20665 9.33616 7.5569 9.25422 7.89852C9.07115 8.64694 8.59515 9.09365 7.84966 9.26464C7.48554 9.343 7.11372 9.37985 6.74131 9.37449C5.34284 9.37449 3.9445 9.37449 2.54628 9.37449C2.18884 9.37741 1.83235 9.33745 1.48443 9.25549C0.733081 9.07241 0.281979 8.59641 0.111352 7.84726C0.0242069 7.46646 0.00113914 7.08456 0.00113914 6.69936C0.00113914 6.02759 0.00113914 5.3557 0.00113914 4.68368C0.00113914 3.95137 -0.00142393 3.21906 0.00113914 2.48676Z" fill-rule="nonzero" stroke="rgb(255,255,255)" stroke-opacity="0" stroke-width="0.997500002" transform="matrix(-1,0,0,-1,241.688,24.6875)" />
							<path id="ic_public_code_2_1" d="M0.00113914 2.48676C-0.000334159 2.13239 0.0432208 1.77928 0.130758 1.43589C0.322623 0.709076 0.79606 0.277746 1.52214 0.110413C1.88621 0.031753 2.25807 -0.00510089 2.63049 0.00056679C4.03482 0.00056679 5.43926 0.00056679 6.84383 0.00056679C7.19855 -0.00163518 7.55225 0.0389345 7.89726 0.121398C8.64531 0.304475 9.09421 0.778279 9.26521 1.52377C9.34208 1.8761 9.37881 2.23601 9.37469 2.5966C9.37469 4.01606 9.37469 5.43564 9.37469 6.85535C9.37661 7.20665 9.33616 7.5569 9.25422 7.89852C9.07115 8.64694 8.59515 9.09365 7.84966 9.26464C7.48554 9.343 7.11372 9.37985 6.74131 9.37449C5.34284 9.37449 3.9445 9.37449 2.54628 9.37449C2.18884 9.37741 1.83235 9.33745 1.48443 9.25549C0.733081 9.07241 0.281979 8.59641 0.111352 7.84726C0.0242069 7.46646 0.00113914 7.08456 0.00113914 6.69936C0.00113914 6.02759 0.00113914 5.3557 0.00113914 4.68368C0.00113914 3.95137 -0.00142393 3.21906 0.00113914 2.48676Z" opacity="0.200000003" fill-rule="nonzero" stroke="rgb(255,255,255)" stroke-opacity="0" stroke-width="0.997500002" transform="matrix(-1,0,0,-1,241.688,24.6875)" />
							<circle id="ic_public_code_2_2" cx="5" cy="5" r="5" fill="rgb(255,255,255)" fill-opacity="0" transform="matrix(-1,0,0,-1,242,25)" />
							<g id="组合 91331839">
								<path id="矩形 77319(边框)" d="M0.394847 2.43945L5.19742 0.0381654C5.43489 -0.080567 5.71429 0.0921101 5.71429 0.357604L5.71429 3.624C5.71429 3.89455 5.56143 4.14188 5.31944 4.26287L0.516862 6.66416C0.279397 6.78289 0 6.61022 0 6.34472L0 3.07833C0 2.80778 0.152859 2.56045 0.394847 2.43945ZM0.713488 3.07673L5.00179 0.932584L5.00179 3.624L5.00154 3.62495L5.0008 3.62559L0.7125 5.76974L0.7125 3.07833L0.712746 3.07738L0.713488 3.07673Z" fill="rgb(255,255,255)" fill-rule="evenodd" transform="matrix(-1,0,0,-1,242,24.7798)" />
								<path id="减去顶层" d="M3.30827 0.894636L3.42566 1.95118L4.71679 1.30562L4.71679 3.35931L4.71644 3.36064L4.7154 3.36154L0.9975 5.2205L0.9975 3.77784L0 3.97734L0 6.02547C0 6.39716 0.391156 6.63891 0.723607 6.47268L5.1615 4.25374C5.50028 4.08434 5.71429 3.73808 5.71429 3.35931L5.71429 0.500645C5.71429 0.128954 5.32313 -0.112794 4.99068 0.0534315L3.30827 0.894636Z" fill="rgb(255,255,255)" fill-rule="evenodd" transform="matrix(-1,0,0,-1,239.857,23.3516)" />
								<path id="减去顶层" d="M3.57143 0.851163L5.19742 0.0381653C5.43489 -0.080567 5.71429 0.0921101 5.71429 0.357604L5.71429 3.624C5.71429 3.89455 5.56143 4.14188 5.31944 4.26287L0.516862 6.66416C0.279397 6.78289 0 6.61022 0 6.34472L0 4.06529L0.7125 4.06529L0.7125 5.76974L5.0008 3.62559L5.00154 3.62495L5.00179 3.624L5.00179 0.932584L3.57143 1.64776L3.57143 0.851163Z" fill="rgb(255,255,255)" fill-rule="evenodd" transform="matrix(-1,0,0,-1,237.714,21.9224)" />
							</g>
						</g>
						<path id="" d="M244.097 15.2168L251.175 15.2168L251.175 16.7637L248.512 16.7637L248.512 24L246.76 24L246.76 16.7637L244.097 16.7637L244.097 15.2168ZM253.467 17.6279Q254.296 17.6279 254.938 17.9941Q255.579 18.3604 255.934 19.0283Q256.288 19.6934 256.288 20.5547Q256.288 20.9414 256.215 21.3369L252.087 21.3369Q252.196 22.0312 252.591 22.3857Q252.987 22.7402 253.575 22.7402Q253.997 22.7402 254.325 22.5557Q254.657 22.3682 254.835 21.9961L256.06 22.7168Q255.808 23.3994 255.093 23.7715Q254.381 24.1436 253.505 24.1436Q252.664 24.1436 251.944 23.7715Q251.223 23.3994 250.783 22.6553Q250.347 21.9111 250.347 20.8682Q250.347 19.8369 250.783 19.1045Q251.223 18.3721 251.932 18Q252.641 17.6279 253.467 17.6279ZM253.42 18.9844Q252.928 18.9844 252.579 19.2979Q252.231 19.6084 252.111 20.1709L254.583 20.1709Q254.536 19.5967 254.217 19.292Q253.901 18.9844 253.42 18.9844ZM260.957 17.6279Q261.988 17.6279 262.589 18.3076Q263.189 18.9844 263.189 20.2793L263.189 24L261.519 24L261.519 20.8213Q261.519 19.1162 260.391 19.1162Q259.791 19.1162 259.424 19.5791Q259.061 20.0391 259.061 20.8799L259.061 24L257.391 24L257.391 17.7832L258.856 17.7832Q258.915 18.5156 258.965 18.7793Q259.565 17.6279 260.957 17.6279ZM269.248 22.1514Q269.248 23.0771 268.533 23.6104Q267.821 24.1436 266.681 24.1436Q265.697 24.1436 264.982 23.7246Q264.267 23.3027 264.015 22.5586L265.228 21.8525Q265.407 22.2949 265.791 22.541Q266.177 22.7871 266.693 22.7871Q267.077 22.7871 267.302 22.6436Q267.531 22.5 267.531 22.2363Q267.531 21.9346 267.232 21.7734Q266.933 21.6123 266.295 21.4307Q265.659 21.2402 265.257 21.0615Q264.856 20.8799 264.56 20.54Q264.267 20.1973 264.267 19.6436Q264.267 19.0195 264.61 18.5654Q264.953 18.1084 265.527 17.8682Q266.104 17.6279 266.787 17.6279Q267.724 17.6279 268.372 18.0293Q269.019 18.4307 269.189 19.0928L267.976 19.7754Q267.616 18.9961 266.763 18.9961Q266.403 18.9961 266.186 19.1338Q265.972 19.2715 265.972 19.5234Q265.972 19.8105 266.259 19.9629Q266.549 20.1123 267.159 20.2793Q267.809 20.4609 268.228 20.6426Q268.647 20.8213 268.946 21.1875Q269.248 21.5508 269.248 22.1514ZM269.895 20.8916Q269.895 19.9189 270.331 19.1748Q270.771 18.4307 271.503 18.0293Q272.236 17.6279 273.088 17.6279Q273.929 17.6279 274.653 18.0293Q275.379 18.4307 275.816 19.1748Q276.255 19.9189 276.255 20.8916Q276.255 21.8643 275.816 22.6084Q275.379 23.3525 274.653 23.748Q273.929 24.1436 273.088 24.1436Q272.236 24.1436 271.503 23.748Q270.771 23.3525 270.331 22.6084Q269.895 21.8643 269.895 20.8916ZM271.623 20.8916Q271.623 21.7207 272.037 22.207Q272.453 22.6934 273.077 22.6934Q273.701 22.6934 274.108 22.207Q274.515 21.7207 274.515 20.8916Q274.515 20.0654 274.108 19.5732Q273.701 19.0811 273.077 19.0811Q272.453 19.0811 272.037 19.5732Q271.623 20.0654 271.623 20.8916ZM280.769 17.6279Q281.129 17.6279 281.44 17.7363Q281.753 17.8447 281.92 18.0117L281.273 19.2949Q280.959 19.0811 280.564 19.0811Q279.917 19.0811 279.527 19.6201Q279.137 20.1592 279.137 21.1084L279.137 24L277.467 24L277.467 17.7832L278.932 17.7832Q278.991 18.5039 279.041 18.7676Q279.316 18.2051 279.758 17.918Q280.204 17.6279 280.769 17.6279Z" fill="rgb(255,255,255)" fill-rule="nonzero" />
					</g>
					<g id="dots" customFrame="url(#clipPath_25)">
						<rect id="dots" width="366.000000" height="14.000000" x="290.000000" y="13.000000" />
						<circle id="椭圆 2495" cx="292.5" cy="20" r="2.5" fill="rgb(246,158,57)" fill-opacity="0.200000003" />
						<circle id="椭圆 2495" cx="292.5" cy="20" r="3" stroke="rgb(250,100,1)" stroke-width="1" />
						<circle id="椭圆 2496" cx="301.5" cy="20" r="2.5" fill="rgb(114,155,255)" />
						<circle id="椭圆 2496" cx="301.5" cy="20" r="2" stroke="rgb(114,155,255)" stroke-width="1" />
						<circle id="椭圆 2497" cx="310.5" cy="20" r="2.5" fill="rgb(114,155,255)" />
						<circle id="椭圆 2497" cx="310.5" cy="20" r="2" stroke="rgb(114,155,255)" stroke-width="1" />
						<circle id="椭圆 2498" cx="319.5" cy="20" r="2.5" fill="rgb(114,155,255)" />
						<circle id="椭圆 2498" cx="319.5" cy="20" r="2" stroke="rgb(114,155,255)" stroke-width="1" />
						<g id="容器 6756" filter="url(#filter_6)" customFrame="url(#clipPath_26)">
							<rect id="容器 6756" width="42.000000" height="20.000000" x="326.000000" y="10.000000" rx="10.000000" fill="rgb(133,217,56)" />
							<rect id="容器 6756" width="42.000000" height="20.000000" x="326.000000" y="10.000000" rx="10.000000" fill="rgb(0,0,0)" fill-opacity="0.200000003" />
							<rect id="容器 6756" width="41.000000" height="19.000000" x="326.500000" y="10.500000" rx="9.500000" stroke="rgb(99,213,168)" stroke-opacity="0" stroke-width="1" />
							<g id="ic_public_code_1_1">
								<path id="ic_public_code_2_0" d="M0.00113914 4.68368C0.00113914 3.95137 -0.00142393 3.21906 0.00113914 2.48676C-0.000334159 2.13239 0.0432208 1.77928 0.130758 1.43589C0.322623 0.709076 0.79606 0.277746 1.52214 0.110413C1.88621 0.031753 2.25807 -0.00510089 2.63049 0.00056679C4.03482 0.00056679 5.43926 0.00056679 6.84383 0.00056679C7.19855 -0.00163518 7.55225 0.0389345 7.89726 0.121398C8.64531 0.304475 9.09421 0.778279 9.26521 1.52377C9.34208 1.8761 9.37881 2.23601 9.37469 2.5966C9.37469 4.01606 9.37469 5.43564 9.37469 6.85535C9.37661 7.20665 9.33616 7.5569 9.25422 7.89852C9.07115 8.64694 8.59515 9.09365 7.84966 9.26464C7.48554 9.343 7.11372 9.37985 6.74131 9.37449C5.34284 9.37449 3.9445 9.37449 2.54628 9.37449C2.18884 9.37741 1.83235 9.33745 1.48443 9.25549C0.733081 9.07241 0.281979 8.59641 0.111352 7.84726C0.0242069 7.46646 0.00113914 7.08456 0.00113914 6.69936C0.00113914 6.02759 0.00113914 5.3557 0.00113914 4.68368Z" fill="rgb(255,255,255)" fill-opacity="0" fill-rule="nonzero" transform="matrix(-1,0,0,-1,341.688,24.6875)" />
								<path id="ic_public_code_2_0" d="M0.00113914 2.48676C-0.000334159 2.13239 0.0432208 1.77928 0.130758 1.43589C0.322623 0.709076 0.79606 0.277746 1.52214 0.110413C1.88621 0.031753 2.25807 -0.00510089 2.63049 0.00056679C4.03482 0.00056679 5.43926 0.00056679 6.84383 0.00056679C7.19855 -0.00163518 7.55225 0.0389345 7.89726 0.121398C8.64531 0.304475 9.09421 0.778279 9.26521 1.52377C9.34208 1.8761 9.37881 2.23601 9.37469 2.5966C9.37469 4.01606 9.37469 5.43564 9.37469 6.85535C9.37661 7.20665 9.33616 7.5569 9.25422 7.89852C9.07115 8.64694 8.59515 9.09365 7.84966 9.26464C7.48554 9.343 7.11372 9.37985 6.74131 9.37449C5.34284 9.37449 3.9445 9.37449 2.54628 9.37449C2.18884 9.37741 1.83235 9.33745 1.48443 9.25549C0.733081 9.07241 0.281979 8.59641 0.111352 7.84726C0.0242069 7.46646 0.00113914 7.08456 0.00113914 6.69936C0.00113914 6.02759 0.00113914 5.3557 0.00113914 4.68368C0.00113914 3.95137 -0.00142393 3.21906 0.00113914 2.48676Z" fill-rule="nonzero" stroke="rgb(255,255,255)" stroke-opacity="0" stroke-width="0.997500002" transform="matrix(-1,0,0,-1,341.688,24.6875)" />
								<path id="ic_public_code_2_1" d="M0.00113914 2.48676C-0.000334159 2.13239 0.0432208 1.77928 0.130758 1.43589C0.322623 0.709076 0.79606 0.277746 1.52214 0.110413C1.88621 0.031753 2.25807 -0.00510089 2.63049 0.00056679C4.03482 0.00056679 5.43926 0.00056679 6.84383 0.00056679C7.19855 -0.00163518 7.55225 0.0389345 7.89726 0.121398C8.64531 0.304475 9.09421 0.778279 9.26521 1.52377C9.34208 1.8761 9.37881 2.23601 9.37469 2.5966C9.37469 4.01606 9.37469 5.43564 9.37469 6.85535C9.37661 7.20665 9.33616 7.5569 9.25422 7.89852C9.07115 8.64694 8.59515 9.09365 7.84966 9.26464C7.48554 9.343 7.11372 9.37985 6.74131 9.37449C5.34284 9.37449 3.9445 9.37449 2.54628 9.37449C2.18884 9.37741 1.83235 9.33745 1.48443 9.25549C0.733081 9.07241 0.281979 8.59641 0.111352 7.84726C0.0242069 7.46646 0.00113914 7.08456 0.00113914 6.69936C0.00113914 6.02759 0.00113914 5.3557 0.00113914 4.68368C0.00113914 3.95137 -0.00142393 3.21906 0.00113914 2.48676Z" opacity="0.200000003" fill-rule="nonzero" stroke="rgb(255,255,255)" stroke-opacity="0" stroke-width="0.997500002" transform="matrix(-1,0,0,-1,341.688,24.6875)" />
								<circle id="ic_public_code_2_2" cx="5" cy="5" r="5" fill="rgb(255,255,255)" fill-opacity="0" transform="matrix(-1,0,0,-1,342,25)" />
								<g id="组合 91331839">
									<path id="矩形 77319(边框)" d="M0.394847 2.43945L5.19742 0.0381654C5.43489 -0.080567 5.71429 0.0921101 5.71429 0.357604L5.71429 3.624C5.71429 3.89455 5.56143 4.14188 5.31944 4.26287L0.516862 6.66416C0.279397 6.78289 0 6.61022 0 6.34472L0 3.07833C0 2.80778 0.152859 2.56045 0.394847 2.43945ZM0.713488 3.07673L5.00179 0.932584L5.00179 3.624L5.00154 3.62495L5.0008 3.62559L0.7125 5.76974L0.7125 3.07833L0.712746 3.07738L0.713488 3.07673Z" fill="rgb(255,255,255)" fill-rule="evenodd" transform="matrix(-1,0,0,-1,342,24.7798)" />
									<path id="减去顶层" d="M3.30827 0.894636L3.42566 1.95118L4.71679 1.30562L4.71679 3.35931L4.71644 3.36064L4.7154 3.36154L0.9975 5.2205L0.9975 3.77784L0 3.97734L0 6.02547C0 6.39716 0.391156 6.63891 0.723607 6.47268L5.1615 4.25374C5.50028 4.08434 5.71429 3.73808 5.71429 3.35931L5.71429 0.500645C5.71429 0.128954 5.32313 -0.112794 4.99068 0.0534315L3.30827 0.894636Z" fill="rgb(255,255,255)" fill-rule="evenodd" transform="matrix(-1,0,0,-1,339.857,23.3516)" />
									<path id="减去顶层" d="M3.57143 0.851163L5.19742 0.0381653C5.43489 -0.080567 5.71429 0.0921101 5.71429 0.357604L5.71429 3.624C5.71429 3.89455 5.56143 4.14188 5.31944 4.26287L0.516862 6.66416C0.279397 6.78289 0 6.61022 0 6.34472L0 4.06529L0.7125 4.06529L0.7125 5.76974L5.0008 3.62559L5.00154 3.62495L5.00179 3.624L5.00179 0.932584L3.57143 1.64776L3.57143 0.851163Z" fill="rgb(255,255,255)" fill-rule="evenodd" transform="matrix(-1,0,0,-1,337.714,21.9224)" />
								</g>
							</g>
							<path id="" d="M343.097 15.2168L350.175 15.2168L350.175 16.7637L347.512 16.7637L347.512 24L345.76 24L345.76 16.7637L343.097 16.7637L343.097 15.2168ZM351.881 16.9922Q351.485 16.9922 351.189 16.6875Q350.896 16.3799 350.896 15.9727Q350.896 15.5508 351.183 15.252Q351.473 14.9531 351.881 14.9531Q352.288 14.9531 352.587 15.2607Q352.888 15.5654 352.888 15.9727Q352.888 16.3799 352.587 16.6875Q352.288 16.9922 351.881 16.9922ZM352.733 24L351.063 24L351.063 17.7832L352.733 17.7832L352.733 24ZM355.949 24L354.279 24L354.279 14.8682L355.949 14.8682L355.949 24ZM360.255 17.6279Q361.084 17.6279 361.726 17.9941Q362.367 18.3604 362.722 19.0283Q363.076 19.6934 363.076 20.5547Q363.076 20.9414 363.003 21.3369L358.875 21.3369Q358.984 22.0312 359.379 22.3857Q359.775 22.7402 360.363 22.7402Q360.785 22.7402 361.113 22.5557Q361.445 22.3682 361.623 21.9961L362.848 22.7168Q362.596 23.3994 361.881 23.7715Q361.169 24.1436 360.293 24.1436Q359.452 24.1436 358.732 23.7715Q358.011 23.3994 357.571 22.6553Q357.135 21.9111 357.135 20.8682Q357.135 19.8369 357.571 19.1045Q358.011 18.3721 358.72 18Q359.429 17.6279 360.255 17.6279ZM360.208 18.9844Q359.716 18.9844 359.367 19.2979Q359.019 19.6084 358.899 20.1709L361.371 20.1709Q361.324 19.5967 361.005 19.292Q360.689 18.9844 360.208 18.9844Z" fill="rgb(255,255,255)" fill-rule="nonzero" />
						</g>
						<circle id="椭圆 2497" cx="374.5" cy="20" r="2.5" fill="rgb(133,217,56)" />
						<circle id="椭圆 2497" cx="374.5" cy="20" r="2" stroke="rgb(133,217,56)" stroke-width="1" />
						<circle id="椭圆 2498" cx="383.5" cy="20" r="2.5" fill="rgb(133,217,56)" />
						<circle id="椭圆 2498" cx="383.5" cy="20" r="2" stroke="rgb(133,217,56)" stroke-width="1" />
						<circle id="椭圆 2499" cx="392.5" cy="20" r="2.5" fill="rgb(133,217,56)" />
						<circle id="椭圆 2499" cx="392.5" cy="20" r="2" stroke="rgb(133,217,56)" stroke-width="1" />
						<circle id="椭圆 2500" cx="401.5" cy="20" r="2.5" fill="rgb(133,217,56)" />
						<circle id="椭圆 2500" cx="401.5" cy="20" r="2" stroke="rgb(133,217,56)" stroke-width="1" />
						<circle id="椭圆 2501" cx="410.5" cy="20" r="2.5" fill="rgb(133,217,56)" />
						<circle id="椭圆 2501" cx="410.5" cy="20" r="2" stroke="rgb(133,217,56)" stroke-width="1" />
						<circle id="椭圆 2502" cx="419.5" cy="20" r="2.5" fill="rgb(133,217,56)" />
						<circle id="椭圆 2502" cx="419.5" cy="20" r="2" stroke="rgb(133,217,56)" stroke-width="1" />
						<circle id="椭圆 2503" cx="428.5" cy="20" r="2.5" fill="rgb(246,158,57)" fill-opacity="0.200000003" />
						<circle id="椭圆 2503" cx="428.5" cy="20" r="3" stroke="rgb(250,100,1)" stroke-width="1" />
						<circle id="椭圆 2504" cx="437.5" cy="20" r="2.5" fill="rgb(133,217,56)" />
						<circle id="椭圆 2504" cx="437.5" cy="20" r="2" stroke="rgb(133,217,56)" stroke-width="1" />
						<circle id="椭圆 2505" cx="446.5" cy="20" r="2.5" fill="rgb(133,217,56)" />
						<circle id="椭圆 2505" cx="446.5" cy="20" r="2" stroke="rgb(133,217,56)" stroke-width="1" />
						<circle id="椭圆 2506" cx="455.5" cy="20" r="2.5" fill="rgb(133,217,56)" />
						<circle id="椭圆 2506" cx="455.5" cy="20" r="2" stroke="rgb(133,217,56)" stroke-width="1" />
						<circle id="椭圆 2507" cx="464.5" cy="20" r="2.5" fill="rgb(133,217,56)" />
						<circle id="椭圆 2507" cx="464.5" cy="20" r="2" stroke="rgb(133,217,56)" stroke-width="1" />
						<circle id="椭圆 2508" cx="473.5" cy="20" r="2.5" fill="rgb(133,217,56)" />
						<circle id="椭圆 2508" cx="473.5" cy="20" r="2" stroke="rgb(133,217,56)" stroke-width="1" />
						<circle id="椭圆 2509" cx="482.5" cy="20" r="2.5" fill="rgb(133,217,56)" />
						<circle id="椭圆 2509" cx="482.5" cy="20" r="2" stroke="rgb(133,217,56)" stroke-width="1" />
						<circle id="椭圆 2529" cx="491.5" cy="20" r="2.5" fill="rgb(133,217,56)" />
						<circle id="椭圆 2529" cx="491.5" cy="20" r="2" stroke="rgb(133,217,56)" stroke-width="1" />
						<circle id="椭圆 2511" cx="500.5" cy="20" r="2.5" fill="rgb(133,217,56)" />
						<circle id="椭圆 2511" cx="500.5" cy="20" r="2" stroke="rgb(255,255,255)" stroke-opacity="0" stroke-width="1" />
						<circle id="椭圆 2512" cx="509.5" cy="20" r="2.5" fill="rgb(246,158,57)" fill-opacity="0.200000003" />
						<circle id="椭圆 2512" cx="509.5" cy="20" r="3" stroke="rgb(250,100,1)" stroke-width="1" />
						<circle id="椭圆 2513" cx="518.5" cy="20" r="2.5" fill="rgb(246,158,57)" fill-opacity="0.200000003" />
						<circle id="椭圆 2513" cx="518.5" cy="20" r="3" stroke="rgb(250,100,1)" stroke-width="1" />
						<circle id="椭圆 2514" cx="527.5" cy="20" r="2.5" fill="rgb(133,217,56)" />
						<circle id="椭圆 2514" cx="527.5" cy="20" r="2" stroke="rgb(255,255,255)" stroke-opacity="0" stroke-width="1" />
						<circle id="椭圆 2515" cx="536.5" cy="20" r="2.5" fill="rgb(133,217,56)" />
						<circle id="椭圆 2515" cx="536.5" cy="20" r="2" stroke="rgb(255,255,255)" stroke-opacity="0" stroke-width="1" />
						<circle id="椭圆 2516" cx="545.5" cy="20" r="2.5" fill="rgb(133,217,56)" />
						<circle id="椭圆 2516" cx="545.5" cy="20" r="2" stroke="rgb(255,255,255)" stroke-opacity="0" stroke-width="1" />
						<circle id="椭圆 2517" cx="554.5" cy="20" r="2.5" fill="rgb(133,217,56)" />
						<circle id="椭圆 2517" cx="554.5" cy="20" r="2" stroke="rgb(255,255,255)" stroke-opacity="0" stroke-width="1" />
						<circle id="椭圆 2518" cx="563.5" cy="20" r="2.5" fill="rgb(133,217,56)" />
						<circle id="椭圆 2518" cx="563.5" cy="20" r="2" stroke="rgb(255,255,255)" stroke-opacity="0" stroke-width="1" />
						<circle id="椭圆 2519" cx="572.5" cy="20" r="2.5" fill="rgb(232,179,0)" />
						<circle id="椭圆 2519" cx="572.5" cy="20" r="2" stroke="rgb(255,255,255)" stroke-opacity="0" stroke-width="1" />
						<circle id="椭圆 2520" cx="581.5" cy="20" r="2.5" fill="rgb(232,179,0)" />
						<circle id="椭圆 2520" cx="581.5" cy="20" r="2" stroke="rgb(255,255,255)" stroke-opacity="0" stroke-width="1" />
						<circle id="椭圆 2521" cx="590.5" cy="20" r="2.5" fill="rgb(224,32,32)" fill-opacity="0.200000003" />
						<circle id="椭圆 2521" cx="590.5" cy="20" r="3" stroke="rgb(224,32,32)" stroke-width="1" />
						<circle id="椭圆 2522" cx="599.5" cy="20" r="2.5" fill="rgb(232,179,0)" />
						<circle id="椭圆 2522" cx="599.5" cy="20" r="2" stroke="rgb(255,255,255)" stroke-opacity="0" stroke-width="1" />
						<circle id="椭圆 2523" cx="608.5" cy="20" r="2.5" fill="rgb(232,179,0)" />
						<circle id="椭圆 2523" cx="608.5" cy="20" r="2" stroke="rgb(255,255,255)" stroke-opacity="0" stroke-width="1" />
						<circle id="椭圆 2524" cx="617.5" cy="20" r="2.5" fill="rgb(232,179,0)" />
						<circle id="椭圆 2524" cx="617.5" cy="20" r="2" stroke="rgb(255,255,255)" stroke-opacity="0" stroke-width="1" />
						<circle id="椭圆 2525" cx="626.5" cy="20" r="2.5" fill="rgb(232,179,0)" />
						<circle id="椭圆 2525" cx="626.5" cy="20" r="2" stroke="rgb(255,255,255)" stroke-opacity="0" stroke-width="1" />
						<circle id="椭圆 2526" cx="635.5" cy="20" r="2.5" fill="rgb(232,179,0)" />
						<circle id="椭圆 2526" cx="635.5" cy="20" r="2" stroke="rgb(255,255,255)" stroke-opacity="0" stroke-width="1" />
						<circle id="椭圆 2527" cx="644.5" cy="20" r="2.5" fill="rgb(232,179,0)" />
						<circle id="椭圆 2527" cx="644.5" cy="20" r="2" stroke="rgb(255,255,255)" stroke-opacity="0" stroke-width="1" />
						<circle id="椭圆 2528" cx="653.5" cy="20" r="2.5" fill="rgb(232,179,0)" />
						<circle id="椭圆 2528" cx="653.5" cy="20" r="2" stroke="rgb(255,255,255)" stroke-opacity="0" stroke-width="1" />
					</g>
				</g>
				<g id="容器 91333469" customFrame="url(#clipPath_27)">
					<rect id="容器 91333469" width="59.000000" height="28.000000" x="670.000000" y="6.000000" rx="14.000000" fill="rgb(0,0,0)" />
					<path id="" d="M682.449 24L680.779 24L680.779 14.8682L682.449 14.8682L682.449 24ZM686.755 17.6279Q687.584 17.6279 688.226 17.9941Q688.867 18.3604 689.222 19.0283Q689.576 19.6934 689.576 20.5547Q689.576 20.9414 689.503 21.3369L685.375 21.3369Q685.484 22.0312 685.879 22.3857Q686.275 22.7402 686.863 22.7402Q687.285 22.7402 687.613 22.5557Q687.945 22.3682 688.123 21.9961L689.348 22.7168Q689.096 23.3994 688.381 23.7715Q687.669 24.1436 686.793 24.1436Q685.952 24.1436 685.232 23.7715Q684.511 23.3994 684.071 22.6553Q683.635 21.9111 683.635 20.8682Q683.635 19.8369 684.071 19.1045Q684.511 18.3721 685.22 18Q685.929 17.6279 686.755 17.6279ZM686.708 18.9844Q686.216 18.9844 685.867 19.2979Q685.519 19.6084 685.399 20.1709L687.871 20.1709Q687.824 19.5967 687.505 19.292Q687.189 18.9844 686.708 18.9844ZM693.307 17.6279Q694.567 17.6279 695.276 18.3428Q695.985 19.0547 695.985 20.376L695.985 24L694.579 24Q694.567 23.9033 694.549 23.6836Q694.532 23.4609 694.497 23.291Q694.221 23.7246 693.782 23.9355Q693.345 24.1436 692.721 24.1436Q692.071 24.1436 691.538 23.918Q691.005 23.6895 690.691 23.25Q690.38 22.8105 690.38 22.2129Q690.38 21.5889 690.735 21.126Q691.089 20.6631 691.687 20.4111Q692.288 20.1592 693.008 20.1592Q693.656 20.1592 694.341 20.376Q694.303 18.9961 693.164 18.9961Q692.253 18.9961 691.831 19.8105L690.644 19.1279Q690.981 18.4307 691.675 18.0293Q692.373 17.6279 693.307 17.6279ZM694.341 21.4805Q693.741 21.3369 693.296 21.3369Q692.707 21.3369 692.381 21.5479Q692.059 21.7559 692.059 22.1396Q692.059 22.4883 692.317 22.6816Q692.575 22.8721 692.985 22.8721Q693.524 22.8721 693.931 22.5674Q694.341 22.2598 694.341 21.7207L694.341 21.4805ZM700.412 16.1631Q699.967 16.1631 699.738 16.4883Q699.513 16.8135 699.513 17.543L699.513 17.7832L701.133 17.7832L701.133 19.1748L699.513 19.1748L699.513 24L697.843 24L697.843 19.1748L696.776 19.1748L696.776 17.7832L697.843 17.7832L697.843 17.4844Q697.843 16.0811 698.514 15.3984Q699.188 14.7129 700.269 14.7129Q700.796 14.7129 701.203 14.8682Q701.613 15.0234 701.851 15.2754L701.215 16.4766Q700.843 16.1631 700.412 16.1631ZM705.248 18.4072Q706.063 18.4072 706.699 18.7617Q707.337 19.1162 707.683 19.752Q708.032 20.3877 708.032 21.2051Q708.032 22.0547 707.618 22.7285Q707.205 23.3994 706.491 23.7715Q705.776 24.1436 704.935 24.1436Q704.071 24.1436 703.362 23.7656Q702.656 23.3877 702.248 22.7051Q701.841 22.0195 701.841 21.1201Q701.841 20.4492 702.093 19.8311Q702.345 19.2129 702.981 18.2051L704.876 15.2051L706.76 15.2051L705.043 17.8447Q704.841 18.167 704.601 18.4922Q704.888 18.4072 705.248 18.4072ZM704.923 22.585Q705.489 22.585 705.834 22.207Q706.183 21.8291 706.183 21.2285Q706.183 20.6279 705.834 20.25Q705.489 19.8721 704.923 19.8721Q704.349 19.8721 704 20.25Q703.652 20.6279 703.652 21.2285Q703.652 21.8408 704.006 22.2129Q704.361 22.585 704.923 22.585Z" fill="rgb(255,255,255)" fill-rule="nonzero" />
					<path id="path5" d="M0 0L3 3L6 0" stroke="rgb(255,255,255)" stroke-linecap="round" stroke-linejoin="round" stroke-width="1" transform="matrix(-1,0,0,1,719,18.5)" />
				</g>
				<g id="组合 91333462" customFrame="url(#clipPath_28)">
					<rect id="组合 91333462" width="133.000000" height="28.000000" x="733.000000" y="6.000000" rx="14.000000" fill="rgb(0,0,0)" />
					<g id="容器 6739" filter="url(#filter_7)" customFrame="url(#clipPath_29)">
						<rect id="容器 6739" width="53.000000" height="20.000000" x="737.000000" y="10.000000" rx="10.000000" fill="rgb(247,181,1)" />
						<rect id="容器 6739" width="53.000000" height="20.000000" x="737.000000" y="10.000000" rx="10.000000" fill="rgb(0,0,0)" fill-opacity="0.200000003" />
						<rect id="容器 6739" width="52.000000" height="19.000000" x="737.500000" y="10.500000" rx="9.500000" stroke="rgb(99,213,168)" stroke-opacity="0" stroke-width="1" />
						<g id="ic_public_code_1_1">
							<path id="ic_public_code_2_0" d="M0.00113914 4.68368C0.00113914 3.95137 -0.00142393 3.21906 0.00113914 2.48676C-0.000334159 2.13239 0.0432208 1.77928 0.130758 1.43589C0.322623 0.709076 0.79606 0.277746 1.52214 0.110413C1.88621 0.031753 2.25807 -0.00510089 2.63049 0.00056679C4.03482 0.00056679 5.43926 0.00056679 6.84383 0.00056679C7.19855 -0.00163518 7.55225 0.0389345 7.89726 0.121398C8.64531 0.304475 9.09421 0.778279 9.26521 1.52377C9.34208 1.8761 9.37881 2.23601 9.37469 2.5966C9.37469 4.01606 9.37469 5.43564 9.37469 6.85535C9.37661 7.20665 9.33616 7.5569 9.25422 7.89852C9.07115 8.64694 8.59515 9.09365 7.84966 9.26464C7.48554 9.343 7.11372 9.37985 6.74131 9.37449C5.34284 9.37449 3.9445 9.37449 2.54628 9.37449C2.18884 9.37741 1.83235 9.33745 1.48443 9.25549C0.733081 9.07241 0.281979 8.59641 0.111352 7.84726C0.0242069 7.46646 0.00113914 7.08456 0.00113914 6.69936C0.00113914 6.02759 0.00113914 5.3557 0.00113914 4.68368Z" fill="rgb(255,255,255)" fill-opacity="0" fill-rule="nonzero" transform="matrix(-1,0,0,-1,752.688,24.6875)" />
							<path id="ic_public_code_2_0" d="M0.00113914 2.48676C-0.000334159 2.13239 0.0432208 1.77928 0.130758 1.43589C0.322623 0.709076 0.79606 0.277746 1.52214 0.110413C1.88621 0.031753 2.25807 -0.00510089 2.63049 0.00056679C4.03482 0.00056679 5.43926 0.00056679 6.84383 0.00056679C7.19855 -0.00163518 7.55225 0.0389345 7.89726 0.121398C8.64531 0.304475 9.09421 0.778279 9.26521 1.52377C9.34208 1.8761 9.37881 2.23601 9.37469 2.5966C9.37469 4.01606 9.37469 5.43564 9.37469 6.85535C9.37661 7.20665 9.33616 7.5569 9.25422 7.89852C9.07115 8.64694 8.59515 9.09365 7.84966 9.26464C7.48554 9.343 7.11372 9.37985 6.74131 9.37449C5.34284 9.37449 3.9445 9.37449 2.54628 9.37449C2.18884 9.37741 1.83235 9.33745 1.48443 9.25549C0.733081 9.07241 0.281979 8.59641 0.111352 7.84726C0.0242069 7.46646 0.00113914 7.08456 0.00113914 6.69936C0.00113914 6.02759 0.00113914 5.3557 0.00113914 4.68368C0.00113914 3.95137 -0.00142393 3.21906 0.00113914 2.48676Z" fill-rule="nonzero" stroke="rgb(255,255,255)" stroke-opacity="0" stroke-width="0.997500002" transform="matrix(-1,0,0,-1,752.688,24.6875)" />
							<path id="ic_public_code_2_1" d="M0.00113914 2.48676C-0.000334159 2.13239 0.0432208 1.77928 0.130758 1.43589C0.322623 0.709076 0.79606 0.277746 1.52214 0.110413C1.88621 0.031753 2.25807 -0.00510089 2.63049 0.00056679C4.03482 0.00056679 5.43926 0.00056679 6.84383 0.00056679C7.19855 -0.00163518 7.55225 0.0389345 7.89726 0.121398C8.64531 0.304475 9.09421 0.778279 9.26521 1.52377C9.34208 1.8761 9.37881 2.23601 9.37469 2.5966C9.37469 4.01606 9.37469 5.43564 9.37469 6.85535C9.37661 7.20665 9.33616 7.5569 9.25422 7.89852C9.07115 8.64694 8.59515 9.09365 7.84966 9.26464C7.48554 9.343 7.11372 9.37985 6.74131 9.37449C5.34284 9.37449 3.9445 9.37449 2.54628 9.37449C2.18884 9.37741 1.83235 9.33745 1.48443 9.25549C0.733081 9.07241 0.281979 8.59641 0.111352 7.84726C0.0242069 7.46646 0.00113914 7.08456 0.00113914 6.69936C0.00113914 6.02759 0.00113914 5.3557 0.00113914 4.68368C0.00113914 3.95137 -0.00142393 3.21906 0.00113914 2.48676Z" opacity="0.200000003" fill-rule="nonzero" stroke="rgb(255,255,255)" stroke-opacity="0" stroke-width="0.997500002" transform="matrix(-1,0,0,-1,752.688,24.6875)" />
							<circle id="ic_public_code_2_2" cx="5" cy="5" r="5" fill="rgb(255,255,255)" fill-opacity="0" transform="matrix(-1,0,0,-1,753,25)" />
							<g id="组合 91331839">
								<path id="矩形 77319(边框)" d="M0.394847 2.43945L5.19742 0.0381654C5.43489 -0.080567 5.71429 0.0921101 5.71429 0.357604L5.71429 3.624C5.71429 3.89455 5.56143 4.14188 5.31944 4.26287L0.516862 6.66416C0.279397 6.78289 0 6.61022 0 6.34472L0 3.07833C0 2.80778 0.152859 2.56045 0.394847 2.43945ZM0.713488 3.07673L5.00179 0.932584L5.00179 3.624L5.00154 3.62495L5.0008 3.62559L0.7125 5.76974L0.7125 3.07833L0.712746 3.07738L0.713488 3.07673Z" fill="rgb(255,255,255)" fill-rule="evenodd" transform="matrix(-1,0,0,-1,753,24.7798)" />
								<path id="减去顶层" d="M3.30827 0.894636L3.42566 1.95118L4.71679 1.30562L4.71679 3.35931L4.71644 3.36064L4.7154 3.36154L0.9975 5.2205L0.9975 3.77784L0 3.97734L0 6.02547C0 6.39716 0.391156 6.63891 0.723607 6.47268L5.1615 4.25374C5.50028 4.08434 5.71429 3.73808 5.71429 3.35931L5.71429 0.500645C5.71429 0.128954 5.32313 -0.112794 4.99068 0.0534315L3.30827 0.894636Z" fill="rgb(255,255,255)" fill-rule="evenodd" transform="matrix(-1,0,0,-1,750.857,23.3516)" />
								<path id="减去顶层" d="M3.57143 0.851163L5.19742 0.0381653C5.43489 -0.080567 5.71429 0.0921101 5.71429 0.357604L5.71429 3.624C5.71429 3.89455 5.56143 4.14188 5.31944 4.26287L0.516862 6.66416C0.279397 6.78289 0 6.61022 0 6.34472L0 4.06529L0.7125 4.06529L0.7125 5.76974L5.0008 3.62559L5.00154 3.62495L5.00179 3.624L5.00179 0.932584L3.57143 1.64776L3.57143 0.851163Z" fill="rgb(255,255,255)" fill-rule="evenodd" transform="matrix(-1,0,0,-1,748.714,21.9224)" />
							</g>
						</g>
						<path id="" d="M760.287 19.4414Q761.74 19.957 761.74 21.4688Q761.74 22.6553 760.87 23.3291Q760 24 758.427 24L754.923 24L754.923 15.2168L758.104 15.2168Q759.508 15.2168 760.39 15.8584Q761.271 16.5 761.271 17.6631Q761.271 18.876 760.287 19.4414ZM756.628 16.7285L756.628 18.8027L757.935 18.8027Q758.644 18.8027 759.057 18.5098Q759.473 18.2168 759.473 17.7246Q759.473 17.2441 759.062 16.9863Q758.655 16.7285 757.935 16.7285L756.628 16.7285ZM758.283 22.4883Q759.077 22.4883 759.502 22.2012Q759.927 21.9111 759.927 21.3838Q759.927 20.8564 759.502 20.5576Q759.077 20.2559 758.271 20.2559L756.628 20.2559L756.628 22.4883L758.283 22.4883ZM764.609 24L762.939 24L762.939 14.8682L764.609 14.8682L764.609 24ZM765.795 20.8916Q765.795 19.9189 766.231 19.1748Q766.671 18.4307 767.403 18.0293Q768.136 17.6279 768.988 17.6279Q769.829 17.6279 770.553 18.0293Q771.279 18.4307 771.716 19.1748Q772.155 19.9189 772.155 20.8916Q772.155 21.8643 771.716 22.6084Q771.279 23.3525 770.553 23.748Q769.829 24.1436 768.988 24.1436Q768.136 24.1436 767.403 23.748Q766.671 23.3525 766.231 22.6084Q765.795 21.8643 765.795 20.8916ZM767.523 20.8916Q767.523 21.7207 767.937 22.207Q768.353 22.6934 768.977 22.6934Q769.601 22.6934 770.008 22.207Q770.415 21.7207 770.415 20.8916Q770.415 20.0654 770.008 19.5732Q769.601 19.0811 768.977 19.0811Q768.353 19.0811 767.937 19.5732Q767.523 20.0654 767.523 20.8916ZM776.165 22.6934Q776.883 22.6934 777.317 21.9844L778.588 22.7285Q778.289 23.4229 777.639 23.7832Q776.991 24.1436 776.165 24.1436Q775.336 24.1436 774.615 23.7656Q773.895 23.3877 773.449 22.6494Q773.007 21.9111 773.007 20.8916Q773.007 19.8604 773.449 19.1221Q773.895 18.3838 774.615 18.0059Q775.336 17.6279 776.165 17.6279Q776.991 17.6279 777.639 17.9883Q778.289 18.3486 778.588 19.043L777.317 19.7871Q776.895 19.0928 776.165 19.0928Q775.515 19.0928 775.125 19.5791Q774.735 20.0654 774.735 20.8916Q774.735 21.709 775.131 22.2012Q775.529 22.6934 776.165 22.6934ZM783.124 20.2676L785.632 24L783.628 24L781.996 21.5273L781.061 22.5586L781.061 24L779.391 24L779.391 14.8682L781.061 14.8682L781.061 20.5312L783.423 17.7832L785.356 17.7832L783.124 20.2676Z" fill="rgb(255,255,255)" fill-rule="nonzero" />
					</g>
					<g id="dots" customFrame="url(#clipPath_30)">
						<rect id="dots" width="68.000000" height="14.000000" x="794.000000" y="13.000000" />
						<g id="容器 4764" customFrame="url(#clipPath_31)">
							<rect id="容器 4764" width="68.000000" height="5.000000" x="794.000000" y="17.500000" />
							<circle id="椭圆 2519" cx="796.5" cy="20" r="2.5" fill="rgb(232,179,0)" />
							<circle id="椭圆 2519" cx="796.5" cy="20" r="2" stroke="rgb(255,255,255)" stroke-opacity="0" stroke-width="1" />
							<circle id="椭圆 2520" cx="803.5" cy="20" r="2.5" fill="rgb(232,179,0)" />
							<circle id="椭圆 2520" cx="803.5" cy="20" r="2" stroke="rgb(255,255,255)" stroke-opacity="0" stroke-width="1" />
							<circle id="椭圆 2521" cx="810.5" cy="20" r="2.5" fill="rgb(224,32,32)" fill-opacity="0.200000003" />
							<circle id="椭圆 2521" cx="810.5" cy="20" r="3" stroke="rgb(224,32,32)" stroke-width="1" />
							<circle id="椭圆 2522" cx="817.5" cy="20" r="2.5" fill="rgb(232,179,0)" />
							<circle id="椭圆 2522" cx="817.5" cy="20" r="2" stroke="rgb(255,255,255)" stroke-opacity="0" stroke-width="1" />
							<circle id="椭圆 2523" cx="824.5" cy="20" r="2.5" fill="rgb(232,179,0)" />
							<circle id="椭圆 2523" cx="824.5" cy="20" r="2" stroke="rgb(255,255,255)" stroke-opacity="0" stroke-width="1" />
							<circle id="椭圆 2524" cx="831.5" cy="20" r="2.5" fill="rgb(232,179,0)" />
							<circle id="椭圆 2524" cx="831.5" cy="20" r="2" stroke="rgb(255,255,255)" stroke-opacity="0" stroke-width="1" />
							<circle id="椭圆 2525" cx="838.5" cy="20" r="2.5" fill="rgb(232,179,0)" />
							<circle id="椭圆 2525" cx="838.5" cy="20" r="2" stroke="rgb(255,255,255)" stroke-opacity="0" stroke-width="1" />
							<circle id="椭圆 2526" cx="845.5" cy="20" r="2.5" fill="rgb(232,179,0)" />
							<circle id="椭圆 2526" cx="845.5" cy="20" r="2" stroke="rgb(255,255,255)" stroke-opacity="0" stroke-width="1" />
							<circle id="椭圆 2527" cx="852.5" cy="20" r="2.5" fill="rgb(232,179,0)" />
							<circle id="椭圆 2527" cx="852.5" cy="20" r="2" stroke="rgb(255,255,255)" stroke-opacity="0" stroke-width="1" />
							<circle id="椭圆 2528" cx="859.5" cy="20" r="2.5" fill="rgb(232,179,0)" />
							<circle id="椭圆 2528" cx="859.5" cy="20" r="2" stroke="rgb(255,255,255)" stroke-opacity="0" stroke-width="1" />
						</g>
					</g>
				</g>
				<g id="组合 91333463" customFrame="url(#clipPath_32)">
					<rect id="组合 91333463" width="68.000000" height="28.000000" x="870.000000" y="6.000000" rx="14.000000" fill="rgb(0,0,0)" />
					<g id="容器 6740" filter="url(#filter_8)" customFrame="url(#clipPath_33)">
						<rect id="容器 6740" width="60.000000" height="20.000000" x="874.000000" y="10.000000" rx="10.000000" fill="rgb(68,215,182)" />
						<rect id="容器 6740" width="60.000000" height="20.000000" x="874.000000" y="10.000000" rx="10.000000" fill="rgb(0,0,0)" fill-opacity="0.200000003" />
						<rect id="容器 6740" width="59.000000" height="19.000000" x="874.500000" y="10.500000" rx="9.500000" stroke="rgb(99,213,168)" stroke-opacity="0" stroke-width="1" />
						<g id="ic_public_code_1_1">
							<path id="ic_public_code_2_0" d="M0.00113914 4.68368C0.00113914 3.95137 -0.00142393 3.21906 0.00113914 2.48676C-0.000334159 2.13239 0.0432208 1.77928 0.130758 1.43589C0.322623 0.709076 0.79606 0.277746 1.52214 0.110413C1.88621 0.031753 2.25807 -0.00510089 2.63049 0.00056679C4.03482 0.00056679 5.43926 0.00056679 6.84383 0.00056679C7.19855 -0.00163518 7.55225 0.0389345 7.89726 0.121398C8.64531 0.304475 9.09421 0.778279 9.26521 1.52377C9.34208 1.8761 9.37881 2.23601 9.37469 2.5966C9.37469 4.01606 9.37469 5.43564 9.37469 6.85535C9.37661 7.20665 9.33616 7.5569 9.25422 7.89852C9.07115 8.64694 8.59515 9.09365 7.84966 9.26464C7.48554 9.343 7.11372 9.37985 6.74131 9.37449C5.34284 9.37449 3.9445 9.37449 2.54628 9.37449C2.18884 9.37741 1.83235 9.33745 1.48443 9.25549C0.733081 9.07241 0.281979 8.59641 0.111352 7.84726C0.0242069 7.46646 0.00113914 7.08456 0.00113914 6.69936C0.00113914 6.02759 0.00113914 5.3557 0.00113914 4.68368Z" fill="rgb(255,255,255)" fill-opacity="0" fill-rule="nonzero" transform="matrix(-1,0,0,-1,889.688,24.6875)" />
							<path id="ic_public_code_2_0" d="M0.00113914 2.48676C-0.000334159 2.13239 0.0432208 1.77928 0.130758 1.43589C0.322623 0.709076 0.79606 0.277746 1.52214 0.110413C1.88621 0.031753 2.25807 -0.00510089 2.63049 0.00056679C4.03482 0.00056679 5.43926 0.00056679 6.84383 0.00056679C7.19855 -0.00163518 7.55225 0.0389345 7.89726 0.121398C8.64531 0.304475 9.09421 0.778279 9.26521 1.52377C9.34208 1.8761 9.37881 2.23601 9.37469 2.5966C9.37469 4.01606 9.37469 5.43564 9.37469 6.85535C9.37661 7.20665 9.33616 7.5569 9.25422 7.89852C9.07115 8.64694 8.59515 9.09365 7.84966 9.26464C7.48554 9.343 7.11372 9.37985 6.74131 9.37449C5.34284 9.37449 3.9445 9.37449 2.54628 9.37449C2.18884 9.37741 1.83235 9.33745 1.48443 9.25549C0.733081 9.07241 0.281979 8.59641 0.111352 7.84726C0.0242069 7.46646 0.00113914 7.08456 0.00113914 6.69936C0.00113914 6.02759 0.00113914 5.3557 0.00113914 4.68368C0.00113914 3.95137 -0.00142393 3.21906 0.00113914 2.48676Z" fill-rule="nonzero" stroke="rgb(255,255,255)" stroke-opacity="0" stroke-width="0.997500002" transform="matrix(-1,0,0,-1,889.688,24.6875)" />
							<path id="ic_public_code_2_1" d="M0.00113914 2.48676C-0.000334159 2.13239 0.0432208 1.77928 0.130758 1.43589C0.322623 0.709076 0.79606 0.277746 1.52214 0.110413C1.88621 0.031753 2.25807 -0.00510089 2.63049 0.00056679C4.03482 0.00056679 5.43926 0.00056679 6.84383 0.00056679C7.19855 -0.00163518 7.55225 0.0389345 7.89726 0.121398C8.64531 0.304475 9.09421 0.778279 9.26521 1.52377C9.34208 1.8761 9.37881 2.23601 9.37469 2.5966C9.37469 4.01606 9.37469 5.43564 9.37469 6.85535C9.37661 7.20665 9.33616 7.5569 9.25422 7.89852C9.07115 8.64694 8.59515 9.09365 7.84966 9.26464C7.48554 9.343 7.11372 9.37985 6.74131 9.37449C5.34284 9.37449 3.9445 9.37449 2.54628 9.37449C2.18884 9.37741 1.83235 9.33745 1.48443 9.25549C0.733081 9.07241 0.281979 8.59641 0.111352 7.84726C0.0242069 7.46646 0.00113914 7.08456 0.00113914 6.69936C0.00113914 6.02759 0.00113914 5.3557 0.00113914 4.68368C0.00113914 3.95137 -0.00142393 3.21906 0.00113914 2.48676Z" opacity="0.200000003" fill-rule="nonzero" stroke="rgb(255,255,255)" stroke-opacity="0" stroke-width="0.997500002" transform="matrix(-1,0,0,-1,889.688,24.6875)" />
							<circle id="ic_public_code_2_2" cx="5" cy="5" r="5" fill="rgb(255,255,255)" fill-opacity="0" transform="matrix(-1,0,0,-1,890,25)" />
							<g id="组合 91331839">
								<path id="矩形 77319(边框)" d="M0.394847 2.43945L5.19742 0.0381654C5.43489 -0.080567 5.71429 0.0921101 5.71429 0.357604L5.71429 3.624C5.71429 3.89455 5.56143 4.14188 5.31944 4.26287L0.516862 6.66416C0.279397 6.78289 0 6.61022 0 6.34472L0 3.07833C0 2.80778 0.152859 2.56045 0.394847 2.43945ZM0.713488 3.07673L5.00179 0.932584L5.00179 3.624L5.00154 3.62495L5.0008 3.62559L0.7125 5.76974L0.7125 3.07833L0.712746 3.07738L0.713488 3.07673Z" fill="rgb(255,255,255)" fill-rule="evenodd" transform="matrix(-1,0,0,-1,890,24.7798)" />
								<path id="减去顶层" d="M3.30827 0.894636L3.42566 1.95118L4.71679 1.30562L4.71679 3.35931L4.71644 3.36064L4.7154 3.36154L0.9975 5.2205L0.9975 3.77784L0 3.97734L0 6.02547C0 6.39716 0.391156 6.63891 0.723607 6.47268L5.1615 4.25374C5.50028 4.08434 5.71429 3.73808 5.71429 3.35931L5.71429 0.500645C5.71429 0.128954 5.32313 -0.112794 4.99068 0.0534315L3.30827 0.894636Z" fill="rgb(255,255,255)" fill-rule="evenodd" transform="matrix(-1,0,0,-1,887.857,23.3516)" />
								<path id="减去顶层" d="M3.57143 0.851163L5.19742 0.0381653C5.43489 -0.080567 5.71429 0.0921101 5.71429 0.357604L5.71429 3.624C5.71429 3.89455 5.56143 4.14188 5.31944 4.26287L0.516862 6.66416C0.279397 6.78289 0 6.61022 0 6.34472L0 4.06529L0.7125 4.06529L0.7125 5.76974L5.0008 3.62559L5.00154 3.62495L5.00179 3.624L5.00179 0.932584L3.57143 1.64776L3.57143 0.851163Z" fill="rgb(255,255,255)" fill-rule="evenodd" transform="matrix(-1,0,0,-1,885.714,21.9224)" />
							</g>
						</g>
						<path id="" d="M897.229 20.291L893.663 20.291L893.663 22.4766L897.779 22.4766L897.779 24L891.923 24L891.923 15.2168L897.647 15.2168L897.647 16.7285L893.663 16.7285L893.663 18.791L897.229 18.791L897.229 20.291ZM901.476 19.6318L902.797 17.7832L904.619 17.7832L902.34 20.8564L904.619 24L902.712 24L901.405 22.1396L900.107 24L898.259 24L900.541 20.9268L898.259 17.7832L900.192 17.7832L901.476 19.6318ZM907.897 22.6934Q908.615 22.6934 909.049 21.9844L910.32 22.7285Q910.021 23.4229 909.371 23.7832Q908.723 24.1436 907.897 24.1436Q907.068 24.1436 906.347 23.7656Q905.627 23.3877 905.181 22.6494Q904.739 21.9111 904.739 20.8916Q904.739 19.8604 905.181 19.1221Q905.627 18.3838 906.347 18.0059Q907.068 17.6279 907.897 17.6279Q908.723 17.6279 909.371 17.9883Q910.021 18.3486 910.32 19.043L909.049 19.7871Q908.627 19.0928 907.897 19.0928Q907.247 19.0928 906.857 19.5791Q906.467 20.0654 906.467 20.8916Q906.467 21.709 906.863 22.2012Q907.261 22.6934 907.897 22.6934ZM915.143 17.7832L916.813 17.7832L916.813 24L915.336 24Q915.289 23.2793 915.24 23.0273Q914.929 23.5928 914.425 23.8682Q913.921 24.1436 913.271 24.1436Q912.228 24.1436 911.627 23.4727Q911.027 22.7988 911.027 21.5039L911.027 17.7832L912.697 17.7832L912.697 20.9531Q912.697 22.667 913.801 22.667Q914.399 22.667 914.771 22.2012Q915.143 21.7324 915.143 20.8916L915.143 17.7832ZM922.693 23.6396Q922.08 24.1436 920.987 24.1436Q919.98 24.1436 919.362 23.6104Q918.743 23.0771 918.743 21.6973L918.743 19.1895L917.639 19.1895L917.639 17.7832L918.743 17.7832L918.743 15.876L920.413 15.876L920.413 17.7832L922.285 17.7832L922.285 19.1895L920.413 19.1895L920.413 21.4189Q920.413 22.043 920.627 22.3682Q920.844 22.6934 921.324 22.6934Q921.743 22.6934 922.115 22.4414L922.693 23.6396ZM926.099 17.6279Q926.928 17.6279 927.57 17.9941Q928.211 18.3604 928.566 19.0283Q928.92 19.6934 928.92 20.5547Q928.92 20.9414 928.847 21.3369L924.719 21.3369Q924.828 22.0312 925.223 22.3857Q925.619 22.7402 926.207 22.7402Q926.629 22.7402 926.957 22.5557Q927.289 22.3682 927.467 21.9961L928.692 22.7168Q928.44 23.3994 927.725 23.7715Q927.013 24.1436 926.137 24.1436Q925.296 24.1436 924.576 23.7715Q923.855 23.3994 923.415 22.6553Q922.979 21.9111 922.979 20.8682Q922.979 19.8369 923.415 19.1045Q923.855 18.3721 924.564 18Q925.273 17.6279 926.099 17.6279ZM926.052 18.9844Q925.56 18.9844 925.211 19.2979Q924.863 19.6084 924.743 20.1709L927.215 20.1709Q927.168 19.5967 926.849 19.292Q926.533 18.9844 926.052 18.9844Z" fill="rgb(255,255,255)" fill-rule="nonzero" />
					</g>
				</g>
			</g>
		</g>
	</g>
</svg>
