<svg viewBox="0 0 212 190" xmlns="http://www.w3.org/2000/svg" xmlns:xlink="http://www.w3.org/1999/xlink" width="212.000000" height="190.000000" fill="none" customFrame="#000000">
	<mask id="mask_1" width="209.999985" height="48.717091" x="1.000000" y="141.393921" maskUnits="userSpaceOnUse">
		<g filter="url(#pixso_custom_mask_type_alpha)">
			<path id="矢量 2420" d="M53.5 190.111C25.2458 190.111 8.39587 184.638 2.95024 182.528C1.74525 182.061 1 180.89 1 179.598L1.00019 141.394L211 141.395L211 179.043C211 180.28 209.689 181.134 208.531 180.699C202.587 178.465 185.91 173.315 158.5 173.315C123.5 173.316 88.5 190.111 53.5 190.111Z" fill="rgb(51,51,51)" fill-rule="evenodd" />
		</g>
	</mask>
	<mask id="mask_0" width="209.999985" height="188.000015" x="1.000000" y="1.000000" maskUnits="userSpaceOnUse">
		<g filter="url(#pixso_custom_mask_type_alpha)">
			<path id="合并" d="M204.28 1L7.72 1C4.00865 1 1 4.00865 1 7.72L1 178.391C1 179.677 1.73843 180.844 2.93567 181.314C8.36576 183.447 25.2206 189 53.5 189C88.5 189 123.5 171.991 158.5 171.99C185.896 171.99 202.569 177.2 208.522 179.464C209.681 179.905 211 179.051 211 177.81L211 171.138L211 151.573L211 7.72C211 4.00865 207.991 1 204.28 1Z" fill="rgb(51,51,51)" fill-rule="evenodd" />
			<path id="合并" d="M7.72 1L204.28 1C207.991 1 211 4.00865 211 7.72L211 151.573L211 171.138L211 177.81C211 179.051 209.681 179.905 208.522 179.464C202.569 177.2 185.896 171.99 158.5 171.99C123.5 171.991 88.5 189 53.5 189C25.2206 189 8.36576 183.447 2.93567 181.314C1.73843 180.844 1 179.677 1 178.391L1 7.72C1 4.00865 4.00865 1 7.72 1ZM204.28 1.84L7.72 1.84Q7.04821 1.84 6.40956 1.98548L6.40955 1.98548Q5.9104 2.09918 5.4315 2.30173Q4.94114 2.50914 4.50281 2.79602L4.50281 2.79602L4.50281 2.79603Q3.99801 3.12641 3.56221 3.56221Q3.1264 3.99803 2.796 4.50284L2.796 4.50284L2.796 4.50285Q2.50913 4.94117 2.30173 5.4315Q2.09918 5.91039 1.98548 6.40952L1.98547 6.40959Q1.84 7.04823 1.84 7.72L1.84 178.391C1.84 178.874 1.96731 179.31 2.22193 179.699C2.47557 180.087 2.81584 180.365 3.24273 180.532C5.05349 181.244 7.10182 181.936 9.38772 182.609C12.6244 183.562 16.0989 184.404 19.8112 185.133C24.4743 186.048 29.3755 186.758 34.5146 187.263Q43.6507 188.16 53.5 188.16C57.6367 188.16 61.9822 187.918 66.5365 187.434C70.5988 187.002 74.9533 186.363 79.6 185.516Q85.4146 184.456 92.6892 182.799C94.6279 182.357 96.8125 181.846 99.243 181.265Q101.415 180.745 105.803 179.679Q110.189 178.613 112.368 178.092C114.805 177.509 116.995 176.996 118.939 176.553C123.813 175.443 128.2 174.533 132.1 173.822C136.787 172.968 141.183 172.322 145.286 171.886C149.9 171.396 154.304 171.15 158.5 171.15C164.929 171.15 171.135 171.435 177.116 172.003C182.205 172.487 187.069 173.17 191.709 174.053Q197.329 175.122 202.278 176.533C204.682 177.219 206.863 177.935 208.82 178.679C208.971 178.737 209.127 178.755 209.289 178.734Q209.386 178.721 209.477 178.691L209.478 178.691Q209.611 178.647 209.732 178.567C209.867 178.478 209.971 178.368 210.047 178.237Q210.1 178.143 210.128 178.042L210.13 178.036Q210.16 177.927 210.16 177.81L210.16 171.138L210.16 151.573L210.16 7.71986Q210.16 7.04993 210.015 6.41287L210.015 6.41025L210.014 6.40859Q209.901 5.90993 209.698 5.4315C209.401 4.72812 208.981 4.10503 208.438 3.56221C207.895 3.0194 207.272 2.59924 206.568 2.30173Q206.091 2.09968 205.593 1.98603L205.591 1.98556L205.59 1.98548Q204.952 1.84 204.28 1.84Z" fill="rgb(255,255,255)" fill-opacity="0" fill-rule="evenodd" />
		</g>
	</mask>
	<defs>
		<linearGradient id="paint_linear_5" x1="105.999992" x2="105.999992" y1="1" y2="189.000015" gradientUnits="userSpaceOnUse">
			<stop stop-color="rgb(107,149,31)" offset="0" stop-opacity="0" />
			<stop stop-color="rgb(107,149,31)" offset="1" stop-opacity="0.5" />
		</linearGradient>
		<filter id="pixso_custom_mask_type_alpha">
			<feColorMatrix type="matrix" values="0 0 0 0 1 0 0 0 0 1 0 0 0 0 1 0 0 0 1 0 " />
		</filter>
		<g id="pixso_custom_effect_4">
			<effect visibility="visible" effectType="gaussianBlur" stdDeviation="12.8566666" />
		</g>
		<filter id="filter_4" width="238.291992" height="45.080200" x="-13.146057" y="149.090576" filterUnits="userSpaceOnUse" customEffect="url(#pixso_custom_effect_4)" color-interpolation-filters="sRGB">
			<feFlood flood-opacity="0" result="BackgroundImageFix" />
			<feBlend result="shape" in="SourceGraphic" in2="BackgroundImageFix" mode="normal" />
			<feGaussianBlur stdDeviation="4.28555536" result="effect_layerBlur_1" />
		</filter>
		<g id="pixso_custom_effect_5">
			<effect visibility="visible" effectType="gaussianBlur" stdDeviation="19.2850018" />
		</g>
		<filter id="filter_5" width="253.727295" height="60.508179" x="-20.863708" y="141.376587" filterUnits="userSpaceOnUse" customEffect="url(#pixso_custom_effect_5)" color-interpolation-filters="sRGB">
			<feFlood flood-opacity="0" result="BackgroundImageFix" />
			<feBlend result="shape" in="SourceGraphic" in2="BackgroundImageFix" mode="normal" />
			<feGaussianBlur stdDeviation="6.42833376" result="effect_layerBlur_1" />
		</filter>
		<g id="pixso_custom_effect_6">
			<effect visibility="visible" effectType="gaussianBlur" stdDeviation="5.14266729" />
		</g>
		<filter id="filter_6" width="221.574524" height="28.366577" x="-4.787292" y="157.447388" filterUnits="userSpaceOnUse" customEffect="url(#pixso_custom_effect_6)" color-interpolation-filters="sRGB">
			<feFlood flood-opacity="0" result="BackgroundImageFix" />
			<feBlend result="shape" in="SourceGraphic" in2="BackgroundImageFix" mode="normal" />
			<feGaussianBlur stdDeviation="1.71422243" result="effect_layerBlur_1" />
		</filter>
		<clipPath id="clipPath_17">
			<rect width="51.000000" height="118.000000" x="9.000000" y="39.000000" fill="rgb(255,255,255)" />
		</clipPath>
		<clipPath id="clipPath_18">
			<rect width="115.000000" height="114.000000" x="74.000000" y="39.000000" fill="rgb(255,255,255)" />
		</clipPath>
		<clipPath id="clipPath_19">
			<rect width="66.000000" height="22.000000" x="125.000000" y="9.000000" rx="7.000000" fill="rgb(255,255,255)" />
		</clipPath>
	</defs>
	<rect id="属性 1=incast, 属性 2=L" width="210.000000" height="189.000000" x="1.000000" y="1.000000" />
	<path id="合并" d="M204.28 1L7.72 1C4.00865 1 1 4.00865 1 7.72L1 178.391C1 179.677 1.73843 180.844 2.93567 181.314C8.36576 183.447 25.2206 189 53.5 189C88.5 189 123.5 171.991 158.5 171.99C185.896 171.99 202.569 177.2 208.522 179.464C209.681 179.905 211 179.051 211 177.81L211 171.138L211 151.573L211 7.72C211 4.00865 207.991 1 204.28 1Z" fill="rgb(59,59,59)" fill-rule="evenodd" />
	<path id="合并" d="M7.72 1L204.28 1C207.991 1 211 4.00865 211 7.72L211 151.573L211 171.138L211 177.81C211 179.051 209.681 179.905 208.522 179.464C202.569 177.2 185.896 171.99 158.5 171.99C123.5 171.991 88.5 189 53.5 189C25.2206 189 8.36576 183.447 2.93567 181.314C1.73843 180.844 1 179.677 1 178.391L1 7.72C1 4.00865 4.00865 1 7.72 1ZM204.28 2L7.72 2Q7.06443 2 6.44138 2.14236L6.44137 2.14236L6.44135 2.14236Q5.95779 2.25285 5.49382 2.4491Q5.01786 2.65041 4.59225 2.92874L4.59224 2.92875L4.59223 2.92876Q4.10012 3.25057 3.67535 3.67535Q3.25058 4.10012 2.92876 4.59222L2.92875 4.59224L2.92874 4.59226Q2.65041 5.01786 2.4491 5.49382Q2.25285 5.95779 2.14236 6.44135Q2 7.06441 2 7.72L2 178.391Q2 178.809 2.13626 179.177L2.13641 179.178L2.13647 179.178Q2.22037 179.404 2.35584 179.611Q2.54294 179.898 2.79772 180.097L2.79791 180.098Q3.02313 180.274 3.30122 180.383Q6.0106 181.448 9.43292 182.456C12.6651 183.408 16.1348 184.248 19.842 184.976C24.5003 185.89 29.3963 186.6 34.5303 187.104Q43.6578 188 53.5 188Q59.6971 188 66.5196 187.275C70.5784 186.843 74.929 186.204 79.5713 185.358C83.4454 184.652 87.8062 183.747 92.6537 182.643Q95.5652 181.98 99.2058 181.109Q101.388 180.587 105.765 179.523Q110.142 178.46 112.331 177.936C114.766 177.354 116.957 176.841 118.904 176.397C123.78 175.287 128.169 174.376 132.071 173.665C136.762 172.81 141.162 172.164 145.27 171.727C149.888 171.236 154.298 170.99 158.5 170.99Q168.15 170.99 177.131 171.844C182.224 172.328 187.093 173.012 191.739 173.896C195.491 174.609 199.018 175.437 202.322 176.38C204.731 177.067 206.916 177.784 208.877 178.53C209.003 178.578 209.133 178.593 209.268 178.575C209.403 178.557 209.528 178.51 209.644 178.434C209.757 178.359 209.845 178.267 209.908 178.157C209.969 178.05 210 177.934 210 177.81L210 171.138L210 151.573L210 7.72C210 6.94373 209.85 6.20167 209.551 5.49383Q209.35 5.01797 209.071 4.59246L209.071 4.59213L209.071 4.59186L209.071 4.59179Q208.749 4.09993 208.325 3.67535C207.797 3.14725 207.19 2.73849 206.506 2.4491C205.798 2.1497 205.056 2 204.28 2Z" fill="url(#paint_linear_5)" fill-rule="evenodd" />
	<g id="蒙版" mask="url(#mask_0)">
		<g id="彩色描边" mask="url(#mask_1)">
			<g id="组合 91331449">
				<path id="矢量 2419" d="M1 176.669C1 176.669 18.5001 185.068 53.5001 185.068C88.5 185.068 123.5 168.274 158.5 168.273C193.501 168.272 211 176.67 211 176.67" opacity="0.639999986" stroke="rgb(135,200,15)" stroke-linecap="round" stroke-linejoin="round" stroke-width="10.0799999" />
				<g filter="url(#filter_4)">
					<path id="矢量 2418" d="M1 171.629C1 171.629 18.5001 180.028 53.5001 180.028C88.5 180.028 123.5 163.234 158.5 163.233C193.501 163.232 211 171.63 211 171.63" stroke="rgb(135,200,15)" stroke-linecap="round" stroke-linejoin="round" stroke-width="2.57133365" />
				</g>
				<g filter="url(#filter_5)">
					<path id="矢量 2421" d="M1 171.629C1 171.629 18.5001 180.028 53.5001 180.028C88.5 180.028 123.5 163.234 158.5 163.233C193.501 163.232 211 171.63 211 171.63" opacity="0.469999999" stroke="rgb(135,200,15)" stroke-linecap="round" stroke-linejoin="round" stroke-width="5.14266729" />
				</g>
				<g filter="url(#filter_6)">
					<path id="矢量 2420" d="M1 171.629C1 171.629 18.5001 180.028 53.5001 180.028C88.5 180.028 123.5 163.234 158.5 163.233C193.501 163.232 211 171.63 211 171.63" opacity="0.400000006" stroke="rgb(135,200,15)" stroke-linecap="round" stroke-linejoin="round" stroke-width="1.28566682" />
				</g>
			</g>
		</g>
		<g id="容器 4854" customFrame="url(#clipPath_17)">
			<rect id="容器 4854" width="51.000000" height="118.000000" x="9.000000" y="39.000000" />
			<path id="" d="M14.124 50.2246C14.124 50.5996 14.0254 50.9316 13.8281 51.2207C13.6328 51.5078 13.3594 51.7314 13.0078 51.8916C12.6562 52.0518 12.252 52.1318 11.7949 52.1318C11.1875 52.1318 10.6641 51.9961 10.2246 51.7246C9.78516 51.4531 9.49707 51.0811 9.36035 50.6084L10.1396 50.1631C10.4365 50.8604 10.9883 51.209 11.7949 51.209C12.1875 51.209 12.4951 51.1289 12.7178 50.9688C12.9424 50.8086 13.0547 50.5879 13.0547 50.3066C13.0547 50.0918 12.9883 49.917 12.8555 49.7822C12.7246 49.6455 12.5615 49.5391 12.3662 49.4629C12.1709 49.3867 11.8965 49.2969 11.543 49.1934C11.1191 49.0723 10.7754 48.9561 10.5117 48.8447C10.248 48.7314 10.0244 48.5654 9.84082 48.3467C9.65723 48.126 9.56543 47.8359 9.56543 47.4766C9.56543 47.0996 9.66699 46.7715 9.87012 46.4922C10.0732 46.2129 10.3486 45.999 10.6963 45.8506C11.0459 45.7021 11.4287 45.6279 11.8447 45.6279C12.3877 45.6279 12.8555 45.748 13.248 45.9883C13.6406 46.2285 13.9043 46.5566 14.0391 46.9727L13.2598 47.415C13.1328 47.1436 12.9424 46.9346 12.6885 46.7881C12.4365 46.6396 12.1387 46.5654 11.7949 46.5654C11.4434 46.5654 11.1611 46.6357 10.9482 46.7764C10.7373 46.915 10.6318 47.1162 10.6318 47.3799C10.6318 47.5713 10.6934 47.7275 10.8164 47.8486C10.9414 47.9678 11.0957 48.0635 11.2793 48.1357C11.4629 48.208 11.7227 48.292 12.0586 48.3877C12.5 48.5088 12.8564 48.627 13.1279 48.7422C13.3994 48.8574 13.6328 49.0352 13.8281 49.2754C14.0254 49.5156 14.124 49.832 14.124 50.2246ZM18.3946 45.6279C19.043 45.6279 19.5713 45.8486 19.9795 46.29C20.3877 46.7295 20.5918 47.3525 20.5918 48.1592L20.5918 52L19.5723 52L19.5723 48.4492C19.5723 47.8555 19.4541 47.3994 19.2178 47.0811C18.9815 46.7607 18.6319 46.6006 18.169 46.6006C17.8643 46.6006 17.5782 46.6709 17.3106 46.8115C17.043 46.9502 16.8252 47.1582 16.6573 47.4355C16.4893 47.7109 16.4053 48.0527 16.4053 48.4609L16.4053 52L15.3829 52L15.3829 42.8682L16.4053 42.8682L16.4053 46.709C16.6202 46.3555 16.8995 46.0869 17.2432 45.9033C17.587 45.7197 17.9707 45.6279 18.3946 45.6279ZM24.7452 45.6279C25.4483 45.6279 26.0235 45.8418 26.4708 46.2695C26.92 46.6973 27.1446 47.3076 27.1446 48.1006L27.1446 52L26.2452 52C26.2198 51.5918 26.2032 51.3281 26.1954 51.209C26.004 51.5117 25.7462 51.7412 25.422 51.8975C25.0977 52.0537 24.7276 52.1318 24.3116 52.1318C23.9112 52.1318 23.5372 52.0586 23.1895 51.9121C22.8419 51.7637 22.5636 51.543 22.3546 51.25C22.1475 50.957 22.044 50.6074 22.044 50.2012C22.044 49.584 22.294 49.0977 22.794 48.7422C23.294 48.3867 23.9395 48.209 24.7305 48.209C25.1798 48.209 25.6446 48.2686 26.1251 48.3877L26.1251 48.2793C26.1251 47.6953 26.0069 47.2617 25.7706 46.9785C25.5343 46.6934 25.1759 46.5508 24.6954 46.5508C24.3126 46.5508 23.9923 46.6309 23.7345 46.791C23.4786 46.9512 23.2628 47.1875 23.087 47.5L22.3077 47.0547C22.4991 46.623 22.8126 46.2773 23.2481 46.0176C23.6856 45.7578 24.1846 45.6279 24.7452 45.6279ZM26.1251 49.2402C25.6212 49.1113 25.1612 49.0469 24.7452 49.0469C24.2237 49.0469 23.8214 49.1475 23.5382 49.3486C23.255 49.5479 23.1134 49.8281 23.1134 50.1895C23.1134 50.5254 23.2325 50.7871 23.4708 50.9746C23.711 51.1621 24.0235 51.2559 24.4083 51.2559C24.8809 51.2559 25.2852 51.1182 25.6212 50.8428C25.9571 50.5654 26.1251 50.1836 26.1251 49.6973L26.1251 49.2402ZM31.9564 45.6279C32.429 45.6279 32.8753 45.7578 33.2952 46.0176C33.7152 46.2773 34.0531 46.6533 34.3089 47.1455C34.5648 47.6377 34.6927 48.2158 34.6927 48.8799C34.6927 49.5518 34.5648 50.1338 34.3089 50.626C34.0531 51.1182 33.7152 51.4922 33.2952 51.748C32.8753 52.0039 32.429 52.1318 31.9564 52.1318C31.556 52.1318 31.1732 52.0381 30.8079 51.8506C30.4447 51.6631 30.1478 51.3848 29.9173 51.0156L29.9173 54.7832L28.8949 54.7832L28.8949 45.7715L29.7972 45.7715C29.8128 46.1719 29.8363 46.5244 29.8675 46.8291C30.0921 46.4287 30.39 46.1289 30.7611 45.9297C31.1341 45.7285 31.5325 45.6279 31.9564 45.6279ZM31.8245 51.1709C32.3675 51.1709 32.8031 50.9717 33.1312 50.5732C33.4593 50.1729 33.6234 49.6084 33.6234 48.8799C33.6234 48.1514 33.4593 47.5879 33.1312 47.1895C32.8031 46.7891 32.3675 46.5889 31.8245 46.5889C31.4964 46.5889 31.1878 46.665 30.8988 46.8174C30.6116 46.9678 30.3763 47.2158 30.1927 47.5615C30.0091 47.9053 29.9173 48.3447 29.9173 48.8799C29.9173 49.415 30.0091 49.8555 30.1927 50.2012C30.3763 50.5449 30.6116 50.793 30.8988 50.9453C31.1878 51.0957 31.4964 51.1709 31.8245 51.1709ZM38.7716 45.6279C39.3087 45.6279 39.7785 45.7539 40.1808 46.0059C40.5851 46.2578 40.8947 46.5996 41.1095 47.0312C41.3263 47.4629 41.4347 47.9434 41.4347 48.4727C41.4347 48.6953 41.4191 48.8994 41.3878 49.085L36.8996 49.085C36.9406 49.7959 37.1447 50.3262 37.5119 50.6758C37.879 51.0234 38.3429 51.1973 38.9035 51.1973C39.6007 51.1973 40.1046 50.917 40.4152 50.3564L41.1974 50.7988C41.0373 51.2227 40.7384 51.5508 40.3009 51.7832C39.8654 52.0156 39.38 52.1318 38.8449 52.1318C38.2843 52.1318 37.7736 52.0039 37.3126 51.748C36.8537 51.4922 36.4904 51.1182 36.2228 50.626C35.9552 50.1338 35.8214 49.5439 35.8214 48.8564C35.8214 48.1924 35.9552 47.6162 36.2228 47.1279C36.4904 46.6396 36.8478 46.2676 37.2951 46.0117C37.7443 45.7559 38.2365 45.6279 38.7716 45.6279ZM38.7365 46.5654C38.2873 46.5654 37.8966 46.709 37.5646 46.9961C37.2326 47.2832 37.0226 47.7031 36.9347 48.2559L40.3331 48.2559C40.3078 47.7207 40.1505 47.3057 39.8615 47.0107C39.5744 46.7139 39.1994 46.5654 38.7365 46.5654Z" opacity="0.5" fill="rgb(255,255,255)" fill-rule="nonzero" />
			<path id="" d="M12.5391 65.6279C12.7324 65.6279 12.9111 65.6543 13.0752 65.707C13.2393 65.7578 13.373 65.8232 13.4766 65.9033L13.1045 66.7324C12.9443 66.6367 12.752 66.5889 12.5273 66.5889C12.0645 66.5889 11.6846 66.7793 11.3877 67.1602C11.0928 67.5391 10.9453 68.0928 10.9453 68.8213L10.9453 72L9.92285 72L9.92285 65.7715L10.8252 65.7715C10.8408 66.1719 10.8643 66.5117 10.8955 66.791C11.2471 66.0156 11.7949 65.6279 12.5391 65.6279ZM16.2972 65.6279C17.0003 65.6279 17.5755 65.8418 18.0228 66.2695C18.472 66.6973 18.6966 67.3076 18.6966 68.1006L18.6966 72L17.7972 72C17.7718 71.5918 17.7552 71.3281 17.7474 71.209C17.556 71.5117 17.2982 71.7412 16.974 71.8975C16.6497 72.0537 16.2796 72.1318 15.8636 72.1318C15.4632 72.1318 15.0892 72.0586 14.7415 71.9121C14.3939 71.7637 14.1156 71.543 13.9066 71.25C13.6995 70.957 13.596 70.6074 13.596 70.2012C13.596 69.584 13.846 69.0977 14.346 68.7422C14.846 68.3867 15.4915 68.209 16.2825 68.209C16.7318 68.209 17.1966 68.2686 17.6771 68.3877L17.6771 68.2793C17.6771 67.6953 17.5589 67.2617 17.3226 66.9785C17.0863 66.6934 16.7279 66.5508 16.2474 66.5508C15.8646 66.5508 15.5443 66.6309 15.2865 66.791C15.0306 66.9512 14.8148 67.1875 14.639 67.5L13.8597 67.0547C14.0511 66.623 14.3646 66.2773 14.8001 66.0176C15.2376 65.7578 15.7366 65.6279 16.2972 65.6279ZM17.6771 69.2402C17.1732 69.1113 16.7132 69.0469 16.2972 69.0469C15.7757 69.0469 15.3734 69.1475 15.0902 69.3486C14.807 69.5479 14.6654 69.8281 14.6654 70.1895C14.6654 70.5254 14.7845 70.7871 15.0228 70.9746C15.263 71.1621 15.5755 71.2559 15.9603 71.2559C16.4329 71.2559 16.8372 71.1182 17.1732 70.8428C17.5091 70.5654 17.6771 70.1836 17.6771 69.6973L17.6771 69.2402ZM24.5283 65.7715L26.1601 70.4531L27.6836 65.7715L28.6445 65.7715L26.4355 72L25.7646 72L24.1094 67.4414L22.5244 72L21.8271 72L19.5361 65.7715L20.6055 65.7715L22.2373 70.4531L23.7373 65.7715L24.5283 65.7715ZM33.816 70.2246C33.816 70.5996 33.7174 70.9316 33.5201 71.2207C33.3248 71.5078 33.0514 71.7314 32.6998 71.8916C32.3483 72.0518 31.944 72.1318 31.4869 72.1318C30.8795 72.1318 30.3561 71.9961 29.9166 71.7246C29.4772 71.4531 29.1891 71.0811 29.0524 70.6084L29.8316 70.1631C30.1285 70.8604 30.6803 71.209 31.4869 71.209C31.8795 71.209 32.1871 71.1289 32.4098 70.9688C32.6344 70.8086 32.7467 70.5879 32.7467 70.3066C32.7467 70.0918 32.6803 69.917 32.5475 69.7822C32.4166 69.6455 32.2535 69.5391 32.0582 69.4629C31.8629 69.3867 31.5885 69.2969 31.235 69.1934C30.8111 69.0723 30.4674 68.9561 30.2037 68.8447C29.94 68.7314 29.7164 68.5654 29.5328 68.3467C29.3492 68.126 29.2574 67.8359 29.2574 67.4766C29.2574 67.0996 29.359 66.7715 29.5621 66.4922C29.7652 66.2129 30.0406 65.999 30.3883 65.8506C30.7379 65.7021 31.1207 65.6279 31.5367 65.6279C32.0797 65.6279 32.5475 65.748 32.94 65.9883C33.3326 66.2285 33.5963 66.5566 33.7311 66.9727L32.9518 67.415C32.8248 67.1436 32.6344 66.9346 32.3805 66.7881C32.1285 66.6396 31.8307 66.5654 31.4869 66.5654C31.1354 66.5654 30.8531 66.6357 30.6402 66.7764C30.4293 66.915 30.3238 67.1162 30.3238 67.3799C30.3238 67.5713 30.3854 67.7275 30.5084 67.8486C30.6334 67.9678 30.7877 68.0635 30.9713 68.1357C31.1549 68.208 31.4147 68.292 31.7506 68.3877C32.192 68.5088 32.5484 68.627 32.8199 68.7422C33.0914 68.8574 33.3248 69.0352 33.5201 69.2754C33.7174 69.5156 33.816 69.832 33.816 70.2246ZM38.0866 65.6279C38.735 65.6279 39.2633 65.8486 39.6715 66.29C40.0797 66.7295 40.2838 67.3525 40.2838 68.1592L40.2838 72L39.2643 72L39.2643 68.4492C39.2643 67.8555 39.1461 67.3994 38.9098 67.0811C38.6735 66.7607 38.3239 66.6006 37.861 66.6006C37.5563 66.6006 37.2702 66.6709 37.0026 66.8115C36.735 66.9502 36.5172 67.1582 36.3493 67.4355C36.1813 67.7109 36.0973 68.0527 36.0973 68.4609L36.0973 72L35.0749 72L35.0749 62.8682L36.0973 62.8682L36.0973 66.709C36.3122 66.3555 36.5915 66.0869 36.9352 65.9033C37.279 65.7197 37.6627 65.6279 38.0866 65.6279ZM44.4372 65.6279C45.1403 65.6279 45.7155 65.8418 46.1628 66.2695C46.612 66.6973 46.8366 67.3076 46.8366 68.1006L46.8366 72L45.9372 72C45.9118 71.5918 45.8952 71.3281 45.8874 71.209C45.696 71.5117 45.4382 71.7412 45.114 71.8975C44.7897 72.0537 44.4196 72.1318 44.0036 72.1318C43.6032 72.1318 43.2292 72.0586 42.8815 71.9121C42.5339 71.7637 42.2556 71.543 42.0466 71.25C41.8395 70.957 41.736 70.6074 41.736 70.2012C41.736 69.584 41.986 69.0977 42.486 68.7422C42.986 68.3867 43.6315 68.209 44.4225 68.209C44.8718 68.209 45.3366 68.2686 45.8171 68.3877L45.8171 68.2793C45.8171 67.6953 45.6989 67.2617 45.4626 66.9785C45.2263 66.6934 44.8679 66.5508 44.3874 66.5508C44.0046 66.5508 43.6843 66.6309 43.4265 66.791C43.1706 66.9512 42.9548 67.1875 42.779 67.5L41.9997 67.0547C42.1911 66.623 42.5046 66.2773 42.9401 66.0176C43.3776 65.7578 43.8766 65.6279 44.4372 65.6279ZM45.8171 69.2402C45.3132 69.1113 44.8532 69.0469 44.4372 69.0469C43.9157 69.0469 43.5134 69.1475 43.2302 69.3486C42.947 69.5479 42.8054 69.8281 42.8054 70.1895C42.8054 70.5254 42.9245 70.7871 43.1628 70.9746C43.403 71.1621 43.7155 71.2559 44.1003 71.2559C44.5729 71.2559 44.9772 71.1182 45.3132 70.8428C45.6491 70.5654 45.8171 70.1836 45.8171 69.6973L45.8171 69.2402ZM51.6484 65.6279C52.121 65.6279 52.5673 65.7578 52.9872 66.0176C53.4072 66.2773 53.7451 66.6533 54.0009 67.1455C54.2568 67.6377 54.3847 68.2158 54.3847 68.8799C54.3847 69.5518 54.2568 70.1338 54.0009 70.626C53.7451 71.1182 53.4072 71.4922 52.9872 71.748C52.5673 72.0039 52.121 72.1318 51.6484 72.1318C51.248 72.1318 50.8652 72.0381 50.4999 71.8506C50.1367 71.6631 49.8398 71.3848 49.6093 71.0156L49.6093 74.7832L48.5869 74.7832L48.5869 65.7715L49.4892 65.7715C49.5048 66.1719 49.5283 66.5244 49.5595 66.8291C49.7841 66.4287 50.082 66.1289 50.4531 65.9297C50.8261 65.7285 51.2245 65.6279 51.6484 65.6279ZM51.5165 71.1709C52.0595 71.1709 52.4951 70.9717 52.8232 70.5732C53.1513 70.1729 53.3154 69.6084 53.3154 68.8799C53.3154 68.1514 53.1513 67.5879 52.8232 67.1895C52.4951 66.7891 52.0595 66.5889 51.5165 66.5889C51.1884 66.5889 50.8798 66.665 50.5908 66.8174C50.3036 66.9678 50.0683 67.2158 49.8847 67.5615C49.7011 67.9053 49.6093 68.3447 49.6093 68.8799C49.6093 69.415 49.7011 69.8555 49.8847 70.2012C50.0683 70.5449 50.3036 70.793 50.5908 70.9453C50.8798 71.0957 51.1884 71.1709 51.5165 71.1709ZM58.4636 65.6279C59.0007 65.6279 59.4705 65.7539 59.8728 66.0059C60.2771 66.2578 60.5867 66.5996 60.8015 67.0312C61.0183 67.4629 61.1267 67.9434 61.1267 68.4727C61.1267 68.6953 61.1111 68.8994 61.0798 69.085L56.5916 69.085C56.6326 69.7959 56.8367 70.3262 57.2039 70.6758C57.571 71.0234 58.0349 71.1973 58.5955 71.1973C59.2927 71.1973 59.7966 70.917 60.1072 70.3564L60.8894 70.7988C60.7293 71.2227 60.4304 71.5508 59.9929 71.7832C59.5574 72.0156 59.072 72.1318 58.5369 72.1318C57.9763 72.1318 57.4656 72.0039 57.0046 71.748C56.5457 71.4922 56.1824 71.1182 55.9148 70.626C55.6472 70.1338 55.5134 69.5439 55.5134 68.8564C55.5134 68.1924 55.6472 67.6162 55.9148 67.1279C56.1824 66.6396 56.5398 66.2676 56.9871 66.0117C57.4363 65.7559 57.9285 65.6279 58.4636 65.6279ZM58.4285 66.5654C57.9793 66.5654 57.5886 66.709 57.2566 66.9961C56.9246 67.2832 56.7146 67.7031 56.6267 68.2559L60.0252 68.2559C59.9998 67.7207 59.8425 67.3057 59.5535 67.0107C59.2664 66.7139 58.8914 66.5654 58.4285 66.5654Z" opacity="0.5" fill="rgb(255,255,255)" fill-rule="nonzero" />
			<path id="" d="M9.56543 88.8799C9.56543 88.2568 9.70312 87.6973 9.97852 87.2012C10.2539 86.7051 10.6191 86.3193 11.0742 86.0439C11.5312 85.7666 12.0234 85.6279 12.5508 85.6279C13.0801 85.6279 13.5723 85.7646 14.0273 86.0381C14.4844 86.3096 14.8486 86.6934 15.1201 87.1895C15.3916 87.6836 15.5273 88.2471 15.5273 88.8799C15.5273 89.5127 15.3916 90.0752 15.1201 90.5674C14.8486 91.0576 14.4844 91.4414 14.0273 91.7188C13.5723 91.9941 13.0801 92.1318 12.5508 92.1318C12.0234 92.1318 11.5293 91.9941 11.0684 91.7188C10.6094 91.4414 10.2441 91.0576 9.97266 90.5674C9.70117 90.0752 9.56543 89.5127 9.56543 88.8799ZM10.6436 88.8799C10.6436 89.3525 10.7275 89.7607 10.8955 90.1045C11.0635 90.4482 11.291 90.7119 11.5781 90.8955C11.8672 91.0791 12.1914 91.1709 12.5508 91.1709C12.9121 91.1709 13.2363 91.0791 13.5234 90.8955C13.8125 90.7119 14.0391 90.4482 14.2031 90.1045C14.3672 89.7607 14.4492 89.3525 14.4492 88.8799C14.4492 88.4072 14.3672 87.999 14.2031 87.6553C14.0391 87.3115 13.8125 87.0479 13.5234 86.8643C13.2363 86.6807 12.9121 86.5889 12.5508 86.5889C12.1914 86.5889 11.8672 86.6807 11.5781 86.8643C11.291 87.0479 11.0635 87.3115 10.8955 87.6553C10.7275 87.999 10.6436 88.4072 10.6436 88.8799ZM23.1969 83.6973C22.861 83.6973 22.607 83.8057 22.4352 84.0225C22.2633 84.2373 22.1774 84.6162 22.1774 85.1592L22.1774 85.7598L23.7945 85.7598L23.7945 86.6357L22.1774 86.6357L22.1774 92L21.1549 92L21.1549 86.6357L18.3248 86.6357L18.3248 92L17.3053 92L17.3053 86.6357L16.2242 86.6357L16.2242 85.7598L17.3053 85.7598L17.3053 85.1357C17.3053 84.3037 17.4928 83.6963 17.8678 83.3135C18.2447 82.9287 18.7203 82.7363 19.2945 82.7363C19.5524 82.7363 19.7867 82.7705 19.9977 82.8389C20.2106 82.9072 20.3805 82.9932 20.5074 83.0967L20.1002 83.9111C19.8756 83.7686 19.6236 83.6973 19.3444 83.6973C19.0084 83.6973 18.7545 83.8057 18.5826 84.0225C18.4108 84.2373 18.3248 84.6162 18.3248 85.1592L18.3248 85.7598L21.1549 85.7598L21.1549 85.1357C21.1549 84.3037 21.3424 83.6963 21.7174 83.3135C22.0944 82.9287 22.5709 82.7363 23.1471 82.7363C23.4029 82.7363 23.6363 82.7705 23.8473 82.8389C24.0602 82.9072 24.2311 82.9932 24.36 83.0967L23.9528 83.9111C23.7281 83.7686 23.4762 83.6973 23.1969 83.6973ZM29.088 90.2246C29.088 90.5996 28.9894 90.9316 28.7921 91.2207C28.5968 91.5078 28.3234 91.7314 27.9718 91.8916C27.6203 92.0518 27.216 92.1318 26.7589 92.1318C26.1515 92.1318 25.6281 91.9961 25.1886 91.7246C24.7492 91.4531 24.4611 91.0811 24.3244 90.6084L25.1036 90.1631C25.4005 90.8604 25.9523 91.209 26.7589 91.209C27.1515 91.209 27.4591 91.1289 27.6818 90.9688C27.9064 90.8086 28.0187 90.5879 28.0187 90.3066C28.0187 90.0918 27.9523 89.917 27.8195 89.7822C27.6886 89.6455 27.5255 89.5391 27.3302 89.4629C27.1349 89.3867 26.8605 89.2969 26.507 89.1934C26.0831 89.0723 25.7394 88.9561 25.4757 88.8447C25.212 88.7314 24.9884 88.5654 24.8048 88.3467C24.6212 88.126 24.5294 87.8359 24.5294 87.4766C24.5294 87.0996 24.631 86.7715 24.8341 86.4922C25.0372 86.2129 25.3126 85.999 25.6603 85.8506C26.0099 85.7021 26.3927 85.6279 26.8087 85.6279C27.3517 85.6279 27.8195 85.748 28.212 85.9883C28.6046 86.2285 28.8683 86.5566 29.0031 86.9727L28.2238 87.415C28.0968 87.1436 27.9064 86.9346 27.6525 86.7881C27.4005 86.6396 27.1027 86.5654 26.7589 86.5654C26.4074 86.5654 26.1251 86.6357 25.9122 86.7764C25.7013 86.915 25.5958 87.1162 25.5958 87.3799C25.5958 87.5713 25.6574 87.7275 25.7804 87.8486C25.9054 87.9678 26.0597 88.0635 26.2433 88.1357C26.4269 88.208 26.6867 88.292 27.0226 88.3877C27.464 88.5088 27.8204 88.627 28.0919 88.7422C28.3634 88.8574 28.5968 89.0352 28.7921 89.2754C28.9894 89.5156 29.088 89.832 29.088 90.2246ZM32.9396 85.6279C33.4767 85.6279 33.9465 85.7539 34.3488 86.0059C34.7531 86.2578 35.0627 86.5996 35.2775 87.0312C35.4943 87.4629 35.6027 87.9434 35.6027 88.4727C35.6027 88.6953 35.5871 88.8994 35.5558 89.085L31.0676 89.085C31.1086 89.7959 31.3127 90.3262 31.6799 90.6758C32.047 91.0234 32.5109 91.1973 33.0715 91.1973C33.7687 91.1973 34.2726 90.917 34.5832 90.3564L35.3654 90.7988C35.2052 91.2227 34.9064 91.5508 34.4689 91.7832C34.0334 92.0156 33.548 92.1318 33.0129 92.1318C32.4523 92.1318 31.9416 92.0039 31.4806 91.748C31.0217 91.4922 30.6584 91.1182 30.3908 90.626C30.1232 90.1338 29.9894 89.5439 29.9894 88.8564C29.9894 88.1924 30.1232 87.6162 30.3908 87.1279C30.6584 86.6396 31.0158 86.2676 31.4631 86.0117C31.9123 85.7559 32.4045 85.6279 32.9396 85.6279ZM32.9045 86.5654C32.4552 86.5654 32.0646 86.709 31.7326 86.9961C31.4006 87.2832 31.1906 87.7031 31.1027 88.2559L34.5011 88.2559C34.4758 87.7207 34.3185 87.3057 34.0295 87.0107C33.7424 86.7139 33.3674 86.5654 32.9045 86.5654ZM40.2946 91.7949C39.9685 92.0195 39.5485 92.1318 39.0349 92.1318C37.779 92.1318 37.1511 91.416 37.1511 89.9844L37.1511 86.6475L36.1198 86.6475L36.1198 85.7598L37.1511 85.7598L37.1511 84.0195L38.1706 84.0195L38.1706 85.7598L39.9841 85.7598L39.9841 86.6475L38.1706 86.6475L38.1706 89.8643C38.1706 90.7354 38.4987 91.1709 39.155 91.1709C39.4441 91.1709 39.7126 91.0996 39.9607 90.957L40.2946 91.7949Z" opacity="0.5" fill="rgb(255,255,255)" fill-rule="nonzero" />
			<path id="" d="M12.3252 105.628C13.0283 105.628 13.6035 105.842 14.0508 106.27C14.5 106.697 14.7246 107.308 14.7246 108.101L14.7246 112L13.8252 112C13.7998 111.592 13.7832 111.328 13.7754 111.209C13.584 111.512 13.3262 111.741 13.002 111.897C12.6777 112.054 12.3076 112.132 11.8916 112.132C11.4912 112.132 11.1172 112.059 10.7695 111.912C10.4219 111.764 10.1436 111.543 9.93457 111.25C9.72754 110.957 9.62402 110.607 9.62402 110.201C9.62402 109.584 9.87402 109.098 10.374 108.742C10.874 108.387 11.5195 108.209 12.3105 108.209C12.7598 108.209 13.2246 108.269 13.7051 108.388L13.7051 108.279C13.7051 107.695 13.5869 107.262 13.3506 106.979C13.1143 106.693 12.7559 106.551 12.2754 106.551C11.8926 106.551 11.5723 106.631 11.3145 106.791C11.0586 106.951 10.8428 107.188 10.667 107.5L9.8877 107.055C10.0791 106.623 10.3926 106.277 10.8281 106.018C11.2656 105.758 11.7646 105.628 12.3252 105.628ZM13.7051 109.24C13.2012 109.111 12.7412 109.047 12.3252 109.047C11.8037 109.047 11.4014 109.147 11.1182 109.349C10.835 109.548 10.6934 109.828 10.6934 110.189C10.6934 110.525 10.8125 110.787 11.0508 110.975C11.291 111.162 11.6035 111.256 11.9883 111.256C12.4609 111.256 12.8652 111.118 13.2012 110.843C13.5371 110.565 13.7051 110.184 13.7051 109.697L13.7051 109.24ZM20.676 110.225C20.676 110.6 20.5774 110.932 20.3801 111.221C20.1848 111.508 19.9114 111.731 19.5598 111.892C19.2083 112.052 18.804 112.132 18.3469 112.132C17.7395 112.132 17.2161 111.996 16.7766 111.725C16.3372 111.453 16.0491 111.081 15.9124 110.608L16.6916 110.163C16.9885 110.86 17.5403 111.209 18.3469 111.209C18.7395 111.209 19.0471 111.129 19.2698 110.969C19.4944 110.809 19.6067 110.588 19.6067 110.307C19.6067 110.092 19.5403 109.917 19.4075 109.782C19.2766 109.646 19.1135 109.539 18.9182 109.463C18.7229 109.387 18.4485 109.297 18.095 109.193C17.6711 109.072 17.3274 108.956 17.0637 108.845C16.8 108.731 16.5764 108.565 16.3928 108.347C16.2092 108.126 16.1174 107.836 16.1174 107.477C16.1174 107.1 16.219 106.771 16.4221 106.492C16.6252 106.213 16.9006 105.999 17.2483 105.851C17.5979 105.702 17.9807 105.628 18.3967 105.628C18.9397 105.628 19.4075 105.748 19.8 105.988C20.1926 106.229 20.4563 106.557 20.5911 106.973L19.8118 107.415C19.6848 107.144 19.4944 106.935 19.2405 106.788C18.9885 106.64 18.6907 106.565 18.3469 106.565C17.9954 106.565 17.7131 106.636 17.5002 106.776C17.2893 106.915 17.1838 107.116 17.1838 107.38C17.1838 107.571 17.2454 107.728 17.3684 107.849C17.4934 107.968 17.6477 108.063 17.8313 108.136C18.0149 108.208 18.2747 108.292 18.6106 108.388C19.052 108.509 19.4084 108.627 19.6799 108.742C19.9514 108.857 20.1848 109.035 20.3801 109.275C20.5774 109.516 20.676 109.832 20.676 110.225ZM22.4534 104.655C22.2679 104.655 22.1087 104.586 21.9759 104.447C21.845 104.307 21.7796 104.145 21.7796 103.961C21.7796 103.775 21.845 103.613 21.9759 103.475C22.1087 103.334 22.2679 103.264 22.4534 103.264C22.6448 103.264 22.8059 103.332 22.9368 103.469C23.0696 103.604 23.136 103.768 23.136 103.961C23.136 104.145 23.0677 104.307 22.9309 104.447C22.7962 104.586 22.637 104.655 22.4534 104.655ZM22.9573 112L21.9349 112L21.9349 105.771L22.9573 105.771L22.9573 112ZM29.028 110.225C29.028 110.6 28.9294 110.932 28.7321 111.221C28.5368 111.508 28.2634 111.731 27.9118 111.892C27.5602 112.052 27.156 112.132 26.6989 112.132C26.0915 112.132 25.5681 111.996 25.1286 111.725C24.6892 111.453 24.4011 111.081 24.2644 110.608L25.0436 110.163C25.3405 110.86 25.8923 111.209 26.6989 111.209C27.0915 111.209 27.3991 111.129 27.6218 110.969C27.8464 110.809 27.9587 110.588 27.9587 110.307C27.9587 110.092 27.8923 109.917 27.7595 109.782C27.6286 109.646 27.4655 109.539 27.2702 109.463C27.0749 109.387 26.8005 109.297 26.447 109.193C26.0231 109.072 25.6794 108.956 25.4157 108.845C25.152 108.731 24.9284 108.565 24.7448 108.347C24.5612 108.126 24.4694 107.836 24.4694 107.477C24.4694 107.1 24.571 106.771 24.7741 106.492C24.9772 106.213 25.2526 105.999 25.6003 105.851C25.9499 105.702 26.3327 105.628 26.7487 105.628C27.2917 105.628 27.7595 105.748 28.152 105.988C28.5446 106.229 28.8083 106.557 28.9431 106.973L28.1638 107.415C28.0368 107.144 27.8464 106.935 27.5925 106.788C27.3405 106.64 27.0427 106.565 26.6989 106.565C26.3474 106.565 26.0651 106.636 25.8522 106.776C25.6413 106.915 25.5358 107.116 25.5358 107.38C25.5358 107.571 25.5974 107.728 25.7204 107.849C25.8454 107.968 25.9997 108.063 26.1833 108.136C26.3669 108.208 26.6267 108.292 26.9626 108.388C27.404 108.509 27.7604 108.627 28.0319 108.742C28.3034 108.857 28.5368 109.035 28.7321 109.275C28.9294 109.516 29.028 109.832 29.028 110.225Z" opacity="0.5" fill="rgb(255,255,255)" fill-rule="nonzero" />
			<path id="" d="M13.3066 131.795C12.9805 132.02 12.5605 132.132 12.0469 132.132C10.791 132.132 10.1631 131.416 10.1631 129.984L10.1631 126.647L9.13184 126.647L9.13184 125.76L10.1631 125.76L10.1631 124.02L11.1826 124.02L11.1826 125.76L12.9961 125.76L12.9961 126.647L11.1826 126.647L11.1826 129.864C11.1826 130.735 11.5107 131.171 12.167 131.171C12.4561 131.171 12.7246 131.1 12.9727 130.957L13.3066 131.795ZM13.8974 128.88C13.8974 128.257 14.0351 127.697 14.3105 127.201C14.5859 126.705 14.9511 126.319 15.4062 126.044C15.8633 125.767 16.3554 125.628 16.8828 125.628C17.4121 125.628 17.9043 125.765 18.3593 126.038C18.8164 126.31 19.1806 126.693 19.4521 127.189C19.7236 127.684 19.8593 128.247 19.8593 128.88C19.8593 129.513 19.7236 130.075 19.4521 130.567C19.1806 131.058 18.8164 131.441 18.3593 131.719C17.9043 131.994 17.4121 132.132 16.8828 132.132C16.3554 132.132 15.8613 131.994 15.4004 131.719C14.9414 131.441 14.5761 131.058 14.3047 130.567C14.0332 130.075 13.8974 129.513 13.8974 128.88ZM14.9756 128.88C14.9756 129.353 15.0595 129.761 15.2275 130.104C15.3955 130.448 15.623 130.712 15.9101 130.896C16.1992 131.079 16.5234 131.171 16.8828 131.171C17.2441 131.171 17.5683 131.079 17.8554 130.896C18.1445 130.712 18.3711 130.448 18.5351 130.104C18.6992 129.761 18.7812 129.353 18.7812 128.88C18.7812 128.407 18.6992 127.999 18.5351 127.655C18.3711 127.312 18.1445 127.048 17.8554 126.864C17.5683 126.681 17.2441 126.589 16.8828 126.589C16.5234 126.589 16.1992 126.681 15.9101 126.864C15.623 127.048 15.3955 127.312 15.2275 127.655C15.0595 127.999 14.9756 128.407 14.9756 128.88ZM24.4084 125.628C24.881 125.628 25.3273 125.758 25.7472 126.018C26.1672 126.277 26.5051 126.653 26.7609 127.146C27.0168 127.638 27.1447 128.216 27.1447 128.88C27.1447 129.552 27.0168 130.134 26.7609 130.626C26.5051 131.118 26.1672 131.492 25.7472 131.748C25.3273 132.004 24.881 132.132 24.4084 132.132C23.9924 132.132 23.5959 132.032 23.2189 131.833C22.8439 131.632 22.5441 131.331 22.3195 130.931C22.2883 131.276 22.2648 131.633 22.2492 132L21.3469 132L21.3469 122.868L22.3693 122.868L22.3693 126.744C22.5998 126.377 22.8947 126.1 23.2541 125.912C23.6154 125.723 24.0002 125.628 24.4084 125.628ZM24.2765 131.171C24.8195 131.171 25.2551 130.972 25.5832 130.573C25.9113 130.173 26.0754 129.608 26.0754 128.88C26.0754 128.159 25.9113 127.6 25.5832 127.201C25.2551 126.801 24.8195 126.601 24.2765 126.601C23.757 126.601 23.3088 126.785 22.9318 127.154C22.5568 127.521 22.3693 128.097 22.3693 128.88C22.3693 129.415 22.4611 129.855 22.6447 130.201C22.8283 130.545 23.0636 130.793 23.3508 130.945C23.6398 131.096 23.9484 131.171 24.2765 131.171ZM31.2236 125.628C31.7607 125.628 32.2305 125.754 32.6328 126.006C33.0371 126.258 33.3467 126.6 33.5615 127.031C33.7783 127.463 33.8867 127.943 33.8867 128.473C33.8867 128.695 33.8711 128.899 33.8398 129.085L29.3516 129.085C29.3926 129.796 29.5967 130.326 29.9639 130.676C30.331 131.023 30.7949 131.197 31.3555 131.197C32.0527 131.197 32.5566 130.917 32.8672 130.356L33.6494 130.799C33.4893 131.223 33.1904 131.551 32.7529 131.783C32.3174 132.016 31.832 132.132 31.2969 132.132C30.7363 132.132 30.2256 132.004 29.7646 131.748C29.3057 131.492 28.9424 131.118 28.6748 130.626C28.4072 130.134 28.2734 129.544 28.2734 128.856C28.2734 128.192 28.4072 127.616 28.6748 127.128C28.9424 126.64 29.2998 126.268 29.7471 126.012C30.1963 125.756 30.6885 125.628 31.2236 125.628ZM31.1885 126.565C30.7393 126.565 30.3486 126.709 30.0166 126.996C29.6846 127.283 29.4746 127.703 29.3867 128.256L32.7851 128.256C32.7598 127.721 32.6025 127.306 32.3135 127.011C32.0264 126.714 31.6514 126.565 31.1885 126.565Z" opacity="0.5" fill="rgb(255,255,255)" fill-rule="nonzero" />
			<path id="" d="M14.3408 142.868L15.3604 142.868L15.3604 152L14.4609 152C14.4434 151.584 14.4189 151.232 14.3877 150.945C14.1631 151.344 13.8643 151.642 13.4912 151.839C13.1201 152.034 12.7266 152.132 12.3105 152.132C11.832 152.132 11.3828 152.004 10.9629 151.748C10.543 151.492 10.2051 151.118 9.94922 150.626C9.69336 150.134 9.56543 149.552 9.56543 148.88C9.56543 148.216 9.69336 147.638 9.94922 147.146C10.2051 146.653 10.543 146.277 10.9629 146.018C11.3828 145.758 11.832 145.628 12.3105 145.628C12.7109 145.628 13.0908 145.72 13.4502 145.903C13.8115 146.087 14.1084 146.363 14.3408 146.732L14.3408 142.868ZM12.4307 151.171C12.9521 151.171 13.4004 150.987 13.7754 150.62C14.1523 150.253 14.3408 149.673 14.3408 148.88C14.3408 148.097 14.1523 147.521 13.7754 147.154C13.4004 146.785 12.9521 146.601 12.4307 146.601C11.8877 146.601 11.4521 146.801 11.124 147.201C10.7959 147.6 10.6318 148.159 10.6318 148.88C10.6318 149.608 10.7959 150.173 11.124 150.573C11.4521 150.972 11.8877 151.171 12.4307 151.171ZM20.5906 151.795C20.2645 152.02 19.8445 152.132 19.3309 152.132C18.075 152.132 17.4471 151.416 17.4471 149.984L17.4471 146.647L16.4158 146.647L16.4158 145.76L17.4471 145.76L17.4471 144.02L18.4666 144.02L18.4666 145.76L20.2801 145.76L20.2801 146.647L18.4666 146.647L18.4666 149.864C18.4666 150.735 18.7947 151.171 19.451 151.171C19.7401 151.171 20.0086 151.1 20.2567 150.957L20.5906 151.795ZM25.7654 145.771L26.8201 145.771L23.9051 153.128C23.6492 153.776 23.3768 154.238 23.0877 154.514C22.8006 154.789 22.3963 154.927 21.8748 154.927C21.3885 154.927 21.0008 154.803 20.7117 154.555L21.1189 153.729C21.2068 153.801 21.3211 153.858 21.4617 153.901C21.6023 153.946 21.74 153.969 21.8748 153.969C22.1229 153.969 22.3328 153.885 22.5047 153.717C22.6785 153.549 22.865 153.232 23.0643 152.768L23.3631 152.073L20.7732 145.771L21.948 145.771L23.9051 150.775L25.7654 145.771ZM30.9244 145.628C31.397 145.628 31.8433 145.758 32.2632 146.018C32.6832 146.277 33.0211 146.653 33.2769 147.146C33.5328 147.638 33.6607 148.216 33.6607 148.88C33.6607 149.552 33.5328 150.134 33.2769 150.626C33.0211 151.118 32.6832 151.492 32.2632 151.748C31.8433 152.004 31.397 152.132 30.9244 152.132C30.524 152.132 30.1412 152.038 29.7759 151.851C29.4127 151.663 29.1158 151.385 28.8853 151.016L28.8853 154.783L27.8629 154.783L27.8629 145.771L28.7652 145.771C28.7808 146.172 28.8043 146.524 28.8355 146.829C29.0601 146.429 29.358 146.129 29.7291 145.93C30.1021 145.729 30.5005 145.628 30.9244 145.628ZM30.7925 151.171C31.3355 151.171 31.7711 150.972 32.0992 150.573C32.4273 150.173 32.5914 149.608 32.5914 148.88C32.5914 148.151 32.4273 147.588 32.0992 147.189C31.7711 146.789 31.3355 146.589 30.7925 146.589C30.4644 146.589 30.1558 146.665 29.8668 146.817C29.5796 146.968 29.3443 147.216 29.1607 147.562C28.9771 147.905 28.8853 148.345 28.8853 148.88C28.8853 149.415 28.9771 149.855 29.1607 150.201C29.3443 150.545 29.5796 150.793 29.8668 150.945C30.1558 151.096 30.4644 151.171 30.7925 151.171ZM37.7396 145.628C38.2767 145.628 38.7465 145.754 39.1488 146.006C39.5531 146.258 39.8627 146.6 40.0775 147.031C40.2943 147.463 40.4027 147.943 40.4027 148.473C40.4027 148.695 40.3871 148.899 40.3558 149.085L35.8676 149.085C35.9086 149.796 36.1127 150.326 36.4799 150.676C36.847 151.023 37.3109 151.197 37.8715 151.197C38.5687 151.197 39.0726 150.917 39.3832 150.356L40.1654 150.799C40.0052 151.223 39.7064 151.551 39.2689 151.783C38.8334 152.016 38.348 152.132 37.8129 152.132C37.2523 152.132 36.7416 152.004 36.2806 151.748C35.8217 151.492 35.4584 151.118 35.1908 150.626C34.9232 150.134 34.7894 149.544 34.7894 148.856C34.7894 148.192 34.9232 147.616 35.1908 147.128C35.4584 146.64 35.8158 146.268 36.2631 146.012C36.7123 145.756 37.2045 145.628 37.7396 145.628ZM37.7045 146.565C37.2552 146.565 36.8646 146.709 36.5326 146.996C36.2006 147.283 35.9906 147.703 35.9027 148.256L39.3011 148.256C39.2758 147.721 39.1185 147.306 38.8295 147.011C38.5424 146.714 38.1674 146.565 37.7045 146.565Z" opacity="0.5" fill="rgb(255,255,255)" fill-rule="nonzero" />
		</g>
		<g id="容器 4855" customFrame="url(#clipPath_18)">
			<rect id="容器 4855" width="115.000000" height="114.000000" x="74.000000" y="39.000000" />
			<path id="" d="M79.291 45.1318L79.291 44.124L76.8916 44.124L76.291 44.124L76.291 55.3799L77.5039 55.3799L79.291 55.3799L79.291 54.3721L77.5039 54.3721L77.5039 45.1318L79.291 45.1318ZM87.1513 52.7988L85.4843 52.7988L85.4843 45.6006L84.2714 45.6006L82.4492 47.0273L83.1933 47.9883L84.2714 47.1357L84.2714 52.7988L82.2324 52.7988L82.2324 54L87.4882 54L87.1513 52.7988ZM91.3524 52.2012L91.3524 54.0117L92.4569 54.0117L91.0653 55.8838L92.3603 55.8838L93.163 54.0117L93.163 52.2012L91.3524 52.2012ZM98.1932 52.7988L99.7401 51.4453C99.8485 51.3604 99.9452 51.2637 100.051 51.1787C100.555 50.7363 101.132 50.2324 101.551 49.6787C102.104 48.9492 102.321 48.2402 102.163 47.543C101.888 46.2598 100.724 45.5273 99.1044 45.6123C97.6893 45.6826 96.7753 46.415 96.4647 46.8369L97.4227 47.5547C97.4491 47.5312 97.9764 46.8721 99.1629 46.8135C100.604 46.7285 100.915 47.4727 100.988 47.7949C101.167 48.6123 100.112 49.5352 99.2596 50.2676C99.1512 50.3643 99.0428 50.4492 98.9491 50.543L96.3797 52.7988L96.3563 52.8252L96.3563 54L102.128 54L101.791 52.7988L98.1932 52.7988ZM105.848 52.2012L105.848 54.0117L106.953 54.0117L105.561 55.8838L106.856 55.8838L107.659 54.0117L107.659 52.2012L105.848 52.2012ZM116.143 52.7988L114.476 52.7988L114.476 45.6006L113.263 45.6006L111.441 47.0273L112.185 47.9883L113.263 47.1357L113.263 52.7988L111.224 52.7988L111.224 54L116.48 54L116.143 52.7988ZM119.937 52.7988L121.484 51.4453C121.592 51.3604 121.689 51.2637 121.795 51.1787C122.299 50.7363 122.876 50.2324 123.295 49.6787C123.848 48.9492 124.065 48.2402 123.907 47.543C123.632 46.2598 122.468 45.5273 120.848 45.6123C119.433 45.6826 118.519 46.415 118.209 46.8369L119.167 47.5547C119.193 47.5312 119.72 46.8721 120.907 46.8135C122.348 46.7285 122.659 47.4727 122.732 47.7949C122.911 48.6123 121.856 49.5352 121.004 50.2676C120.895 50.3643 120.787 50.4492 120.693 50.543L118.124 52.7988L118.1 52.8252L118.1 54L123.872 54L123.535 52.7988L119.937 52.7988ZM130.917 51.085C130.891 50.915 130.844 50.748 130.771 50.5928C130.545 50.0771 130.147 49.7285 129.693 49.4883C129.705 49.4766 129.716 49.4766 129.728 49.4648C130.173 49.1895 130.46 48.8174 130.592 48.3721C130.651 48.1787 130.677 47.9766 130.677 47.7598C130.677 47.3027 130.519 46.8838 130.244 46.5469C130.244 46.5352 130.244 46.5352 130.232 46.5352C130.208 46.5117 130.197 46.4766 130.173 46.4531C130.088 46.3564 129.992 46.2715 129.895 46.1895C129.429 45.8027 128.767 45.6006 127.988 45.6006C127.988 45.6006 127.976 45.6006 127.964 45.6006C127.964 45.6006 127.953 45.6006 127.953 45.6006C127.173 45.6006 126.511 45.8027 126.045 46.1895C125.949 46.2715 125.852 46.3564 125.767 46.4531C125.744 46.4766 125.72 46.5117 125.697 46.5352C125.697 46.5352 125.697 46.5352 125.697 46.5469C125.421 46.8838 125.251 47.3027 125.251 47.7598C125.251 47.9766 125.287 48.1787 125.348 48.3721C125.48 48.8174 125.767 49.1895 126.212 49.4648C126.224 49.4766 126.236 49.4766 126.248 49.4883C125.779 49.7285 125.395 50.0771 125.155 50.5928C125.096 50.748 125.049 50.915 125.011 51.085C124.988 51.2402 124.964 51.3838 124.976 51.5273C124.964 51.9492 125.073 52.3564 125.301 52.7285C125.779 53.543 126.801 54 127.953 54C127.953 54 127.964 54 127.964 54C127.976 54 127.988 54 127.988 54C129.127 54 130.159 53.543 130.639 52.7285C130.868 52.3564 130.964 51.9492 130.964 51.5273C130.964 51.3838 130.953 51.2402 130.917 51.085ZM126.368 47.4844C126.523 47.0039 127.123 46.667 127.964 46.6553C128.805 46.667 129.403 47.0039 129.573 47.4844C129.584 47.5547 129.596 47.6279 129.596 47.7129C129.596 48.1787 129.332 48.5156 128.767 48.791C128.553 48.8994 128.287 48.9844 127.964 49.0811C127.651 48.9844 127.387 48.8994 127.159 48.791C126.596 48.5156 126.344 48.1787 126.344 47.7129C126.344 47.6279 126.344 47.5547 126.368 47.4844ZM129.681 52.0195C129.368 52.5 128.697 52.8105 127.964 52.8252C127.232 52.8105 126.573 52.5 126.259 52.0195C126.069 51.709 126.045 51.3721 126.201 51.0352C126.453 50.5195 127.185 50.1592 127.964 49.9189C128.755 50.1592 129.488 50.5195 129.728 51.0352C129.895 51.3721 129.872 51.709 129.681 52.0195ZM134.456 52.2012L134.456 54.0117L135.561 54.0117L134.169 55.8838L135.464 55.8838L136.267 54.0117L136.267 52.2012L134.456 52.2012ZM144.561 49.415C143.743 48.7559 142.437 48.5771 141.189 48.9346C141.189 48.9346 141.177 48.9346 141.177 48.9492C141.165 48.9492 141.151 48.9492 141.127 48.9609L141.356 46.8135L144.596 46.8135L144.933 45.6123L140.251 45.6123L140.228 46.1396L140.216 46.1396L139.809 49.957L140.755 50.5078C140.949 50.376 141.283 50.1709 141.476 50.1123C142.364 49.8486 143.289 49.9453 143.805 50.3525C144.139 50.6162 144.283 51 144.236 51.5156C144.189 51.9961 143.697 52.7285 142.519 52.7988C141.297 52.8604 140.228 52.043 140.216 52.043L139.484 52.9922C139.531 53.0391 140.793 54 142.375 54C142.449 54 142.507 54 142.58 54C144.321 53.9033 145.34 52.7402 145.437 51.624C145.519 50.7129 145.208 49.9307 144.561 49.415ZM151.531 52.7988L149.864 52.7988L149.864 45.6006L148.651 45.6006L146.829 47.0273L147.573 47.9883L148.651 47.1357L148.651 52.7988L146.612 52.7988L146.612 54L151.868 54L151.531 52.7988ZM155.325 52.7988L156.872 51.4453C156.98 51.3604 157.077 51.2637 157.183 51.1787C157.687 50.7363 158.264 50.2324 158.683 49.6787C159.236 48.9492 159.453 48.2402 159.295 47.543C159.02 46.2598 157.856 45.5273 156.236 45.6123C154.821 45.6826 153.907 46.415 153.597 46.8369L154.555 47.5547C154.581 47.5312 155.108 46.8721 156.295 46.8135C157.736 46.7285 158.047 47.4727 158.12 47.7949C158.299 48.6123 157.244 49.5352 156.392 50.2676C156.283 50.3643 156.175 50.4492 156.081 50.543L153.512 52.7988L153.488 52.8252L153.488 54L159.26 54L158.923 52.7988L155.325 52.7988ZM164.457 44.124L162.069 44.124L162.069 45.1318L163.856 45.1318L163.856 54.3721L162.069 54.3721L162.069 55.3799L163.856 55.3799L165.069 55.3799L165.069 44.124L164.457 44.124Z" opacity="0.800000012" fill="rgb(255,255,255)" fill-rule="nonzero" />
			<path id="" d="M79.291 65.1318L79.291 64.124L76.8916 64.124L76.291 64.124L76.291 75.3799L77.5039 75.3799L79.291 75.3799L79.291 74.3721L77.5039 74.3721L77.5039 65.1318L79.291 65.1318ZM87.1513 72.7988L85.4843 72.7988L85.4843 65.6006L84.2714 65.6006L82.4492 67.0273L83.1933 67.9883L84.2714 67.1357L84.2714 72.7988L82.2324 72.7988L82.2324 74L87.4882 74L87.1513 72.7988ZM91.3524 72.2012L91.3524 74.0117L92.4569 74.0117L91.0653 75.8838L92.3603 75.8838L93.163 74.0117L93.163 72.2012L91.3524 72.2012ZM98.1932 72.7988L99.7401 71.4453C99.8485 71.3604 99.9452 71.2637 100.051 71.1787C100.555 70.7363 101.132 70.2324 101.551 69.6787C102.104 68.9492 102.321 68.2402 102.163 67.543C101.888 66.2598 100.724 65.5273 99.1044 65.6123C97.6893 65.6826 96.7753 66.415 96.4647 66.8369L97.4227 67.5547C97.4491 67.5312 97.9764 66.8721 99.1629 66.8135C100.604 66.7285 100.915 67.4727 100.988 67.7949C101.167 68.6123 100.112 69.5352 99.2596 70.2676C99.1512 70.3643 99.0428 70.4492 98.9491 70.543L96.3797 72.7988L96.3563 72.8252L96.3563 74L102.128 74L101.791 72.7988L98.1932 72.7988ZM105.848 72.2012L105.848 74.0117L106.953 74.0117L105.561 75.8838L106.856 75.8838L107.659 74.0117L107.659 72.2012L105.848 72.2012ZM116.143 72.7988L114.476 72.7988L114.476 65.6006L113.263 65.6006L111.441 67.0273L112.185 67.9883L113.263 67.1357L113.263 72.7988L111.224 72.7988L111.224 74L116.48 74L116.143 72.7988ZM119.937 72.7988L121.484 71.4453C121.592 71.3604 121.689 71.2637 121.795 71.1787C122.299 70.7363 122.876 70.2324 123.295 69.6787C123.848 68.9492 124.065 68.2402 123.907 67.543C123.632 66.2598 122.468 65.5273 120.848 65.6123C119.433 65.6826 118.519 66.415 118.209 66.8369L119.167 67.5547C119.193 67.5312 119.72 66.8721 120.907 66.8135C122.348 66.7285 122.659 67.4727 122.732 67.7949C122.911 68.6123 121.856 69.5352 121.004 70.2676C120.895 70.3643 120.787 70.4492 120.693 70.543L118.124 72.7988L118.1 72.8252L118.1 74L123.872 74L123.535 72.7988L119.937 72.7988ZM130.917 71.085C130.891 70.915 130.844 70.748 130.771 70.5928C130.545 70.0771 130.147 69.7285 129.693 69.4883C129.705 69.4766 129.716 69.4766 129.728 69.4648C130.173 69.1895 130.46 68.8174 130.592 68.3721C130.651 68.1787 130.677 67.9766 130.677 67.7598C130.677 67.3027 130.519 66.8838 130.244 66.5469C130.244 66.5352 130.244 66.5352 130.232 66.5352C130.208 66.5117 130.197 66.4766 130.173 66.4531C130.088 66.3564 129.992 66.2715 129.895 66.1895C129.429 65.8027 128.767 65.6006 127.988 65.6006C127.988 65.6006 127.976 65.6006 127.964 65.6006C127.964 65.6006 127.953 65.6006 127.953 65.6006C127.173 65.6006 126.511 65.8027 126.045 66.1895C125.949 66.2715 125.852 66.3564 125.767 66.4531C125.744 66.4766 125.72 66.5117 125.697 66.5352C125.697 66.5352 125.697 66.5352 125.697 66.5469C125.421 66.8838 125.251 67.3027 125.251 67.7598C125.251 67.9766 125.287 68.1787 125.348 68.3721C125.48 68.8174 125.767 69.1895 126.212 69.4648C126.224 69.4766 126.236 69.4766 126.248 69.4883C125.779 69.7285 125.395 70.0771 125.155 70.5928C125.096 70.748 125.049 70.915 125.011 71.085C124.988 71.2402 124.964 71.3838 124.976 71.5273C124.964 71.9492 125.073 72.3564 125.301 72.7285C125.779 73.543 126.801 74 127.953 74C127.953 74 127.964 74 127.964 74C127.976 74 127.988 74 127.988 74C129.127 74 130.159 73.543 130.639 72.7285C130.868 72.3564 130.964 71.9492 130.964 71.5273C130.964 71.3838 130.953 71.2402 130.917 71.085ZM126.368 67.4844C126.523 67.0039 127.123 66.667 127.964 66.6553C128.805 66.667 129.403 67.0039 129.573 67.4844C129.584 67.5547 129.596 67.6279 129.596 67.7129C129.596 68.1787 129.332 68.5156 128.767 68.791C128.553 68.8994 128.287 68.9844 127.964 69.0811C127.651 68.9844 127.387 68.8994 127.159 68.791C126.596 68.5156 126.344 68.1787 126.344 67.7129C126.344 67.6279 126.344 67.5547 126.368 67.4844ZM129.681 72.0195C129.368 72.5 128.697 72.8105 127.964 72.8252C127.232 72.8105 126.573 72.5 126.259 72.0195C126.069 71.709 126.045 71.3721 126.201 71.0352C126.453 70.5195 127.185 70.1592 127.964 69.9189C128.755 70.1592 129.488 70.5195 129.728 71.0352C129.895 71.3721 129.872 71.709 129.681 72.0195ZM134.456 72.2012L134.456 74.0117L135.561 74.0117L134.169 75.8838L135.464 75.8838L136.267 74.0117L136.267 72.2012L134.456 72.2012ZM144.561 69.415C143.743 68.7559 142.437 68.5771 141.189 68.9346C141.189 68.9346 141.177 68.9346 141.177 68.9492C141.165 68.9492 141.151 68.9492 141.127 68.9609L141.356 66.8135L144.596 66.8135L144.933 65.6123L140.251 65.6123L140.228 66.1396L140.216 66.1396L139.809 69.957L140.755 70.5078C140.949 70.376 141.283 70.1709 141.476 70.1123C142.364 69.8486 143.289 69.9453 143.805 70.3525C144.139 70.6162 144.283 71 144.236 71.5156C144.189 71.9961 143.697 72.7285 142.519 72.7988C141.297 72.8604 140.228 72.043 140.216 72.043L139.484 72.9922C139.531 73.0391 140.793 74 142.375 74C142.449 74 142.507 74 142.58 74C144.321 73.9033 145.34 72.7402 145.437 71.624C145.519 70.7129 145.208 69.9307 144.561 69.415ZM151.531 72.7988L149.864 72.7988L149.864 65.6006L148.651 65.6006L146.829 67.0273L147.573 67.9883L148.651 67.1357L148.651 72.7988L146.612 72.7988L146.612 74L151.868 74L151.531 72.7988ZM155.325 72.7988L156.872 71.4453C156.98 71.3604 157.077 71.2637 157.183 71.1787C157.687 70.7363 158.264 70.2324 158.683 69.6787C159.236 68.9492 159.453 68.2402 159.295 67.543C159.02 66.2598 157.856 65.5273 156.236 65.6123C154.821 65.6826 153.907 66.415 153.597 66.8369L154.555 67.5547C154.581 67.5312 155.108 66.8721 156.295 66.8135C157.736 66.7285 158.047 67.4727 158.12 67.7949C158.299 68.6123 157.244 69.5352 156.392 70.2676C156.283 70.3643 156.175 70.4492 156.081 70.543L153.512 72.7988L153.488 72.8252L153.488 74L159.26 74L158.923 72.7988L155.325 72.7988ZM164.457 64.124L162.069 64.124L162.069 65.1318L163.856 65.1318L163.856 74.3721L162.069 74.3721L162.069 75.3799L163.856 75.3799L165.069 75.3799L165.069 64.124L164.457 64.124Z" opacity="0.800000012" fill="rgb(255,255,255)" fill-rule="nonzero" />
			<path id="" d="M78.4092 82.6099L78.4092 81.77L76.4097 81.77L75.9092 81.77L75.9092 91.1499L76.9199 91.1499L78.4092 91.1499L78.4092 90.3101L76.9199 90.3101L76.9199 82.6099L78.4092 82.6099ZM91.351 84.1211C90.9091 83.4009 90.1791 83.0103 89.2099 83.0103C88.2406 83.0103 87.5107 83.4009 87.0712 84.1211C86.7001 84.7192 86.539 85.52 86.539 86.5088C86.539 87.4707 86.7294 88.291 87.1103 88.8989C87.5693 89.6094 88.2895 90 89.2099 90C90.1303 90 90.8505 89.6094 91.3095 88.8989C91.6904 88.291 91.8808 87.4707 91.8808 86.5088C91.8808 85.52 91.7197 84.7192 91.351 84.1211ZM90.4599 88.3301C90.1889 88.7598 89.7909 88.9795 89.2099 88.9795C88.6288 88.9795 88.2309 88.7598 87.9599 88.3301C87.6889 87.9102 87.5497 87.29 87.54 86.521L87.54 86.4893C87.54 86.3794 87.5497 86.2598 87.5497 86.1499L87.5497 86.1011L87.5595 86.0596C87.5595 86.001 87.5693 85.9399 87.5693 85.8911L87.5693 85.8398C87.579 85.8301 87.579 85.8301 87.579 85.8203L87.579 85.769C87.6401 85.3003 87.7499 84.9194 87.9208 84.6411C88.1796 84.2212 88.58 84.0112 89.2099 84.0112C89.8398 84.0112 90.2402 84.2212 90.4989 84.6411C90.6698 84.9194 90.7895 85.3003 90.8407 85.769L90.8407 85.8203C90.8407 85.8301 90.8505 85.8301 90.8505 85.8398L90.8505 85.8911C90.8603 85.9399 90.8603 86.001 90.8603 86.0596L90.87 86.1011L90.87 86.1499C90.87 86.2598 90.8798 86.3794 90.8798 86.4893C90.8798 87.2705 90.7406 87.9102 90.4599 88.3301ZM89.7909 87.0996L89.7909 85.9106L88.6288 85.9106L88.6288 87.0996L89.7909 87.0996ZM94.7404 88.501L94.7404 90.0098L95.6608 90.0098L94.5011 91.5698L95.5802 91.5698L96.2492 90.0098L96.2492 88.501L94.7404 88.501ZM103.671 84.1211C103.229 83.4009 102.499 83.0103 101.53 83.0103C100.561 83.0103 99.8307 83.4009 99.3912 84.1211C99.0201 84.7192 98.859 85.52 98.859 86.5088C98.859 87.4707 99.0494 88.291 99.4303 88.8989C99.8893 89.6094 100.609 90 101.53 90C102.45 90 103.171 89.6094 103.629 88.8989C104.01 88.291 104.201 87.4707 104.201 86.5088C104.201 85.52 104.04 84.7192 103.671 84.1211ZM102.78 88.3301C102.509 88.7598 102.111 88.9795 101.53 88.9795C100.949 88.9795 100.551 88.7598 100.28 88.3301C100.009 87.9102 99.8697 87.29 99.86 86.521L99.86 86.4893C99.86 86.3794 99.8697 86.2598 99.8697 86.1499L99.8697 86.1011L99.8795 86.0596C99.8795 86.001 99.8893 85.9399 99.8893 85.8911L99.8893 85.8398C99.899 85.8301 99.899 85.8301 99.899 85.8203L99.899 85.769C99.9601 85.3003 100.07 84.9194 100.241 84.6411C100.5 84.2212 100.9 84.0112 101.53 84.0112C102.16 84.0112 102.56 84.2212 102.819 84.6411C102.99 84.9194 103.109 85.3003 103.161 85.769L103.161 85.8203C103.161 85.8301 103.171 85.8301 103.171 85.8398L103.171 85.8911C103.18 85.9399 103.18 86.001 103.18 86.0596L103.19 86.1011L103.19 86.1499C103.19 86.2598 103.2 86.3794 103.2 86.4893C103.2 87.2705 103.061 87.9102 102.78 88.3301ZM102.111 87.0996L102.111 85.9106L100.949 85.9106L100.949 87.0996L102.111 87.0996ZM107.06 88.501L107.06 90.0098L107.981 90.0098L106.821 91.5698L107.9 91.5698L108.569 90.0098L108.569 88.501L107.06 88.501ZM115.991 84.1211C115.549 83.4009 114.819 83.0103 113.85 83.0103C112.881 83.0103 112.151 83.4009 111.711 84.1211C111.34 84.7192 111.179 85.52 111.179 86.5088C111.179 87.4707 111.369 88.291 111.75 88.8989C112.209 89.6094 112.929 90 113.85 90C114.77 90 115.491 89.6094 115.949 88.8989C116.33 88.291 116.521 87.4707 116.521 86.5088C116.521 85.52 116.36 84.7192 115.991 84.1211ZM115.1 88.3301C114.829 88.7598 114.431 88.9795 113.85 88.9795C113.269 88.9795 112.871 88.7598 112.6 88.3301C112.329 87.9102 112.19 87.29 112.18 86.521L112.18 86.4893C112.18 86.3794 112.19 86.2598 112.19 86.1499L112.19 86.1011L112.199 86.0596C112.199 86.001 112.209 85.9399 112.209 85.8911L112.209 85.8398C112.219 85.8301 112.219 85.8301 112.219 85.8203L112.219 85.769C112.28 85.3003 112.39 84.9194 112.561 84.6411C112.82 84.2212 113.22 84.0112 113.85 84.0112C114.48 84.0112 114.88 84.2212 115.139 84.6411C115.31 84.9194 115.429 85.3003 115.481 85.769L115.481 85.8203C115.481 85.8301 115.491 85.8301 115.491 85.8398L115.491 85.8911C115.5 85.9399 115.5 86.001 115.5 86.0596L115.51 86.1011L115.51 86.1499C115.51 86.2598 115.52 86.3794 115.52 86.4893C115.52 87.2705 115.381 87.9102 115.1 88.3301ZM114.431 87.0996L114.431 85.9106L113.269 85.9106L113.269 87.0996L114.431 87.0996ZM126.651 81.77L124.661 81.77L124.661 82.6099L126.15 82.6099L126.15 90.3101L124.661 90.3101L124.661 91.1499L126.15 91.1499L127.161 91.1499L127.161 81.77L126.651 81.77Z" opacity="0.899999976" fill="rgb(255,255,255)" fill-rule="nonzero" />
			<path id="" d="M80.3105 97.6123L78.7285 97.6123C78.6201 97.8027 78.5234 98.043 78.415 98.2949L78.3799 98.3682C78.3799 98.3799 78.3799 98.3916 78.3682 98.4033L78.3564 98.4414C78.3447 98.4648 78.333 98.4883 78.3213 98.5117L78.2949 98.5967L78.2598 98.6787L78.2363 98.752L78.2012 98.8252L78.1748 98.9072L78.1514 98.9805L78.1279 99.0508L78.0928 99.124C78.0928 99.1357 78.0928 99.1475 78.0811 99.1592L78.0547 99.2207L78.0312 99.291L78.0078 99.3643L77.9961 99.4229L77.9844 99.4346L77.6123 100.671L77.2285 99.4346L77.2285 99.4229L77.2051 99.3643L77.1787 99.291C77.1787 99.2793 77.167 99.2676 77.167 99.2559L77.1436 99.1973L77.1201 99.124L77.0967 99.0508L77.0586 98.9805L77.0352 98.9072L77.0117 98.8252L76.9766 98.752L76.9531 98.6787L76.915 98.5967L76.8916 98.5117C76.8799 98.4883 76.8682 98.4648 76.8564 98.4414L76.8447 98.4033C76.7246 98.1045 76.6045 97.8525 76.4961 97.6357C76.4961 97.624 76.4844 97.624 76.4844 97.6123L76.0654 97.6123L74.9111 97.6006L74.876 98.0928L74.8408 98.5352L74.8174 98.9072L74.791 99.3027L74.7676 99.5693L74.7559 99.833L74.7441 100.097L74.7324 100.287L74.7207 100.457L74.709 100.577L74.6973 100.756L74.6973 100.853L74.6973 100.961L74.6826 101.043L74.6826 101.104L74.6826 101.163L74.6826 101.236L74.6826 101.283L74.6826 101.307L74.6826 101.345L74.6123 106L75.8105 106L75.8838 101.345L75.8838 101.295L75.8838 101.248L75.8838 101.201L75.8838 101.128L75.8955 101.031L75.8955 100.923L75.8955 100.779L75.9072 100.612L75.9189 100.445L75.9307 100.167L75.957 99.8066L75.9805 99.5078L75.9922 99.2676L76.0156 99.3174C76.0273 99.3291 76.0273 99.3408 76.0273 99.3525L76.0508 99.4229L76.0771 99.4961L76.1006 99.5547L76.124 99.6279L76.1475 99.6895C76.1592 99.7129 76.1592 99.7246 76.1709 99.748L76.1709 99.7715L77.0586 102.663L78.1514 102.663L79.0391 99.7715L79.0391 99.748C79.0508 99.7246 79.0654 99.7129 79.0654 99.6895L79.0889 99.6279L79.1123 99.5547C79.1123 99.543 79.124 99.5312 79.124 99.5195L79.1475 99.4609L79.1709 99.3877L79.1973 99.3174L79.2207 99.2559L79.2324 99.2324L79.2559 99.5195L79.2676 99.7832L79.291 100.073L79.3027 100.299L79.3174 100.48L79.3291 100.647L79.3291 100.841L79.3408 100.961L79.3408 101.043L79.3408 101.104L79.3525 101.189L79.3525 101.236L79.3525 101.295L79.3525 101.333L79.4111 106L80.624 106L80.5508 101.356L80.5508 101.333L80.5508 101.283L80.5508 101.248L80.5508 101.201L80.5508 101.128L80.5391 101.093L80.5391 101.043L80.5391 100.935L80.5391 100.829L80.5273 100.659L80.5156 100.539L80.5039 100.349L80.5039 100.179L80.4805 99.9531L80.4688 99.6162L80.4307 99.209L80.3955 98.7051L80.3604 98.1396L80.3105 97.6123ZM82.8955 97.6006L82.8955 106L88.8369 106L88.5 104.799L84.0966 104.799L84.0966 102.197L87.6005 102.197L87.6005 100.996L84.0966 100.996L84.0966 98.7988L88.5 98.7988L88.8369 97.6006L82.8955 97.6006ZM96.8065 97.6123L95.2245 97.6123C95.1161 97.8027 95.0194 98.043 94.911 98.2949L94.8759 98.3682C94.8759 98.3799 94.8759 98.3916 94.8642 98.4033L94.8524 98.4414C94.8407 98.4648 94.829 98.4883 94.8173 98.5117L94.7909 98.5967L94.7558 98.6787L94.7323 98.752L94.6972 98.8252L94.6708 98.9072L94.6474 98.9805L94.6239 99.0508L94.5888 99.124C94.5888 99.1357 94.5888 99.1475 94.5771 99.1592L94.5507 99.2207L94.5273 99.291L94.5038 99.3643L94.4921 99.4229L94.4804 99.4346L94.1083 100.671L93.7245 99.4346L93.7245 99.4229L93.7011 99.3643L93.6747 99.291C93.6747 99.2793 93.663 99.2676 93.663 99.2559L93.6396 99.1973L93.6161 99.124L93.5927 99.0508L93.5546 98.9805L93.5312 98.9072L93.5077 98.8252L93.4726 98.752L93.4491 98.6787L93.411 98.5967L93.3876 98.5117C93.3759 98.4883 93.3642 98.4648 93.3524 98.4414L93.3407 98.4033C93.2206 98.1045 93.1005 97.8525 92.9921 97.6357C92.9921 97.624 92.9804 97.624 92.9804 97.6123L92.5614 97.6123L91.4071 97.6006L91.372 98.0928L91.3368 98.5352L91.3134 98.9072L91.287 99.3027L91.2636 99.5693L91.2519 99.833L91.2401 100.097L91.2284 100.287L91.2167 100.457L91.205 100.577L91.1933 100.756L91.1933 100.853L91.1933 100.961L91.1786 101.043L91.1786 101.104L91.1786 101.163L91.1786 101.236L91.1786 101.283L91.1786 101.307L91.1786 101.345L91.1083 106L92.3065 106L92.3798 101.345L92.3798 101.295L92.3798 101.248L92.3798 101.201L92.3798 101.128L92.3915 101.031L92.3915 100.923L92.3915 100.779L92.4032 100.612L92.4149 100.445L92.4267 100.167L92.453 99.8066L92.4765 99.5078L92.4882 99.2676L92.5116 99.3174C92.5233 99.3291 92.5233 99.3408 92.5233 99.3525L92.5468 99.4229L92.5732 99.4961L92.5966 99.5547L92.62 99.6279L92.6435 99.6895C92.6552 99.7129 92.6552 99.7246 92.6669 99.748L92.6669 99.7715L93.5546 102.663L94.6474 102.663L95.5351 99.7715L95.5351 99.748C95.5468 99.7246 95.5614 99.7129 95.5614 99.6895L95.5849 99.6279L95.6083 99.5547C95.6083 99.543 95.62 99.5312 95.62 99.5195L95.6435 99.4609L95.6669 99.3877L95.6933 99.3174L95.7167 99.2559L95.7284 99.2324L95.7519 99.5195L95.7636 99.7832L95.787 100.073L95.7987 100.299L95.8134 100.48L95.8251 100.647L95.8251 100.841L95.8368 100.961L95.8368 101.043L95.8368 101.104L95.8485 101.189L95.8485 101.236L95.8485 101.295L95.8485 101.333L95.9071 106L97.12 106L97.0468 101.356L97.0468 101.333L97.0468 101.283L97.0468 101.248L97.0468 101.201L97.0468 101.128L97.0351 101.093L97.0351 101.043L97.0351 100.935L97.0351 100.829L97.0233 100.659L97.0116 100.539L96.9999 100.349L96.9999 100.179L96.9765 99.9531L96.9648 99.6162L96.9267 99.209L96.8915 98.7051L96.8564 98.1396L96.8065 97.6123ZM105.321 106L105.321 104.86L99.4032 104.86L99.4032 106L105.321 106ZM111.659 99.2207C112.236 99.7129 112.488 100.337 112.488 101.201C112.488 101.201 112.488 102.016 112.368 102.543C112.283 102.941 112.163 103.179 111.972 103.48C111.6 104.055 110.927 104.5 110.364 104.644C109.825 104.775 109.62 104.799 109.38 104.811C109.104 104.825 109.008 104.825 109.008 104.825L109.008 98.7168L110.291 98.7168C110.856 98.7168 111.263 98.8721 111.659 99.2207ZM107.795 106L109.213 106C109.403 106 110.089 105.977 110.663 105.795C111.551 105.531 112.5 104.931 113.015 104.14C113.496 103.407 113.701 102.628 113.736 101.559L113.736 101.488L113.736 101.415L113.736 101.345L113.736 101.271C113.736 101.248 113.736 101.225 113.736 101.201C113.736 99.9883 113.341 99.0771 112.5 98.333C111.899 97.8174 111.143 97.5771 110.256 97.6006L110.232 97.6006L109.008 97.6006L107.795 97.6006L107.795 106ZM115.887 97.6006L115.887 106L121.829 106L121.492 104.799L117.089 104.799L117.089 102.197L120.593 102.197L120.593 100.996L117.089 100.996L117.089 98.7988L121.492 98.7988L121.829 97.6006L115.887 97.6006ZM128.217 100.984L128.181 101.116L128.132 101.321L128.096 101.465L128.061 101.608C128.061 101.62 128.061 101.644 128.047 101.655L128.035 101.752L128 101.884L127.965 102.016L127.929 102.147L127.903 102.232L127.88 102.303L127.856 102.423C127.748 102.821 127.616 103.217 127.472 103.624L127.449 103.683L127.112 104.547L126.763 103.683L126.74 103.624C126.596 103.217 126.465 102.821 126.356 102.423L126.333 102.303L126.309 102.232L126.283 102.147L126.248 102.016L126.213 101.884L126.177 101.752L126.151 101.655C126.151 101.644 126.151 101.62 126.139 101.608L126.104 101.465L126.069 101.321L126.019 101.116L125.996 100.984L125.348 97.6006L124.147 97.6006L124.809 101.225L124.821 101.248L124.856 101.403L124.903 101.597L124.941 101.74L124.976 101.884L125.011 102.027L125.047 102.159L125.073 102.244L125.085 102.329L125.12 102.461L125.155 102.581L125.181 102.663L125.205 102.748C125.325 103.193 125.468 103.647 125.635 104.104L125.635 104.116L126.391 106L127.821 106L128.565 104.116L128.577 104.104C128.744 103.647 128.887 103.193 129.008 102.748L129.031 102.663L129.057 102.581L129.092 102.461L129.116 102.329L129.139 102.244L129.163 102.159L129.201 102.027L129.236 101.884L129.271 101.74L129.309 101.597L129.356 101.403L129.391 101.248L129.391 101.225L130.053 97.6006L128.864 97.6006L128.217 100.984ZM132.589 98.7988L134.748 98.7988L134.748 104.787L132.72 104.787L132.72 106L137.965 106L137.965 104.799L135.961 104.787L135.961 98.7988L138.12 98.7988L138.12 97.6006L132.911 97.6006L132.589 98.7988ZM145.815 98.8369C145.229 98.0078 144.497 97.6006 143.536 97.6006C142.299 97.6006 141.315 98.3447 140.823 99.5312C140.585 100.108 140.489 100.791 140.489 101.62C140.489 101.632 140.489 101.644 140.489 101.655L140.489 101.729L140.489 101.799C140.489 101.811 140.489 101.825 140.489 101.837L140.489 101.896L140.489 101.969C140.489 101.98 140.489 101.992 140.489 102.004L140.489 102.065C140.489 102.077 140.489 102.089 140.489 102.101L140.5 102.171L140.5 102.232L140.5 102.291C140.5 102.388 140.512 102.484 140.524 102.581L140.524 102.64C140.536 102.701 140.536 102.771 140.547 102.845L140.559 102.903L140.559 102.953L140.571 103.012C140.585 103.085 140.597 103.144 140.609 103.205L140.609 103.264C140.691 103.683 140.823 104.055 141.016 104.392C141.593 105.423 142.419 106 143.512 106C144.617 106 145.493 105.569 146.055 104.705L145.036 104.031L145.036 104.055C144.699 104.547 144.209 104.799 143.512 104.799C143.14 104.799 142.721 104.644 142.419 104.307C142.288 104.163 142.179 103.996 142.071 103.791C142 103.659 141.939 103.516 141.88 103.36L141.869 103.311C141.857 103.24 141.833 103.167 141.819 103.085L141.807 103.047C141.807 103.035 141.807 103.035 141.795 103.023L141.795 102.977C141.784 102.915 141.772 102.856 141.76 102.795L141.76 102.748C141.748 102.725 141.748 102.713 141.748 102.701L141.748 102.651C141.737 102.628 141.737 102.616 141.737 102.593L141.737 102.543C141.737 102.531 141.737 102.531 141.725 102.52L141.725 102.473L141.725 102.411C141.725 102.411 141.725 102.399 141.725 102.388L141.713 102.341C141.713 102.329 141.713 102.317 141.713 102.303L141.713 102.256C141.713 102.244 141.713 102.232 141.713 102.221L141.699 102.171C141.699 102.147 141.699 102.136 141.699 102.112L141.699 102.051L141.699 101.992C141.699 101.98 141.699 101.98 141.699 101.969L141.699 101.907L141.699 101.849L141.699 101.787L141.699 101.729C141.699 101.717 141.699 101.705 141.699 101.693L141.699 101.632C141.699 100.935 141.772 100.396 141.939 99.9883C142.264 99.2324 142.815 98.8135 143.536 98.8135C144.075 98.8135 144.447 99.0039 144.795 99.4844L144.819 99.5195L144.833 99.5312C145.012 99.7832 145.132 100.155 145.167 100.647L146.284 99.915C146.187 99.4961 146.032 99.1357 145.815 98.8369ZM148.663 97.6006L148.663 106L154.605 106L154.268 104.799L149.865 104.799L149.865 102.197L153.369 102.197L153.369 100.996L149.865 100.996L149.865 98.7988L154.268 98.7988L154.605 97.6006L148.663 97.6006ZM162.841 106L162.841 104.86L156.923 104.86L156.923 106L162.841 106ZM169.179 99.2207C169.756 99.7129 170.008 100.337 170.008 101.201C170.008 101.201 170.008 102.016 169.888 102.543C169.803 102.941 169.683 103.179 169.492 103.48C169.12 104.055 168.447 104.5 167.884 104.644C167.345 104.775 167.14 104.799 166.9 104.811C166.624 104.825 166.528 104.825 166.528 104.825L166.528 98.7168L167.811 98.7168C168.376 98.7168 168.783 98.8721 169.179 99.2207ZM165.315 106L166.733 106C166.923 106 167.609 105.977 168.183 105.795C169.071 105.531 170.02 104.931 170.535 104.14C171.016 103.407 171.221 102.628 171.256 101.559L171.256 101.488L171.256 101.415L171.256 101.345L171.256 101.271C171.256 101.248 171.256 101.225 171.256 101.201C171.256 99.9883 170.861 99.0771 170.02 98.333C169.419 97.8174 168.663 97.5771 167.776 97.6006L167.752 97.6006L166.528 97.6006L165.315 97.6006L165.315 106ZM177.427 99.2207C178.004 99.7129 178.256 100.337 178.256 101.201C178.256 101.201 178.256 102.016 178.136 102.543C178.051 102.941 177.931 103.179 177.74 103.48C177.368 104.055 176.695 104.5 176.132 104.644C175.593 104.775 175.388 104.799 175.148 104.811C174.872 104.825 174.776 104.825 174.776 104.825L174.776 98.7168L176.059 98.7168C176.624 98.7168 177.031 98.8721 177.427 99.2207ZM173.563 106L174.981 106C175.171 106 175.857 105.977 176.431 105.795C177.319 105.531 178.268 104.931 178.783 104.14C179.264 103.407 179.469 102.628 179.504 101.559L179.504 101.488L179.504 101.415L179.504 101.345L179.504 101.271C179.504 101.248 179.504 101.225 179.504 101.201C179.504 99.9883 179.109 99.0771 178.268 98.333C177.667 97.8174 176.911 97.5771 176.024 97.6006L176 97.6006L174.776 97.6006L173.563 97.6006L173.563 106ZM182.868 101.236L182.868 98.7988L184.919 98.7988L184.943 98.7988C185.795 98.8135 186.299 99.2324 186.299 99.8564C186.299 100.337 186.144 100.697 185.748 100.949C185.567 101.069 185.364 101.14 185.124 101.189C185.124 101.189 185.124 101.189 185.113 101.189L185.089 101.189L185.051 101.201L185.028 101.201L184.992 101.213L184.969 101.213L184.931 101.213L184.907 101.213L184.884 101.225L184.861 101.225L184.837 101.225L184.799 101.225L184.752 101.225L184.717 101.236L184.679 101.236L184.632 101.236L184.585 101.236L184.535 101.236L184.439 101.236L184.345 101.236L184.237 101.236L182.868 101.236ZM181.667 97.6006L181.667 106L182.868 106L182.868 102.435L184.128 102.435L184.248 102.435L184.357 102.435L184.38 102.435L186.205 106L187.585 106L185.652 102.291C185.915 102.221 186.167 102.112 186.396 101.969C187.163 101.465 187.512 100.721 187.512 99.8564C187.512 98.5 186.396 97.6006 184.919 97.6006L181.667 97.6006Z" opacity="0.800000012" fill="rgb(255,255,255)" fill-rule="nonzero" />
			<path id="" d="M80.3105 117.612L78.7285 117.612C78.6201 117.803 78.5234 118.043 78.415 118.295L78.3799 118.368C78.3799 118.38 78.3799 118.392 78.3682 118.403L78.3564 118.441C78.3447 118.465 78.333 118.488 78.3213 118.512L78.2949 118.597L78.2598 118.679L78.2363 118.752L78.2012 118.825L78.1748 118.907L78.1514 118.98L78.1279 119.051L78.0928 119.124C78.0928 119.136 78.0928 119.147 78.0811 119.159L78.0547 119.221L78.0312 119.291L78.0078 119.364L77.9961 119.423L77.9844 119.435L77.6123 120.671L77.2285 119.435L77.2285 119.423L77.2051 119.364L77.1787 119.291C77.1787 119.279 77.167 119.268 77.167 119.256L77.1436 119.197L77.1201 119.124L77.0967 119.051L77.0586 118.98L77.0352 118.907L77.0117 118.825L76.9766 118.752L76.9531 118.679L76.915 118.597L76.8916 118.512C76.8799 118.488 76.8682 118.465 76.8564 118.441L76.8447 118.403C76.7246 118.104 76.6045 117.853 76.4961 117.636C76.4961 117.624 76.4844 117.624 76.4844 117.612L76.0654 117.612L74.9111 117.601L74.876 118.093L74.8408 118.535L74.8174 118.907L74.791 119.303L74.7676 119.569L74.7559 119.833L74.7441 120.097L74.7324 120.287L74.7207 120.457L74.709 120.577L74.6973 120.756L74.6973 120.853L74.6973 120.961L74.6826 121.043L74.6826 121.104L74.6826 121.163L74.6826 121.236L74.6826 121.283L74.6826 121.307L74.6826 121.345L74.6123 126L75.8105 126L75.8838 121.345L75.8838 121.295L75.8838 121.248L75.8838 121.201L75.8838 121.128L75.8955 121.031L75.8955 120.923L75.8955 120.779L75.9072 120.612L75.9189 120.445L75.9307 120.167L75.957 119.807L75.9805 119.508L75.9922 119.268L76.0156 119.317C76.0273 119.329 76.0273 119.341 76.0273 119.353L76.0508 119.423L76.0771 119.496L76.1006 119.555L76.124 119.628L76.1475 119.689C76.1592 119.713 76.1592 119.725 76.1709 119.748L76.1709 119.771L77.0586 122.663L78.1514 122.663L79.0391 119.771L79.0391 119.748C79.0508 119.725 79.0654 119.713 79.0654 119.689L79.0889 119.628L79.1123 119.555C79.1123 119.543 79.124 119.531 79.124 119.52L79.1475 119.461L79.1709 119.388L79.1973 119.317L79.2207 119.256L79.2324 119.232L79.2559 119.52L79.2676 119.783L79.291 120.073L79.3027 120.299L79.3174 120.48L79.3291 120.647L79.3291 120.841L79.3408 120.961L79.3408 121.043L79.3408 121.104L79.3525 121.189L79.3525 121.236L79.3525 121.295L79.3525 121.333L79.4111 126L80.624 126L80.5508 121.356L80.5508 121.333L80.5508 121.283L80.5508 121.248L80.5508 121.201L80.5508 121.128L80.5391 121.093L80.5391 121.043L80.5391 120.935L80.5391 120.829L80.5273 120.659L80.5156 120.539L80.5039 120.349L80.5039 120.179L80.4805 119.953L80.4688 119.616L80.4307 119.209L80.3955 118.705L80.3604 118.14L80.3105 117.612ZM82.8955 117.601L82.8955 126L88.8369 126L88.5 124.799L84.0966 124.799L84.0966 122.197L87.6005 122.197L87.6005 120.996L84.0966 120.996L84.0966 118.799L88.5 118.799L88.8369 117.601L82.8955 117.601ZM96.8065 117.612L95.2245 117.612C95.1161 117.803 95.0194 118.043 94.911 118.295L94.8759 118.368C94.8759 118.38 94.8759 118.392 94.8642 118.403L94.8524 118.441C94.8407 118.465 94.829 118.488 94.8173 118.512L94.7909 118.597L94.7558 118.679L94.7323 118.752L94.6972 118.825L94.6708 118.907L94.6474 118.98L94.6239 119.051L94.5888 119.124C94.5888 119.136 94.5888 119.147 94.5771 119.159L94.5507 119.221L94.5273 119.291L94.5038 119.364L94.4921 119.423L94.4804 119.435L94.1083 120.671L93.7245 119.435L93.7245 119.423L93.7011 119.364L93.6747 119.291C93.6747 119.279 93.663 119.268 93.663 119.256L93.6396 119.197L93.6161 119.124L93.5927 119.051L93.5546 118.98L93.5312 118.907L93.5077 118.825L93.4726 118.752L93.4491 118.679L93.411 118.597L93.3876 118.512C93.3759 118.488 93.3642 118.465 93.3524 118.441L93.3407 118.403C93.2206 118.104 93.1005 117.853 92.9921 117.636C92.9921 117.624 92.9804 117.624 92.9804 117.612L92.5614 117.612L91.4071 117.601L91.372 118.093L91.3368 118.535L91.3134 118.907L91.287 119.303L91.2636 119.569L91.2519 119.833L91.2401 120.097L91.2284 120.287L91.2167 120.457L91.205 120.577L91.1933 120.756L91.1933 120.853L91.1933 120.961L91.1786 121.043L91.1786 121.104L91.1786 121.163L91.1786 121.236L91.1786 121.283L91.1786 121.307L91.1786 121.345L91.1083 126L92.3065 126L92.3798 121.345L92.3798 121.295L92.3798 121.248L92.3798 121.201L92.3798 121.128L92.3915 121.031L92.3915 120.923L92.3915 120.779L92.4032 120.612L92.4149 120.445L92.4267 120.167L92.453 119.807L92.4765 119.508L92.4882 119.268L92.5116 119.317C92.5233 119.329 92.5233 119.341 92.5233 119.353L92.5468 119.423L92.5732 119.496L92.5966 119.555L92.62 119.628L92.6435 119.689C92.6552 119.713 92.6552 119.725 92.6669 119.748L92.6669 119.771L93.5546 122.663L94.6474 122.663L95.5351 119.771L95.5351 119.748C95.5468 119.725 95.5614 119.713 95.5614 119.689L95.5849 119.628L95.6083 119.555C95.6083 119.543 95.62 119.531 95.62 119.52L95.6435 119.461L95.6669 119.388L95.6933 119.317L95.7167 119.256L95.7284 119.232L95.7519 119.52L95.7636 119.783L95.787 120.073L95.7987 120.299L95.8134 120.48L95.8251 120.647L95.8251 120.841L95.8368 120.961L95.8368 121.043L95.8368 121.104L95.8485 121.189L95.8485 121.236L95.8485 121.295L95.8485 121.333L95.9071 126L97.12 126L97.0468 121.356L97.0468 121.333L97.0468 121.283L97.0468 121.248L97.0468 121.201L97.0468 121.128L97.0351 121.093L97.0351 121.043L97.0351 120.935L97.0351 120.829L97.0233 120.659L97.0116 120.539L96.9999 120.349L96.9999 120.179L96.9765 119.953L96.9648 119.616L96.9267 119.209L96.8915 118.705L96.8564 118.14L96.8065 117.612ZM105.321 126L105.321 124.86L99.4032 124.86L99.4032 126L105.321 126ZM111.659 119.221C112.236 119.713 112.488 120.337 112.488 121.201C112.488 121.201 112.488 122.016 112.368 122.543C112.283 122.941 112.163 123.179 111.972 123.48C111.6 124.055 110.927 124.5 110.364 124.644C109.825 124.775 109.62 124.799 109.38 124.811C109.104 124.825 109.008 124.825 109.008 124.825L109.008 118.717L110.291 118.717C110.856 118.717 111.263 118.872 111.659 119.221ZM107.795 126L109.213 126C109.403 126 110.089 125.977 110.663 125.795C111.551 125.531 112.5 124.931 113.015 124.14C113.496 123.407 113.701 122.628 113.736 121.559L113.736 121.488L113.736 121.415L113.736 121.345L113.736 121.271C113.736 121.248 113.736 121.225 113.736 121.201C113.736 119.988 113.341 119.077 112.5 118.333C111.899 117.817 111.143 117.577 110.256 117.601L110.232 117.601L109.008 117.601L107.795 117.601L107.795 126ZM115.887 117.601L115.887 126L121.829 126L121.492 124.799L117.089 124.799L117.089 122.197L120.593 122.197L120.593 120.996L117.089 120.996L117.089 118.799L121.492 118.799L121.829 117.601L115.887 117.601ZM128.217 120.984L128.181 121.116L128.132 121.321L128.096 121.465L128.061 121.608C128.061 121.62 128.061 121.644 128.047 121.655L128.035 121.752L128 121.884L127.965 122.016L127.929 122.147L127.903 122.232L127.88 122.303L127.856 122.423C127.748 122.821 127.616 123.217 127.472 123.624L127.449 123.683L127.112 124.547L126.763 123.683L126.74 123.624C126.596 123.217 126.465 122.821 126.356 122.423L126.333 122.303L126.309 122.232L126.283 122.147L126.248 122.016L126.213 121.884L126.177 121.752L126.151 121.655C126.151 121.644 126.151 121.62 126.139 121.608L126.104 121.465L126.069 121.321L126.019 121.116L125.996 120.984L125.348 117.601L124.147 117.601L124.809 121.225L124.821 121.248L124.856 121.403L124.903 121.597L124.941 121.74L124.976 121.884L125.011 122.027L125.047 122.159L125.073 122.244L125.085 122.329L125.12 122.461L125.155 122.581L125.181 122.663L125.205 122.748C125.325 123.193 125.468 123.647 125.635 124.104L125.635 124.116L126.391 126L127.821 126L128.565 124.116L128.577 124.104C128.744 123.647 128.887 123.193 129.008 122.748L129.031 122.663L129.057 122.581L129.092 122.461L129.116 122.329L129.139 122.244L129.163 122.159L129.201 122.027L129.236 121.884L129.271 121.74L129.309 121.597L129.356 121.403L129.391 121.248L129.391 121.225L130.053 117.601L128.864 117.601L128.217 120.984ZM132.589 118.799L134.748 118.799L134.748 124.787L132.72 124.787L132.72 126L137.965 126L137.965 124.799L135.961 124.787L135.961 118.799L138.12 118.799L138.12 117.601L132.911 117.601L132.589 118.799ZM145.815 118.837C145.229 118.008 144.497 117.601 143.536 117.601C142.299 117.601 141.315 118.345 140.823 119.531C140.585 120.108 140.489 120.791 140.489 121.62C140.489 121.632 140.489 121.644 140.489 121.655L140.489 121.729L140.489 121.799C140.489 121.811 140.489 121.825 140.489 121.837L140.489 121.896L140.489 121.969C140.489 121.98 140.489 121.992 140.489 122.004L140.489 122.065C140.489 122.077 140.489 122.089 140.489 122.101L140.5 122.171L140.5 122.232L140.5 122.291C140.5 122.388 140.512 122.484 140.524 122.581L140.524 122.64C140.536 122.701 140.536 122.771 140.547 122.845L140.559 122.903L140.559 122.953L140.571 123.012C140.585 123.085 140.597 123.144 140.609 123.205L140.609 123.264C140.691 123.683 140.823 124.055 141.016 124.392C141.593 125.423 142.419 126 143.512 126C144.617 126 145.493 125.569 146.055 124.705L145.036 124.031L145.036 124.055C144.699 124.547 144.209 124.799 143.512 124.799C143.14 124.799 142.721 124.644 142.419 124.307C142.288 124.163 142.179 123.996 142.071 123.791C142 123.659 141.939 123.516 141.88 123.36L141.869 123.311C141.857 123.24 141.833 123.167 141.819 123.085L141.807 123.047C141.807 123.035 141.807 123.035 141.795 123.023L141.795 122.977C141.784 122.915 141.772 122.856 141.76 122.795L141.76 122.748C141.748 122.725 141.748 122.713 141.748 122.701L141.748 122.651C141.737 122.628 141.737 122.616 141.737 122.593L141.737 122.543C141.737 122.531 141.737 122.531 141.725 122.52L141.725 122.473L141.725 122.411C141.725 122.411 141.725 122.399 141.725 122.388L141.713 122.341C141.713 122.329 141.713 122.317 141.713 122.303L141.713 122.256C141.713 122.244 141.713 122.232 141.713 122.221L141.699 122.171C141.699 122.147 141.699 122.136 141.699 122.112L141.699 122.051L141.699 121.992C141.699 121.98 141.699 121.98 141.699 121.969L141.699 121.907L141.699 121.849L141.699 121.787L141.699 121.729C141.699 121.717 141.699 121.705 141.699 121.693L141.699 121.632C141.699 120.935 141.772 120.396 141.939 119.988C142.264 119.232 142.815 118.813 143.536 118.813C144.075 118.813 144.447 119.004 144.795 119.484L144.819 119.52L144.833 119.531C145.012 119.783 145.132 120.155 145.167 120.647L146.284 119.915C146.187 119.496 146.032 119.136 145.815 118.837ZM148.663 117.601L148.663 126L154.605 126L154.268 124.799L149.865 124.799L149.865 122.197L153.369 122.197L153.369 120.996L149.865 120.996L149.865 118.799L154.268 118.799L154.605 117.601L148.663 117.601ZM162.841 126L162.841 124.86L156.923 124.86L156.923 126L162.841 126ZM169.179 119.221C169.756 119.713 170.008 120.337 170.008 121.201C170.008 121.201 170.008 122.016 169.888 122.543C169.803 122.941 169.683 123.179 169.492 123.48C169.12 124.055 168.447 124.5 167.884 124.644C167.345 124.775 167.14 124.799 166.9 124.811C166.624 124.825 166.528 124.825 166.528 124.825L166.528 118.717L167.811 118.717C168.376 118.717 168.783 118.872 169.179 119.221ZM165.315 126L166.733 126C166.923 126 167.609 125.977 168.183 125.795C169.071 125.531 170.02 124.931 170.535 124.14C171.016 123.407 171.221 122.628 171.256 121.559L171.256 121.488L171.256 121.415L171.256 121.345L171.256 121.271C171.256 121.248 171.256 121.225 171.256 121.201C171.256 119.988 170.861 119.077 170.02 118.333C169.419 117.817 168.663 117.577 167.776 117.601L167.752 117.601L166.528 117.601L165.315 117.601L165.315 126ZM177.427 119.221C178.004 119.713 178.256 120.337 178.256 121.201C178.256 121.201 178.256 122.016 178.136 122.543C178.051 122.941 177.931 123.179 177.74 123.48C177.368 124.055 176.695 124.5 176.132 124.644C175.593 124.775 175.388 124.799 175.148 124.811C174.872 124.825 174.776 124.825 174.776 124.825L174.776 118.717L176.059 118.717C176.624 118.717 177.031 118.872 177.427 119.221ZM173.563 126L174.981 126C175.171 126 175.857 125.977 176.431 125.795C177.319 125.531 178.268 124.931 178.783 124.14C179.264 123.407 179.469 122.628 179.504 121.559L179.504 121.488L179.504 121.415L179.504 121.345L179.504 121.271C179.504 121.248 179.504 121.225 179.504 121.201C179.504 119.988 179.109 119.077 178.268 118.333C177.667 117.817 176.911 117.577 176.024 117.601L176 117.601L174.776 117.601L173.563 117.601L173.563 126ZM182.868 121.236L182.868 118.799L184.919 118.799L184.943 118.799C185.795 118.813 186.299 119.232 186.299 119.856C186.299 120.337 186.144 120.697 185.748 120.949C185.567 121.069 185.364 121.14 185.124 121.189C185.124 121.189 185.124 121.189 185.113 121.189L185.089 121.189L185.051 121.201L185.028 121.201L184.992 121.213L184.969 121.213L184.931 121.213L184.907 121.213L184.884 121.225L184.861 121.225L184.837 121.225L184.799 121.225L184.752 121.225L184.717 121.236L184.679 121.236L184.632 121.236L184.585 121.236L184.535 121.236L184.439 121.236L184.345 121.236L184.237 121.236L182.868 121.236ZM181.667 117.601L181.667 126L182.868 126L182.868 122.435L184.128 122.435L184.248 122.435L184.357 122.435L184.38 122.435L186.205 126L187.585 126L185.652 122.291C185.915 122.221 186.167 122.112 186.396 121.969C187.163 121.465 187.512 120.721 187.512 119.856C187.512 118.5 186.396 117.601 184.919 117.601L181.667 117.601Z" opacity="0.800000012" fill="rgb(255,255,255)" fill-rule="nonzero" />
			<path id="" d="M77.4922 138.945C77.4922 138.667 77.4922 138.368 77.9346 138.069C78.3564 137.779 79.3174 137.829 79.8799 137.864C79.8916 137.864 79.8916 137.864 79.8916 137.864L80.2754 136.689C80.2754 136.689 80.085 136.689 80.0117 136.675C79.2793 136.64 78.043 136.569 77.2754 137.085C76.8564 137.372 76.5693 137.721 76.4229 138.128C76.3027 138.477 76.3027 138.775 76.3027 138.957L76.3027 139.411L74.5889 139.411L74.5889 140.601L76.3027 140.601L76.3027 146L77.4922 146L77.4922 140.601L80.2051 140.601L80.2051 139.411L77.4922 139.411L77.4922 138.945ZM87.0693 140.132C86.6474 139.675 86.0351 139.435 85.2793 139.423C84.6669 139.411 83.9492 139.604 83.3134 140.085L83.3134 139.423L82.124 139.423L82.124 148.783L83.3134 148.783L83.3134 146.035C83.8876 146.035 84.8603 146 85.4492 145.795C86.8994 145.303 87.705 144.201 87.7636 142.616C87.8134 141.488 87.5966 140.671 87.0693 140.132ZM86.5654 142.555C86.5156 143.659 86.0351 144.321 85.0507 144.655C84.6201 144.811 83.6826 144.825 83.3134 144.837L83.3134 141.175C83.7793 140.744 84.6201 140.551 85.2324 140.551C85.2441 140.551 85.2441 140.551 85.2558 140.551C85.6894 140.565 86 140.744 86.1933 140.949C86.4804 141.248 86.6005 141.787 86.5654 142.555ZM94.2089 141.403C93.7987 141.081 93.2597 140.864 92.6708 140.791L95.0468 138.813L95.0614 138.813L95.0614 138.799L95.0849 138.775L95.0614 138.764L95.0614 137.601L89.6239 137.601L89.287 138.813L93.163 138.813L90.2831 141.213L91.0653 142.136L91.0771 142.112L91.0771 142.124C91.9765 141.837 92.9228 141.931 93.453 142.353C93.787 142.616 93.9306 143 93.8837 143.516C93.8368 143.996 93.3446 144.729 92.1669 144.787C90.9452 144.86 89.8759 144.043 89.8642 144.031L89.12 144.992C89.1786 145.027 90.4413 146 92.0233 146C92.0966 146 92.1552 146 92.2284 146C93.9804 145.903 94.9882 144.729 95.0849 143.624C95.1669 142.713 94.8564 141.919 94.2089 141.403ZM97.7852 144.799L99.3321 143.445C99.4405 143.36 99.5372 143.264 99.6426 143.179C100.147 142.736 100.724 142.232 101.143 141.679C101.696 140.949 101.913 140.24 101.755 139.543C101.48 138.26 100.316 137.527 98.6964 137.612C97.2813 137.683 96.3672 138.415 96.0567 138.837L97.0147 139.555C97.0411 139.531 97.5684 138.872 98.7549 138.813C100.196 138.729 100.507 139.473 100.58 139.795C100.759 140.612 99.7042 141.535 98.8516 142.268C98.7432 142.364 98.6348 142.449 98.5411 142.543L95.9717 144.799L95.9483 144.825L95.9483 146L101.72 146L101.383 144.799L97.7852 144.799Z" opacity="0.800000012" fill="rgb(255,255,255)" fill-rule="nonzero" />
		</g>
		<g id="组合 91333517">
			<path id="" d="M10.9844 15.3516C10.7057 15.3516 10.4648 15.2448 10.2617 15.0312C10.0612 14.8177 9.96094 14.5677 9.96094 14.2812C9.96094 13.9922 10.0612 13.7435 10.2617 13.5352C10.4648 13.3268 10.7057 13.2227 10.9844 13.2227C11.2839 13.2227 11.5339 13.3268 11.7344 13.5352C11.9375 13.7435 12.0391 13.9922 12.0391 14.2812C12.0391 14.5677 11.9349 14.8177 11.7266 15.0312C11.5182 15.2448 11.2708 15.3516 10.9844 15.3516ZM11.8164 25L10.168 25L10.168 16.6953L11.8164 16.6953L11.8164 25ZM18.4258 16.5039C19.3216 16.5039 20.0352 16.7982 20.5664 17.3867C21.1003 17.9727 21.3672 18.8203 21.3672 19.9297L21.3672 25L19.7188 25L19.7188 20.4258C19.7188 19.6576 19.5742 19.0651 19.2852 18.6484C18.9987 18.2318 18.5625 18.0234 17.9766 18.0234C17.3776 18.0234 16.8672 18.2344 16.4453 18.6562C16.026 19.0781 15.8164 19.6784 15.8164 20.457L15.8164 25L14.168 25L14.168 16.6953L15.625 16.6953C15.6458 17.2188 15.6771 17.6719 15.7188 18.0547C15.9974 17.5443 16.3685 17.1589 16.832 16.8984C17.2956 16.6354 17.8268 16.5039 18.4258 16.5039ZM27.1424 23.6875C27.8898 23.6875 28.4874 23.3411 28.9353 22.6484L30.201 23.3828C29.9119 23.9818 29.5031 24.431 28.9744 24.7305C28.4484 25.0273 27.8442 25.1758 27.1619 25.1758C26.4145 25.1758 25.7309 25 25.1111 24.6484C24.4939 24.2969 24.0031 23.793 23.6385 23.1367C23.2765 22.4805 23.0955 21.7148 23.0955 20.8398C23.0955 19.9648 23.2765 19.1992 23.6385 18.543C24.0031 17.8867 24.4939 17.3828 25.1111 17.0312C25.7309 16.6797 26.4145 16.5039 27.1619 16.5039C27.8442 16.5039 28.4484 16.6536 28.9744 16.9531C29.5031 17.25 29.9119 17.6979 30.201 18.2969L28.9353 19.0312C28.4874 18.349 27.8898 18.0078 27.1424 18.0078C26.4497 18.0078 25.8898 18.2617 25.4627 18.7695C25.0356 19.2747 24.8221 19.9648 24.8221 20.8398C24.8221 21.7253 25.0356 22.4219 25.4627 22.9297C25.8898 23.4349 26.4497 23.6875 27.1424 23.6875ZM34.8408 16.5039C35.833 16.5039 36.6351 16.7982 37.2471 17.3867C37.8617 17.9727 38.169 18.8138 38.169 19.9102L38.169 25L36.7432 25C36.7224 24.5208 36.6963 24.1797 36.6651 23.9766C36.152 24.776 35.3304 25.1758 34.2002 25.1758C33.6455 25.1758 33.1364 25.0742 32.6729 24.8711C32.2093 24.668 31.8382 24.375 31.5596 23.9922C31.2836 23.6068 31.1455 23.1432 31.1455 22.6016C31.1455 21.7786 31.4815 21.1276 32.1533 20.6484C32.8252 20.1693 33.6833 19.9297 34.7276 19.9297C35.3135 19.9297 35.9164 20.0091 36.5362 20.168L36.5362 20.1367C36.5362 19.3789 36.3864 18.8216 36.0869 18.4648C35.7901 18.1081 35.3421 17.9297 34.7432 17.9297C34.264 17.9297 33.8617 18.0339 33.5362 18.2422C33.2106 18.4479 32.9359 18.7487 32.7119 19.1445L31.4971 18.4414C31.7627 17.8529 32.1937 17.3828 32.7901 17.0312C33.389 16.6797 34.0726 16.5039 34.8408 16.5039ZM36.5362 21.4141C35.8955 21.2552 35.3356 21.1758 34.8565 21.1758C34.2158 21.1758 33.7197 21.2982 33.3682 21.543C33.0166 21.7878 32.8408 22.1289 32.8408 22.5664C32.8408 22.9622 32.9841 23.2747 33.2705 23.5039C33.5596 23.7331 33.9385 23.8477 34.4072 23.8477C34.9932 23.8477 35.4945 23.6797 35.9112 23.3438C36.3278 23.0078 36.5362 22.5417 36.5362 21.9453L36.5362 21.4141ZM46.1533 22.6016C46.1533 23.3802 45.8564 24.0039 45.2627 24.4727C44.6715 24.9414 43.9007 25.1758 42.9502 25.1758C42.109 25.1758 41.389 24.9948 40.79 24.6328C40.1937 24.2708 39.7939 23.7695 39.5908 23.1289L40.8252 22.4062C41.0049 22.8542 41.2757 23.194 41.6377 23.4258C42.0023 23.6549 42.4398 23.7695 42.9502 23.7695C43.4111 23.7695 43.777 23.6758 44.0478 23.4883C44.3187 23.3008 44.4541 23.0417 44.4541 22.7109C44.4541 22.4557 44.3721 22.2461 44.208 22.082C44.0439 21.9154 43.8356 21.7839 43.583 21.6875C43.333 21.5911 42.9893 21.4792 42.5518 21.3516C41.9762 21.1927 41.5153 21.0391 41.1689 20.8906C40.8226 20.7396 40.5231 20.5182 40.2705 20.2266C40.0205 19.9323 39.8955 19.5391 39.8955 19.0469C39.8955 18.5365 40.0361 18.0872 40.3174 17.6992C40.6012 17.3086 40.9801 17.0117 41.4541 16.8086C41.9307 16.6055 42.4567 16.5039 43.0322 16.5039C43.79 16.5039 44.4372 16.6693 44.9736 17C45.5127 17.3307 45.8734 17.7786 46.0557 18.3438L44.8252 19.0469C44.6637 18.6953 44.4254 18.4245 44.1103 18.2344C43.7978 18.0417 43.4228 17.9453 42.9853 17.9453C42.5687 17.9453 42.2314 18.0286 41.9736 18.1953C41.7184 18.3594 41.5908 18.5951 41.5908 18.9023C41.5908 19.1393 41.6676 19.3294 41.8213 19.4727C41.9775 19.6159 42.1728 19.7331 42.4072 19.8242C42.6416 19.9154 42.9723 20.0195 43.3994 20.1367C43.9749 20.2956 44.4463 20.4557 44.8135 20.6172C45.1833 20.776 45.4984 21.0156 45.7588 21.3359C46.0218 21.6562 46.1533 22.0781 46.1533 22.6016ZM52.6497 24.6641C52.1783 25.0052 51.5533 25.1758 50.7747 25.1758C49.9856 25.1758 49.3424 24.957 48.845 24.5195C48.3502 24.082 48.1028 23.3034 48.1028 22.1836L48.1028 18.1055L46.6965 18.1055L46.6965 16.6953L48.1028 16.6953L48.1028 14.2969L49.7356 14.2969L49.7356 16.6953L52.1848 16.6953L52.1848 18.1055L49.7356 18.1055L49.7356 21.9609C49.7356 23.112 50.1627 23.6875 51.0168 23.6875C51.3997 23.6875 51.7564 23.5859 52.0872 23.3828L52.6497 24.6641Z" fill="rgb(255,255,255)" fill-rule="nonzero" />
			<g id="容器 91333142" customFrame="url(#clipPath_19)">
				<rect id="容器 91333142" width="66.000000" height="22.000000" x="125.000000" y="9.000000" rx="7.000000" fill="rgb(255,255,255)" fill-opacity="0" />
				<rect id="容器 91333142" width="65.000000" height="21.000000" x="125.500000" y="9.500000" rx="6.500000" stroke="rgb(255,255,255)" stroke-opacity="0.100000001" stroke-width="1" />
				<path id="" d="M135.637 21.5391C135.59 21 135.326 20.543 134.907 20.209C134.582 19.957 134.187 19.7754 133.706 19.6201L133.671 19.6084L133.633 19.5967L133.574 19.585L133.513 19.5586L133.442 19.5352L133.369 19.5234L133.261 19.5L133.141 19.4648L132.915 19.4033L132.543 19.3066L132.531 19.3066L132.493 19.2949L132.47 19.2832C131.535 18.9844 131.113 18.6006 131.066 18.1553C131.005 17.5693 131.69 16.8955 132.613 16.8252C133.047 16.7871 133.563 16.8604 133.982 17.0273C134.198 17.1123 134.415 17.1973 134.606 17.2793L135.446 16.3799L135.458 16.3447L135.397 16.3066L135.315 16.2715L135.279 16.248L135.23 16.2246L135.159 16.2012C134.919 16.0928 134.667 15.9844 134.403 15.8877C133.826 15.6592 133.129 15.5654 132.517 15.6123C130.97 15.7441 129.733 16.957 129.877 18.2871C129.985 19.2949 130.765 20.0156 132.109 20.4492C132.145 20.4609 132.171 20.4727 132.206 20.4727L132.47 20.543L132.842 20.6396L133.009 20.6748L133.094 20.7012L133.155 20.7246L133.226 20.748L133.287 20.7598L133.322 20.7715L133.346 20.7715L133.393 20.7949L133.431 20.8066L133.478 20.8213C133.478 20.8213 133.489 20.8213 133.489 20.833L133.539 20.8447L133.574 20.8564C133.609 20.8682 133.633 20.8799 133.671 20.8916L133.706 20.9033C133.706 20.9033 133.718 20.915 133.718 20.915L133.753 20.9268L133.791 20.9414C133.815 20.9531 133.838 20.9648 133.861 20.9883L133.897 21C134.245 21.1787 134.427 21.3955 134.45 21.6475C134.474 21.9609 134.377 22.2246 134.175 22.415C133.911 22.6436 133.478 22.7871 132.877 22.7871C132.098 22.7871 131.017 22.5469 130.346 22.1631L129.745 23.2207L129.783 23.2324C130.659 23.7246 131.919 24 132.877 24C133.753 24 134.474 23.7715 134.978 23.3174C135.47 22.8604 135.71 22.2246 135.637 21.5391ZM142.263 22.8486L142.034 22.8486C142.022 22.8486 141.999 22.8604 141.961 22.8604C140.895 22.8838 140.499 22.7168 140.379 22.6436C140.235 22.5586 140.077 22.3682 140.03 22.1045C139.934 21.624 139.934 21.1553 139.934 21.1553L139.934 14.6514L137.461 14.6514L137.127 15.791L138.782 15.791L138.782 21.1436C138.782 21.2051 138.782 21.7441 138.902 22.3213C139.011 22.8721 139.345 23.3643 139.79 23.6279C140.221 23.8799 140.859 24 141.747 24C141.829 24 141.914 24 141.999 24L142.011 24C142.022 24 142.034 24 142.034 24L142.597 24L142.263 22.8486ZM149.342 18.5039C148.873 17.8066 148.094 17.4492 147.074 17.4492C146.066 17.4492 145.287 17.8066 144.807 18.5039C144.435 19.043 144.253 19.7637 144.253 20.7246C144.253 21.6475 144.458 22.4033 144.854 22.957C145.346 23.6396 146.113 24 147.074 24C148.047 24 148.815 23.6396 149.295 22.957C149.691 22.4033 149.893 21.6475 149.893 20.7246C149.893 19.7637 149.714 19.043 149.342 18.5039ZM148.261 22.3066C147.997 22.667 147.625 22.9072 147.074 22.9072C146.535 22.9072 146.151 22.667 145.885 22.3066C145.633 21.9492 145.501 21.4072 145.501 20.748L145.501 20.7246C145.501 20.6279 145.501 20.5195 145.501 20.4346L145.513 20.3525C145.513 20.291 145.513 20.2441 145.527 20.1973L145.539 20.1006C145.586 19.6934 145.694 19.3682 145.861 19.1396C146.102 18.7793 146.497 18.5391 147.074 18.5391C147.663 18.5391 148.047 18.7793 148.299 19.1396C148.466 19.3682 148.574 19.6934 148.621 20.1006L148.633 20.1973C148.633 20.2441 148.645 20.291 148.645 20.3408L148.645 20.4346C148.659 20.5195 148.659 20.6279 148.659 20.7246C148.659 21.3955 148.527 21.9492 148.261 22.3066ZM156.615 22.8486L155.991 22.8604C155.739 22.8604 155.379 22.7168 155.115 22.5117C154.766 22.248 154.538 21.8525 154.43 21.3604C154.43 21.3604 154.43 21.3486 154.418 21.2988C154.406 21.167 154.394 21.0352 154.394 20.8916L154.394 18.5889L156.926 18.5889L156.926 17.4492L154.406 17.4492L154.406 15.6006L153.255 15.6006L153.255 17.4492L151.646 17.4492L151.309 18.5889L153.243 18.5889L153.243 20.8916C153.243 21.085 153.255 21.2871 153.29 21.4805C153.29 21.5391 153.302 21.5771 153.313 21.6123C153.518 22.5586 154.022 23.1123 154.406 23.4229C154.875 23.7832 155.473 24 156.003 24L156.961 24L156.615 22.8486ZM158.763 16.7988L160.922 16.7988L160.922 22.7871L158.894 22.7871L158.894 24L164.139 24L164.139 22.7988L162.135 22.7871L162.135 16.7988L164.294 16.7988L164.294 15.6006L159.085 15.6006L158.763 16.7988ZM169.825 17.2207C170.402 17.7129 170.654 18.3369 170.654 19.2012C170.654 19.2012 170.654 20.0156 170.534 20.543C170.449 20.9414 170.329 21.1787 170.138 21.4805C169.766 22.0547 169.093 22.5 168.53 22.6436C167.991 22.7754 167.786 22.7988 167.546 22.8105C167.27 22.8252 167.174 22.8252 167.174 22.8252L167.174 16.7168L168.457 16.7168C169.022 16.7168 169.429 16.8721 169.825 17.2207ZM165.961 24L167.379 24C167.569 24 168.255 23.9766 168.829 23.7949C169.717 23.5312 170.666 22.9307 171.181 22.1396C171.662 21.4072 171.867 20.6279 171.902 19.5586L171.902 19.4883L171.902 19.415L171.902 19.3447L171.902 19.2715C171.902 19.248 171.902 19.2246 171.902 19.2012C171.902 17.9883 171.507 17.0771 170.666 16.333C170.065 15.8174 169.309 15.5771 168.422 15.6006L168.398 15.6006L167.174 15.6006L165.961 15.6006L165.961 24ZM178.166 20.5078L178.166 19.3682L173.883 19.3682L173.883 20.5078L178.166 20.5078Z" fill="rgb(255,255,255)" fill-opacity="0.5" fill-rule="nonzero" />
				<path id="" d="M185.929 23.8066L185.607 22.6436L185.581 22.5234L184.01 22.5234L184.01 15.6123L182.631 15.6123L182.595 15.6475L180.829 17.0156L180.697 17.124L180.805 17.2441L181.514 18.1553L181.611 18.2871L181.743 18.1787L182.522 17.5693L182.522 22.5234L180.565 22.5234L180.565 24L185.991 24L185.929 23.8066Z" fill="rgb(255,255,255)" fill-opacity="0.5" fill-rule="nonzero" />
				<path id="" d="M185.929 23.8066L185.607 22.6436L185.581 22.5234L184.01 22.5234L184.01 15.6123L182.631 15.6123L182.595 15.6475L180.829 17.0156L180.697 17.124L180.805 17.2441L181.514 18.1553L181.611 18.2871L181.743 18.1787L182.522 17.5693L182.522 22.5234L180.565 22.5234L180.565 24L185.991 24L185.929 23.8066Z" fill="rgb(223,223,223)" fill-rule="nonzero" />
			</g>
		</g>
	</g>
</svg>
