<svg viewBox="0 0 212 190" xmlns="http://www.w3.org/2000/svg" xmlns:xlink="http://www.w3.org/1999/xlink" width="212.000000" height="190.000000" fill="none" customFrame="#000000">
	<mask id="mask_5" width="209.999985" height="48.717091" x="1.000000" y="141.393921" maskUnits="userSpaceOnUse">
		<g filter="url(#pixso_custom_mask_type_alpha)">
			<path id="矢量 2420" d="M53.5 190.111C25.2458 190.111 8.39587 184.638 2.95024 182.528C1.74525 182.061 1 180.89 1 179.598L1.00019 141.394L211 141.395L211 179.043C211 180.28 209.689 181.134 208.531 180.699C202.587 178.465 185.91 173.315 158.5 173.315C123.5 173.316 88.5 190.111 53.5 190.111Z" fill="rgb(51,51,51)" fill-rule="evenodd" />
		</g>
	</mask>
	<mask id="mask_4" width="209.999985" height="188.000015" x="1.000000" y="1.000000" maskUnits="userSpaceOnUse">
		<g filter="url(#pixso_custom_mask_type_alpha)">
			<path id="合并" d="M204.28 1L7.72 1C4.00865 1 1 4.00865 1 7.72L1 178.391C1 179.677 1.73843 180.844 2.93567 181.314C8.36576 183.447 25.2206 189 53.5 189C88.5 189 123.5 171.991 158.5 171.99C185.896 171.99 202.569 177.2 208.522 179.464C209.681 179.905 211 179.051 211 177.81L211 171.138L211 151.573L211 7.72C211 4.00865 207.991 1 204.28 1Z" fill="rgb(51,51,51)" fill-rule="evenodd" />
			<path id="合并" d="M7.72 1L204.28 1C207.991 1 211 4.00865 211 7.72L211 151.573L211 171.138L211 177.81C211 179.051 209.681 179.905 208.522 179.464C202.569 177.2 185.896 171.99 158.5 171.99C123.5 171.991 88.5 189 53.5 189C25.2206 189 8.36576 183.447 2.93567 181.314C1.73843 180.844 1 179.677 1 178.391L1 7.72C1 4.00865 4.00865 1 7.72 1ZM204.28 1.84L7.72 1.84Q7.0482 1.84 6.40955 1.98548L6.40952 1.98548Q5.91039 2.09918 5.4315 2.30173Q4.94115 2.50914 4.50282 2.79602L4.50281 2.79602Q3.99801 3.12641 3.56221 3.56221Q3.1264 3.99803 2.796 4.50284L2.796 4.50284L2.796 4.50285Q2.50913 4.94117 2.30173 5.4315Q2.09921 5.91033 1.98551 6.4094L1.98548 6.40952L1.98548 6.40954Q1.84 7.0482 1.84 7.72L1.84 178.391Q1.84 178.833 1.98255 179.223L1.98259 179.223L1.98265 179.224L1.9827 179.224Q2.07345 179.472 2.22193 179.699Q2.423 180.007 2.69666 180.222L2.69687 180.222Q2.94094 180.414 3.24273 180.532Q5.95887 181.599 9.38772 182.609Q14.2427 184.039 19.8112 185.133Q26.8059 186.506 34.5146 187.263Q43.6507 188.16 53.5 188.16Q59.705 188.16 66.5365 187.434Q72.63 186.786 79.6 185.516Q85.4146 184.456 92.6892 182.799Q95.5972 182.137 99.243 181.265Q101.415 180.745 105.803 179.679Q110.189 178.613 112.368 178.092Q116.023 177.218 118.939 176.553Q126.25 174.888 132.1 173.822Q139.131 172.541 145.286 171.886Q152.206 171.15 158.5 171.15Q168.144 171.15 177.116 172.003Q184.749 172.729 191.709 174.053Q197.329 175.122 202.278 176.533Q205.885 177.562 208.82 178.679Q208.922 178.718 209.027 178.733L209.027 178.733L209.028 178.733Q209.156 178.751 209.289 178.734Q209.386 178.721 209.477 178.691L209.478 178.691Q209.611 178.647 209.732 178.567Q209.888 178.464 209.991 178.323L209.991 178.322Q210.021 178.281 210.047 178.237Q210.102 178.141 210.13 178.037L210.13 178.037L210.13 178.036Q210.16 177.927 210.16 177.81L210.16 171.138L210.16 151.573L210.16 7.71986Q210.16 7.04993 210.015 6.41287L210.015 6.41025L210.014 6.40859Q209.901 5.90993 209.698 5.4315Q209.491 4.94109 209.204 4.50272L209.204 4.50256L209.204 4.50237L209.203 4.50205Q208.873 3.99768 208.438 3.56221Q208.002 3.1267 207.498 2.79647L207.498 2.7963L207.497 2.79623L207.497 2.79619Q207.059 2.5092 206.568 2.30173Q206.09 2.09918 205.59 1.98548Q204.952 1.84 204.28 1.84Z" fill="rgb(255,255,255)" fill-opacity="0" fill-rule="evenodd" />
		</g>
	</mask>
	<defs>
		<linearGradient id="paint_linear_1" x1="105.999992" x2="105.999992" y1="1" y2="189.000015" gradientUnits="userSpaceOnUse">
			<stop stop-color="rgb(107,149,31)" offset="0" stop-opacity="0" />
			<stop stop-color="rgb(107,149,31)" offset="1" stop-opacity="0.5" />
		</linearGradient>
		<filter id="pixso_custom_mask_type_alpha">
			<feColorMatrix type="matrix" values="0 0 0 0 1 0 0 0 0 1 0 0 0 0 1 0 0 0 1 0 " />
		</filter>
		<g id="pixso_custom_effect_6">
			<effect visibility="visible" effectType="gaussianBlur" stdDeviation="12.8566666" />
		</g>
		<filter id="filter_6" width="238.291962" height="45.080200" x="-13.146027" y="149.090637" filterUnits="userSpaceOnUse" customEffect="url(#pixso_custom_effect_6)" color-interpolation-filters="sRGB">
			<feFlood flood-opacity="0" result="BackgroundImageFix" />
			<feBlend result="shape" in="SourceGraphic" in2="BackgroundImageFix" mode="normal" />
			<feGaussianBlur stdDeviation="4.28555536" result="effect_layerBlur_1" />
		</filter>
		<g id="pixso_custom_effect_7">
			<effect visibility="visible" effectType="gaussianBlur" stdDeviation="19.2850018" />
		</g>
		<filter id="filter_7" width="253.727325" height="60.508118" x="-20.863739" y="141.376648" filterUnits="userSpaceOnUse" customEffect="url(#pixso_custom_effect_7)" color-interpolation-filters="sRGB">
			<feFlood flood-opacity="0" result="BackgroundImageFix" />
			<feBlend result="shape" in="SourceGraphic" in2="BackgroundImageFix" mode="normal" />
			<feGaussianBlur stdDeviation="6.42833376" result="effect_layerBlur_1" />
		</filter>
		<g id="pixso_custom_effect_8">
			<effect visibility="visible" effectType="gaussianBlur" stdDeviation="5.14266729" />
		</g>
		<filter id="filter_8" width="221.574585" height="28.366455" x="-4.787354" y="157.447510" filterUnits="userSpaceOnUse" customEffect="url(#pixso_custom_effect_8)" color-interpolation-filters="sRGB">
			<feFlood flood-opacity="0" result="BackgroundImageFix" />
			<feBlend result="shape" in="SourceGraphic" in2="BackgroundImageFix" mode="normal" />
			<feGaussianBlur stdDeviation="1.71422243" result="effect_layerBlur_1" />
		</filter>
	</defs>
	<rect id="node" width="210.000000" height="189.000000" x="1.000000" y="1.000000" />
	<path id="合并" d="M204.28 1L7.72 1C4.00865 1 1 4.00865 1 7.72L1 178.391C1 179.677 1.73843 180.844 2.93567 181.314C8.36576 183.447 25.2206 189 53.5 189C88.5 189 123.5 171.991 158.5 171.99C185.896 171.99 202.569 177.2 208.522 179.464C209.681 179.905 211 179.051 211 177.81L211 171.138L211 151.573L211 7.72C211 4.00865 207.991 1 204.28 1Z" fill="rgb(59,59,59)" fill-rule="evenodd" />
	<path id="合并" d="M7.72 1L204.28 1C207.991 1 211 4.00865 211 7.72L211 151.573L211 171.138L211 177.81C211 179.051 209.681 179.905 208.522 179.464C202.569 177.2 185.896 171.99 158.5 171.99C123.5 171.991 88.5 189 53.5 189C25.2206 189 8.36576 183.447 2.93567 181.314C1.73843 180.844 1 179.677 1 178.391L1 7.72C1 4.00865 4.00865 1 7.72 1ZM204.28 2L7.72 2Q7.06443 2 6.44138 2.14236L6.44137 2.14236L6.44135 2.14236Q5.95779 2.25285 5.49382 2.4491Q5.01785 2.65042 4.59224 2.92875L4.59223 2.92875L4.59213 2.92882Q4.10008 3.25062 3.67535 3.67535Q3.25057 4.10013 2.92875 4.59224Q2.65042 5.01785 2.4491 5.49382Q2.25285 5.95779 2.14236 6.44135Q2 7.06441 2 7.72L2 178.391Q2 178.809 2.13626 179.177L2.13641 179.178L2.13647 179.178Q2.22037 179.404 2.35584 179.611Q2.54297 179.898 2.79779 180.098Q3.02306 180.274 3.30122 180.383Q6.0106 181.448 9.43292 182.456Q14.2812 183.884 19.842 184.976Q26.8294 186.348 34.5303 187.104Q43.6578 188 53.5 188Q59.6971 188 66.5196 187.275Q72.6078 186.628 79.5713 185.358Q85.3824 184.299 92.6537 182.643Q95.5652 181.98 99.2058 181.109Q101.388 180.587 105.765 179.523Q110.142 178.46 112.331 177.936Q115.983 177.063 118.904 176.397Q126.218 174.731 132.071 173.665Q139.108 172.382 145.27 171.727Q152.197 170.99 158.5 170.99Q168.15 170.99 177.131 171.844Q184.771 172.57 191.739 173.896Q197.366 174.966 202.322 176.38Q205.935 177.411 208.877 178.53Q208.96 178.561 209.046 178.574L209.046 178.574L209.048 178.574Q209.156 178.59 209.268 178.575Q209.344 178.565 209.415 178.543L209.422 178.541Q209.538 178.504 209.644 178.434Q209.783 178.342 209.871 178.215L209.872 178.214L209.875 178.21L209.875 178.209Q209.893 178.184 209.908 178.157Q209.952 178.079 209.975 177.996L209.975 177.995L209.975 177.995Q210 177.906 210 177.81L210 171.138L210 151.573L210 7.72Q210 7.06449 209.858 6.4415L209.858 6.44115L209.856 6.43485Q209.746 5.95462 209.551 5.49383Q209.35 5.01834 209.072 4.59311L209.071 4.5925L209.071 4.59214Q208.749 4.10008 208.325 3.67535Q207.9 3.2506 207.408 2.92879Q206.982 2.65043 206.506 2.4491Q206.042 2.25282 205.558 2.14233L205.558 2.14221Q204.935 2 204.28 2Z" fill="url(#paint_linear_1)" fill-rule="evenodd" />
	<g id="蒙版" mask="url(#mask_4)">
		<g id="彩色描边" mask="url(#mask_5)">
			<g id="组合 91331449">
				<path id="矢量 2419" d="M1 176.669C1 176.669 18.5001 185.068 53.5001 185.068C88.5 185.068 123.5 168.274 158.5 168.273C193.501 168.272 211 176.67 211 176.67" opacity="0.639999986" stroke="rgb(135,200,15)" stroke-linecap="round" stroke-linejoin="round" stroke-width="10.0799999" />
				<g filter="url(#filter_6)">
					<path id="矢量 2418" d="M1 171.629C1 171.629 18.5001 180.028 53.5001 180.028C88.5 180.028 123.5 163.234 158.5 163.233C193.501 163.232 211 171.63 211 171.63" stroke="rgb(135,200,15)" stroke-linecap="round" stroke-linejoin="round" stroke-width="2.57133365" />
				</g>
				<g filter="url(#filter_7)">
					<path id="矢量 2421" d="M1 171.629C1 171.629 18.5001 180.028 53.5001 180.028C88.5 180.028 123.5 163.234 158.5 163.233C193.501 163.232 211 171.63 211 171.63" opacity="0.469999999" stroke="rgb(135,200,15)" stroke-linecap="round" stroke-linejoin="round" stroke-width="5.14266729" />
				</g>
				<g filter="url(#filter_8)">
					<path id="矢量 2420" d="M1 171.629C1 171.629 18.5001 180.028 53.5001 180.028C88.5 180.028 123.5 163.234 158.5 163.233C193.501 163.232 211 171.63 211 171.63" opacity="0.400000006" stroke="rgb(135,200,15)" stroke-linecap="round" stroke-linejoin="round" stroke-width="1.28566682" />
				</g>
			</g>
		</g>
	</g>
</svg>
