<svg viewBox="0 0 212 190" xmlns="http://www.w3.org/2000/svg" xmlns:xlink="http://www.w3.org/1999/xlink" width="212.000000" height="190.000000" fill="none" customFrame="#000000">
	<mask id="mask_1" width="210.000000" height="188.000000" x="1.000000" y="1.000000" maskUnits="userSpaceOnUse">
		<g filter="url(#pixso_custom_mask_type_alpha)">
			<path id="合并" d="M204.28 1L7.72 1C4.00865 1 1 4.00865 1 7.72L1 177.549C1.00033 178.783 1.68159 179.914 2.81179 180.41C8.10586 182.737 25.002 189 53.5 189C88.5 189 123.5 170.111 158.5 170.11C185.776 170.109 202.423 175.845 208.443 178.377C209.615 178.87 211 178.01 211 176.738L211 169.163L211 168.22L211 7.72C211 4.00865 207.991 1 204.28 1Z" fill="rgb(51,51,51)" fill-rule="evenodd" />
			<path id="合并" d="M7.72 1L204.28 1C207.991 1 211 4.00865 211 7.72L211 168.22L211 169.163L211 176.738C211 178.01 209.615 178.87 208.443 178.377C202.423 175.845 185.776 170.109 158.5 170.11C123.5 170.111 88.5 189 53.5 189C25.002 189 8.10586 182.737 2.81179 180.41C1.68159 179.914 1.00033 178.783 1 177.549L1 7.72C1 4.00865 4.00865 1 7.72 1ZM204.28 1.84L7.72 1.84Q7.04821 1.84 6.40955 1.98548L6.40952 1.98548Q5.91039 2.09918 5.4315 2.30174Q4.94116 2.50913 4.50284 2.79601L4.50282 2.79602L4.50282 2.79602L4.50281 2.79602Q3.99802 3.12641 3.56221 3.56221Q3.12641 3.99801 2.79603 4.50281L2.79602 4.50281Q2.50914 4.94114 2.30174 5.4315Q2.09918 5.9104 1.98548 6.40954Q1.84 7.0482 1.84 7.72L1.84 177.549Q1.84012 177.982 1.97802 178.366L1.97805 178.366L1.97819 178.366Q2.06138 178.598 2.19465 178.811Q2.38533 179.117 2.64852 179.334L2.64857 179.334L2.64865 179.334Q2.8729 179.52 3.14978 179.641Q5.82319 180.816 9.22071 181.936Q14.0656 183.533 19.6347 184.757Q26.6518 186.299 34.3936 187.15Q43.5842 188.16 53.5 188.16Q59.7002 188.16 66.5268 187.354Q72.6168 186.635 79.584 185.225Q85.3976 184.049 92.6698 182.209Q95.5824 181.472 99.2228 180.505Q101.396 179.927 105.782 178.744Q110.168 177.561 112.348 176.981Q116 176.011 118.92 175.273Q126.229 173.423 132.084 172.238Q139.117 170.815 145.277 170.088Q152.201 169.27 158.5 169.27Q168.109 169.27 177.052 170.21Q184.667 171.01 191.615 172.472Q197.235 173.653 202.188 175.216Q205.811 176.359 208.768 177.603Q208.868 177.645 208.972 177.663L208.973 177.663Q209.107 177.687 209.249 177.672Q209.346 177.662 209.439 177.635Q209.581 177.593 209.711 177.51Q209.877 177.405 209.986 177.258L209.987 177.256L209.988 177.255L209.989 177.254Q210.017 177.216 210.041 177.174Q210.098 177.077 210.128 176.972L210.13 176.966Q210.16 176.856 210.16 176.738L210.16 169.163L210.16 168.22L210.16 7.72Q210.16 7.04854 210.015 6.41016L210.014 6.40552Q209.9 5.90844 209.698 5.4315Q209.491 4.94108 209.204 4.50271L209.204 4.50239Q208.873 3.99783 208.438 3.56221Q208.002 3.1266 207.498 2.79631Q207.059 2.50924 206.568 2.30174Q206.09 2.09918 205.59 1.98548Q204.952 1.84 204.28 1.84Z" fill="rgb(255,255,255)" fill-opacity="0.100000001" fill-rule="evenodd" />
		</g>
	</mask>
	<mask id="mask_0" width="209.999985" height="48.717091" x="1.000000" y="140.000000" maskUnits="userSpaceOnUse">
		<g filter="url(#pixso_custom_mask_type_alpha)">
			<path id="矢量 2420" d="M53.5 188.717C25.2458 188.717 8.39587 183.244 2.95024 181.134C1.74525 180.667 1 179.496 1 178.204L1.00019 140L211 140.001L211 177.649C211 178.886 209.689 179.74 208.531 179.305C202.587 177.071 185.91 171.921 158.5 171.922C123.5 171.922 88.5 188.717 53.5 188.717Z" fill="rgb(51,51,51)" fill-rule="evenodd" />
		</g>
	</mask>
	<defs>
		<linearGradient id="paint_linear_0" x1="106" x2="106" y1="1" y2="189" gradientUnits="userSpaceOnUse">
			<stop stop-color="rgb(170,12,139)" offset="0" stop-opacity="0" />
			<stop stop-color="rgb(170,12,139)" offset="1" stop-opacity="1" />
		</linearGradient>
		<filter id="pixso_custom_mask_type_alpha">
			<feColorMatrix type="matrix" values="0 0 0 0 1 0 0 0 0 1 0 0 0 0 1 0 0 0 1 0 " />
		</filter>
		<g id="pixso_custom_effect_0">
			<effect visibility="visible" effectType="gaussianBlur" stdDeviation="12.8566666" />
		</g>
		<filter id="filter_0" width="238.291992" height="45.080200" x="-13.146057" y="147.696716" filterUnits="userSpaceOnUse" customEffect="url(#pixso_custom_effect_0)" color-interpolation-filters="sRGB">
			<feFlood flood-opacity="0" result="BackgroundImageFix" />
			<feBlend result="shape" in="SourceGraphic" in2="BackgroundImageFix" mode="normal" />
			<feGaussianBlur stdDeviation="4.28555536" result="effect_layerBlur_1" />
		</filter>
		<g id="pixso_custom_effect_1">
			<effect visibility="visible" effectType="gaussianBlur" stdDeviation="19.2850018" />
		</g>
		<filter id="filter_1" width="253.727295" height="60.508118" x="-20.863708" y="139.982727" filterUnits="userSpaceOnUse" customEffect="url(#pixso_custom_effect_1)" color-interpolation-filters="sRGB">
			<feFlood flood-opacity="0" result="BackgroundImageFix" />
			<feBlend result="shape" in="SourceGraphic" in2="BackgroundImageFix" mode="normal" />
			<feGaussianBlur stdDeviation="6.42833376" result="effect_layerBlur_1" />
		</filter>
		<g id="pixso_custom_effect_2">
			<effect visibility="visible" effectType="gaussianBlur" stdDeviation="5.14266729" />
		</g>
		<filter id="filter_2" width="221.574524" height="28.366455" x="-4.787292" y="156.053589" filterUnits="userSpaceOnUse" customEffect="url(#pixso_custom_effect_2)" color-interpolation-filters="sRGB">
			<feFlood flood-opacity="0" result="BackgroundImageFix" />
			<feBlend result="shape" in="SourceGraphic" in2="BackgroundImageFix" mode="normal" />
			<feGaussianBlur stdDeviation="1.71422243" result="effect_layerBlur_1" />
		</filter>
	</defs>
	<rect id="node" width="210.000000" height="188.000000" x="1.000000" y="1.000000" />
	<path id="合并" d="M204.28 1L7.72 1C4.00865 1 1 4.00865 1 7.72L1 177.549C1.00033 178.783 1.68159 179.914 2.81179 180.41C8.10586 182.737 25.002 189 53.5 189C88.5 189 123.5 170.111 158.5 170.11C185.776 170.109 202.423 175.845 208.443 178.377C209.615 178.87 211 178.01 211 176.738L211 169.163L211 168.22L211 7.72C211 4.00865 207.991 1 204.28 1Z" fill="rgb(59,59,59)" fill-rule="evenodd" />
	<path id="合并" d="M7.72 1L204.28 1C207.991 1 211 4.00865 211 7.72L211 168.22L211 169.163L211 176.738C211 178.01 209.615 178.87 208.443 178.377C202.423 175.845 185.776 170.109 158.5 170.11C123.5 170.111 88.5 189 53.5 189C25.002 189 8.10586 182.737 2.81179 180.41C1.68159 179.914 1.00033 178.783 1 177.549L1 7.72C1 4.00865 4.00865 1 7.72 1ZM204.28 2L7.72 2Q7.06442 2 6.44136 2.14236L6.44134 2.14237L6.44132 2.14237Q5.95778 2.25286 5.49383 2.4491Q5.01784 2.65042 4.59222 2.92876L4.59222 2.92876L4.59221 2.92877Q4.10012 3.25058 3.67535 3.67535Q3.25058 4.10012 2.92876 4.59223L2.92875 4.59225Q2.65041 5.01785 2.4491 5.49383Q2.25285 5.9578 2.14236 6.44136L2.14236 6.44137Q2 7.06442 2 7.72L2 177.549Q2.00011 177.959 2.13222 178.322L2.13225 178.322Q2.20903 178.532 2.33036 178.726Q2.50794 179.011 2.75325 179.213L2.75341 179.213Q2.95982 179.383 3.21416 179.495Q5.88074 180.667 9.2708 181.784Q14.1074 183.379 19.6691 184.601Q26.6778 186.141 34.4111 186.991Q43.5933 188 53.5 188Q59.6914 188 66.5081 187.195Q72.5922 186.477 79.5522 185.068Q85.3608 183.893 92.6306 182.054Q95.539 181.318 99.1817 180.35Q101.356 179.773 105.741 178.589Q110.121 177.408 112.307 176.827Q115.959 175.857 118.881 175.118Q126.194 173.267 132.052 172.082Q139.092 170.657 145.258 169.929Q152.191 169.11 158.5 169.11Q168.116 169.109 177.069 170.051Q184.69 170.852 191.648 172.315Q197.275 173.498 202.236 175.063Q205.866 176.208 208.83 177.455Q208.911 177.489 208.994 177.505L208.995 177.505L208.995 177.505Q209.11 177.526 209.232 177.513Q209.311 177.505 209.386 177.483L209.386 177.483Q209.511 177.447 209.626 177.375Q209.776 177.279 209.87 177.145L209.873 177.141Q209.889 177.118 209.903 177.093Q209.951 177.013 209.975 176.926L209.975 176.924Q210 176.835 210 176.738L210 169.163L210 168.22L210 7.72Q210 7.06429 209.858 6.44112Q209.747 5.95768 209.551 5.49383Q209.35 5.01769 209.071 4.59195Q208.749 4.1 208.325 3.67535Q207.9 3.25072 207.408 2.92898Q206.982 2.6505 206.506 2.4491Q206.042 2.25294 205.559 2.14246L205.558 2.14232Q204.935 2 204.28 2Z" fill="url(#paint_linear_0)" fill-opacity="0.5" fill-rule="evenodd" />
	<g id="蒙版">
		<g id="彩色描边" mask="url(#mask_0)">
			<g id="组合 91331449">
				<path id="矢量 2419" d="M1 175.276C1 175.276 18.5001 183.675 53.5001 183.675C88.5 183.675 123.5 166.88 158.5 166.879C193.501 166.878 211 175.276 211 175.276" opacity="0.639999986" stroke="rgb(201,16,125)" stroke-linecap="round" stroke-linejoin="round" stroke-width="10.0799999" />
				<g filter="url(#filter_0)">
					<path id="矢量 2418" d="M1 170.235C1 170.235 18.5001 178.635 53.5001 178.635C88.5 178.635 123.5 161.84 158.5 161.839C193.501 161.838 211 170.236 211 170.236" stroke="rgb(201,16,125)" stroke-linecap="round" stroke-linejoin="round" stroke-width="2.57133365" />
				</g>
				<g filter="url(#filter_1)">
					<path id="矢量 2421" d="M1 170.235C1 170.235 18.5001 178.635 53.5001 178.635C88.5 178.635 123.5 161.84 158.5 161.839C193.501 161.838 211 170.236 211 170.236" opacity="0.469999999" stroke="rgb(201,16,125)" stroke-linecap="round" stroke-linejoin="round" stroke-width="5.14266729" />
				</g>
				<g filter="url(#filter_2)">
					<path id="矢量 2420" d="M1 170.235C1 170.235 18.5001 178.635 53.5001 178.635C88.5 178.635 123.5 161.84 158.5 161.839C193.501 161.838 211 170.236 211 170.236" opacity="0.400000006" stroke="rgb(201,16,125)" stroke-linecap="round" stroke-linejoin="round" stroke-width="1.28566682" />
				</g>
			</g>
		</g>
		<g mask="url(#mask_1)" />
	</g>
</svg>
