<svg viewBox="0 0 16.5 16.5" xmlns="http://www.w3.org/2000/svg" xmlns:xlink="http://www.w3.org/1999/xlink" width="16.500000" height="16.500000" fill="none" customFrame="#000000">
	<g id="fx">
		<rect id="矩形 5243" width="16.500000" height="16.500002" x="0.000000" y="0.000000" opacity="0" fill="rgb(196,196,196)" />
		<rect id="矩形 5243" width="15.000000" height="15.000002" x="0.750000" y="0.750000" opacity="0" stroke="rgb(255,255,255)" stroke-width="1.5" />
		<path id="矩形 77429" d="M1 10L1 0L0 0.952381" stroke="rgb(255,255,255)" stroke-linecap="round" stroke-linejoin="round" stroke-width="1.5" transform="matrix(0,1,-1,0,13.25,14.25)" />
		<path id="矩形 77430" d="M2.375 13.375C3.89378 13.375 5.125 12.1438 5.125 10.625L5.125 2.93824C5.125 2.62717 5.37717 2.375 5.68824 2.375L7.875 2.375" stroke="rgb(255,255,255)" stroke-linecap="round" stroke-linejoin="round" stroke-width="1.5" />
		<path id="矩形 77431" d="M2.71875 6.49976L7.53125 6.49976" stroke="rgb(255,255,255)" stroke-linecap="round" stroke-linejoin="round" stroke-width="1.5" />
		<path id="矩形 77435" d="M0 0L5.5 0" stroke="rgb(255,255,255)" stroke-linecap="round" stroke-linejoin="round" stroke-width="1.5" transform="matrix(-0.707107,-0.707107,-0.709801,0.704403,13.1464,10.5969)" />
		<path id="矩形 77436" d="M0 0L5.5 0" stroke="rgb(255,255,255)" stroke-linecap="round" stroke-linejoin="round" stroke-width="1.5" transform="matrix(0.707107,-0.707107,0.709801,0.704403,9.25574,10.5972)" />
	</g>
</svg>
