<svg viewBox="0 0 226 138" xmlns="http://www.w3.org/2000/svg" xmlns:xlink="http://www.w3.org/1999/xlink" width="226.000000" height="138.000000" fill="none" customFrame="url(#clipPath_8)">
	<defs>
		<clipPath id="clipPath_8">
			<rect width="210.000000" height="138.000000" x="8.000000" y="0.000000" rx="14.000000" fill="rgb(255,255,255)" />
		</clipPath>
		<clipPath id="clipPath_9">
			<rect width="138.000000" height="22.000000" x="16.000000" y="8.000000" fill="rgb(255,255,255)" />
		</clipPath>
		<clipPath id="clipPath_10">
			<rect width="49.000000" height="22.000000" x="16.000000" y="8.000000" rx="7.000000" fill="rgb(255,255,255)" />
		</clipPath>
		<clipPath id="clipPath_11">
			<rect width="85.000000" height="22.000000" x="69.000000" y="8.000000" rx="7.000000" fill="rgb(255,255,255)" />
		</clipPath>
		<g id="pixso_custom_effect_3">
			<effect x="0.000000" y="4.000000" visibility="visible" fill="rgb(0,0,0)" fill-opacity="0.400000006" effectType="dropShadow" stdDeviation="16" radius="0" />
			<effect x="0.000000" y="0.000000" visibility="visible" fill="rgb(255,255,255)" fill-opacity="0.25" effectType="innerShadow" stdDeviation="4" radius="0" />
			<effect x="0.000000" y="1.000000" visibility="visible" fill="rgb(255,255,255)" fill-opacity="0.25" effectType="innerShadow" stdDeviation="16" radius="0" />
		</g>
		<filter id="filter_3" width="226.000000" height="76.000000" x="0.000000" y="26.000000" filterUnits="userSpaceOnUse" customEffect="url(#pixso_custom_effect_3)" color-interpolation-filters="sRGB">
			<feFlood flood-opacity="0" result="BackgroundImageFix" />
			<feColorMatrix result="hardAlpha" in="SourceAlpha" type="matrix" values="0 0 0 0 0 0 0 0 0 0 0 0 0 0 0 0 0 0 127 0 " />
			<feOffset dx="0.000000" dy="4.000000" in="hardAlpha" />
			<feGaussianBlur stdDeviation="5.33333349" />
			<feComposite k2="-1" k3="1" in2="hardAlpha" operator="out" />
			<feColorMatrix type="matrix" values="0 0 0 0 0 0 0 0 0 0 0 0 0 0 0 0 0 0 0.4 0 " />
			<feBlend result="effect_dropShadow_1" in2="BackgroundImageFix" mode="normal" />
			<feBlend result="shape" in="SourceGraphic" in2="effect_dropShadow_1" mode="normal" />
			<feColorMatrix result="hardAlpha" in="SourceAlpha" type="matrix" values="0 0 0 0 0 0 0 0 0 0 0 0 0 0 0 0 0 0 127 0 " />
			<feOffset dx="0.000000" dy="0.000000" in="hardAlpha" />
			<feGaussianBlur stdDeviation="1.33333337" />
			<feComposite k2="-1" k3="1" in2="hardAlpha" operator="arithmetic" />
			<feColorMatrix type="matrix" values="0 0 0 0 1 0 0 0 0 1 0 0 0 0 1 0 0 0 0.25 0 " />
			<feBlend result="effect_innerShadow_2" in2="shape" mode="normal" />
			<feColorMatrix result="hardAlpha" in="SourceAlpha" type="matrix" values="0 0 0 0 0 0 0 0 0 0 0 0 0 0 0 0 0 0 127 0 " />
			<feOffset dx="0.000000" dy="1.000000" in="hardAlpha" />
			<feGaussianBlur stdDeviation="5.33333349" />
			<feComposite k2="-1" k3="1" in2="hardAlpha" operator="arithmetic" />
			<feColorMatrix type="matrix" values="0 0 0 0 1 0 0 0 0 1 0 0 0 0 1 0 0 0 0.25 0 " />
			<feBlend result="effect_innerShadow_3" in2="effect_innerShadow_2" mode="normal" />
		</filter>
		<linearGradient id="paint_linear_3" x1="113" x2="113" y1="38" y2="82" gradientUnits="userSpaceOnUse">
			<stop stop-color="rgb(0,0,0)" offset="0" stop-opacity="0" />
			<stop stop-color="rgb(0,0,0)" offset="1" stop-opacity="1" />
		</linearGradient>
		<linearGradient id="paint_linear_4" x1="112.616592" x2="113.268623" y1="16.9999981" y2="81.9972992" gradientUnits="userSpaceOnUse">
			<stop stop-color="rgb(255,255,255)" offset="0" stop-opacity="1" />
			<stop stop-color="rgb(255,255,255)" offset="1" stop-opacity="0" />
		</linearGradient>
		<clipPath id="clipPath_12">
			<rect width="194.000000" height="44.000000" x="16.000000" y="38.000000" rx="22.000000" fill="rgb(255,255,255)" />
		</clipPath>
		<clipPath id="clipPath_13">
			<rect width="22.000000" height="22.000000" x="28.000000" y="49.000000" rx="11.000000" fill="rgb(255,255,255)" />
		</clipPath>
		<clipPath id="clipPath_14">
			<rect width="190.000000" height="40.000000" x="16.000000" y="90.000000" fill="rgb(255,255,255)" />
		</clipPath>
		<clipPath id="clipPath_15">
			<rect width="45.000000" height="38.000000" x="16.000000" y="90.000000" fill="rgb(255,255,255)" />
		</clipPath>
		<clipPath id="clipPath_16">
			<rect width="137.000000" height="40.000000" x="69.000000" y="90.000000" fill="rgb(255,255,255)" />
		</clipPath>
	</defs>
	<rect id="属性 1=op, 属性 2=L1" width="210.000000" height="138.000000" x="8.000000" y="0.000000" rx="14.000000" fill="rgb(59,59,59)" />
	<g id="容器 91333148" customFrame="url(#clipPath_9)">
		<rect id="容器 91333148" width="138.000000" height="22.000000" x="16.000000" y="8.000000" />
		<g id="容器 91333143" customFrame="url(#clipPath_10)">
			<rect id="容器 91333143" width="49.000000" height="22.000000" x="16.000000" y="8.000000" rx="7.000000" fill="rgb(255,255,255)" fill-opacity="0" />
			<rect id="容器 91333143" width="48.000000" height="21.000000" x="16.500000" y="8.500000" rx="6.500000" stroke="rgb(255,255,255)" stroke-opacity="0.100000001" stroke-width="1" />
			<path id="" d="M28.6254 22.8066L28.3031 21.6436L28.2768 21.5234L26.7064 21.5234L26.7064 14.6123L25.3266 14.6123L25.2914 14.6475L23.5248 16.0156L23.393 16.124L23.5014 16.2441L24.2104 17.1553L24.307 17.2871L24.4389 17.1787L25.2182 16.5693L25.2182 21.5234L23.2611 21.5234L23.2611 23L28.6869 23L28.6254 22.8066ZM35.8385 15.9805C35.2995 15.0811 34.3971 14.6123 33.234 14.6123C32.0709 14.6123 31.1686 15.0811 30.6295 15.9805C30.2106 16.6748 29.9938 17.6006 29.9938 18.8105C29.9938 19.9766 30.234 20.9346 30.6793 21.6436C31.2418 22.5312 32.1295 23 33.234 23C34.3385 23 35.2262 22.5312 35.7887 21.6436C36.234 20.9346 36.4743 19.9766 36.4743 18.8105C36.4743 17.6006 36.2575 16.6748 35.8385 15.9805ZM34.5407 20.8291C34.2536 21.2832 33.8346 21.5 33.234 21.5C32.6334 21.5 32.2145 21.2832 31.9274 20.8291C31.6373 20.3721 31.4821 19.6748 31.4704 18.8252L31.4704 18.7871C31.4704 18.6553 31.4821 18.5352 31.4821 18.415L31.4821 18.3564L31.4938 18.2949C31.4938 18.2363 31.4938 18.1748 31.5055 18.1162L31.5055 18.0547L31.5055 18.0312L31.5172 17.9844C31.5787 17.457 31.6989 17.0469 31.8776 16.748C32.1647 16.291 32.5748 16.0889 33.234 16.0889C33.8932 16.0889 34.3151 16.291 34.5905 16.748C34.7692 17.0469 34.8893 17.457 34.9508 17.9844L34.9625 18.0312L34.9625 18.0547L34.9625 18.1162C34.9743 18.1748 34.9743 18.2363 34.9743 18.2949L34.986 18.3564L34.986 18.415C34.986 18.5352 34.9977 18.6553 34.9977 18.7871C34.9977 19.6631 34.8424 20.3721 34.5407 20.8291ZM33.9899 19.5928L33.9899 18.0195L32.4782 18.0195L32.4782 19.5928L33.9899 19.5928ZM43.0985 15.9805C42.5595 15.0811 41.6571 14.6123 40.494 14.6123C39.3309 14.6123 38.4286 15.0811 37.8895 15.9805C37.4706 16.6748 37.2538 17.6006 37.2538 18.8105C37.2538 19.9766 37.494 20.9346 37.9393 21.6436C38.5018 22.5312 39.3895 23 40.494 23C41.5985 23 42.4862 22.5312 43.0487 21.6436C43.494 20.9346 43.7343 19.9766 43.7343 18.8105C43.7343 17.6006 43.5175 16.6748 43.0985 15.9805ZM41.8007 20.8291C41.5136 21.2832 41.0946 21.5 40.494 21.5C39.8934 21.5 39.4745 21.2832 39.1874 20.8291C38.8973 20.3721 38.7421 19.6748 38.7304 18.8252L38.7304 18.7871C38.7304 18.6553 38.7421 18.5352 38.7421 18.415L38.7421 18.3564L38.7538 18.2949C38.7538 18.2363 38.7538 18.1748 38.7655 18.1162L38.7655 18.0547L38.7655 18.0312L38.7772 17.9844C38.8387 17.457 38.9589 17.0469 39.1376 16.748C39.4247 16.291 39.8348 16.0889 40.494 16.0889C41.1532 16.0889 41.5751 16.291 41.8505 16.748C42.0292 17.0469 42.1493 17.457 42.2108 17.9844L42.2225 18.0312L42.2225 18.0547L42.2225 18.1162C42.2343 18.1748 42.2343 18.2363 42.2343 18.2949L42.246 18.3564L42.246 18.415C42.246 18.5352 42.2577 18.6553 42.2577 18.7871C42.2577 19.6631 42.1024 20.3721 41.8007 20.8291ZM41.2499 19.5928L41.2499 18.0195L39.7382 18.0195L39.7382 19.5928L41.2499 19.5928ZM50.3585 15.9805C49.8195 15.0811 48.9171 14.6123 47.754 14.6123C46.5909 14.6123 45.6886 15.0811 45.1495 15.9805C44.7306 16.6748 44.5138 17.6006 44.5138 18.8105C44.5138 19.9766 44.754 20.9346 45.1993 21.6436C45.7618 22.5312 46.6495 23 47.754 23C48.8585 23 49.7462 22.5312 50.3087 21.6436C50.754 20.9346 50.9943 19.9766 50.9943 18.8105C50.9943 17.6006 50.7775 16.6748 50.3585 15.9805ZM49.0607 20.8291C48.7736 21.2832 48.3546 21.5 47.754 21.5C47.1534 21.5 46.7345 21.2832 46.4474 20.8291C46.1573 20.3721 46.0021 19.6748 45.9903 18.8252L45.9903 18.7871C45.9903 18.6553 46.0021 18.5352 46.0021 18.415L46.0021 18.3564L46.0138 18.2949C46.0138 18.2363 46.0138 18.1748 46.0255 18.1162L46.0255 18.0547L46.0255 18.0312L46.0372 17.9844C46.0987 17.457 46.2189 17.0469 46.3976 16.748C46.6847 16.291 47.0948 16.0889 47.754 16.0889C48.4132 16.0889 48.8351 16.291 49.1105 16.748C49.2892 17.0469 49.4093 17.457 49.4708 17.9844L49.4825 18.0312L49.4825 18.0547L49.4825 18.1162C49.4943 18.1748 49.4943 18.2363 49.4943 18.2949L49.506 18.3564L49.506 18.415C49.506 18.5352 49.5177 18.6553 49.5177 18.7871C49.5177 19.6631 49.3624 20.3721 49.0607 20.8291ZM48.5099 19.5928L48.5099 18.0195L46.9982 18.0195L46.9982 19.5928L48.5099 19.5928ZM57.6185 15.9805C57.0795 15.0811 56.1771 14.6123 55.014 14.6123C53.8509 14.6123 52.9486 15.0811 52.4095 15.9805C51.9906 16.6748 51.7738 17.6006 51.7738 18.8105C51.7738 19.9766 52.014 20.9346 52.4593 21.6436C53.0218 22.5312 53.9095 23 55.014 23C56.1185 23 57.0062 22.5312 57.5687 21.6436C58.014 20.9346 58.2543 19.9766 58.2543 18.8105C58.2543 17.6006 58.0375 16.6748 57.6185 15.9805ZM56.3207 20.8291C56.0336 21.2832 55.6146 21.5 55.014 21.5C54.4134 21.5 53.9945 21.2832 53.7074 20.8291C53.4173 20.3721 53.2621 19.6748 53.2504 18.8252L53.2504 18.7871C53.2504 18.6553 53.2621 18.5352 53.2621 18.415L53.2621 18.3564L53.2738 18.2949C53.2738 18.2363 53.2738 18.1748 53.2855 18.1162L53.2855 18.0547L53.2855 18.0312L53.2972 17.9844C53.3587 17.457 53.4789 17.0469 53.6576 16.748C53.9447 16.291 54.3548 16.0889 55.014 16.0889C55.6732 16.0889 56.0951 16.291 56.3705 16.748C56.5492 17.0469 56.6693 17.457 56.7308 17.9844L56.7425 18.0312L56.7425 18.0547L56.7425 18.1162C56.7543 18.1748 56.7543 18.2363 56.7543 18.2949L56.766 18.3564L56.766 18.415C56.766 18.5352 56.7777 18.6553 56.7777 18.7871C56.7777 19.6631 56.6224 20.3721 56.3207 20.8291ZM55.7699 19.5928L55.7699 18.0195L54.2582 18.0195L54.2582 19.5928L55.7699 19.5928Z" fill="rgb(255,255,255)" fill-rule="nonzero" />
		</g>
		<g id="容器 91333142" customFrame="url(#clipPath_11)">
			<rect id="容器 91333142" width="85.000000" height="22.000000" x="69.000000" y="8.000000" rx="7.000000" fill="rgb(255,255,255)" fill-opacity="0" />
			<rect id="容器 91333142" width="84.000000" height="21.000000" x="69.500000" y="8.500000" rx="6.500000" stroke="rgb(255,255,255)" stroke-opacity="0.100000001" stroke-width="1" />
			<path id="" d="M81.9368 20.5391C81.8899 20 81.6262 19.543 81.2073 19.209C80.8821 18.957 80.4866 18.7754 80.0061 18.6201L79.971 18.6084L79.9329 18.5967L79.8743 18.585L79.8128 18.5586L79.7424 18.5352L79.6692 18.5234L79.5608 18.5L79.4407 18.4648L79.2151 18.4033L78.843 18.3066L78.8313 18.3066L78.7932 18.2949L78.7698 18.2832C77.8352 17.9844 77.4133 17.6006 77.3665 17.1553C77.3049 16.5693 77.9905 15.8955 78.9133 15.8252C79.3469 15.7871 79.8626 15.8604 80.2815 16.0273C80.4983 16.1123 80.7151 16.1973 80.9055 16.2793L81.7464 15.3799L81.7581 15.3447L81.6965 15.3066L81.6145 15.2715L81.5794 15.248L81.5296 15.2246L81.4592 15.2012C81.219 15.0928 80.9671 14.9844 80.7034 14.8877C80.1262 14.6592 79.429 14.5654 78.8167 14.6123C77.2698 14.7441 76.0335 15.957 76.177 17.2871C76.2854 18.2949 77.0647 19.0156 78.4094 19.4492C78.4446 19.4609 78.471 19.4727 78.5061 19.4727L78.7698 19.543L79.1419 19.6396L79.3089 19.6748L79.3938 19.7012L79.4553 19.7246L79.5257 19.748L79.5872 19.7598L79.6223 19.7715L79.6458 19.7715L79.6926 19.7949L79.7307 19.8066L79.7776 19.8213C79.7776 19.8213 79.7893 19.8213 79.7893 19.833L79.8391 19.8447L79.8743 19.8564C79.9094 19.8682 79.9329 19.8799 79.971 19.8916L80.0061 19.9033C80.0061 19.9033 80.0178 19.915 80.0178 19.915L80.053 19.9268L80.0911 19.9414C80.1145 19.9531 80.138 19.9648 80.1614 19.9883L80.1965 20C80.5452 20.1787 80.7268 20.3955 80.7503 20.6475C80.7737 20.9609 80.677 21.2246 80.4749 21.415C80.2112 21.6436 79.7776 21.7871 79.177 21.7871C78.3977 21.7871 77.3167 21.5469 76.6458 21.1631L76.0452 22.2207L76.0833 22.2324C76.9592 22.7246 78.219 23 79.177 23C80.053 23 80.7737 22.7715 81.2776 22.3174C81.7698 21.8604 82.01 21.2246 81.9368 20.5391ZM87.7815 16.4492L87.7815 20.8994C87.3977 21.3916 86.7385 21.8604 85.7307 21.8604C85.7307 21.8604 85.6106 21.8604 85.5988 21.8604C84.8781 21.7988 84.5647 21.0693 84.5178 20.4688C84.4826 20.1553 84.4826 19.7598 84.4826 19.6748L84.4826 16.4492L83.3313 16.4492L83.3313 19.6748C83.3313 19.7715 83.343 20.2168 83.3664 20.5654C83.425 21.1631 83.6301 21.7168 83.9406 22.1357C84.3391 22.6514 84.8781 22.9531 85.5139 23C85.5754 23.0117 85.7307 23 85.7307 23C86.4514 23 87.134 22.6748 87.7815 22.2207L87.7815 23L88.9328 23L88.9328 16.4492L87.7815 16.4492ZM95.797 17.1318C95.3781 16.6748 94.7775 16.4346 94.0099 16.4229C93.3976 16.4111 92.6886 16.7832 92.0412 17.2754L92.0412 13.6514L90.8547 13.6514L90.8547 23C90.8547 23 92.0177 23 92.1261 23C92.2697 23 92.4513 23.0117 92.6652 23C93.1222 22.9766 93.758 22.915 94.1886 22.7598C95.6418 22.2324 96.4211 21.1631 96.4826 19.5928C96.5295 18.4766 96.3127 17.6709 95.797 17.1318ZM95.2931 19.543C95.2345 20.9346 94.4552 21.3916 93.7814 21.6318C93.3742 21.7871 92.4865 21.8252 92.0412 21.8252L92.0412 18.3564C92.3898 18.0312 93.1222 17.5771 93.9367 17.5771C93.9513 17.5771 93.9513 17.5771 93.9631 17.5889C94.3937 17.5889 94.7306 17.7324 94.9328 17.9492C95.2111 18.2363 95.3312 18.7754 95.2931 19.543ZM103.227 22.9268C102.673 21.9922 101.211 21.8604 99.6612 21.8604L100.01 21.2246C100.142 21.2363 100.429 21.248 100.561 21.248C102.146 21.248 103.382 20.1787 103.382 18.8369C103.382 18.1045 103.083 17.4805 102.529 17.0352C102.855 16.8916 103.203 16.7129 103.203 16.7129L103.13 15.4414L103.083 15.4648C102.061 16.0039 101.413 16.3027 100.886 16.4346C100.777 16.4229 100.669 16.4229 100.561 16.4229C99.7111 16.4229 99.0021 16.6631 98.4864 17.1201C97.9943 17.5508 97.7306 18.1631 97.7306 18.8369C97.7306 19.6514 98.1993 20.4072 98.9903 20.8525L97.9591 22.1357L98.3898 23.0469C98.3898 23.0469 98.7501 22.9883 98.9405 22.9766C99.5411 22.9414 100.238 22.9033 100.921 22.9883C101.87 23.0967 102.146 23.3486 102.242 23.4688C102.374 23.624 102.386 23.8643 102.289 24.0312C102.014 24.5352 100.695 24.6201 100.429 24.6318C99.1222 24.7051 98.5333 24.4766 98.3663 24.415L98.2696 24.3799L97.839 25.4492L97.921 25.4844C98.1612 25.5928 98.6066 25.7715 99.9864 25.7715C100.142 25.7715 100.297 25.7715 100.467 25.7598C101.475 25.7363 102.793 25.5195 103.309 24.5967C103.587 24.0928 103.561 23.5039 103.227 22.9268ZM98.8937 18.8369C98.8937 18.5 99.0255 18.2012 99.2657 17.9844C99.5528 17.7207 100.01 17.5771 100.561 17.5771C101.114 17.5771 101.557 17.7207 101.859 17.9844C102.099 18.2012 102.219 18.5 102.219 18.8369C102.219 19.5312 101.486 20.085 100.561 20.085C99.6261 20.085 98.8937 19.5312 98.8937 18.8369ZM110.27 17.0234C109.862 16.6279 109.309 16.4492 108.685 16.4844C107.917 16.5312 107.114 17.0117 106.429 17.6592L106.429 16.4492L105.277 16.4492L105.277 23.0117L106.429 23.0117L106.429 19.2324C106.467 19.1357 106.695 18.7402 107.126 18.3213C107.51 17.9492 108.049 17.6123 108.758 17.6357C109.057 17.6357 109.297 17.709 109.49 17.8643C109.669 18.0078 109.827 18.248 109.827 18.4648L109.827 18.5234L110.905 18.1631C110.809 17.7324 110.595 17.3252 110.27 17.0234ZM117.602 22.9268C117.591 22.8682 117.567 22.7598 117.541 22.6514C117.482 22.3525 117.409 21.9453 117.385 21.7988C117.362 21.6084 117.362 21.2598 117.362 21.1396L117.385 18.9688C117.385 18.8721 117.397 18.5352 117.303 18.1514C117.145 17.5039 116.797 17.0732 116.222 16.7715C115.25 16.2559 113.618 16.3408 112.502 16.8447L112.443 16.8682L112.921 17.9492L112.982 17.9229C113.797 17.5654 114.901 17.3369 115.73 17.8525C116.319 18.2246 116.199 18.8838 116.199 18.8955L116.199 19.3525C115.707 19.1826 114.963 18.8105 114.002 19.0156C113.055 19.209 112.335 19.833 112.13 20.6357C111.951 21.3564 112.153 21.8721 112.358 22.1592C112.683 22.6162 113.222 22.915 113.87 22.9883C113.978 23 114.098 23 114.218 23C114.901 23 115.742 22.6162 116.281 22.1973C116.331 22.4844 116.389 22.9766 116.389 22.9766L116.389 23L117.614 23L117.602 22.9268ZM116.173 21.2949C115.754 21.667 115.153 22.1475 113.99 21.9688C113.703 21.9307 113.451 21.752 113.342 21.5234C113.258 21.3799 113.222 21.1631 113.281 20.9229C113.389 20.4922 113.858 20.1436 114.254 20.0352C114.842 19.8799 115.311 19.9414 116.173 20.167L116.187 20.4072L116.173 21.2949ZM124.431 17.1318C124.009 16.6748 123.397 16.4346 122.641 16.4229C122.029 16.4111 121.311 16.6045 120.675 17.085L120.675 16.4229L119.486 16.4229L119.486 25.7832L120.675 25.7832L120.675 23.0352C121.25 23.0352 122.222 23 122.811 22.7949C124.261 22.3027 125.067 21.2012 125.126 19.6162C125.175 18.4883 124.959 17.6709 124.431 17.1318ZM123.927 19.5547C123.878 20.6592 123.397 21.3213 122.413 21.6553C121.982 21.8105 121.045 21.8252 120.675 21.8369L120.675 18.1748C121.141 17.7441 121.982 17.5508 122.594 17.5508C122.606 17.5508 122.606 17.5508 122.618 17.5508C123.051 17.5654 123.362 17.7441 123.555 17.9492C123.842 18.248 123.963 18.7871 123.927 19.5547ZM132.242 19.3291C132.242 18.333 132.002 17.5771 131.509 17.085C131.09 16.6631 130.502 16.4346 129.757 16.4229C129.145 16.4111 128.413 16.7832 127.789 17.2402L127.789 13.6514L126.602 13.6514L126.602 23L127.789 23L127.789 18.6201C128.017 18.415 128.917 17.6123 129.722 17.6123C129.722 17.6123 129.734 17.6123 129.746 17.6123C130.165 17.624 130.466 17.7207 130.657 17.9229C130.923 18.1895 131.055 18.6553 131.055 19.3291C131.055 19.376 131.055 22.9033 131.055 22.9414L131.055 23L132.242 23L132.242 19.3291ZM138.866 19.5078L138.866 18.3682L134.583 18.3682L134.583 19.5078L138.866 19.5078Z" fill="rgb(255,255,255)" fill-opacity="0.5" fill-rule="nonzero" />
			<path id="" d="M146.547 21.6553L146.509 21.5352L143.366 21.5352L144.529 20.5039C144.625 20.4189 144.734 20.3369 144.819 20.252C145.311 19.8213 145.874 19.3408 146.295 18.7871C146.846 18.0547 147.063 17.3252 146.905 16.6045C146.773 15.9922 146.439 15.4883 145.923 15.1396C145.431 14.791 144.769 14.6123 144.037 14.6123C143.966 14.6123 143.881 14.6123 143.799 14.624C143.175 14.6475 142.586 14.8174 142.071 15.1045C141.517 15.4033 141.242 15.7402 141.145 15.8604L141.051 15.9922L141.171 16.0889L142.094 16.7832L142.203 16.8682L142.311 16.7598C142.323 16.748 142.443 16.6045 142.695 16.4492C143.029 16.2324 143.427 16.124 143.87 16.1006C143.943 16.0889 144.001 16.0889 144.063 16.0889C144.543 16.0889 144.913 16.1973 145.165 16.4229C145.358 16.5928 145.431 16.7832 145.455 16.915C145.525 17.2168 145.381 17.5654 145.033 17.9961C144.71 18.3916 144.253 18.7871 143.846 19.1357C143.761 19.2207 143.641 19.3174 143.547 19.3994L141.075 21.5732L141.063 21.585L141.001 21.6318L141.001 23.0117L146.919 23.0117L146.87 22.8066L146.547 21.6553Z" fill="rgb(255,255,255)" fill-opacity="0.5" fill-rule="nonzero" />
			<path id="" d="M146.547 21.6553L146.509 21.5352L143.366 21.5352L144.529 20.5039C144.625 20.4189 144.734 20.3369 144.819 20.252C145.311 19.8213 145.874 19.3408 146.295 18.7871C146.846 18.0547 147.063 17.3252 146.905 16.6045C146.773 15.9922 146.439 15.4883 145.923 15.1396C145.431 14.791 144.769 14.6123 144.037 14.6123C143.966 14.6123 143.881 14.6123 143.799 14.624C143.175 14.6475 142.586 14.8174 142.071 15.1045C141.517 15.4033 141.242 15.7402 141.145 15.8604L141.051 15.9922L141.171 16.0889L142.094 16.7832L142.203 16.8682L142.311 16.7598C142.323 16.748 142.443 16.6045 142.695 16.4492C143.029 16.2324 143.427 16.124 143.87 16.1006C143.943 16.0889 144.001 16.0889 144.063 16.0889C144.543 16.0889 144.913 16.1973 145.165 16.4229C145.358 16.5928 145.431 16.7832 145.455 16.915C145.525 17.2168 145.381 17.5654 145.033 17.9961C144.71 18.3916 144.253 18.7871 143.846 19.1357C143.761 19.2207 143.641 19.3174 143.547 19.3994L141.075 21.5732L141.063 21.585L141.001 21.6318L141.001 23.0117L146.919 23.0117L146.87 22.8066L146.547 21.6553Z" fill="rgb(223,223,223)" fill-rule="nonzero" />
		</g>
	</g>
	<g id="容器 91333078" filter="url(#filter_3)" customFrame="url(#clipPath_12)">
		<rect id="容器 91333078" width="194.000000" height="44.000000" x="16.000000" y="38.000000" rx="22.000000" fill="rgb(53,119,246)" />
		<rect id="容器 91333078" width="194.000000" height="44.000000" x="16.000000" y="38.000000" rx="22.000000" fill="url(#paint_linear_3)" fill-opacity="0.100000001" />
		<rect id="容器 91333078" width="193.000000" height="43.000000" x="16.500000" y="38.500000" rx="21.500000" stroke="url(#paint_linear_4)" stroke-opacity="0.600000024" stroke-width="1" />
		<g style="mix-blend-mode:overlay">
			<g id="函数调用" clip-path="url(#clipPath_13)" customFrame="url(#clipPath_13)">
				<rect id="函数调用" width="22.000000" height="22.000000" x="28.000000" y="49.000000" rx="11.000000" />
				<rect id="矩形 5401" width="21.999996" height="21.999994" x="28.000000" y="49.000000" rx="2.252977" fill="rgb(0,0,0)" fill-opacity="0.899999976" />
				<rect id="矩形 5401" width="21.155130" height="21.155128" x="28.422434" y="49.422432" rx="1.830544" stroke="rgb(25,25,25)" stroke-opacity="0" stroke-width="0.844866395" />
				<g id="组合 8153">
					<rect id="矩形 5243" width="16.500000" height="16.500002" x="30.750000" y="51.750000" opacity="0" fill="rgb(196,196,196)" />
					<rect id="矩形 5243" width="15.000000" height="15.000002" x="31.500000" y="52.500000" opacity="0" stroke="rgb(255,255,255)" stroke-width="1.5" />
					<path id="矩形 77429" d="M1 10L1 0L0 0.952381" stroke="rgb(255,255,255)" stroke-linecap="round" stroke-linejoin="round" stroke-width="1.5" transform="matrix(0,1,-1,0,44,66)" />
					<path id="矩形 77430" d="M33.125 65.125C34.6438 65.125 35.875 63.8938 35.875 62.375L35.875 54.6882C35.875 54.3772 36.1272 54.125 36.4382 54.125L38.625 54.125" stroke="rgb(255,255,255)" stroke-linecap="round" stroke-linejoin="round" stroke-width="1.5" />
					<path id="矩形 77431" d="M33.4688 58.2498L38.2812 58.2498" stroke="rgb(255,255,255)" stroke-linecap="round" stroke-linejoin="round" stroke-width="1.5" />
					<path id="矩形 77435" d="M0 0L5.5 0" stroke="rgb(255,255,255)" stroke-linecap="round" stroke-linejoin="round" stroke-width="1.5" transform="matrix(-0.707107,-0.707107,-0.709801,0.704403,43.8964,62.3469)" />
					<path id="矩形 77436" d="M0 0L5.5 0" stroke="rgb(255,255,255)" stroke-linecap="round" stroke-linejoin="round" stroke-width="1.5" transform="matrix(0.707107,-0.707107,0.709801,0.704403,40.0057,62.3472)" />
				</g>
			</g>
		</g>
		<path id="" d="M59.4585 63.3047C59.9552 63.3047 60.3825 63.1748 60.7402 62.915C61.1003 62.653 61.3874 62.2884 61.6016 61.8213L63.2969 62.8022C63.0439 63.4927 62.5814 64.0601 61.9092 64.5044C61.237 64.9464 60.4349 65.1675 59.5029 65.1675C58.596 65.1675 57.7689 64.9487 57.0215 64.5112C56.2764 64.0714 55.6839 63.4482 55.2441 62.6416C54.8066 61.835 54.5879 60.9087 54.5879 59.8628C54.5879 58.8169 54.8044 57.8929 55.2373 57.0908C55.6725 56.2887 56.265 55.6678 57.0146 55.228C57.7666 54.7882 58.596 54.5684 59.5029 54.5684C60.4349 54.5684 61.237 54.7905 61.9092 55.2349C62.5814 55.6792 63.0439 56.2466 63.2969 56.937L61.6016 57.9146C61.3874 57.4497 61.1003 57.0863 60.7402 56.8242C60.3825 56.5622 59.9552 56.4312 59.4585 56.4312C58.9367 56.4312 58.4707 56.5713 58.0605 56.8516C57.6504 57.1318 57.3257 57.5317 57.0864 58.0513C56.8494 58.5685 56.731 59.1724 56.731 59.8628C56.731 60.5532 56.8494 61.1605 57.0864 61.6846C57.3257 62.2064 57.6504 62.6074 58.0605 62.8877C58.4707 63.1657 58.9367 63.3047 59.4585 63.3047ZM69.4129 54.7529L73.5589 65L71.4022 65L70.5067 62.6621L66.5145 62.6621L65.6463 65L63.6194 65L67.6356 54.7529L69.4129 54.7529ZM69.847 60.9258L68.4764 57.3267L67.1468 60.9258L69.847 60.9258ZM74.7327 54.7529L76.7629 54.7529L76.7629 63.1816L81.425 63.1816L81.425 65L74.7327 65L74.7327 54.7529ZM82.8527 54.7529L84.8829 54.7529L84.8829 63.1816L89.545 63.1816L89.545 65L82.8527 65L82.8527 54.7529ZM91.8853 59.9448C91.5662 59.9448 91.2928 59.8286 91.0649 59.5962C90.8371 59.3638 90.7231 59.0835 90.7231 58.7554C90.7231 58.4295 90.8371 58.1504 91.0649 57.918C91.2928 57.6833 91.5662 57.5659 91.8853 57.5659C92.2111 57.5659 92.488 57.6833 92.7158 57.918C92.946 58.1504 93.061 58.4295 93.061 58.7554C93.061 59.0835 92.946 59.3638 92.7158 59.5962C92.488 59.8286 92.2111 59.9448 91.8853 59.9448ZM91.8853 65.1675C91.5662 65.1675 91.2928 65.0513 91.0649 64.8188C90.8371 64.5841 90.7231 64.3039 90.7231 63.978C90.7231 63.6522 90.8371 63.373 91.0649 63.1406C91.2928 62.9059 91.5662 62.7886 91.8853 62.7886C92.202 62.7886 92.4766 62.9059 92.709 63.1406C92.9437 63.373 93.061 63.6522 93.061 63.978C93.061 64.3039 92.946 64.5841 92.7158 64.8188C92.488 65.0513 92.2111 65.1675 91.8853 65.1675ZM94.9627 54.7529L96.9929 54.7529L96.9929 63.1816L101.655 63.1816L101.655 65L94.9627 65L94.9627 54.7529ZM105.925 57.5659C106.57 57.5659 107.142 57.7083 107.641 57.9932C108.14 58.278 108.527 58.6802 108.803 59.1997C109.079 59.717 109.216 60.3105 109.216 60.9805C109.216 61.2812 109.188 61.5854 109.131 61.8931L104.315 61.8931C104.399 62.4331 104.595 62.841 104.903 63.1167C105.211 63.3924 105.593 63.5303 106.051 63.5303C106.38 63.5303 106.671 63.4585 106.926 63.3149C107.184 63.1691 107.382 62.9515 107.521 62.6621L108.95 63.5029C108.754 64.0339 108.378 64.444 107.822 64.7334C107.268 65.0228 106.651 65.1675 105.969 65.1675C105.315 65.1675 104.708 65.0228 104.148 64.7334C103.587 64.444 103.136 64.0099 102.794 63.4312C102.455 62.8524 102.285 62.1574 102.285 61.3462C102.285 60.5441 102.455 59.8582 102.794 59.2886C103.136 58.7189 103.582 58.2894 104.134 58C104.685 57.7106 105.282 57.5659 105.925 57.5659ZM105.87 59.1484C105.487 59.1484 105.16 59.2703 104.889 59.5142C104.618 59.7557 104.436 60.0952 104.342 60.5327L107.227 60.5327C107.191 60.0861 107.048 59.7443 106.8 59.5073C106.554 59.2681 106.244 59.1484 105.87 59.1484ZM113.569 57.5659C114.549 57.5659 115.315 57.8439 115.866 58.3999C116.417 58.9536 116.693 59.7443 116.693 60.772L116.693 65L115.052 65C115.043 64.9248 115.032 64.8018 115.018 64.6309C115.005 64.4577 114.984 64.305 114.957 64.1729C114.743 64.5101 114.465 64.7607 114.123 64.9248C113.783 65.0866 113.371 65.1675 112.886 65.1675C112.38 65.1675 111.919 65.0798 111.505 64.9043C111.09 64.7266 110.761 64.4668 110.517 64.125C110.275 63.7832 110.155 63.3799 110.155 62.915C110.155 62.4297 110.292 62.007 110.568 61.647C110.844 61.2869 111.214 61.009 111.679 60.813C112.146 60.617 112.66 60.519 113.22 60.519C113.724 60.519 114.242 60.6034 114.776 60.772C114.746 59.6987 114.288 59.1621 113.402 59.1621C112.693 59.1621 112.175 59.4788 111.846 60.1123L110.462 59.3159C110.724 58.7736 111.125 58.3464 111.665 58.0342C112.208 57.722 112.842 57.5659 113.569 57.5659ZM114.776 62.0605C114.309 61.9489 113.902 61.8931 113.555 61.8931C113.097 61.8931 112.742 61.9751 112.489 62.1392C112.238 62.3009 112.113 62.5311 112.113 62.8296C112.113 63.1007 112.213 63.3115 112.414 63.4619C112.614 63.61 112.874 63.6841 113.193 63.6841C113.612 63.6841 113.98 63.5656 114.297 63.3286C114.616 63.0894 114.776 62.7601 114.776 62.3408L114.776 62.0605ZM121.858 55.8569C121.512 55.8569 121.25 55.9834 121.072 56.2363C120.897 56.4893 120.809 56.8994 120.809 57.4668L120.809 57.7471L122.699 57.7471L122.699 59.3706L120.809 59.3706L120.809 65L118.861 65L118.861 59.3706L117.616 59.3706L117.616 57.7471L118.861 57.7471L118.861 57.3984C118.861 56.307 119.122 55.4958 119.643 54.9648C120.167 54.4316 120.85 54.165 121.691 54.165C122.101 54.165 122.464 54.2254 122.781 54.3462C123.1 54.467 123.352 54.6253 123.536 54.8213L122.795 56.2227C122.505 55.9788 122.193 55.8569 121.858 55.8569ZM131 55.8569C130.654 55.8569 130.392 55.9834 130.214 56.2363C130.039 56.4893 129.951 56.8994 129.951 57.4668L129.951 57.7471L131.841 57.7471L131.841 59.3706L129.951 59.3706L129.951 65L128.003 65L128.003 59.3706L126.758 59.3706L126.758 57.7471L128.003 57.7471L128.003 57.3984C128.003 56.307 128.264 55.4958 128.785 54.9648C129.309 54.4316 129.992 54.165 130.833 54.165C131.243 54.165 131.606 54.2254 131.923 54.3462C132.242 54.467 132.494 54.6253 132.678 54.8213L131.937 56.2227C131.647 55.9788 131.335 55.8569 131 55.8569ZM137.593 57.7471L139.541 57.7471L139.541 65L137.818 65C137.782 64.4395 137.744 64.0612 137.705 63.8652C137.464 64.305 137.147 64.632 136.755 64.8462C136.363 65.0604 135.914 65.1675 135.409 65.1675C134.597 65.1675 133.958 64.9066 133.491 64.3848C133.024 63.8607 132.79 63.0951 132.79 62.0879L132.79 57.7471L134.739 57.7471L134.739 61.4453C134.739 62.7783 135.168 63.4448 136.027 63.4448C136.492 63.4448 136.869 63.2637 137.159 62.9014C137.448 62.5368 137.593 62.0275 137.593 61.3735L137.593 57.7471ZM145.519 57.5659C146.321 57.5659 146.956 57.8302 147.423 58.3589C147.89 58.8853 148.123 59.652 148.123 60.6592L148.123 65L146.175 65L146.175 61.2915C146.175 59.9653 145.736 59.3022 144.859 59.3022C144.392 59.3022 144.016 59.4823 143.731 59.8423C143.449 60.2 143.307 60.7059 143.307 61.3599L143.307 65L141.359 65L141.359 57.7471L143.068 57.7471C143.114 58.3167 143.156 58.7041 143.195 58.9092C143.662 58.0137 144.436 57.5659 145.519 57.5659ZM153.079 63.4756C153.638 63.4756 154.085 63.1999 154.423 62.6484L155.906 63.5166C155.674 64.0566 155.304 64.4668 154.799 64.7471C154.295 65.0273 153.722 65.1675 153.079 65.1675C152.434 65.1675 151.832 65.0205 151.271 64.7266C150.711 64.4326 150.257 63.9985 149.911 63.4243C149.567 62.8501 149.395 62.1665 149.395 61.3735C149.395 60.5715 149.567 59.8833 149.911 59.3091C150.257 58.7349 150.711 58.3008 151.271 58.0068C151.832 57.7129 152.434 57.5659 153.079 57.5659C153.722 57.5659 154.295 57.7061 154.799 57.9863C155.304 58.2666 155.674 58.6768 155.906 59.2168L154.423 60.085C154.094 59.5449 153.647 59.2749 153.079 59.2749C152.573 59.2749 152.169 59.464 151.866 59.8423C151.563 60.2205 151.411 60.731 151.411 61.3735C151.411 62.0093 151.565 62.5186 151.873 62.9014C152.183 63.2842 152.585 63.4756 153.079 63.4756ZM167.541 59.8765C167.541 61.6037 167.228 62.9173 166.601 63.8174C165.977 64.7174 165.086 65.1675 163.928 65.1675C162.771 65.1675 161.876 64.7174 161.245 63.8174C160.616 62.9173 160.302 61.6037 160.302 59.8765C160.302 58.1401 160.616 56.8197 161.245 55.915C161.876 55.0081 162.771 54.5547 163.928 54.5547C165.086 54.5547 165.977 55.0081 166.601 55.915C167.228 56.8197 167.541 58.1401 167.541 59.8765ZM162.459 59.8765C162.459 61.034 162.577 61.8953 162.814 62.4604C163.053 63.0233 163.425 63.3047 163.928 63.3047C164.432 63.3047 164.8 63.0233 165.032 62.4604C165.267 61.8953 165.384 61.034 165.384 59.8765C165.384 58.7098 165.267 57.8416 165.032 57.272C164.8 56.7023 164.432 56.4175 163.928 56.4175C163.425 56.4175 163.053 56.7 162.814 57.2651C162.577 57.8302 162.459 58.7007 162.459 59.8765ZM172.623 58.335C173.211 58.335 173.747 58.4728 174.232 58.7485C174.718 59.0243 175.101 59.4162 175.381 59.9243C175.661 60.4325 175.801 61.0181 175.801 61.6812C175.801 62.4012 175.644 63.0244 175.33 63.5508C175.017 64.0771 174.59 64.4782 174.048 64.7539C173.508 65.0296 172.911 65.1675 172.257 65.1675C171.482 65.1675 170.812 64.9909 170.247 64.6377C169.684 64.2822 169.286 63.7445 169.051 63.0244L170.691 62.0879C170.812 62.5072 171.007 62.825 171.276 63.0415C171.547 63.2557 171.865 63.3628 172.23 63.3628C172.688 63.3628 173.04 63.2113 173.286 62.9082C173.534 62.6051 173.658 62.2201 173.658 61.7529C173.658 61.2858 173.53 60.8962 173.272 60.584C173.017 60.2695 172.651 60.1123 172.175 60.1123C171.557 60.1123 171.067 60.4165 170.705 61.0249L169.249 60.3105L169.946 54.7393L175.323 54.7393L175.323 56.4756L171.655 56.4756L171.375 58.5879C171.776 58.4193 172.192 58.335 172.623 58.335ZM183.416 58.7827L183.416 61.1787L184.803 61.1787L184.803 62.915L183.416 62.915L183.416 65L181.43 65L181.43 62.915L177.031 62.915L177.031 61.5273L180.562 54.7393L182.688 54.7393L179.314 61.1787L181.43 61.1787L181.43 58.7827L183.416 58.7827Z" fill="rgb(255,255,255)" fill-rule="nonzero" />
	</g>
	<g id="容器 91333525" customFrame="url(#clipPath_14)">
		<rect id="容器 91333525" width="190.000000" height="40.000000" x="16.000000" y="90.000000" />
		<g id="容器 4854" opacity="0.569999993" customFrame="url(#clipPath_15)">
			<rect id="容器 4854" width="45.000000" height="38.000000" x="16.000000" y="90.000000" />
			<path id="" d="M18.1123 103L17.043 103L17.043 94.2168L18.1123 94.2168L18.1123 103ZM23.0906 96.6279C23.7546 96.6279 24.2869 96.8486 24.6873 97.29C25.0876 97.7295 25.2878 98.3525 25.2878 99.1592L25.2878 103L24.2683 103L24.2683 99.4492C24.2683 98.8555 24.1501 98.3994 23.9138 98.0811C23.6775 97.7607 23.3279 97.6006 22.865 97.6006C22.5603 97.6006 22.2742 97.6709 22.0066 97.8115C21.739 97.9502 21.5212 98.1582 21.3533 98.4355C21.1853 98.7109 21.1013 99.0527 21.1013 99.4609L21.1013 103L20.0789 103L20.0789 96.7715L20.9812 96.7715C20.9968 97.1719 21.0203 97.5156 21.0515 97.8027C21.2605 97.4199 21.5427 97.1289 21.8982 96.9297C22.2537 96.7285 22.6511 96.6279 23.0906 96.6279ZM30.6892 102.147C31.6482 102.147 32.3514 101.704 32.7986 100.817L33.6629 101.321C33.4148 101.888 33.031 102.331 32.5115 102.651C31.992 102.972 31.3924 103.132 30.7127 103.132C29.9685 103.132 29.2918 102.94 28.6824 102.558C28.075 102.173 27.5955 101.637 27.2439 100.949C26.8924 100.26 26.7166 99.4756 26.7166 98.5967C26.7166 97.7158 26.8924 96.9316 27.2439 96.2441C27.5955 95.5566 28.075 95.0234 28.6824 94.6445C29.2918 94.2637 29.9685 94.0732 30.7127 94.0732C31.3924 94.0732 31.992 94.2334 32.5115 94.5537C33.031 94.8721 33.4148 95.3154 33.6629 95.8838L32.7986 96.3877C32.3514 95.499 31.6482 95.0547 30.6892 95.0547C30.1287 95.0547 29.6316 95.2031 29.198 95.5C28.7664 95.7969 28.4324 96.2129 28.1961 96.748C27.9617 97.2832 27.8445 97.8994 27.8445 98.5967C27.8445 99.292 27.9617 99.9102 28.1961 100.451C28.4324 100.99 28.7664 101.408 29.198 101.705C29.6316 102 30.1287 102.147 30.6892 102.147ZM37.2532 96.6279C37.9563 96.6279 38.5315 96.8418 38.9788 97.2695C39.428 97.6973 39.6526 98.3076 39.6526 99.1006L39.6526 103L38.7532 103C38.7278 102.592 38.7112 102.328 38.7034 102.209C38.512 102.512 38.2542 102.741 37.93 102.897C37.6057 103.054 37.2356 103.132 36.8196 103.132C36.4192 103.132 36.0452 103.059 35.6975 102.912C35.3499 102.764 35.0716 102.543 34.8626 102.25C34.6555 101.957 34.552 101.607 34.552 101.201C34.552 100.584 34.802 100.098 35.302 99.7422C35.802 99.3867 36.4475 99.209 37.2385 99.209C37.6878 99.209 38.1526 99.2686 38.6331 99.3877L38.6331 99.2793C38.6331 98.6953 38.5149 98.2617 38.2786 97.9785C38.0423 97.6934 37.6839 97.5508 37.2034 97.5508C36.8206 97.5508 36.5003 97.6309 36.2425 97.791C35.9866 97.9512 35.7708 98.1875 35.595 98.5L34.8157 98.0547C35.0071 97.623 35.3206 97.2773 35.7561 97.0176C36.1936 96.7578 36.6926 96.6279 37.2532 96.6279ZM38.6331 100.24C38.1292 100.111 37.6692 100.047 37.2532 100.047C36.7317 100.047 36.3294 100.147 36.0462 100.349C35.763 100.548 35.6214 100.828 35.6214 101.189C35.6214 101.525 35.7405 101.787 35.9788 101.975C36.219 102.162 36.5315 102.256 36.9163 102.256C37.3889 102.256 37.7932 102.118 38.1292 101.843C38.4651 101.565 38.6331 101.184 38.6331 100.697L38.6331 100.24ZM45.604 101.225C45.604 101.6 45.5054 101.932 45.3081 102.221C45.1128 102.508 44.8394 102.731 44.4878 102.892C44.1363 103.052 43.732 103.132 43.2749 103.132C42.6675 103.132 42.1441 102.996 41.7046 102.725C41.2652 102.453 40.9771 102.081 40.8404 101.608L41.6197 101.163C41.9165 101.86 42.4683 102.209 43.2749 102.209C43.6675 102.209 43.9751 102.129 44.1978 101.969C44.4224 101.809 44.5347 101.588 44.5347 101.307C44.5347 101.092 44.4683 100.917 44.3355 100.782C44.2046 100.646 44.0415 100.539 43.8462 100.463C43.6509 100.387 43.3765 100.297 43.023 100.193C42.5991 100.072 42.2554 99.9561 41.9917 99.8447C41.7281 99.7314 41.5044 99.5654 41.3208 99.3467C41.1372 99.126 41.0454 98.8359 41.0454 98.4766C41.0454 98.0996 41.147 97.7715 41.3501 97.4922C41.5532 97.2129 41.8286 96.999 42.1763 96.8506C42.5259 96.7021 42.9087 96.6279 43.3247 96.6279C43.8677 96.6279 44.3355 96.748 44.7281 96.9883C45.1206 97.2285 45.3843 97.5566 45.5191 97.9727L44.7398 98.415C44.6128 98.1436 44.4224 97.9346 44.1685 97.7881C43.9165 97.6396 43.6187 97.5654 43.2749 97.5654C42.9234 97.5654 42.6411 97.6357 42.4282 97.7764C42.2173 97.915 42.1118 98.1162 42.1118 98.3799C42.1118 98.5713 42.1734 98.7275 42.2964 98.8486C42.4214 98.9678 42.5757 99.0635 42.7593 99.1357C42.9429 99.208 43.2027 99.292 43.5386 99.3877C43.98 99.5088 44.3364 99.627 44.6079 99.7422C44.8794 99.8574 45.1128 100.035 45.3081 100.275C45.5054 100.516 45.604 100.832 45.604 101.225ZM50.2466 102.795C49.9205 103.02 49.5005 103.132 48.9869 103.132C47.731 103.132 47.1031 102.416 47.1031 100.984L47.1031 97.6475L46.0718 97.6475L46.0718 96.7598L47.1031 96.7598L47.1031 95.0195L48.1226 95.0195L48.1226 96.7598L49.9361 96.7598L49.9361 97.6475L48.1226 97.6475L48.1226 100.864C48.1226 101.735 48.4507 102.171 49.107 102.171C49.3961 102.171 49.6646 102.1 49.9127 101.957L50.2466 102.795Z" fill="rgb(255,255,255)" fill-rule="nonzero" />
			<path id="" d="M16.6006 118.597C16.6006 117.692 16.7725 116.896 17.1162 116.209C17.46 115.52 17.9336 114.991 18.5371 114.624C19.1426 114.257 19.8213 114.073 20.5732 114.073C21.3252 114.073 22.0029 114.26 22.6064 114.633C23.21 115.004 23.6836 115.531 24.0273 116.215C24.3711 116.898 24.543 117.692 24.543 118.597C24.543 119.509 24.3691 120.307 24.0215 120.99C23.6738 121.674 23.2002 122.202 22.6006 122.575C22.001 122.946 21.3252 123.132 20.5732 123.132C19.8213 123.132 19.1426 122.948 18.5371 122.581C17.9336 122.212 17.46 121.684 17.1162 120.996C16.7725 120.309 16.6006 119.509 16.6006 118.597ZM17.7285 118.597C17.7285 119.292 17.8418 119.908 18.0684 120.445C18.2969 120.98 18.627 121.398 19.0586 121.699C19.4922 121.998 19.9971 122.147 20.5732 122.147C21.1475 122.147 21.6484 121.998 22.0762 121.699C22.5059 121.398 22.8359 120.98 23.0664 120.445C23.2988 119.908 23.415 119.292 23.415 118.597C23.415 117.892 23.2988 117.271 23.0664 116.736C22.8359 116.199 22.5059 115.783 22.0762 115.488C21.6484 115.191 21.1475 115.043 20.5732 115.043C19.9971 115.043 19.4941 115.191 19.0645 115.488C18.6367 115.783 18.3066 116.199 18.0742 116.736C17.8438 117.271 17.7285 117.892 17.7285 118.597ZM30.1716 116.76L31.1912 116.76L31.1912 123L30.2917 123C30.2761 122.592 30.2527 122.252 30.2214 121.98C30.0124 122.363 29.7273 122.651 29.366 122.845C29.0066 123.036 28.615 123.132 28.1912 123.132C27.5271 123.132 26.9949 122.912 26.5945 122.473C26.196 122.031 25.9968 121.407 25.9968 120.601L25.9968 116.76L27.0164 116.76L27.0164 120.325C27.0164 120.917 27.1345 121.373 27.3708 121.693C27.6072 122.012 27.9529 122.171 28.408 122.171C28.7126 122.171 28.9988 122.102 29.2664 121.963C29.5339 121.822 29.7517 121.612 29.9197 121.333C30.0876 121.052 30.1716 120.707 30.1716 120.299L30.1716 116.76ZM36.4346 122.795C36.1085 123.02 35.6885 123.132 35.1749 123.132C33.919 123.132 33.2911 122.416 33.2911 120.984L33.2911 117.647L32.2598 117.647L32.2598 116.76L33.2911 116.76L33.2911 115.02L34.3106 115.02L34.3106 116.76L36.1241 116.76L36.1241 117.647L34.3106 117.647L34.3106 120.864C34.3106 121.735 34.6387 122.171 35.295 122.171C35.5841 122.171 35.8526 122.1 36.1007 121.957L36.4346 122.795ZM41.1172 122.147C42.0762 122.147 42.7794 121.704 43.2266 120.817L44.0909 121.321C43.8428 121.888 43.459 122.331 42.9395 122.651C42.42 122.972 41.8204 123.132 41.1407 123.132C40.3965 123.132 39.7198 122.94 39.1104 122.558C38.503 122.173 38.0235 121.637 37.6719 120.949C37.3204 120.26 37.1446 119.476 37.1446 118.597C37.1446 117.716 37.3204 116.932 37.6719 116.244C38.0235 115.557 38.503 115.023 39.1104 114.645C39.7198 114.264 40.3965 114.073 41.1407 114.073C41.8204 114.073 42.42 114.233 42.9395 114.554C43.459 114.872 43.8428 115.315 44.0909 115.884L43.2266 116.388C42.7794 115.499 42.0762 115.055 41.1172 115.055C40.5567 115.055 40.0596 115.203 39.626 115.5C39.1944 115.797 38.8604 116.213 38.6241 116.748C38.3897 117.283 38.2725 117.899 38.2725 118.597C38.2725 119.292 38.3897 119.91 38.6241 120.451C38.8604 120.99 39.1944 121.408 39.626 121.705C40.0596 122 40.5567 122.147 41.1172 122.147ZM47.6812 116.628C48.3843 116.628 48.9595 116.842 49.4068 117.27C49.856 117.697 50.0806 118.308 50.0806 119.101L50.0806 123L49.1812 123C49.1558 122.592 49.1392 122.328 49.1314 122.209C48.94 122.512 48.6822 122.741 48.358 122.897C48.0337 123.054 47.6636 123.132 47.2476 123.132C46.8472 123.132 46.4732 123.059 46.1255 122.912C45.7779 122.764 45.4996 122.543 45.2906 122.25C45.0835 121.957 44.98 121.607 44.98 121.201C44.98 120.584 45.23 120.098 45.73 119.742C46.23 119.387 46.8755 119.209 47.6665 119.209C48.1158 119.209 48.5806 119.269 49.0611 119.388L49.0611 119.279C49.0611 118.695 48.9429 118.262 48.7066 117.979C48.4703 117.693 48.1119 117.551 47.6314 117.551C47.2486 117.551 46.9283 117.631 46.6705 117.791C46.4146 117.951 46.1988 118.188 46.023 118.5L45.2437 118.055C45.4351 117.623 45.7486 117.277 46.1841 117.018C46.6216 116.758 47.1207 116.628 47.6812 116.628ZM49.0611 120.24C48.5572 120.111 48.0972 120.047 47.6812 120.047C47.1597 120.047 46.7574 120.147 46.4742 120.349C46.191 120.548 46.0494 120.828 46.0494 121.189C46.0494 121.525 46.1685 121.787 46.4068 121.975C46.647 122.162 46.9595 122.256 47.3443 122.256C47.8169 122.256 48.2212 122.118 48.5572 121.843C48.8931 121.565 49.0611 121.184 49.0611 120.697L49.0611 120.24ZM56.032 121.225C56.032 121.6 55.9334 121.932 55.7361 122.221C55.5408 122.508 55.2674 122.731 54.9158 122.892C54.5643 123.052 54.16 123.132 53.7029 123.132C53.0955 123.132 52.5721 122.996 52.1326 122.725C51.6932 122.453 51.4051 122.081 51.2684 121.608L52.0476 121.163C52.3445 121.86 52.8963 122.209 53.7029 122.209C54.0955 122.209 54.4031 122.129 54.6258 121.969C54.8504 121.809 54.9627 121.588 54.9627 121.307C54.9627 121.092 54.8963 120.917 54.7635 120.782C54.6326 120.646 54.4695 120.539 54.2742 120.463C54.0789 120.387 53.8045 120.297 53.451 120.193C53.0271 120.072 52.6834 119.956 52.4197 119.845C52.156 119.731 51.9324 119.565 51.7488 119.347C51.5652 119.126 51.4734 118.836 51.4734 118.477C51.4734 118.1 51.575 117.771 51.7781 117.492C51.9812 117.213 52.2566 116.999 52.6043 116.851C52.9539 116.702 53.3367 116.628 53.7527 116.628C54.2957 116.628 54.7635 116.748 55.156 116.988C55.5486 117.229 55.8123 117.557 55.9471 117.973L55.1678 118.415C55.0408 118.144 54.8504 117.935 54.5965 117.788C54.3445 117.64 54.0467 117.565 53.7029 117.565C53.3514 117.565 53.0691 117.636 52.8562 117.776C52.6453 117.915 52.5398 118.116 52.5398 118.38C52.5398 118.571 52.6014 118.728 52.7244 118.849C52.8494 118.968 53.0037 119.063 53.1873 119.136C53.3709 119.208 53.6307 119.292 53.9666 119.388C54.408 119.509 54.7644 119.627 55.0359 119.742C55.3074 119.857 55.5408 120.035 55.7361 120.275C55.9334 120.516 56.032 120.832 56.032 121.225ZM60.6746 122.795C60.3485 123.02 59.9285 123.132 59.4149 123.132C58.159 123.132 57.5311 122.416 57.5311 120.984L57.5311 117.647L56.4998 117.647L56.4998 116.76L57.5311 116.76L57.5311 115.02L58.5506 115.02L58.5506 116.76L60.3641 116.76L60.3641 117.647L58.5506 117.647L58.5506 120.864C58.5506 121.735 58.8787 122.171 59.535 122.171C59.8241 122.171 60.0926 122.1 60.3407 121.957L60.6746 122.795Z" fill="rgb(255,255,255)" fill-rule="nonzero" />
		</g>
		<g id="容器 4855" opacity="0.800000012" customFrame="url(#clipPath_16)">
			<rect id="容器 4855" width="137.000000" height="40.000000" x="69.000000" y="90.000000" />
			<path id="" d="M73.2715 96.8027C73.333 96.4688 73.5 96.2285 74.1475 96.1318L74.3877 96.1318L74.3877 95.124L74.0771 95.124L74.0391 95.124C73.0195 95.2676 72.4307 95.7715 72.2754 96.624L72.252 96.7207C72.2051 96.9844 72.2051 97.0312 72.2051 97.3682L72.2051 97.4033C72.2051 97.7402 72.2285 98.0889 72.2754 98.4229C72.3604 99.0469 72.2988 99.3604 72.252 99.4453C72.0586 99.791 71.7832 99.9609 71.4229 99.9609L70.8369 99.9609L70.8369 101.543L71.4229 101.543C71.7832 101.543 72.0586 101.725 72.252 102.073C72.2988 102.144 72.3604 102.457 72.2754 103.081C72.2285 103.415 72.2051 103.764 72.2051 104.101L72.2051 104.147C72.2051 104.473 72.2051 104.52 72.252 104.783L72.2754 104.88C72.4307 105.732 73.0195 106.236 74.0391 106.38L74.0771 106.38L74.3877 106.38L74.3877 105.372L74.1475 105.372C73.5 105.275 73.333 105.035 73.2715 104.701L73.248 104.604C73.2129 104.411 73.2129 104.411 73.2129 104.147L73.2129 104.101C73.2129 103.811 73.2363 103.512 73.2715 103.213C73.3799 102.469 73.333 101.915 73.1396 101.569C72.9346 101.209 72.6475 100.931 72.3252 100.752C72.6475 100.573 72.9346 100.295 73.1396 99.9346C73.333 99.5889 73.3799 99.0352 73.2715 98.291C73.2363 97.9922 73.2129 97.7051 73.2129 97.4033L73.2129 97.3682C73.2129 97.1045 73.2129 97.1045 73.248 96.8994L73.2715 96.8027ZM79.6972 103.799L81.2441 102.445C81.3525 102.36 81.4492 102.264 81.5546 102.179C82.0585 101.736 82.6357 101.232 83.0546 100.679C83.6084 99.9492 83.8251 99.2402 83.6669 98.543C83.3916 97.2598 82.2285 96.5273 80.6084 96.6123C79.1933 96.6826 78.2793 97.415 77.9687 97.8369L78.9267 98.5547C78.9531 98.5312 79.4804 97.8721 80.6669 97.8135C82.1084 97.7285 82.4189 98.4727 82.4921 98.7949C82.6709 99.6123 81.6162 100.535 80.7636 101.268C80.6552 101.364 80.5468 101.449 80.4531 101.543L77.8837 103.799L77.8603 103.825L77.8603 105L83.6318 105L83.2949 103.799L79.6972 103.799ZM91.0753 103.799L89.4083 103.799L89.4083 96.6006L88.1954 96.6006L86.3732 98.0273L87.1173 98.9883L88.1954 98.1357L88.1954 103.799L86.1564 103.799L86.1564 105L91.4122 105L91.0753 103.799ZM98.7729 100.415C97.9555 99.7559 96.6489 99.5771 95.4008 99.9346C95.4008 99.9346 95.3891 99.9346 95.3891 99.9492C95.3774 99.9492 95.3627 99.9492 95.3393 99.9609L95.5678 97.8135L98.808 97.8135L99.145 96.6123L94.4633 96.6123L94.4399 97.1396L94.4282 97.1396L94.0209 100.957L94.9672 101.508C95.1606 101.376 95.4946 101.171 95.6879 101.112C96.5756 100.849 97.5014 100.945 98.017 101.353C98.351 101.616 98.4946 102 98.4477 102.516C98.4008 102.996 97.9086 103.729 96.7309 103.799C95.5092 103.86 94.4399 103.043 94.4282 103.043L93.6957 103.992C93.7426 104.039 95.0053 105 96.5873 105C96.6606 105 96.7192 105 96.7924 105C98.5327 104.903 99.5522 103.74 99.6489 102.624C99.7309 101.713 99.4203 100.931 98.7729 100.415ZM107.392 101.88L106.9 101.88L106.9 96.6006L105.687 96.6006L101.823 101.868L101.823 101.88L101.811 101.88L101.811 103.081L105.699 103.081L105.699 105L106.9 105L106.9 103.081L107.729 103.081L107.392 101.88ZM105.699 101.88L103.311 101.88L105.699 98.6279L105.699 101.88ZM112.256 103.201L112.256 105.012L113.361 105.012L111.969 106.884L113.264 106.884L114.067 105.012L114.067 103.201L112.256 103.201ZM120.097 103.799L121.644 102.445C121.752 102.36 121.849 102.264 121.955 102.179C122.459 101.736 123.036 101.232 123.455 100.679C124.008 99.9492 124.225 99.2402 124.067 98.543C123.792 97.2598 122.628 96.5273 121.008 96.6123C119.593 96.6826 118.679 97.415 118.369 97.8369L119.327 98.5547C119.353 98.5312 119.88 97.8721 121.067 97.8135C122.508 97.7285 122.819 98.4727 122.892 98.7949C123.071 99.6123 122.016 100.535 121.164 101.268C121.055 101.364 120.947 101.449 120.853 101.543L118.284 103.799L118.26 103.825L118.26 105L124.032 105L123.695 103.799L120.097 103.799ZM131.475 103.799L129.808 103.799L129.808 96.6006L128.595 96.6006L126.773 98.0273L127.517 98.9883L128.595 98.1357L128.595 103.799L126.556 103.799L126.556 105L131.812 105L131.475 103.799ZM139.173 100.415C138.356 99.7559 137.049 99.5771 135.801 99.9346C135.801 99.9346 135.789 99.9346 135.789 99.9492C135.777 99.9492 135.763 99.9492 135.739 99.9609L135.968 97.8135L139.208 97.8135L139.545 96.6123L134.863 96.6123L134.84 97.1396L134.828 97.1396L134.421 100.957L135.367 101.508C135.561 101.376 135.895 101.171 136.088 101.112C136.976 100.849 137.901 100.945 138.417 101.353C138.751 101.616 138.895 102 138.848 102.516C138.801 102.996 138.309 103.729 137.131 103.799C135.909 103.86 134.84 103.043 134.828 103.043L134.096 103.992C134.143 104.039 135.405 105 136.987 105C137.061 105 137.119 105 137.192 105C138.933 104.903 139.952 103.74 140.049 102.624C140.131 101.713 139.82 100.931 139.173 100.415ZM147.421 100.415C146.604 99.7559 145.297 99.5771 144.049 99.9346C144.049 99.9346 144.037 99.9346 144.037 99.9492C144.025 99.9492 144.011 99.9492 143.987 99.9609L144.216 97.8135L147.456 97.8135L147.793 96.6123L143.111 96.6123L143.088 97.1396L143.076 97.1396L142.669 100.957L143.615 101.508C143.809 101.376 144.143 101.171 144.336 101.112C145.224 100.849 146.149 100.945 146.665 101.353C146.999 101.616 147.143 102 147.096 102.516C147.049 102.996 146.557 103.729 145.379 103.799C144.157 103.86 143.088 103.043 143.076 103.043L142.344 103.992C142.391 104.039 143.653 105 145.235 105C145.309 105 145.367 105 145.44 105C147.181 104.903 148.2 103.74 148.297 102.624C148.379 101.713 148.068 100.931 147.421 100.415ZM152.812 103.201L152.812 105.012L153.917 105.012L152.525 106.884L153.82 106.884L154.623 105.012L154.623 103.201L152.812 103.201ZM160.653 103.799L162.2 102.445C162.309 102.36 162.405 102.264 162.511 102.179C163.015 101.736 163.592 101.232 164.011 100.679C164.564 99.9492 164.781 99.2402 164.623 98.543C164.348 97.2598 163.184 96.5273 161.564 96.6123C160.149 96.6826 159.235 97.415 158.925 97.8369L159.883 98.5547C159.909 98.5312 160.436 97.8721 161.623 97.8135C163.064 97.7285 163.375 98.4727 163.448 98.7949C163.627 99.6123 162.572 100.535 161.72 101.268C161.611 101.364 161.503 101.449 161.409 101.543L158.84 103.799L158.816 103.825L158.816 105L164.588 105L164.251 103.799L160.653 103.799ZM172.031 103.799L170.364 103.799L170.364 96.6006L169.151 96.6006L167.329 98.0273L168.073 98.9883L169.151 98.1357L169.151 103.799L167.112 103.799L167.112 105L172.368 105L172.031 103.799ZM179.729 100.415C178.912 99.7559 177.605 99.5771 176.357 99.9346C176.357 99.9346 176.345 99.9346 176.345 99.9492C176.333 99.9492 176.319 99.9492 176.295 99.9609L176.524 97.8135L179.764 97.8135L180.101 96.6123L175.419 96.6123L175.396 97.1396L175.384 97.1396L174.977 100.957L175.923 101.508C176.117 101.376 176.451 101.171 176.644 101.112C177.532 100.849 178.457 100.945 178.973 101.353C179.307 101.616 179.451 102 179.404 102.516C179.357 102.996 178.865 103.729 177.687 103.799C176.465 103.86 175.396 103.043 175.384 103.043L174.652 103.992C174.699 104.039 175.961 105 177.543 105C177.617 105 177.675 105 177.748 105C179.489 104.903 180.508 103.74 180.605 102.624C180.687 101.713 180.376 100.931 179.729 100.415ZM188 100.547C187.593 100.104 187.016 99.8643 186.319 99.8525C185.659 99.8291 184.977 99.9961 184.353 100.333C184.183 100.427 184.016 100.535 183.872 100.644C183.872 99.9727 183.919 99.1934 184.423 98.6162C184.868 98.1006 185.504 97.585 187.435 97.8955L187.628 96.709C186.571 96.5391 185.709 96.5654 185.012 96.791C184.256 97.0547 183.787 97.5117 183.512 97.8369C182.671 98.8213 182.671 100.055 182.671 100.884L182.671 100.907C182.671 102.396 182.996 103.488 183.656 104.183C184.171 104.725 184.88 105 185.756 105C185.756 105 185.768 105 185.768 105C186.559 105 187.291 104.675 187.819 104.089C188.299 103.559 188.577 102.888 188.589 102.229C188.601 101.555 188.396 100.969 188 100.547ZM187.388 102.205C187.376 102.565 187.209 102.984 186.931 103.283C186.717 103.523 186.345 103.811 185.768 103.811C185.768 103.811 185.768 103.811 185.756 103.811C185.217 103.799 184.807 103.655 184.52 103.345C184.268 103.093 184.101 102.709 183.992 102.205C184.52 101.484 185.419 101.027 186.284 101.051C187.221 101.077 187.4 101.689 187.388 102.205ZM194.795 105.012L194.795 103.175L192.961 103.175L192.961 105.012L194.795 105.012ZM203.319 99.9609C202.961 99.9609 202.683 99.791 202.492 99.4453C202.443 99.3604 202.384 99.0469 202.469 98.4229C202.516 98.0889 202.539 97.7402 202.539 97.4033L202.539 97.3682C202.539 97.0312 202.528 96.9844 202.481 96.7207L202.469 96.624C202.311 95.7715 201.713 95.2676 200.691 95.124L200.655 95.124L200.345 95.124L200.345 96.1318L200.597 96.1318C201.233 96.2285 201.411 96.4688 201.473 96.8027L201.485 96.8994C201.52 97.1045 201.52 97.1045 201.52 97.3682L201.52 97.4033C201.52 97.7051 201.508 97.9922 201.461 98.291C201.364 99.0352 201.411 99.5889 201.605 99.9346C201.807 100.295 202.085 100.573 202.419 100.752C202.085 100.931 201.807 101.209 201.605 101.569C201.411 101.915 201.364 102.469 201.461 103.213C201.508 103.512 201.52 103.811 201.52 104.101L201.52 104.147C201.52 104.411 201.52 104.411 201.485 104.604L201.473 104.701C201.411 105.035 201.233 105.275 200.597 105.372L200.345 105.372L200.345 106.38L200.655 106.38L200.691 106.38C201.713 106.236 202.311 105.732 202.469 104.88L202.481 104.783C202.528 104.52 202.539 104.473 202.539 104.147L202.539 104.101C202.539 103.764 202.516 103.415 202.469 103.081C202.384 102.457 202.443 102.144 202.492 102.073C202.683 101.725 202.961 101.543 203.319 101.543L203.896 101.543L203.896 99.9609L203.319 99.9609Z" fill="rgb(255,255,255)" fill-rule="nonzero" />
			<path id="" d="M73.2715 114.803C73.333 114.469 73.5 114.229 74.1475 114.132L74.3877 114.132L74.3877 113.124L74.0771 113.124L74.0391 113.124C73.0195 113.268 72.4307 113.771 72.2754 114.624L72.252 114.721C72.2051 114.984 72.2051 115.031 72.2051 115.368L72.2051 115.403C72.2051 115.74 72.2285 116.089 72.2754 116.423C72.3604 117.047 72.2988 117.36 72.252 117.445C72.0586 117.791 71.7832 117.961 71.4229 117.961L70.8369 117.961L70.8369 119.543L71.4229 119.543C71.7832 119.543 72.0586 119.725 72.252 120.073C72.2988 120.144 72.3604 120.457 72.2754 121.081C72.2285 121.415 72.2051 121.764 72.2051 122.101L72.2051 122.147C72.2051 122.473 72.2051 122.52 72.252 122.783L72.2754 122.88C72.4307 123.732 73.0195 124.236 74.0391 124.38L74.0771 124.38L74.3877 124.38L74.3877 123.372L74.1475 123.372C73.5 123.275 73.333 123.035 73.2715 122.701L73.248 122.604C73.2129 122.411 73.2129 122.411 73.2129 122.147L73.2129 122.101C73.2129 121.811 73.2363 121.512 73.2715 121.213C73.3799 120.469 73.333 119.915 73.1396 119.569C72.9346 119.209 72.6475 118.931 72.3252 118.752C72.6475 118.573 72.9346 118.295 73.1396 117.935C73.333 117.589 73.3799 117.035 73.2715 116.291C73.2363 115.992 73.2129 115.705 73.2129 115.403L73.2129 115.368C73.2129 115.104 73.2129 115.104 73.248 114.899L73.2715 114.803ZM79.6972 121.799L81.2441 120.445C81.3525 120.36 81.4492 120.264 81.5546 120.179C82.0585 119.736 82.6357 119.232 83.0546 118.679C83.6084 117.949 83.8251 117.24 83.6669 116.543C83.3916 115.26 82.2285 114.527 80.6084 114.612C79.1933 114.683 78.2793 115.415 77.9687 115.837L78.9267 116.555C78.9531 116.531 79.4804 115.872 80.6669 115.813C82.1084 115.729 82.4189 116.473 82.4921 116.795C82.6709 117.612 81.6162 118.535 80.7636 119.268C80.6552 119.364 80.5468 119.449 80.4531 119.543L77.8837 121.799L77.8603 121.825L77.8603 123L83.6318 123L83.2949 121.799L79.6972 121.799ZM91.0753 121.799L89.4083 121.799L89.4083 114.601L88.1954 114.601L86.3732 116.027L87.1173 116.988L88.1954 116.136L88.1954 121.799L86.1564 121.799L86.1564 123L91.4122 123L91.0753 121.799ZM95.8692 121.799L97.4161 120.445C97.5245 120.36 97.6212 120.264 97.7266 120.179C98.2305 119.736 98.8077 119.232 99.2266 118.679C99.7803 117.949 99.9971 117.24 99.8389 116.543C99.5636 115.26 98.4005 114.527 96.7803 114.612C95.3653 114.683 94.4512 115.415 94.1407 115.837L95.0987 116.555C95.1251 116.531 95.6524 115.872 96.8389 115.813C98.2803 115.729 98.5909 116.473 98.6641 116.795C98.8428 117.612 97.7882 118.535 96.9356 119.268C96.8272 119.364 96.7188 119.449 96.6251 119.543L94.0557 121.799L94.0323 121.825L94.0323 123L99.8038 123L99.4669 121.799L95.8692 121.799ZM107.38 118.547C106.973 118.104 106.396 117.864 105.699 117.853C105.039 117.829 104.357 117.996 103.733 118.333C103.563 118.427 103.396 118.535 103.252 118.644C103.252 117.973 103.299 117.193 103.803 116.616C104.248 116.101 104.884 115.585 106.815 115.896L107.008 114.709C105.951 114.539 105.089 114.565 104.392 114.791C103.636 115.055 103.167 115.512 102.892 115.837C102.051 116.821 102.051 118.055 102.051 118.884L102.051 118.907C102.051 120.396 102.376 121.488 103.036 122.183C103.551 122.725 104.26 123 105.136 123C105.136 123 105.148 123 105.148 123C105.939 123 106.671 122.675 107.199 122.089C107.679 121.559 107.957 120.888 107.969 120.229C107.981 119.555 107.776 118.969 107.38 118.547ZM106.768 120.205C106.756 120.565 106.589 120.984 106.311 121.283C106.097 121.523 105.725 121.811 105.148 121.811C105.148 121.811 105.148 121.811 105.136 121.811C104.597 121.799 104.187 121.655 103.9 121.345C103.648 121.093 103.481 120.709 103.372 120.205C103.9 119.484 104.799 119.027 105.663 119.051C106.601 119.077 106.78 119.689 106.768 120.205ZM112.496 121.201L112.496 123.012L113.601 123.012L112.209 124.884L113.504 124.884L114.307 123.012L114.307 121.201L112.496 121.201ZM120.337 121.799L121.884 120.445C121.992 120.36 122.089 120.264 122.195 120.179C122.699 119.736 123.276 119.232 123.695 118.679C124.248 117.949 124.465 117.24 124.307 116.543C124.032 115.26 122.868 114.527 121.248 114.612C119.833 114.683 118.919 115.415 118.609 115.837L119.567 116.555C119.593 116.531 120.12 115.872 121.307 115.813C122.748 115.729 123.059 116.473 123.132 116.795C123.311 117.612 122.256 118.535 121.404 119.268C121.295 119.364 121.187 119.449 121.093 119.543L118.524 121.799L118.5 121.825L118.5 123L124.272 123L123.935 121.799L120.337 121.799ZM131.715 121.799L130.048 121.799L130.048 114.601L128.835 114.601L127.013 116.027L127.757 116.988L128.835 116.136L128.835 121.799L126.796 121.799L126.796 123L132.052 123L131.715 121.799ZM139.748 119.88L139.256 119.88L139.256 114.601L138.043 114.601L134.179 119.868L134.179 119.88L134.167 119.88L134.167 121.081L138.055 121.081L138.055 123L139.256 123L139.256 121.081L140.085 121.081L139.748 119.88ZM138.055 119.88L135.667 119.88L138.055 116.628L138.055 119.88ZM147.348 118.547C146.941 118.104 146.364 117.864 145.667 117.853C145.007 117.829 144.325 117.996 143.701 118.333C143.531 118.427 143.364 118.535 143.22 118.644C143.22 117.973 143.267 117.193 143.771 116.616C144.216 116.101 144.852 115.585 146.783 115.896L146.976 114.709C145.919 114.539 145.057 114.565 144.36 114.791C143.604 115.055 143.135 115.512 142.86 115.837C142.019 116.821 142.019 118.055 142.019 118.884L142.019 118.907C142.019 120.396 142.344 121.488 143.004 122.183C143.519 122.725 144.228 123 145.104 123C145.104 123 145.116 123 145.116 123C145.907 123 146.639 122.675 147.167 122.089C147.647 121.559 147.925 120.888 147.937 120.229C147.949 119.555 147.744 118.969 147.348 118.547ZM146.736 120.205C146.724 120.565 146.557 120.984 146.279 121.283C146.065 121.523 145.693 121.811 145.116 121.811C145.116 121.811 145.116 121.811 145.104 121.811C144.565 121.799 144.155 121.655 143.868 121.345C143.616 121.093 143.449 120.709 143.34 120.205C143.868 119.484 144.767 119.027 145.631 119.051C146.569 119.077 146.748 119.689 146.736 120.205ZM152.464 121.201L152.464 123.012L153.569 123.012L152.177 124.884L153.472 124.884L154.275 123.012L154.275 121.201L152.464 121.201ZM160.305 121.799L161.852 120.445C161.96 120.36 162.057 120.264 162.163 120.179C162.667 119.736 163.244 119.232 163.663 118.679C164.216 117.949 164.433 117.24 164.275 116.543C164 115.26 162.836 114.527 161.216 114.612C159.801 114.683 158.887 115.415 158.577 115.837L159.535 116.555C159.561 116.531 160.088 115.872 161.275 115.813C162.716 115.729 163.027 116.473 163.1 116.795C163.279 117.612 162.224 118.535 161.372 119.268C161.263 119.364 161.155 119.449 161.061 119.543L158.492 121.799L158.468 121.825L158.468 123L164.24 123L163.903 121.799L160.305 121.799ZM171.683 121.799L170.016 121.799L170.016 114.601L168.803 114.601L166.981 116.027L167.725 116.988L168.803 116.136L168.803 121.799L166.764 121.799L166.764 123L172.02 123L171.683 121.799ZM179.524 118.547C179.117 118.104 178.54 117.864 177.843 117.853C177.183 117.829 176.501 117.996 175.877 118.333C175.707 118.427 175.54 118.535 175.396 118.644C175.396 117.973 175.443 117.193 175.947 116.616C176.392 116.101 177.028 115.585 178.959 115.896L179.152 114.709C178.095 114.539 177.233 114.565 176.536 114.791C175.78 115.055 175.311 115.512 175.036 115.837C174.195 116.821 174.195 118.055 174.195 118.884L174.195 118.907C174.195 120.396 174.52 121.488 175.18 122.183C175.695 122.725 176.404 123 177.28 123C177.28 123 177.292 123 177.292 123C178.083 123 178.815 122.675 179.343 122.089C179.823 121.559 180.101 120.888 180.113 120.229C180.125 119.555 179.92 118.969 179.524 118.547ZM178.912 120.205C178.9 120.565 178.733 120.984 178.455 121.283C178.241 121.523 177.869 121.811 177.292 121.811C177.292 121.811 177.292 121.811 177.28 121.811C176.741 121.799 176.331 121.655 176.044 121.345C175.792 121.093 175.625 120.709 175.516 120.205C176.044 119.484 176.943 119.027 177.807 119.051C178.745 119.077 178.924 119.689 178.912 120.205ZM187.556 118.547C187.149 118.104 186.572 117.864 185.875 117.853C185.215 117.829 184.533 117.996 183.909 118.333C183.739 118.427 183.572 118.535 183.428 118.644C183.428 117.973 183.475 117.193 183.979 116.616C184.424 116.101 185.06 115.585 186.991 115.896L187.184 114.709C186.127 114.539 185.265 114.565 184.568 114.791C183.812 115.055 183.343 115.512 183.068 115.837C182.227 116.821 182.227 118.055 182.227 118.884L182.227 118.907C182.227 120.396 182.552 121.488 183.212 122.183C183.727 122.725 184.436 123 185.312 123C185.312 123 185.324 123 185.324 123C186.115 123 186.847 122.675 187.375 122.089C187.855 121.559 188.133 120.888 188.145 120.229C188.157 119.555 187.952 118.969 187.556 118.547ZM186.944 120.205C186.932 120.565 186.765 120.984 186.487 121.283C186.273 121.523 185.901 121.811 185.324 121.811C185.324 121.811 185.324 121.811 185.312 121.811C184.773 121.799 184.363 121.655 184.076 121.345C183.824 121.093 183.657 120.709 183.548 120.205C184.076 119.484 184.975 119.027 185.839 119.051C186.777 119.077 186.956 119.689 186.944 120.205ZM194.351 123.012L194.351 121.175L192.517 121.175L192.517 123.012L194.351 123.012ZM202.875 117.961C202.517 117.961 202.239 117.791 202.048 117.445C201.999 117.36 201.94 117.047 202.025 116.423C202.072 116.089 202.095 115.74 202.095 115.403L202.095 115.368C202.095 115.031 202.084 114.984 202.037 114.721L202.025 114.624C201.867 113.771 201.269 113.268 200.247 113.124L200.211 113.124L199.901 113.124L199.901 114.132L200.153 114.132C200.789 114.229 200.967 114.469 201.029 114.803L201.041 114.899C201.076 115.104 201.076 115.104 201.076 115.368L201.076 115.403C201.076 115.705 201.064 115.992 201.017 116.291C200.92 117.035 200.967 117.589 201.161 117.935C201.363 118.295 201.641 118.573 201.975 118.752C201.641 118.931 201.363 119.209 201.161 119.569C200.967 119.915 200.92 120.469 201.017 121.213C201.064 121.512 201.076 121.811 201.076 122.101L201.076 122.147C201.076 122.411 201.076 122.411 201.041 122.604L201.029 122.701C200.967 123.035 200.789 123.275 200.153 123.372L199.901 123.372L199.901 124.38L200.211 124.38L200.247 124.38C201.269 124.236 201.867 123.732 202.025 122.88L202.037 122.783C202.084 122.52 202.095 122.473 202.095 122.147L202.095 122.101C202.095 121.764 202.072 121.415 202.025 121.081C201.94 120.457 201.999 120.144 202.048 120.073C202.239 119.725 202.517 119.543 202.875 119.543L203.452 119.543L203.452 117.961L202.875 117.961Z" fill="rgb(255,255,255)" fill-rule="nonzero" />
		</g>
	</g>
</svg>
