<svg viewBox="0 0 226 214" xmlns="http://www.w3.org/2000/svg" xmlns:xlink="http://www.w3.org/1999/xlink" width="226.000000" height="214.000000" fill="none" customFrame="url(#clipPath_20)">
	<defs>
		<clipPath id="clipPath_20">
			<rect width="210.000000" height="214.000000" x="8.000000" y="0.000000" rx="14.000000" fill="rgb(255,255,255)" />
		</clipPath>
		<clipPath id="clipPath_21">
			<rect width="131.000000" height="22.000000" x="16.000000" y="8.000000" fill="rgb(255,255,255)" />
		</clipPath>
		<clipPath id="clipPath_22">
			<rect width="42.000000" height="22.000000" x="16.000000" y="8.000000" rx="7.000000" fill="rgb(255,255,255)" />
		</clipPath>
		<clipPath id="clipPath_23">
			<rect width="85.000000" height="22.000000" x="62.000000" y="8.000000" rx="7.000000" fill="rgb(255,255,255)" />
		</clipPath>
		<g id="pixso_custom_effect_7">
			<effect x="0.000000" y="1.000000" visibility="visible" fill="rgb(255,255,255)" fill-opacity="0.25" effectType="innerShadow" stdDeviation="12" radius="0" />
			<effect x="0.000000" y="4.000000" visibility="visible" fill="rgb(0,0,0)" fill-opacity="0.400000006" effectType="dropShadow" stdDeviation="16" radius="0" />
			<effect x="0.000000" y="0.000000" visibility="visible" fill="rgb(255,255,255)" fill-opacity="0.25" effectType="innerShadow" stdDeviation="4" radius="0" />
		</g>
		<filter id="filter_7" width="226.000000" height="110.000000" x="0.000000" y="26.000000" filterUnits="userSpaceOnUse" customEffect="url(#pixso_custom_effect_7)" color-interpolation-filters="sRGB">
			<feFlood flood-opacity="0" result="BackgroundImageFix" />
			<feColorMatrix result="hardAlpha" in="SourceAlpha" type="matrix" values="0 0 0 0 0 0 0 0 0 0 0 0 0 0 0 0 0 0 127 0 " />
			<feOffset dx="0.000000" dy="4.000000" in="hardAlpha" />
			<feGaussianBlur stdDeviation="5.33333349" />
			<feComposite k2="-1" k3="1" in2="hardAlpha" operator="out" />
			<feColorMatrix type="matrix" values="0 0 0 0 0 0 0 0 0 0 0 0 0 0 0 0 0 0 0.4 0 " />
			<feBlend result="effect_dropShadow_1" in2="BackgroundImageFix" mode="normal" />
			<feBlend result="shape" in="SourceGraphic" in2="effect_dropShadow_1" mode="normal" />
			<feColorMatrix result="hardAlpha" in="SourceAlpha" type="matrix" values="0 0 0 0 0 0 0 0 0 0 0 0 0 0 0 0 0 0 127 0 " />
			<feOffset dx="0.000000" dy="1.000000" in="hardAlpha" />
			<feGaussianBlur stdDeviation="4" />
			<feComposite k2="-1" k3="1" in2="hardAlpha" operator="arithmetic" />
			<feColorMatrix type="matrix" values="0 0 0 0 1 0 0 0 0 1 0 0 0 0 1 0 0 0 0.25 0 " />
			<feBlend result="effect_innerShadow_2" in2="shape" mode="normal" />
			<feColorMatrix result="hardAlpha" in="SourceAlpha" type="matrix" values="0 0 0 0 0 0 0 0 0 0 0 0 0 0 0 0 0 0 127 0 " />
			<feOffset dx="0.000000" dy="0.000000" in="hardAlpha" />
			<feGaussianBlur stdDeviation="1.33333337" />
			<feComposite k2="-1" k3="1" in2="hardAlpha" operator="arithmetic" />
			<feColorMatrix type="matrix" values="0 0 0 0 1 0 0 0 0 1 0 0 0 0 1 0 0 0 0.25 0 " />
			<feBlend result="effect_innerShadow_3" in2="effect_innerShadow_2" mode="normal" />
		</filter>
		<linearGradient id="paint_linear_6" x1="113" x2="113" y1="38" y2="116" gradientUnits="userSpaceOnUse">
			<stop stop-color="rgb(0,0,0)" offset="0" stop-opacity="0" />
			<stop stop-color="rgb(0,0,0)" offset="1" stop-opacity="1" />
		</linearGradient>
		<linearGradient id="paint_linear_7" x1="112.616592" x2="114.665192" y1="0.772724152" y2="115.970398" gradientUnits="userSpaceOnUse">
			<stop stop-color="rgb(255,255,255)" offset="0" stop-opacity="1" />
			<stop stop-color="rgb(255,255,255)" offset="1" stop-opacity="0" />
		</linearGradient>
		<clipPath id="clipPath_24">
			<rect width="194.000000" height="78.000000" x="16.000000" y="38.000000" rx="16.000000" fill="rgb(255,255,255)" />
		</clipPath>
		<radialGradient id="paint_radial_1" cx="0" cy="0" r="1" gradientUnits="userSpaceOnUse" gradientTransform="matrix(0.0428242,-56.8713,143.449,0.108017,111.951,42.25)">
			<stop stop-color="rgb(255,255,255)" offset="0.3037889" stop-opacity="0" />
			<stop stop-color="rgb(255,255,255)" offset="1" stop-opacity="0.5" />
		</radialGradient>
		<g id="pixso_custom_effect_8">
			<effect visibility="visible" effectType="gaussianBlur" stdDeviation="15" />
		</g>
		<filter id="filter_8" width="194.000000" height="29.000000" x="16.000000" y="83.000000" filterUnits="userSpaceOnUse" customEffect="url(#pixso_custom_effect_8)" color-interpolation-filters="sRGB">
			<feFlood flood-opacity="0" result="BackgroundImageFix" />
			<feBlend result="shape" in="SourceGraphic" in2="BackgroundImageFix" mode="normal" />
			<feGaussianBlur stdDeviation="5" result="effect_layerBlur_1" />
		</filter>
		<linearGradient id="paint_linear_8" x1="113.000023" x2="113.000023" y1="112" y2="88.9862366" gradientUnits="userSpaceOnUse">
			<stop stop-color="rgb(0,0,0)" offset="0" stop-opacity="0.400000006" />
			<stop stop-color="rgb(0,0,0)" offset="1" stop-opacity="0" />
		</linearGradient>
		<clipPath id="clipPath_25">
			<rect width="194.000000" height="82.000000" x="16.000000" y="124.000000" fill="rgb(255,255,255)" />
		</clipPath>
		<clipPath id="clipPath_26">
			<rect width="49.000000" height="78.000000" x="28.000000" y="124.000000" fill="rgb(255,255,255)" />
		</clipPath>
		<clipPath id="clipPath_27">
			<rect width="115.000000" height="82.000000" x="83.000000" y="124.000000" fill="rgb(255,255,255)" />
		</clipPath>
	</defs>
	<rect id="属性 1=tensor, 属性 2=L" width="210.000000" height="214.000000" x="8.000000" y="0.000000" rx="14.000000" fill="rgb(59,59,59)" />
	<g id="容器 91333149" customFrame="url(#clipPath_21)">
		<rect id="容器 91333149" width="131.000000" height="22.000000" x="16.000000" y="8.000000" />
		<g id="容器 91333143" customFrame="url(#clipPath_22)">
			<rect id="容器 91333143" width="42.000000" height="22.000000" x="16.000000" y="8.000000" rx="7.000000" fill="rgb(255,255,255)" fill-opacity="0" />
			<rect id="容器 91333143" width="41.000000" height="21.000000" x="16.500000" y="8.500000" rx="6.500000" stroke="rgb(255,255,255)" stroke-opacity="0.100000001" stroke-width="1" />
			<path id="" d="M28.6734 21.6553L28.6353 21.5352L25.4917 21.5352L26.6548 20.5039C26.7515 20.4189 26.8599 20.3369 26.9448 20.252C27.437 19.8213 27.9995 19.3408 28.4214 18.7871C28.9722 18.0547 29.189 17.3252 29.0308 16.6045C28.8989 15.9922 28.565 15.4883 28.0493 15.1396C27.5571 14.791 26.895 14.6123 26.1626 14.6123C26.0923 14.6123 26.0073 14.6123 25.9253 14.624C25.3013 14.6475 24.7124 14.8174 24.1968 15.1045C23.6431 15.4033 23.3677 15.7402 23.271 15.8604L23.1773 15.9922L23.2974 16.0889L24.2202 16.7832L24.3286 16.8682L24.437 16.7598C24.4487 16.748 24.5689 16.6045 24.8208 16.4492C25.1548 16.2324 25.5532 16.124 25.9956 16.1006C26.0689 16.0889 26.1275 16.0889 26.189 16.0889C26.6695 16.0889 27.0386 16.1973 27.2905 16.4229C27.4839 16.5928 27.5571 16.7832 27.5806 16.915C27.6509 17.2168 27.5073 17.5654 27.1587 17.9961C26.8364 18.3916 26.3794 18.7871 25.9722 19.1357C25.8872 19.2207 25.7671 19.3174 25.6734 19.3994L23.2007 21.5732L23.189 21.585L23.1275 21.6318L23.1275 23.0117L29.0454 23.0117L28.9956 22.8066L28.6734 21.6553ZM36.0154 22.8066L35.6931 21.6436L35.6668 21.5234L34.0964 21.5234L34.0964 14.6123L32.7166 14.6123L32.6814 14.6475L30.9148 16.0156L30.783 16.124L30.8914 16.2441L31.6004 17.1553L31.697 17.2871L31.8289 17.1787L32.6082 16.5693L32.6082 21.5234L30.6511 21.5234L30.6511 23L36.0769 23L36.0154 22.8066ZM42.7715 18.3066C42.2324 17.876 41.4883 17.6357 40.6475 17.6357C40.2871 17.6357 39.9268 17.6826 39.5547 17.7793L39.748 16.1006L42.833 16.1006L42.8682 15.9805L43.1787 14.8174L43.2402 14.6123L38.3799 14.6123L38.3799 14.7676L38.3447 15.2246L38.3447 15.2715L37.9492 18.9307L37.9346 19.0391L38.0195 19.0889L38.9307 19.6279L39.0273 19.6748L39.1123 19.6162C39.3027 19.4844 39.6045 19.3027 39.7598 19.2559C40.0586 19.1709 40.3721 19.124 40.6592 19.124C41.1514 19.124 41.5732 19.2441 41.8486 19.4609C42.124 19.6895 42.2324 20 42.1973 20.4453C42.1592 20.8408 41.7285 21.4648 40.6973 21.5234C40.6592 21.5234 40.6123 21.5234 40.5771 21.5234C39.5195 21.5234 38.6084 20.8408 38.5967 20.8291L38.4766 20.7324L38.3682 20.8643L37.6592 21.7754L37.5654 21.8955L37.6826 22.0039C37.7441 22.0391 39.0039 23 40.5771 23C40.6475 23 40.709 23 40.7793 23C42.543 22.9033 43.5771 21.7051 43.6709 20.5771C43.7559 19.6396 43.4307 18.8369 42.7715 18.3066ZM50.0315 18.3066C49.4924 17.876 48.7483 17.6357 47.9075 17.6357C47.5471 17.6357 47.1868 17.6826 46.8147 17.7793L47.008 16.1006L50.093 16.1006L50.1282 15.9805L50.4387 14.8174L50.5002 14.6123L45.6399 14.6123L45.6399 14.7676L45.6047 15.2246L45.6047 15.2715L45.2092 18.9307L45.1946 19.0391L45.2795 19.0889L46.1907 19.6279L46.2873 19.6748L46.3723 19.6162C46.5627 19.4844 46.8645 19.3027 47.0198 19.2559C47.3186 19.1709 47.6321 19.124 47.9192 19.124C48.4114 19.124 48.8332 19.2441 49.1086 19.4609C49.384 19.6895 49.4924 20 49.4573 20.4453C49.4192 20.8408 48.9885 21.4648 47.9573 21.5234C47.9192 21.5234 47.8723 21.5234 47.8372 21.5234C46.7795 21.5234 45.8684 20.8408 45.8567 20.8291L45.7366 20.7324L45.6282 20.8643L44.9192 21.7754L44.8254 21.8955L44.9426 22.0039C45.0041 22.0391 46.2639 23 47.8372 23C47.9075 23 47.969 23 48.0393 23C49.803 22.9033 50.8372 21.7051 50.9309 20.5771C51.0159 19.6396 50.6907 18.8369 50.0315 18.3066Z" fill="rgb(255,255,255)" fill-rule="nonzero" />
		</g>
		<g id="容器 91333142" customFrame="url(#clipPath_23)">
			<rect id="容器 91333142" width="85.000000" height="22.000000" x="62.000000" y="8.000000" rx="7.000000" fill="rgb(255,255,255)" fill-opacity="0" />
			<rect id="容器 91333142" width="84.000000" height="21.000000" x="62.500000" y="8.500000" rx="6.500000" stroke="rgb(255,255,255)" stroke-opacity="0.100000001" stroke-width="1" />
			<path id="" d="M74.9368 20.5391C74.8899 20 74.6262 19.543 74.2073 19.209C73.8821 18.957 73.4866 18.7754 73.0061 18.6201L72.971 18.6084L72.9329 18.5967L72.8743 18.585L72.8128 18.5586L72.7424 18.5352L72.6692 18.5234L72.5608 18.5L72.4407 18.4648L72.2151 18.4033L71.843 18.3066L71.8313 18.3066L71.7932 18.2949L71.7698 18.2832C70.8352 17.9844 70.4133 17.6006 70.3665 17.1553C70.3049 16.5693 70.9905 15.8955 71.9133 15.8252C72.3469 15.7871 72.8626 15.8604 73.2815 16.0273C73.4983 16.1123 73.7151 16.1973 73.9055 16.2793L74.7464 15.3799L74.7581 15.3447L74.6965 15.3066L74.6145 15.2715L74.5794 15.248L74.5296 15.2246L74.4592 15.2012C74.219 15.0928 73.9671 14.9844 73.7034 14.8877C73.1262 14.6592 72.429 14.5654 71.8167 14.6123C70.2698 14.7441 69.0335 15.957 69.177 17.2871C69.2854 18.2949 70.0647 19.0156 71.4094 19.4492C71.4446 19.4609 71.471 19.4727 71.5061 19.4727L71.7698 19.543L72.1419 19.6396L72.3089 19.6748L72.3938 19.7012L72.4553 19.7246L72.5257 19.748L72.5872 19.7598L72.6223 19.7715L72.6458 19.7715L72.6926 19.7949L72.7307 19.8066L72.7776 19.8213C72.7776 19.8213 72.7893 19.8213 72.7893 19.833L72.8391 19.8447L72.8743 19.8564C72.9094 19.8682 72.9329 19.8799 72.971 19.8916L73.0061 19.9033C73.0061 19.9033 73.0178 19.915 73.0178 19.915L73.053 19.9268L73.0911 19.9414C73.1145 19.9531 73.138 19.9648 73.1614 19.9883L73.1965 20C73.5452 20.1787 73.7268 20.3955 73.7503 20.6475C73.7737 20.9609 73.677 21.2246 73.4749 21.415C73.2112 21.6436 72.7776 21.7871 72.177 21.7871C71.3977 21.7871 70.3167 21.5469 69.6458 21.1631L69.0452 22.2207L69.0833 22.2324C69.9592 22.7246 71.219 23 72.177 23C73.053 23 73.7737 22.7715 74.2776 22.3174C74.7698 21.8604 75.01 21.2246 74.9368 20.5391ZM80.7815 16.4492L80.7815 20.8994C80.3977 21.3916 79.7385 21.8604 78.7307 21.8604C78.7307 21.8604 78.6106 21.8604 78.5988 21.8604C77.8781 21.7988 77.5647 21.0693 77.5178 20.4688C77.4826 20.1553 77.4826 19.7598 77.4826 19.6748L77.4826 16.4492L76.3313 16.4492L76.3313 19.6748C76.3313 19.7715 76.343 20.2168 76.3664 20.5654C76.425 21.1631 76.6301 21.7168 76.9406 22.1357C77.3391 22.6514 77.8781 22.9531 78.5139 23C78.5754 23.0117 78.7307 23 78.7307 23C79.4514 23 80.134 22.6748 80.7815 22.2207L80.7815 23L81.9328 23L81.9328 16.4492L80.7815 16.4492ZM88.797 17.1318C88.3781 16.6748 87.7775 16.4346 87.0099 16.4229C86.3976 16.4111 85.6886 16.7832 85.0412 17.2754L85.0412 13.6514L83.8547 13.6514L83.8547 23C83.8547 23 85.0177 23 85.1261 23C85.2697 23 85.4513 23.0117 85.6652 23C86.1222 22.9766 86.758 22.915 87.1886 22.7598C88.6418 22.2324 89.4211 21.1631 89.4826 19.5928C89.5295 18.4766 89.3127 17.6709 88.797 17.1318ZM88.2931 19.543C88.2345 20.9346 87.4552 21.3916 86.7814 21.6318C86.3742 21.7871 85.4865 21.8252 85.0412 21.8252L85.0412 18.3564C85.3898 18.0312 86.1222 17.5771 86.9367 17.5771C86.9513 17.5771 86.9513 17.5771 86.9631 17.5889C87.3937 17.5889 87.7306 17.7324 87.9328 17.9492C88.2111 18.2363 88.3312 18.7754 88.2931 19.543ZM96.2267 22.9268C95.673 21.9922 94.2111 21.8604 92.6612 21.8604L93.0099 21.2246C93.1417 21.2363 93.4288 21.248 93.5607 21.248C95.1456 21.248 96.382 20.1787 96.382 18.8369C96.382 18.1045 96.0831 17.4805 95.5294 17.0352C95.8546 16.8916 96.2032 16.7129 96.2032 16.7129L96.13 15.4414L96.0831 15.4648C95.0607 16.0039 94.4132 16.3027 93.8859 16.4346C93.7775 16.4229 93.6691 16.4229 93.5607 16.4229C92.7111 16.4229 92.0021 16.6631 91.4864 17.1201C90.9943 17.5508 90.7306 18.1631 90.7306 18.8369C90.7306 19.6514 91.1993 20.4072 91.9903 20.8525L90.9591 22.1357L91.3898 23.0469C91.3898 23.0469 91.7501 22.9883 91.9405 22.9766C92.5411 22.9414 93.2384 22.9033 93.921 22.9883C94.8702 23.0967 95.1456 23.3486 95.2423 23.4688C95.3741 23.624 95.3859 23.8643 95.2892 24.0312C95.0138 24.5352 93.6954 24.6201 93.4288 24.6318C92.1222 24.7051 91.5333 24.4766 91.3663 24.415L91.2696 24.3799L90.839 25.4492L90.921 25.4844C91.1612 25.5928 91.6066 25.7715 92.9864 25.7715C93.1417 25.7715 93.297 25.7715 93.4669 25.7598C94.4747 25.7363 95.7931 25.5195 96.3087 24.5967C96.587 24.0928 96.5607 23.5039 96.2267 22.9268ZM91.8937 18.8369C91.8937 18.5 92.0255 18.2012 92.2657 17.9844C92.5528 17.7207 93.0099 17.5771 93.5607 17.5771C94.1144 17.5771 94.5568 17.7207 94.8585 17.9844C95.0987 18.2012 95.2189 18.5 95.2189 18.8369C95.2189 19.5312 94.4864 20.085 93.5607 20.085C92.6261 20.085 91.8937 19.5312 91.8937 18.8369ZM103.27 17.0234C102.862 16.6279 102.309 16.4492 101.685 16.4844C100.917 16.5312 100.114 17.0117 99.4288 17.6592L99.4288 16.4492L98.2774 16.4492L98.2774 23.0117L99.4288 23.0117L99.4288 19.2324C99.4669 19.1357 99.6954 18.7402 100.126 18.3213C100.51 17.9492 101.049 17.6123 101.758 17.6357C102.057 17.6357 102.297 17.709 102.49 17.8643C102.669 18.0078 102.827 18.248 102.827 18.4648L102.827 18.5234L103.905 18.1631C103.809 17.7324 103.595 17.3252 103.27 17.0234ZM110.602 22.9268C110.591 22.8682 110.567 22.7598 110.541 22.6514C110.482 22.3525 110.409 21.9453 110.385 21.7988C110.362 21.6084 110.362 21.2598 110.362 21.1396L110.385 18.9688C110.385 18.8721 110.397 18.5352 110.303 18.1514C110.145 17.5039 109.797 17.0732 109.222 16.7715C108.25 16.2559 106.618 16.3408 105.502 16.8447L105.443 16.8682L105.921 17.9492L105.982 17.9229C106.797 17.5654 107.901 17.3369 108.73 17.8525C109.319 18.2246 109.199 18.8838 109.199 18.8955L109.199 19.3525C108.707 19.1826 107.963 18.8105 107.002 19.0156C106.055 19.209 105.335 19.833 105.13 20.6357C104.951 21.3564 105.153 21.8721 105.358 22.1592C105.683 22.6162 106.222 22.915 106.87 22.9883C106.978 23 107.098 23 107.218 23C107.901 23 108.742 22.6162 109.281 22.1973C109.331 22.4844 109.389 22.9766 109.389 22.9766L109.389 23L110.614 23L110.602 22.9268ZM109.173 21.2949C108.754 21.667 108.153 22.1475 106.99 21.9688C106.703 21.9307 106.451 21.752 106.342 21.5234C106.258 21.3799 106.222 21.1631 106.281 20.9229C106.389 20.4922 106.858 20.1436 107.254 20.0352C107.842 19.8799 108.311 19.9414 109.173 20.167L109.187 20.4072L109.173 21.2949ZM117.431 17.1318C117.009 16.6748 116.397 16.4346 115.641 16.4229C115.029 16.4111 114.311 16.6045 113.675 17.085L113.675 16.4229L112.486 16.4229L112.486 25.7832L113.675 25.7832L113.675 23.0352C114.25 23.0352 115.222 23 115.811 22.7949C117.261 22.3027 118.067 21.2012 118.126 19.6162C118.175 18.4883 117.959 17.6709 117.431 17.1318ZM116.927 19.5547C116.878 20.6592 116.397 21.3213 115.413 21.6553C114.982 21.8105 114.045 21.8252 113.675 21.8369L113.675 18.1748C114.141 17.7441 114.982 17.5508 115.594 17.5508C115.606 17.5508 115.606 17.5508 115.618 17.5508C116.051 17.5654 116.362 17.7441 116.555 17.9492C116.842 18.248 116.963 18.7871 116.927 19.5547ZM125.242 19.3291C125.242 18.333 125.002 17.5771 124.509 17.085C124.09 16.6631 123.502 16.4346 122.757 16.4229C122.145 16.4111 121.413 16.7832 120.789 17.2402L120.789 13.6514L119.602 13.6514L119.602 23L120.789 23L120.789 18.6201C121.017 18.415 121.917 17.6123 122.722 17.6123C122.722 17.6123 122.734 17.6123 122.746 17.6123C123.165 17.624 123.466 17.7207 123.657 17.9229C123.923 18.1895 124.055 18.6553 124.055 19.3291C124.055 19.376 124.055 22.9033 124.055 22.9414L124.055 23L125.242 23L125.242 19.3291ZM131.866 19.5078L131.866 18.3682L127.583 18.3682L127.583 19.5078L131.866 19.5078Z" fill="rgb(255,255,255)" fill-opacity="0.5" fill-rule="nonzero" />
			<path id="" d="M139.583 15.9805C139.043 15.0811 138.141 14.6123 136.978 14.6123C135.815 14.6123 134.913 15.0811 134.374 15.9805C133.955 16.6748 133.738 17.6006 133.738 18.8105C133.738 19.9766 133.978 20.9346 134.423 21.6436C134.986 22.5312 135.874 23 136.978 23C138.083 23 138.97 22.5312 139.533 21.6436C139.978 20.9346 140.218 19.9766 140.218 18.8105C140.218 17.6006 140.001 16.6748 139.583 15.9805ZM138.285 20.8291C137.998 21.2832 137.579 21.5 136.978 21.5C136.377 21.5 135.958 21.2832 135.671 20.8291C135.381 20.3721 135.226 19.6748 135.214 18.8252L135.214 18.7871C135.214 18.6553 135.226 18.5352 135.226 18.415L135.226 18.3564L135.238 18.2949C135.238 18.2363 135.238 18.1748 135.25 18.1162L135.25 18.0547L135.25 18.0312L135.261 17.9844C135.323 17.457 135.443 17.0469 135.622 16.748C135.909 16.291 136.319 16.0889 136.978 16.0889C137.637 16.0889 138.059 16.291 138.334 16.748C138.513 17.0469 138.633 17.457 138.695 17.9844L138.707 18.0312L138.707 18.0547L138.707 18.1162C138.718 18.1748 138.718 18.2363 138.718 18.2949L138.73 18.3564L138.73 18.415C138.73 18.5352 138.742 18.6553 138.742 18.7871C138.742 19.6631 138.586 20.3721 138.285 20.8291ZM137.734 19.5928L137.734 18.0195L136.222 18.0195L136.222 19.5928L137.734 19.5928Z" fill="rgb(255,255,255)" fill-opacity="0.5" fill-rule="nonzero" />
			<path id="" d="M139.583 15.9805C139.043 15.0811 138.141 14.6123 136.978 14.6123C135.815 14.6123 134.913 15.0811 134.374 15.9805C133.955 16.6748 133.738 17.6006 133.738 18.8105C133.738 19.9766 133.978 20.9346 134.423 21.6436C134.986 22.5312 135.874 23 136.978 23C138.083 23 138.97 22.5312 139.533 21.6436C139.978 20.9346 140.218 19.9766 140.218 18.8105C140.218 17.6006 140.001 16.6748 139.583 15.9805ZM138.285 20.8291C137.998 21.2832 137.579 21.5 136.978 21.5C136.377 21.5 135.958 21.2832 135.671 20.8291C135.381 20.3721 135.226 19.6748 135.214 18.8252L135.214 18.7871C135.214 18.6553 135.226 18.5352 135.226 18.415L135.226 18.3564L135.238 18.2949C135.238 18.2363 135.238 18.1748 135.25 18.1162L135.25 18.0547L135.25 18.0312L135.261 17.9844C135.323 17.457 135.443 17.0469 135.622 16.748C135.909 16.291 136.319 16.0889 136.978 16.0889C137.637 16.0889 138.059 16.291 138.334 16.748C138.513 17.0469 138.633 17.457 138.695 17.9844L138.707 18.0312L138.707 18.0547L138.707 18.1162C138.718 18.1748 138.718 18.2363 138.718 18.2949L138.73 18.3564L138.73 18.415C138.73 18.5352 138.742 18.6553 138.742 18.7871C138.742 19.6631 138.586 20.3721 138.285 20.8291ZM137.734 19.5928L137.734 18.0195L136.222 18.0195L136.222 19.5928L137.734 19.5928Z" fill="rgb(223,223,223)" fill-rule="nonzero" />
		</g>
	</g>
	<g filter="url(#filter_7)">
		<g id="容器 91333081" clip-path="url(#clipPath_24)" customFrame="url(#clipPath_24)">
			<rect id="容器 91333081" width="194.000000" height="78.000000" x="16.000000" y="38.000000" rx="16.000000" fill="rgb(53,119,246)" />
			<rect id="容器 91333081" width="194.000000" height="78.000000" x="16.000000" y="38.000000" rx="16.000000" fill="url(#paint_linear_6)" fill-opacity="0.200000003" />
			<rect id="矩形 7411" width="203.000000" height="95.000000" x="11.000000" y="29.000000" opacity="0" fill="url(#paint_radial_1)" />
			<g filter="url(#filter_8)">
				<rect id="矩形 7413" width="194.000000" height="29.000000" x="16.000000" y="83.000000" rx="14.500000" opacity="0" fill="url(#paint_linear_8)" />
			</g>
			<path id="" d="M28.1289 57.2891L37.5664 57.2891L37.5664 59.3516L34.0156 59.3516L34.0156 69L31.6797 69L31.6797 59.3516L28.1289 59.3516L28.1289 57.2891ZM40.6227 60.5039C41.3597 60.5039 42.0134 60.6667 42.5837 60.9922C43.154 61.3177 43.5967 61.7773 43.9118 62.3711C44.2269 62.9622 44.3845 63.6406 44.3845 64.4062C44.3845 64.75 44.3519 65.0977 44.2868 65.4492L38.7829 65.4492C38.8793 66.0664 39.1032 66.5326 39.4548 66.8477C39.8063 67.1628 40.2438 67.3203 40.7673 67.3203C41.1423 67.3203 41.4756 67.2383 41.7673 67.0742C42.0616 66.9076 42.2881 66.6589 42.447 66.3281L44.0798 67.2891C43.8558 67.8958 43.4261 68.3646 42.7907 68.6953C42.1579 69.026 41.4522 69.1914 40.6735 69.1914C39.9261 69.1914 39.2321 69.026 38.5915 68.6953C37.9509 68.3646 37.4352 67.8685 37.0446 67.207C36.6566 66.5456 36.4626 65.7513 36.4626 64.8242C36.4626 63.9076 36.6566 63.1237 37.0446 62.4727C37.4352 61.8216 37.9457 61.3307 38.5759 61C39.2061 60.6693 39.8884 60.5039 40.6227 60.5039ZM40.5602 62.3125C40.1227 62.3125 39.7491 62.4518 39.4392 62.7305C39.1293 63.0065 38.9209 63.3945 38.8142 63.8945L42.111 63.8945C42.0694 63.3841 41.9066 62.9935 41.6227 62.7227C41.3415 62.4492 40.9873 62.3125 40.5602 62.3125ZM50.609 60.5039C51.5256 60.5039 52.2509 60.806 52.7848 61.4102C53.3186 62.0117 53.5855 62.888 53.5855 64.0391L53.5855 69L51.359 69L51.359 64.7617C51.359 63.2461 50.8577 62.4883 49.8551 62.4883C49.3212 62.4883 48.8915 62.694 48.566 63.1055C48.2431 63.5143 48.0816 64.0924 48.0816 64.8398L48.0816 69L45.8551 69L45.8551 60.7109L47.8082 60.7109C47.8603 61.362 47.9084 61.8047 47.9527 62.0391C48.4866 61.0156 49.372 60.5039 50.609 60.5039ZM61.6636 66.5352C61.6636 67.3581 61.3459 68.0065 60.7105 68.4805C60.0777 68.9544 59.2547 69.1914 58.2417 69.1914C57.3667 69.1914 56.6115 69.0052 55.9761 68.6328C55.3407 68.2578 54.911 67.7396 54.687 67.0781L56.3042 66.1367C56.4631 66.5299 56.7131 66.8359 57.0542 67.0547C57.398 67.2734 57.799 67.3828 58.2573 67.3828C58.5985 67.3828 58.8693 67.319 59.0698 67.1914C59.273 67.0638 59.3745 66.8828 59.3745 66.6484C59.3745 66.3802 59.2417 66.1745 58.9761 66.0312C58.7105 65.888 58.2938 65.7357 57.7261 65.5742C57.161 65.4049 56.7001 65.2409 56.3433 65.082C55.9865 64.9206 55.6766 64.6888 55.4136 64.3867C55.1532 64.082 55.023 63.6836 55.023 63.1914C55.023 62.6367 55.1753 62.1576 55.48 61.7539C55.7847 61.3477 56.1922 61.0378 56.7027 60.8242C57.2157 60.6107 57.7756 60.5039 58.3823 60.5039C59.2157 60.5039 59.9201 60.6823 60.4956 61.0391C61.0711 61.3958 61.4344 61.8685 61.5855 62.457L59.9683 63.3672C59.648 62.6745 59.1089 62.3281 58.3511 62.3281C58.0308 62.3281 57.7743 62.3893 57.5816 62.5117C57.3915 62.6341 57.2964 62.8073 57.2964 63.0312C57.2964 63.2865 57.424 63.4818 57.6792 63.6172C57.937 63.75 58.3368 63.8906 58.8784 64.0391C59.4566 64.2005 59.9318 64.362 60.3042 64.5234C60.6766 64.6823 60.9956 64.9245 61.2613 65.25C61.5295 65.5729 61.6636 66.0013 61.6636 66.5352ZM62.5266 64.8555C62.5266 63.9909 62.7206 63.2279 63.1086 62.5664C63.4993 61.9049 64.0201 61.3958 64.6711 61.0391C65.3222 60.6823 66.0266 60.5039 66.7844 60.5039C67.5318 60.5039 68.2271 60.6823 68.8703 61.0391C69.5162 61.3958 70.0331 61.9049 70.4211 62.5664C70.8118 63.2279 71.0071 63.9909 71.0071 64.8555C71.0071 65.7201 70.8118 66.4831 70.4211 67.1445C70.0331 67.806 69.5162 68.3125 68.8703 68.6641C68.2271 69.0156 67.5318 69.1914 66.7844 69.1914C66.0266 69.1914 65.3222 69.0156 64.6711 68.6641C64.0201 68.3125 63.4993 67.806 63.1086 67.1445C62.7206 66.4831 62.5266 65.7201 62.5266 64.8555ZM64.8313 64.8555C64.8313 65.5924 65.0149 66.1771 65.3821 66.6094C65.7519 67.0417 66.2141 67.2578 66.7688 67.2578C67.3235 67.2578 67.7818 67.0417 68.1438 66.6094C68.5058 66.1771 68.6868 65.5924 68.6868 64.8555C68.6868 64.1211 68.5058 63.5352 68.1438 63.0977C67.7818 62.6602 67.3235 62.4414 66.7688 62.4414C66.2141 62.4414 65.7519 62.6602 65.3821 63.0977C65.0149 63.5352 64.8313 64.1211 64.8313 64.8555ZM77.0254 60.5039C77.3457 60.5039 77.6439 60.5521 77.9199 60.6484C78.1986 60.7448 78.4121 60.8672 78.5606 61.0156L77.6973 62.7266C77.4186 62.5365 77.1035 62.4414 76.752 62.4414C76.1765 62.4414 75.7155 62.681 75.3692 63.1602C75.0228 63.6393 74.8496 64.3008 74.8496 65.1445L74.8496 69L72.6231 69L72.6231 60.7109L74.5762 60.7109C74.6283 61.3516 74.6765 61.7891 74.7207 62.0234C74.9655 61.5234 75.2845 61.1458 75.6777 60.8906C76.0736 60.6328 76.5228 60.5039 77.0254 60.5039ZM76.576 72.1367L76.576 70.2812L84.3026 70.2812L84.3026 72.1367L76.576 72.1367ZM87.4095 57.2891L93.0892 65.0312L93.0892 57.2891L95.2493 57.2891L95.2493 69L93.3587 69L87.6634 61.2383L87.6634 69L85.5345 69L85.5345 57.2891L87.4095 57.2891ZM101.007 60.5039C102.127 60.5039 103.002 60.8216 103.632 61.457C104.262 62.0898 104.577 62.9935 104.577 64.168L104.577 69L102.702 69C102.692 68.9141 102.679 68.7734 102.663 68.5781C102.648 68.3802 102.624 68.2057 102.593 68.0547C102.348 68.4401 102.03 68.7266 101.64 68.9141C101.252 69.099 100.78 69.1914 100.226 69.1914C99.6476 69.1914 99.1216 69.0911 98.6476 68.8906C98.1736 68.6875 97.7973 68.3906 97.5187 68C97.2427 67.6094 97.1046 67.1484 97.1046 66.6172C97.1046 66.0625 97.2622 65.5794 97.5773 65.168C97.8924 64.7565 98.3156 64.4388 98.8468 64.2148C99.3807 63.9909 99.9679 63.8789 100.609 63.8789C101.184 63.8789 101.777 63.9753 102.386 64.168C102.352 62.9414 101.829 62.3281 100.816 62.3281C100.006 62.3281 99.4132 62.6901 99.0382 63.4141L97.4562 62.5039C97.7557 61.8841 98.214 61.3958 98.8312 61.0391C99.451 60.6823 100.176 60.5039 101.007 60.5039ZM102.386 65.6406C101.852 65.513 101.387 65.4492 100.991 65.4492C100.468 65.4492 100.062 65.543 99.7726 65.7305C99.4861 65.9154 99.3429 66.1784 99.3429 66.5195C99.3429 66.8294 99.4575 67.0703 99.6867 67.2422C99.9158 67.4115 100.213 67.4961 100.577 67.4961C101.056 67.4961 101.477 67.3607 101.839 67.0898C102.204 66.8164 102.386 66.4401 102.386 65.9609L102.386 65.6406ZM115.855 60.5039C116.655 60.5039 117.304 60.806 117.804 61.4102C118.307 62.0117 118.558 62.8776 118.558 64.0078L118.558 69L116.383 69L116.383 64.7617C116.383 63.2461 115.962 62.4883 115.121 62.4883C114.662 62.4883 114.297 62.6966 114.023 63.1133C113.752 63.5273 113.617 64.1029 113.617 64.8398L113.617 69L111.457 69L111.457 64.7617C111.457 63.2461 111.035 62.4883 110.191 62.4883C109.733 62.4883 109.37 62.6966 109.101 63.1133C108.836 63.5273 108.703 64.1029 108.703 64.8398L108.703 69L106.527 69L106.527 60.7109L108.433 60.7109C108.485 61.3203 108.527 61.7266 108.558 61.9297C109.103 60.9792 109.893 60.5039 110.929 60.5039C111.484 60.5039 111.968 60.6484 112.383 60.9375C112.799 61.224 113.114 61.6497 113.328 62.2148C113.593 61.6289 113.945 61.1979 114.383 60.9219C114.82 60.6432 115.311 60.5039 115.855 60.5039ZM124.191 60.5039C124.928 60.5039 125.581 60.6667 126.152 60.9922C126.722 61.3177 127.165 61.7773 127.48 62.3711C127.795 62.9622 127.952 63.6406 127.952 64.4062C127.952 64.75 127.92 65.0977 127.855 65.4492L122.351 65.4492C122.447 66.0664 122.671 66.5326 123.023 66.8477C123.374 67.1628 123.812 67.3203 124.335 67.3203C124.71 67.3203 125.044 67.2383 125.335 67.0742C125.63 66.9076 125.856 66.6589 126.015 66.3281L127.648 67.2891C127.424 67.8958 126.994 68.3646 126.359 68.6953C125.726 69.026 125.02 69.1914 124.242 69.1914C123.494 69.1914 122.8 69.026 122.16 68.6953C121.519 68.3646 121.003 67.8685 120.613 67.207C120.225 66.5456 120.031 65.7513 120.031 64.8242C120.031 63.9076 120.225 63.1237 120.613 62.4727C121.003 61.8216 121.514 61.3307 122.144 61C122.774 60.6693 123.456 60.5039 124.191 60.5039ZM124.128 62.3125C123.691 62.3125 123.317 62.4518 123.007 62.7305C122.697 63.0065 122.489 63.3945 122.382 63.8945L125.679 63.8945C125.637 63.3841 125.475 62.9935 125.191 62.7227C124.91 62.4492 124.555 62.3125 124.128 62.3125Z" fill="rgb(255,255,255)" fill-rule="nonzero" />
			<path id="" d="M87.291 85.1318L87.291 84.124L84.8916 84.124L84.291 84.124L84.291 95.3799L85.5039 95.3799L87.291 95.3799L87.291 94.3721L85.5039 94.3721L85.5039 85.1318L87.291 85.1318ZM95.1513 92.7988L93.4843 92.7988L93.4843 85.6006L92.2714 85.6006L90.4492 87.0273L91.1933 87.9883L92.2714 87.1357L92.2714 92.7988L90.2324 92.7988L90.2324 94L95.4882 94L95.1513 92.7988ZM99.3524 92.2012L99.3524 94.0117L100.457 94.0117L99.0653 95.8838L100.36 95.8838L101.163 94.0117L101.163 92.2012L99.3524 92.2012ZM106.193 92.7988L107.74 91.4453C107.848 91.3604 107.945 91.2637 108.051 91.1787C108.555 90.7363 109.132 90.2324 109.551 89.6787C110.104 88.9492 110.321 88.2402 110.163 87.543C109.888 86.2598 108.724 85.5273 107.104 85.6123C105.689 85.6826 104.775 86.415 104.465 86.8369L105.423 87.5547C105.449 87.5312 105.976 86.8721 107.163 86.8135C108.604 86.7285 108.915 87.4727 108.988 87.7949C109.167 88.6123 108.112 89.5352 107.26 90.2676C107.151 90.3643 107.043 90.4492 106.949 90.543L104.38 92.7988L104.356 92.8252L104.356 94L110.128 94L109.791 92.7988L106.193 92.7988ZM113.848 92.2012L113.848 94.0117L114.953 94.0117L113.561 95.8838L114.856 95.8838L115.659 94.0117L115.659 92.2012L113.848 92.2012ZM124.143 92.7988L122.476 92.7988L122.476 85.6006L121.263 85.6006L119.441 87.0273L120.185 87.9883L121.263 87.1357L121.263 92.7988L119.224 92.7988L119.224 94L124.48 94L124.143 92.7988ZM127.937 92.7988L129.484 91.4453C129.592 91.3604 129.689 91.2637 129.795 91.1787C130.299 90.7363 130.876 90.2324 131.295 89.6787C131.848 88.9492 132.065 88.2402 131.907 87.543C131.632 86.2598 130.468 85.5273 128.848 85.6123C127.433 85.6826 126.519 86.415 126.209 86.8369L127.167 87.5547C127.193 87.5312 127.72 86.8721 128.907 86.8135C130.348 86.7285 130.659 87.4727 130.732 87.7949C130.911 88.6123 129.856 89.5352 129.004 90.2676C128.895 90.3643 128.787 90.4492 128.693 90.543L126.124 92.7988L126.1 92.8252L126.1 94L131.872 94L131.535 92.7988L127.937 92.7988ZM138.917 91.085C138.891 90.915 138.844 90.748 138.771 90.5928C138.545 90.0771 138.147 89.7285 137.693 89.4883C137.705 89.4766 137.716 89.4766 137.728 89.4648C138.173 89.1895 138.46 88.8174 138.592 88.3721C138.651 88.1787 138.677 87.9766 138.677 87.7598C138.677 87.3027 138.519 86.8838 138.244 86.5469C138.244 86.5352 138.244 86.5352 138.232 86.5352C138.208 86.5117 138.197 86.4766 138.173 86.4531C138.088 86.3564 137.992 86.2715 137.895 86.1895C137.429 85.8027 136.767 85.6006 135.988 85.6006C135.988 85.6006 135.976 85.6006 135.964 85.6006C135.964 85.6006 135.953 85.6006 135.953 85.6006C135.173 85.6006 134.511 85.8027 134.045 86.1895C133.949 86.2715 133.852 86.3564 133.767 86.4531C133.744 86.4766 133.72 86.5117 133.697 86.5352C133.697 86.5352 133.697 86.5352 133.697 86.5469C133.421 86.8838 133.251 87.3027 133.251 87.7598C133.251 87.9766 133.287 88.1787 133.348 88.3721C133.48 88.8174 133.767 89.1895 134.212 89.4648C134.224 89.4766 134.236 89.4766 134.248 89.4883C133.779 89.7285 133.395 90.0771 133.155 90.5928C133.096 90.748 133.049 90.915 133.011 91.085C132.988 91.2402 132.964 91.3838 132.976 91.5273C132.964 91.9492 133.073 92.3564 133.301 92.7285C133.779 93.543 134.801 94 135.953 94C135.953 94 135.964 94 135.964 94C135.976 94 135.988 94 135.988 94C137.127 94 138.159 93.543 138.639 92.7285C138.868 92.3564 138.964 91.9492 138.964 91.5273C138.964 91.3838 138.953 91.2402 138.917 91.085ZM134.368 87.4844C134.523 87.0039 135.123 86.667 135.964 86.6553C136.805 86.667 137.403 87.0039 137.573 87.4844C137.584 87.5547 137.596 87.6279 137.596 87.7129C137.596 88.1787 137.332 88.5156 136.767 88.791C136.553 88.8994 136.287 88.9844 135.964 89.0811C135.651 88.9844 135.387 88.8994 135.159 88.791C134.596 88.5156 134.344 88.1787 134.344 87.7129C134.344 87.6279 134.344 87.5547 134.368 87.4844ZM137.681 92.0195C137.368 92.5 136.697 92.8105 135.964 92.8252C135.232 92.8105 134.573 92.5 134.259 92.0195C134.069 91.709 134.045 91.3721 134.201 91.0352C134.453 90.5195 135.185 90.1592 135.964 89.9189C136.755 90.1592 137.488 90.5195 137.728 91.0352C137.895 91.3721 137.872 91.709 137.681 92.0195ZM142.456 92.2012L142.456 94.0117L143.561 94.0117L142.169 95.8838L143.464 95.8838L144.267 94.0117L144.267 92.2012L142.456 92.2012ZM152.561 89.415C151.743 88.7559 150.437 88.5771 149.189 88.9346C149.189 88.9346 149.177 88.9346 149.177 88.9492C149.165 88.9492 149.151 88.9492 149.127 88.9609L149.356 86.8135L152.596 86.8135L152.933 85.6123L148.251 85.6123L148.228 86.1396L148.216 86.1396L147.809 89.957L148.755 90.5078C148.949 90.376 149.283 90.1709 149.476 90.1123C150.364 89.8486 151.289 89.9453 151.805 90.3525C152.139 90.6162 152.283 91 152.236 91.5156C152.189 91.9961 151.697 92.7285 150.519 92.7988C149.297 92.8604 148.228 92.043 148.216 92.043L147.484 92.9922C147.531 93.0391 148.793 94 150.375 94C150.449 94 150.507 94 150.58 94C152.321 93.9033 153.34 92.7402 153.437 91.624C153.519 90.7129 153.208 89.9307 152.561 89.415ZM159.531 92.7988L157.864 92.7988L157.864 85.6006L156.651 85.6006L154.829 87.0273L155.573 87.9883L156.651 87.1357L156.651 92.7988L154.612 92.7988L154.612 94L159.868 94L159.531 92.7988ZM163.325 92.7988L164.872 91.4453C164.98 91.3604 165.077 91.2637 165.183 91.1787C165.687 90.7363 166.264 90.2324 166.683 89.6787C167.236 88.9492 167.453 88.2402 167.295 87.543C167.02 86.2598 165.856 85.5273 164.236 85.6123C162.821 85.6826 161.907 86.415 161.597 86.8369L162.555 87.5547C162.581 87.5312 163.108 86.8721 164.295 86.8135C165.736 86.7285 166.047 87.4727 166.12 87.7949C166.299 88.6123 165.244 89.5352 164.392 90.2676C164.283 90.3643 164.175 90.4492 164.081 90.543L161.512 92.7988L161.488 92.8252L161.488 94L167.26 94L166.923 92.7988L163.325 92.7988ZM172.457 84.124L170.069 84.124L170.069 85.1318L171.856 85.1318L171.856 94.3721L170.069 94.3721L170.069 95.3799L171.856 95.3799L173.069 95.3799L173.069 84.124L172.457 84.124Z" opacity="0.899999976" fill="rgb(255,255,255)" fill-rule="nonzero" />
			<path id="" d="M33.124 91.2246C33.124 91.5996 33.0254 91.9316 32.8281 92.2207C32.6328 92.5078 32.3594 92.7314 32.0078 92.8916C31.6562 93.0518 31.252 93.1318 30.7949 93.1318C30.1875 93.1318 29.6641 92.9961 29.2246 92.7246C28.7852 92.4531 28.4971 92.0811 28.3604 91.6084L29.1396 91.1631C29.4365 91.8604 29.9883 92.209 30.7949 92.209C31.1875 92.209 31.4951 92.1289 31.7178 91.9688C31.9424 91.8086 32.0547 91.5879 32.0547 91.3066C32.0547 91.0918 31.9883 90.917 31.8555 90.7822C31.7246 90.6455 31.5615 90.5391 31.3662 90.4629C31.1709 90.3867 30.8965 90.2969 30.543 90.1934C30.1191 90.0723 29.7754 89.9561 29.5117 89.8447C29.248 89.7314 29.0244 89.5654 28.8408 89.3467C28.6572 89.126 28.5654 88.8359 28.5654 88.4766C28.5654 88.0996 28.667 87.7715 28.8701 87.4922C29.0732 87.2129 29.3486 86.999 29.6963 86.8506C30.0459 86.7021 30.4287 86.6279 30.8447 86.6279C31.3877 86.6279 31.8555 86.748 32.248 86.9883C32.6406 87.2285 32.9043 87.5566 33.0391 87.9727L32.2598 88.415C32.1328 88.1436 31.9424 87.9346 31.6885 87.7881C31.4365 87.6396 31.1387 87.5654 30.7949 87.5654C30.4434 87.5654 30.1611 87.6357 29.9482 87.7764C29.7373 87.915 29.6318 88.1162 29.6318 88.3799C29.6318 88.5713 29.6934 88.7275 29.8164 88.8486C29.9414 88.9678 30.0957 89.0635 30.2793 89.1357C30.4629 89.208 30.7227 89.292 31.0586 89.3877C31.5 89.5088 31.8564 89.627 32.1279 89.7422C32.3994 89.8574 32.6328 90.0352 32.8281 90.2754C33.0254 90.5156 33.124 90.832 33.124 91.2246ZM37.3946 86.6279C38.043 86.6279 38.5713 86.8486 38.9795 87.29C39.3877 87.7295 39.5918 88.3525 39.5918 89.1592L39.5918 93L38.5723 93L38.5723 89.4492C38.5723 88.8555 38.4541 88.3994 38.2178 88.0811C37.9815 87.7607 37.6319 87.6006 37.169 87.6006C36.8643 87.6006 36.5782 87.6709 36.3106 87.8115C36.043 87.9502 35.8252 88.1582 35.6573 88.4355C35.4893 88.7109 35.4053 89.0527 35.4053 89.4609L35.4053 93L34.3829 93L34.3829 83.8682L35.4053 83.8682L35.4053 87.709C35.6202 87.3555 35.8995 87.0869 36.2432 86.9033C36.587 86.7197 36.9707 86.6279 37.3946 86.6279ZM43.7452 86.6279C44.4483 86.6279 45.0235 86.8418 45.4708 87.2695C45.92 87.6973 46.1446 88.3076 46.1446 89.1006L46.1446 93L45.2452 93C45.2198 92.5918 45.2032 92.3281 45.1954 92.209C45.004 92.5117 44.7462 92.7412 44.422 92.8975C44.0977 93.0537 43.7276 93.1318 43.3116 93.1318C42.9112 93.1318 42.5372 93.0586 42.1895 92.9121C41.8419 92.7637 41.5636 92.543 41.3546 92.25C41.1475 91.957 41.044 91.6074 41.044 91.2012C41.044 90.584 41.294 90.0977 41.794 89.7422C42.294 89.3867 42.9395 89.209 43.7305 89.209C44.1798 89.209 44.6446 89.2686 45.1251 89.3877L45.1251 89.2793C45.1251 88.6953 45.0069 88.2617 44.7706 87.9785C44.5343 87.6934 44.1759 87.5508 43.6954 87.5508C43.3126 87.5508 42.9923 87.6309 42.7345 87.791C42.4786 87.9512 42.2628 88.1875 42.087 88.5L41.3077 88.0547C41.4991 87.623 41.8126 87.2773 42.2481 87.0176C42.6856 86.7578 43.1846 86.6279 43.7452 86.6279ZM45.1251 90.2402C44.6212 90.1113 44.1612 90.0469 43.7452 90.0469C43.2237 90.0469 42.8214 90.1475 42.5382 90.3486C42.255 90.5479 42.1134 90.8281 42.1134 91.1895C42.1134 91.5254 42.2325 91.7871 42.4708 91.9746C42.711 92.1621 43.0235 92.2559 43.4083 92.2559C43.8809 92.2559 44.2852 92.1182 44.6212 91.8428C44.9571 91.5654 45.1251 91.1836 45.1251 90.6973L45.1251 90.2402ZM50.9564 86.6279C51.429 86.6279 51.8753 86.7578 52.2952 87.0176C52.7152 87.2773 53.0531 87.6533 53.3089 88.1455C53.5648 88.6377 53.6927 89.2158 53.6927 89.8799C53.6927 90.5518 53.5648 91.1338 53.3089 91.626C53.0531 92.1182 52.7152 92.4922 52.2952 92.748C51.8753 93.0039 51.429 93.1318 50.9564 93.1318C50.556 93.1318 50.1732 93.0381 49.8079 92.8506C49.4447 92.6631 49.1478 92.3848 48.9173 92.0156L48.9173 95.7832L47.8949 95.7832L47.8949 86.7715L48.7972 86.7715C48.8128 87.1719 48.8363 87.5244 48.8675 87.8291C49.0921 87.4287 49.39 87.1289 49.7611 86.9297C50.1341 86.7285 50.5325 86.6279 50.9564 86.6279ZM50.8245 92.1709C51.3675 92.1709 51.8031 91.9717 52.1312 91.5732C52.4593 91.1729 52.6234 90.6084 52.6234 89.8799C52.6234 89.1514 52.4593 88.5879 52.1312 88.1895C51.8031 87.7891 51.3675 87.5889 50.8245 87.5889C50.4964 87.5889 50.1878 87.665 49.8988 87.8174C49.6116 87.9678 49.3763 88.2158 49.1927 88.5615C49.0091 88.9053 48.9173 89.3447 48.9173 89.8799C48.9173 90.415 49.0091 90.8555 49.1927 91.2012C49.3763 91.5449 49.6116 91.793 49.8988 91.9453C50.1878 92.0957 50.4964 92.1709 50.8245 92.1709ZM57.7716 86.6279C58.3087 86.6279 58.7785 86.7539 59.1808 87.0059C59.5851 87.2578 59.8947 87.5996 60.1095 88.0312C60.3263 88.4629 60.4347 88.9434 60.4347 89.4727C60.4347 89.6953 60.4191 89.8994 60.3878 90.085L55.8996 90.085C55.9406 90.7959 56.1447 91.3262 56.5119 91.6758C56.879 92.0234 57.3429 92.1973 57.9035 92.1973C58.6007 92.1973 59.1046 91.917 59.4152 91.3564L60.1974 91.7988C60.0373 92.2227 59.7384 92.5508 59.3009 92.7832C58.8654 93.0156 58.38 93.1318 57.8449 93.1318C57.2843 93.1318 56.7736 93.0039 56.3126 92.748C55.8537 92.4922 55.4904 92.1182 55.2228 91.626C54.9552 91.1338 54.8214 90.5439 54.8214 89.8564C54.8214 89.1924 54.9552 88.6162 55.2228 88.1279C55.4904 87.6396 55.8478 87.2676 56.2951 87.0117C56.7443 86.7559 57.2365 86.6279 57.7716 86.6279ZM57.7365 87.5654C57.2873 87.5654 56.8966 87.709 56.5646 87.9961C56.2326 88.2832 56.0226 88.7031 55.9347 89.2559L59.3331 89.2559C59.3078 88.7207 59.1505 88.3057 58.8615 88.0107C58.5744 87.7139 58.1994 87.5654 57.7365 87.5654Z" opacity="0.50999999" fill="rgb(255,255,255)" fill-rule="nonzero" />
		</g>
		<rect id="容器 91333081" width="193.000000" height="77.000000" x="16.500000" y="38.500000" rx="15.500000" stroke="url(#paint_linear_7)" stroke-opacity="0.600000024" stroke-width="1" />
	</g>
	<g id="容器 91333524" customFrame="url(#clipPath_25)">
		<rect id="容器 91333524" width="194.000000" height="82.000000" x="16.000000" y="124.000000" />
		<g id="容器 4854" opacity="0.529999971" customFrame="url(#clipPath_26)">
			<rect id="容器 4854" width="49.000000" height="78.000000" x="28.000000" y="124.000000" />
			<path id="" d="M28.5654 133.88C28.5654 133.257 28.7031 132.697 28.9785 132.201C29.2539 131.705 29.6191 131.319 30.0742 131.044C30.5312 130.767 31.0234 130.628 31.5508 130.628C32.0801 130.628 32.5723 130.765 33.0273 131.038C33.4844 131.31 33.8486 131.693 34.1201 132.189C34.3916 132.684 34.5273 133.247 34.5273 133.88C34.5273 134.513 34.3916 135.075 34.1201 135.567C33.8486 136.058 33.4844 136.441 33.0273 136.719C32.5723 136.994 32.0801 137.132 31.5508 137.132C31.0234 137.132 30.5293 136.994 30.0684 136.719C29.6094 136.441 29.2441 136.058 28.9727 135.567C28.7012 135.075 28.5654 134.513 28.5654 133.88ZM29.6436 133.88C29.6436 134.353 29.7275 134.761 29.8955 135.104C30.0635 135.448 30.291 135.712 30.5781 135.896C30.8672 136.079 31.1914 136.171 31.5508 136.171C31.9121 136.171 32.2363 136.079 32.5234 135.896C32.8125 135.712 33.0391 135.448 33.2031 135.104C33.3672 134.761 33.4492 134.353 33.4492 133.88C33.4492 133.407 33.3672 132.999 33.2031 132.655C33.0391 132.312 32.8125 132.048 32.5234 131.864C32.2363 131.681 31.9121 131.589 31.5508 131.589C31.1914 131.589 30.8672 131.681 30.5781 131.864C30.291 132.048 30.0635 132.312 29.8955 132.655C29.7275 132.999 29.6436 133.407 29.6436 133.88ZM42.1969 128.697C41.861 128.697 41.607 128.806 41.4352 129.022C41.2633 129.237 41.1774 129.616 41.1774 130.159L41.1774 130.76L42.7945 130.76L42.7945 131.636L41.1774 131.636L41.1774 137L40.1549 137L40.1549 131.636L37.3248 131.636L37.3248 137L36.3053 137L36.3053 131.636L35.2242 131.636L35.2242 130.76L36.3053 130.76L36.3053 130.136C36.3053 129.304 36.4928 128.696 36.8678 128.313C37.2447 127.929 37.7203 127.736 38.2945 127.736C38.5524 127.736 38.7867 127.771 38.9977 127.839C39.2106 127.907 39.3805 127.993 39.5074 128.097L39.1002 128.911C38.8756 128.769 38.6236 128.697 38.3444 128.697C38.0084 128.697 37.7545 128.806 37.5826 129.022C37.4108 129.237 37.3248 129.616 37.3248 130.159L37.3248 130.76L40.1549 130.76L40.1549 130.136C40.1549 129.304 40.3424 128.696 40.7174 128.313C41.0944 127.929 41.5709 127.736 42.1471 127.736C42.4029 127.736 42.6363 127.771 42.8473 127.839C43.0602 127.907 43.2311 127.993 43.36 128.097L42.9528 128.911C42.7281 128.769 42.4762 128.697 42.1969 128.697ZM48.088 135.225C48.088 135.6 47.9894 135.932 47.7921 136.221C47.5968 136.508 47.3234 136.731 46.9718 136.892C46.6203 137.052 46.216 137.132 45.7589 137.132C45.1515 137.132 44.6281 136.996 44.1886 136.725C43.7492 136.453 43.4611 136.081 43.3244 135.608L44.1036 135.163C44.4005 135.86 44.9523 136.209 45.7589 136.209C46.1515 136.209 46.4591 136.129 46.6818 135.969C46.9064 135.809 47.0187 135.588 47.0187 135.307C47.0187 135.092 46.9523 134.917 46.8195 134.782C46.6886 134.646 46.5255 134.539 46.3302 134.463C46.1349 134.387 45.8605 134.297 45.507 134.193C45.0831 134.072 44.7394 133.956 44.4757 133.845C44.212 133.731 43.9884 133.565 43.8048 133.347C43.6212 133.126 43.5294 132.836 43.5294 132.477C43.5294 132.1 43.631 131.771 43.8341 131.492C44.0372 131.213 44.3126 130.999 44.6603 130.851C45.0099 130.702 45.3927 130.628 45.8087 130.628C46.3517 130.628 46.8195 130.748 47.212 130.988C47.6046 131.229 47.8683 131.557 48.0031 131.973L47.2238 132.415C47.0968 132.144 46.9064 131.935 46.6525 131.788C46.4005 131.64 46.1027 131.565 45.7589 131.565C45.4074 131.565 45.1251 131.636 44.9122 131.776C44.7013 131.915 44.5958 132.116 44.5958 132.38C44.5958 132.571 44.6574 132.728 44.7804 132.849C44.9054 132.968 45.0597 133.063 45.2433 133.136C45.4269 133.208 45.6867 133.292 46.0226 133.388C46.464 133.509 46.8204 133.627 47.0919 133.742C47.3634 133.857 47.5968 134.035 47.7921 134.275C47.9894 134.516 48.088 134.832 48.088 135.225ZM51.9396 130.628C52.4767 130.628 52.9465 130.754 53.3488 131.006C53.7531 131.258 54.0627 131.6 54.2775 132.031C54.4943 132.463 54.6027 132.943 54.6027 133.473C54.6027 133.695 54.5871 133.899 54.5558 134.085L50.0676 134.085C50.1086 134.796 50.3127 135.326 50.6799 135.676C51.047 136.023 51.5109 136.197 52.0715 136.197C52.7687 136.197 53.2726 135.917 53.5832 135.356L54.3654 135.799C54.2052 136.223 53.9064 136.551 53.4689 136.783C53.0334 137.016 52.548 137.132 52.0129 137.132C51.4523 137.132 50.9416 137.004 50.4806 136.748C50.0217 136.492 49.6584 136.118 49.3908 135.626C49.1232 135.134 48.9894 134.544 48.9894 133.856C48.9894 133.192 49.1232 132.616 49.3908 132.128C49.6584 131.64 50.0158 131.268 50.4631 131.012C50.9123 130.756 51.4045 130.628 51.9396 130.628ZM51.9045 131.565C51.4552 131.565 51.0646 131.709 50.7326 131.996C50.4006 132.283 50.1906 132.703 50.1027 133.256L53.5011 133.256C53.4758 132.721 53.3185 132.306 53.0295 132.011C52.7424 131.714 52.3674 131.565 51.9045 131.565ZM59.2946 136.795C58.9685 137.02 58.5485 137.132 58.0349 137.132C56.779 137.132 56.1511 136.416 56.1511 134.984L56.1511 131.647L55.1198 131.647L55.1198 130.76L56.1511 130.76L56.1511 129.02L57.1706 129.02L57.1706 130.76L58.9841 130.76L58.9841 131.647L57.1706 131.647L57.1706 134.864C57.1706 135.735 57.4987 136.171 58.155 136.171C58.4441 136.171 58.7126 136.1 58.9607 135.957L59.2946 136.795Z" fill="rgb(255,255,255)" fill-rule="nonzero" />
			<path id="" d="M31.3252 150.628C32.0283 150.628 32.6035 150.842 33.0508 151.27C33.5 151.697 33.7246 152.308 33.7246 153.101L33.7246 157L32.8252 157C32.7998 156.592 32.7832 156.328 32.7754 156.209C32.584 156.512 32.3262 156.741 32.002 156.897C31.6777 157.054 31.3076 157.132 30.8916 157.132C30.4912 157.132 30.1172 157.059 29.7695 156.912C29.4219 156.764 29.1436 156.543 28.9346 156.25C28.7275 155.957 28.624 155.607 28.624 155.201C28.624 154.584 28.874 154.098 29.374 153.742C29.874 153.387 30.5195 153.209 31.3105 153.209C31.7598 153.209 32.2246 153.269 32.7051 153.388L32.7051 153.279C32.7051 152.695 32.5869 152.262 32.3506 151.979C32.1143 151.693 31.7559 151.551 31.2754 151.551C30.8926 151.551 30.5723 151.631 30.3145 151.791C30.0586 151.951 29.8428 152.188 29.667 152.5L28.8877 152.055C29.0791 151.623 29.3926 151.277 29.8281 151.018C30.2656 150.758 30.7646 150.628 31.3252 150.628ZM32.7051 154.24C32.2012 154.111 31.7412 154.047 31.3252 154.047C30.8037 154.047 30.4014 154.147 30.1182 154.349C29.835 154.548 29.6934 154.828 29.6934 155.189C29.6934 155.525 29.8125 155.787 30.0508 155.975C30.291 156.162 30.6035 156.256 30.9883 156.256C31.4609 156.256 31.8652 156.118 32.2012 155.843C32.5371 155.565 32.7051 155.184 32.7051 154.697L32.7051 154.24ZM39.676 155.225C39.676 155.6 39.5774 155.932 39.3801 156.221C39.1848 156.508 38.9114 156.731 38.5598 156.892C38.2083 157.052 37.804 157.132 37.3469 157.132C36.7395 157.132 36.2161 156.996 35.7766 156.725C35.3372 156.453 35.0491 156.081 34.9124 155.608L35.6917 155.163C35.9885 155.86 36.5403 156.209 37.3469 156.209C37.7395 156.209 38.0471 156.129 38.2698 155.969C38.4944 155.809 38.6067 155.588 38.6067 155.307C38.6067 155.092 38.5403 154.917 38.4075 154.782C38.2766 154.646 38.1135 154.539 37.9182 154.463C37.7229 154.387 37.4485 154.297 37.095 154.193C36.6711 154.072 36.3274 153.956 36.0637 153.845C35.8 153.731 35.5764 153.565 35.3928 153.347C35.2092 153.126 35.1174 152.836 35.1174 152.477C35.1174 152.1 35.219 151.771 35.4221 151.492C35.6252 151.213 35.9006 150.999 36.2483 150.851C36.5979 150.702 36.9807 150.628 37.3967 150.628C37.9397 150.628 38.4075 150.748 38.8 150.988C39.1926 151.229 39.4563 151.557 39.5911 151.973L38.8118 152.415C38.6848 152.144 38.4944 151.935 38.2405 151.788C37.9885 151.64 37.6907 151.565 37.3469 151.565C36.9954 151.565 36.7131 151.636 36.5002 151.776C36.2893 151.915 36.1838 152.116 36.1838 152.38C36.1838 152.571 36.2454 152.728 36.3684 152.849C36.4934 152.968 36.6477 153.063 36.8313 153.136C37.0149 153.208 37.2747 153.292 37.6106 153.388C38.052 153.509 38.4084 153.627 38.6799 153.742C38.9514 153.857 39.1848 154.035 39.3801 154.275C39.5774 154.516 39.676 154.832 39.676 155.225ZM41.4534 149.655C41.2679 149.655 41.1087 149.586 40.9759 149.447C40.845 149.307 40.7796 149.145 40.7796 148.961C40.7796 148.775 40.845 148.613 40.9759 148.475C41.1087 148.334 41.2679 148.264 41.4534 148.264C41.6448 148.264 41.8059 148.332 41.9368 148.469C42.0696 148.604 42.136 148.768 42.136 148.961C42.136 149.145 42.0677 149.307 41.9309 149.447C41.7962 149.586 41.637 149.655 41.4534 149.655ZM41.9573 157L40.9349 157L40.9349 150.771L41.9573 150.771L41.9573 157ZM48.028 155.225C48.028 155.6 47.9294 155.932 47.7321 156.221C47.5368 156.508 47.2634 156.731 46.9118 156.892C46.5602 157.052 46.156 157.132 45.6989 157.132C45.0915 157.132 44.5681 156.996 44.1286 156.725C43.6892 156.453 43.4011 156.081 43.2644 155.608L44.0436 155.163C44.3405 155.86 44.8923 156.209 45.6989 156.209C46.0915 156.209 46.3991 156.129 46.6218 155.969C46.8464 155.809 46.9587 155.588 46.9587 155.307C46.9587 155.092 46.8923 154.917 46.7595 154.782C46.6286 154.646 46.4655 154.539 46.2702 154.463C46.0749 154.387 45.8005 154.297 45.447 154.193C45.0231 154.072 44.6794 153.956 44.4157 153.845C44.152 153.731 43.9284 153.565 43.7448 153.347C43.5612 153.126 43.4694 152.836 43.4694 152.477C43.4694 152.1 43.571 151.771 43.7741 151.492C43.9772 151.213 44.2526 150.999 44.6003 150.851C44.9499 150.702 45.3327 150.628 45.7487 150.628C46.2917 150.628 46.7595 150.748 47.152 150.988C47.5446 151.229 47.8083 151.557 47.9431 151.973L47.1638 152.415C47.0368 152.144 46.8464 151.935 46.5925 151.788C46.3405 151.64 46.0427 151.565 45.6989 151.565C45.3474 151.565 45.0651 151.636 44.8522 151.776C44.6413 151.915 44.5358 152.116 44.5358 152.38C44.5358 152.571 44.5974 152.728 44.7204 152.849C44.8454 152.968 44.9997 153.063 45.1833 153.136C45.3669 153.208 45.6267 153.292 45.9626 153.388C46.404 153.509 46.7604 153.627 47.0319 153.742C47.3034 153.857 47.5368 154.035 47.7321 154.275C47.9294 154.516 48.028 154.832 48.028 155.225Z" fill="rgb(255,255,255)" fill-rule="nonzero" />
			<path id="" d="M32.3066 176.795C31.9805 177.02 31.5605 177.132 31.0469 177.132C29.791 177.132 29.1631 176.416 29.1631 174.984L29.1631 171.647L28.1318 171.647L28.1318 170.76L29.1631 170.76L29.1631 169.02L30.1826 169.02L30.1826 170.76L31.9961 170.76L31.9961 171.647L30.1826 171.647L30.1826 174.864C30.1826 175.735 30.5107 176.171 31.167 176.171C31.4561 176.171 31.7246 176.1 31.9727 175.957L32.3066 176.795ZM32.8974 173.88C32.8974 173.257 33.0351 172.697 33.3105 172.201C33.5859 171.705 33.9511 171.319 34.4062 171.044C34.8633 170.767 35.3554 170.628 35.8828 170.628C36.4121 170.628 36.9043 170.765 37.3593 171.038C37.8164 171.31 38.1806 171.693 38.4521 172.189C38.7236 172.684 38.8593 173.247 38.8593 173.88C38.8593 174.513 38.7236 175.075 38.4521 175.567C38.1806 176.058 37.8164 176.441 37.3593 176.719C36.9043 176.994 36.4121 177.132 35.8828 177.132C35.3554 177.132 34.8613 176.994 34.4004 176.719C33.9414 176.441 33.5761 176.058 33.3047 175.567C33.0332 175.075 32.8974 174.513 32.8974 173.88ZM33.9756 173.88C33.9756 174.353 34.0595 174.761 34.2275 175.104C34.3955 175.448 34.623 175.712 34.9101 175.896C35.1992 176.079 35.5234 176.171 35.8828 176.171C36.2441 176.171 36.5683 176.079 36.8554 175.896C37.1445 175.712 37.3711 175.448 37.5351 175.104C37.6992 174.761 37.7812 174.353 37.7812 173.88C37.7812 173.407 37.6992 172.999 37.5351 172.655C37.3711 172.312 37.1445 172.048 36.8554 171.864C36.5683 171.681 36.2441 171.589 35.8828 171.589C35.5234 171.589 35.1992 171.681 34.9101 171.864C34.623 172.048 34.3955 172.312 34.2275 172.655C34.0595 172.999 33.9756 173.407 33.9756 173.88ZM43.4084 170.628C43.881 170.628 44.3273 170.758 44.7472 171.018C45.1672 171.277 45.5051 171.653 45.7609 172.146C46.0168 172.638 46.1447 173.216 46.1447 173.88C46.1447 174.552 46.0168 175.134 45.7609 175.626C45.5051 176.118 45.1672 176.492 44.7472 176.748C44.3273 177.004 43.881 177.132 43.4084 177.132C42.9924 177.132 42.5959 177.032 42.2189 176.833C41.8439 176.632 41.5441 176.331 41.3195 175.931C41.2883 176.276 41.2648 176.633 41.2492 177L40.3469 177L40.3469 167.868L41.3693 167.868L41.3693 171.744C41.5998 171.377 41.8947 171.1 42.2541 170.912C42.6154 170.723 43.0002 170.628 43.4084 170.628ZM43.2765 176.171C43.8195 176.171 44.2551 175.972 44.5832 175.573C44.9113 175.173 45.0754 174.608 45.0754 173.88C45.0754 173.159 44.9113 172.6 44.5832 172.201C44.2551 171.801 43.8195 171.601 43.2765 171.601C42.757 171.601 42.3088 171.785 41.9318 172.154C41.5568 172.521 41.3693 173.097 41.3693 173.88C41.3693 174.415 41.4611 174.855 41.6447 175.201C41.8283 175.545 42.0636 175.793 42.3508 175.945C42.6398 176.096 42.9484 176.171 43.2765 176.171ZM50.2236 170.628C50.7607 170.628 51.2305 170.754 51.6328 171.006C52.0371 171.258 52.3467 171.6 52.5615 172.031C52.7783 172.463 52.8867 172.943 52.8867 173.473C52.8867 173.695 52.8711 173.899 52.8398 174.085L48.3516 174.085C48.3926 174.796 48.5967 175.326 48.9639 175.676C49.331 176.023 49.7949 176.197 50.3555 176.197C51.0527 176.197 51.5566 175.917 51.8672 175.356L52.6494 175.799C52.4893 176.223 52.1904 176.551 51.7529 176.783C51.3174 177.016 50.832 177.132 50.2969 177.132C49.7363 177.132 49.2256 177.004 48.7646 176.748C48.3057 176.492 47.9424 176.118 47.6748 175.626C47.4072 175.134 47.2734 174.544 47.2734 173.856C47.2734 173.192 47.4072 172.616 47.6748 172.128C47.9424 171.64 48.2998 171.268 48.7471 171.012C49.1963 170.756 49.6885 170.628 50.2236 170.628ZM50.1885 171.565C49.7393 171.565 49.3486 171.709 49.0166 171.996C48.6846 172.283 48.4746 172.703 48.3867 173.256L51.7851 173.256C51.7598 172.721 51.6025 172.306 51.3135 172.011C51.0264 171.714 50.6514 171.565 50.1885 171.565Z" fill="rgb(255,255,255)" fill-rule="nonzero" />
			<path id="" d="M33.3408 187.868L34.3604 187.868L34.3604 197L33.4609 197C33.4434 196.584 33.4189 196.232 33.3877 195.945C33.1631 196.344 32.8643 196.642 32.4912 196.839C32.1201 197.034 31.7266 197.132 31.3105 197.132C30.832 197.132 30.3828 197.004 29.9629 196.748C29.543 196.492 29.2051 196.118 28.9492 195.626C28.6934 195.134 28.5654 194.552 28.5654 193.88C28.5654 193.216 28.6934 192.638 28.9492 192.146C29.2051 191.653 29.543 191.277 29.9629 191.018C30.3828 190.758 30.832 190.628 31.3105 190.628C31.7109 190.628 32.0908 190.72 32.4502 190.903C32.8115 191.087 33.1084 191.363 33.3408 191.732L33.3408 187.868ZM31.4307 196.171C31.9521 196.171 32.4004 195.987 32.7754 195.62C33.1523 195.253 33.3408 194.673 33.3408 193.88C33.3408 193.097 33.1523 192.521 32.7754 192.154C32.4004 191.785 31.9521 191.601 31.4307 191.601C30.8877 191.601 30.4521 191.801 30.124 192.201C29.7959 192.6 29.6318 193.159 29.6318 193.88C29.6318 194.608 29.7959 195.173 30.124 195.573C30.4521 195.972 30.8877 196.171 31.4307 196.171ZM39.5906 196.795C39.2645 197.02 38.8445 197.132 38.3309 197.132C37.075 197.132 36.4471 196.416 36.4471 194.984L36.4471 191.647L35.4158 191.647L35.4158 190.76L36.4471 190.76L36.4471 189.02L37.4666 189.02L37.4666 190.76L39.2801 190.76L39.2801 191.647L37.4666 191.647L37.4666 194.864C37.4666 195.735 37.7947 196.171 38.451 196.171C38.7401 196.171 39.0086 196.1 39.2567 195.957L39.5906 196.795ZM44.7654 190.771L45.8201 190.771L42.9051 198.128C42.6492 198.776 42.3768 199.238 42.0877 199.514C41.8006 199.789 41.3963 199.927 40.8748 199.927C40.3885 199.927 40.0008 199.803 39.7117 199.555L40.1189 198.729C40.2068 198.801 40.3211 198.858 40.4617 198.901C40.6023 198.946 40.74 198.969 40.8748 198.969C41.1229 198.969 41.3328 198.885 41.5047 198.717C41.6785 198.549 41.865 198.232 42.0643 197.768L42.3631 197.073L39.7732 190.771L40.948 190.771L42.9051 195.775L44.7654 190.771ZM49.9244 190.628C50.397 190.628 50.8433 190.758 51.2632 191.018C51.6832 191.277 52.0211 191.653 52.2769 192.146C52.5328 192.638 52.6607 193.216 52.6607 193.88C52.6607 194.552 52.5328 195.134 52.2769 195.626C52.0211 196.118 51.6832 196.492 51.2632 196.748C50.8433 197.004 50.397 197.132 49.9244 197.132C49.524 197.132 49.1412 197.038 48.7759 196.851C48.4127 196.663 48.1158 196.385 47.8853 196.016L47.8853 199.783L46.8629 199.783L46.8629 190.771L47.7652 190.771C47.7808 191.172 47.8043 191.524 47.8355 191.829C48.0601 191.429 48.358 191.129 48.7291 190.93C49.1021 190.729 49.5005 190.628 49.9244 190.628ZM49.7925 196.171C50.3355 196.171 50.7711 195.972 51.0992 195.573C51.4273 195.173 51.5914 194.608 51.5914 193.88C51.5914 193.151 51.4273 192.588 51.0992 192.189C50.7711 191.789 50.3355 191.589 49.7925 191.589C49.4644 191.589 49.1558 191.665 48.8668 191.817C48.5797 191.968 48.3443 192.216 48.1607 192.562C47.9771 192.905 47.8853 193.345 47.8853 193.88C47.8853 194.415 47.9771 194.855 48.1607 195.201C48.3443 195.545 48.5797 195.793 48.8668 195.945C49.1558 196.096 49.4644 196.171 49.7925 196.171ZM56.7396 190.628C57.2767 190.628 57.7465 190.754 58.1488 191.006C58.5531 191.258 58.8627 191.6 59.0775 192.031C59.2943 192.463 59.4027 192.943 59.4027 193.473C59.4027 193.695 59.3871 193.899 59.3558 194.085L54.8676 194.085C54.9086 194.796 55.1127 195.326 55.4799 195.676C55.847 196.023 56.3109 196.197 56.8715 196.197C57.5687 196.197 58.0726 195.917 58.3832 195.356L59.1654 195.799C59.0052 196.223 58.7064 196.551 58.2689 196.783C57.8334 197.016 57.348 197.132 56.8129 197.132C56.2523 197.132 55.7416 197.004 55.2806 196.748C54.8217 196.492 54.4584 196.118 54.1908 195.626C53.9232 195.134 53.7894 194.544 53.7894 193.856C53.7894 193.192 53.9232 192.616 54.1908 192.128C54.4584 191.64 54.8158 191.268 55.2631 191.012C55.7123 190.756 56.2045 190.628 56.7396 190.628ZM56.7045 191.565C56.2552 191.565 55.8646 191.709 55.5326 191.996C55.2006 192.283 54.9906 192.703 54.9027 193.256L58.3011 193.256C58.2758 192.721 58.1185 192.306 57.8295 192.011C57.5424 191.714 57.1674 191.565 56.7045 191.565Z" fill="rgb(255,255,255)" fill-rule="nonzero" />
		</g>
		<g id="容器 4855" customFrame="url(#clipPath_27)">
			<rect id="容器 4855" width="115.000000" height="82.000000" x="83.000000" y="124.000000" />
			<path id="" d="M88.291 130.132L88.291 129.124L85.8916 129.124L85.291 129.124L85.291 140.38L86.5039 140.38L88.291 140.38L88.291 139.372L86.5039 139.372L86.5039 130.132L88.291 130.132ZM96.1513 137.799L94.4843 137.799L94.4843 130.601L93.2714 130.601L91.4492 132.027L92.1933 132.988L93.2714 132.136L93.2714 137.799L91.2324 137.799L91.2324 139L96.4882 139L96.1513 137.799ZM100.352 137.201L100.352 139.012L101.457 139.012L100.065 140.884L101.36 140.884L102.163 139.012L102.163 137.201L100.352 137.201ZM107.193 137.799L108.74 136.445C108.848 136.36 108.945 136.264 109.051 136.179C109.555 135.736 110.132 135.232 110.551 134.679C111.104 133.949 111.321 133.24 111.163 132.543C110.888 131.26 109.724 130.527 108.104 130.612C106.689 130.683 105.775 131.415 105.465 131.837L106.423 132.555C106.449 132.531 106.976 131.872 108.163 131.813C109.604 131.729 109.915 132.473 109.988 132.795C110.167 133.612 109.112 134.535 108.26 135.268C108.151 135.364 108.043 135.449 107.949 135.543L105.38 137.799L105.356 137.825L105.356 139L111.128 139L110.791 137.799L107.193 137.799ZM114.848 137.201L114.848 139.012L115.953 139.012L114.561 140.884L115.856 140.884L116.659 139.012L116.659 137.201L114.848 137.201ZM125.143 137.799L123.476 137.799L123.476 130.601L122.263 130.601L120.441 132.027L121.185 132.988L122.263 132.136L122.263 137.799L120.224 137.799L120.224 139L125.48 139L125.143 137.799ZM128.937 137.799L130.484 136.445C130.592 136.36 130.689 136.264 130.795 136.179C131.299 135.736 131.876 135.232 132.295 134.679C132.848 133.949 133.065 133.24 132.907 132.543C132.632 131.26 131.468 130.527 129.848 130.612C128.433 130.683 127.519 131.415 127.209 131.837L128.167 132.555C128.193 132.531 128.72 131.872 129.907 131.813C131.348 131.729 131.659 132.473 131.732 132.795C131.911 133.612 130.856 134.535 130.004 135.268C129.895 135.364 129.787 135.449 129.693 135.543L127.124 137.799L127.1 137.825L127.1 139L132.872 139L132.535 137.799L128.937 137.799ZM139.917 136.085C139.891 135.915 139.844 135.748 139.771 135.593C139.545 135.077 139.147 134.729 138.693 134.488C138.705 134.477 138.716 134.477 138.728 134.465C139.173 134.189 139.46 133.817 139.592 133.372C139.651 133.179 139.677 132.977 139.677 132.76C139.677 132.303 139.519 131.884 139.244 131.547C139.244 131.535 139.244 131.535 139.232 131.535C139.208 131.512 139.197 131.477 139.173 131.453C139.088 131.356 138.992 131.271 138.895 131.189C138.429 130.803 137.767 130.601 136.988 130.601C136.988 130.601 136.976 130.601 136.964 130.601C136.964 130.601 136.953 130.601 136.953 130.601C136.173 130.601 135.511 130.803 135.045 131.189C134.949 131.271 134.852 131.356 134.767 131.453C134.744 131.477 134.72 131.512 134.697 131.535C134.697 131.535 134.697 131.535 134.697 131.547C134.421 131.884 134.251 132.303 134.251 132.76C134.251 132.977 134.287 133.179 134.348 133.372C134.48 133.817 134.767 134.189 135.212 134.465C135.224 134.477 135.236 134.477 135.248 134.488C134.779 134.729 134.395 135.077 134.155 135.593C134.096 135.748 134.049 135.915 134.011 136.085C133.988 136.24 133.964 136.384 133.976 136.527C133.964 136.949 134.073 137.356 134.301 137.729C134.779 138.543 135.801 139 136.953 139C136.953 139 136.964 139 136.964 139C136.976 139 136.988 139 136.988 139C138.127 139 139.159 138.543 139.639 137.729C139.868 137.356 139.964 136.949 139.964 136.527C139.964 136.384 139.953 136.24 139.917 136.085ZM135.368 132.484C135.523 132.004 136.123 131.667 136.964 131.655C137.805 131.667 138.403 132.004 138.573 132.484C138.584 132.555 138.596 132.628 138.596 132.713C138.596 133.179 138.332 133.516 137.767 133.791C137.553 133.899 137.287 133.984 136.964 134.081C136.651 133.984 136.387 133.899 136.159 133.791C135.596 133.516 135.344 133.179 135.344 132.713C135.344 132.628 135.344 132.555 135.368 132.484ZM138.681 137.02C138.368 137.5 137.697 137.811 136.964 137.825C136.232 137.811 135.573 137.5 135.259 137.02C135.069 136.709 135.045 136.372 135.201 136.035C135.453 135.52 136.185 135.159 136.964 134.919C137.755 135.159 138.488 135.52 138.728 136.035C138.895 136.372 138.872 136.709 138.681 137.02ZM143.456 137.201L143.456 139.012L144.561 139.012L143.169 140.884L144.464 140.884L145.267 139.012L145.267 137.201L143.456 137.201ZM153.561 134.415C152.743 133.756 151.437 133.577 150.189 133.935C150.189 133.935 150.177 133.935 150.177 133.949C150.165 133.949 150.151 133.949 150.127 133.961L150.356 131.813L153.596 131.813L153.933 130.612L149.251 130.612L149.228 131.14L149.216 131.14L148.809 134.957L149.755 135.508C149.949 135.376 150.283 135.171 150.476 135.112C151.364 134.849 152.289 134.945 152.805 135.353C153.139 135.616 153.283 136 153.236 136.516C153.189 136.996 152.697 137.729 151.519 137.799C150.297 137.86 149.228 137.043 149.216 137.043L148.484 137.992C148.531 138.039 149.793 139 151.375 139C151.449 139 151.507 139 151.58 139C153.321 138.903 154.34 137.74 154.437 136.624C154.519 135.713 154.208 134.931 153.561 134.415ZM160.531 137.799L158.864 137.799L158.864 130.601L157.651 130.601L155.829 132.027L156.573 132.988L157.651 132.136L157.651 137.799L155.612 137.799L155.612 139L160.868 139L160.531 137.799ZM164.325 137.799L165.872 136.445C165.98 136.36 166.077 136.264 166.183 136.179C166.687 135.736 167.264 135.232 167.683 134.679C168.236 133.949 168.453 133.24 168.295 132.543C168.02 131.26 166.856 130.527 165.236 130.612C163.821 130.683 162.907 131.415 162.597 131.837L163.555 132.555C163.581 132.531 164.108 131.872 165.295 131.813C166.736 131.729 167.047 132.473 167.12 132.795C167.299 133.612 166.244 134.535 165.392 135.268C165.283 135.364 165.175 135.449 165.081 135.543L162.512 137.799L162.488 137.825L162.488 139L168.26 139L167.923 137.799L164.325 137.799ZM173.457 129.124L171.069 129.124L171.069 130.132L172.856 130.132L172.856 139.372L171.069 139.372L171.069 140.38L172.856 140.38L174.069 140.38L174.069 129.124L173.457 129.124Z" opacity="0.800000012" fill="rgb(255,255,255)" fill-rule="nonzero" />
			<path id="" d="M89.3105 150.612L87.7285 150.612C87.6201 150.803 87.5234 151.043 87.415 151.295L87.3799 151.368C87.3799 151.38 87.3799 151.392 87.3682 151.403L87.3564 151.441C87.3447 151.465 87.333 151.488 87.3213 151.512L87.2949 151.597L87.2598 151.679L87.2363 151.752L87.2012 151.825L87.1748 151.907L87.1514 151.98L87.1279 152.051L87.0928 152.124C87.0928 152.136 87.0928 152.147 87.0811 152.159L87.0547 152.221L87.0312 152.291L87.0078 152.364L86.9961 152.423L86.9844 152.435L86.6123 153.671L86.2285 152.435L86.2285 152.423L86.2051 152.364L86.1787 152.291C86.1787 152.279 86.167 152.268 86.167 152.256L86.1436 152.197L86.1201 152.124L86.0967 152.051L86.0586 151.98L86.0352 151.907L86.0117 151.825L85.9766 151.752L85.9531 151.679L85.915 151.597L85.8916 151.512C85.8799 151.488 85.8682 151.465 85.8564 151.441L85.8447 151.403C85.7246 151.104 85.6045 150.853 85.4961 150.636C85.4961 150.624 85.4844 150.624 85.4844 150.612L85.0654 150.612L83.9111 150.601L83.876 151.093L83.8408 151.535L83.8174 151.907L83.791 152.303L83.7676 152.569L83.7559 152.833L83.7441 153.097L83.7324 153.287L83.7207 153.457L83.709 153.577L83.6973 153.756L83.6973 153.853L83.6973 153.961L83.6826 154.043L83.6826 154.104L83.6826 154.163L83.6826 154.236L83.6826 154.283L83.6826 154.307L83.6826 154.345L83.6123 159L84.8105 159L84.8838 154.345L84.8838 154.295L84.8838 154.248L84.8838 154.201L84.8838 154.128L84.8955 154.031L84.8955 153.923L84.8955 153.779L84.9072 153.612L84.9189 153.445L84.9307 153.167L84.957 152.807L84.9805 152.508L84.9922 152.268L85.0156 152.317C85.0273 152.329 85.0273 152.341 85.0273 152.353L85.0508 152.423L85.0771 152.496L85.1006 152.555L85.124 152.628L85.1475 152.689C85.1592 152.713 85.1592 152.725 85.1709 152.748L85.1709 152.771L86.0586 155.663L87.1514 155.663L88.0391 152.771L88.0391 152.748C88.0508 152.725 88.0654 152.713 88.0654 152.689L88.0889 152.628L88.1123 152.555C88.1123 152.543 88.124 152.531 88.124 152.52L88.1475 152.461L88.1709 152.388L88.1973 152.317L88.2207 152.256L88.2324 152.232L88.2559 152.52L88.2676 152.783L88.291 153.073L88.3027 153.299L88.3174 153.48L88.3291 153.647L88.3291 153.841L88.3408 153.961L88.3408 154.043L88.3408 154.104L88.3525 154.189L88.3525 154.236L88.3525 154.295L88.3525 154.333L88.4111 159L89.624 159L89.5508 154.356L89.5508 154.333L89.5508 154.283L89.5508 154.248L89.5508 154.201L89.5508 154.128L89.5391 154.093L89.5391 154.043L89.5391 153.935L89.5391 153.829L89.5273 153.659L89.5156 153.539L89.5039 153.349L89.5039 153.179L89.4805 152.953L89.4688 152.616L89.4307 152.209L89.3955 151.705L89.3604 151.14L89.3105 150.612ZM91.8955 150.601L91.8955 159L97.8369 159L97.5 157.799L93.0966 157.799L93.0966 155.197L96.6005 155.197L96.6005 153.996L93.0966 153.996L93.0966 151.799L97.5 151.799L97.8369 150.601L91.8955 150.601ZM105.807 150.612L104.225 150.612C104.116 150.803 104.019 151.043 103.911 151.295L103.876 151.368C103.876 151.38 103.876 151.392 103.864 151.403L103.852 151.441C103.841 151.465 103.829 151.488 103.817 151.512L103.791 151.597L103.756 151.679L103.732 151.752L103.697 151.825L103.671 151.907L103.647 151.98L103.624 152.051L103.589 152.124C103.589 152.136 103.589 152.147 103.577 152.159L103.551 152.221L103.527 152.291L103.504 152.364L103.492 152.423L103.48 152.435L103.108 153.671L102.725 152.435L102.725 152.423L102.701 152.364L102.675 152.291C102.675 152.279 102.663 152.268 102.663 152.256L102.64 152.197L102.616 152.124L102.593 152.051L102.555 151.98L102.531 151.907L102.508 151.825L102.473 151.752L102.449 151.679L102.411 151.597L102.388 151.512C102.376 151.488 102.364 151.465 102.352 151.441L102.341 151.403C102.221 151.104 102.1 150.853 101.992 150.636C101.992 150.624 101.98 150.624 101.98 150.612L101.561 150.612L100.407 150.601L100.372 151.093L100.337 151.535L100.313 151.907L100.287 152.303L100.264 152.569L100.252 152.833L100.24 153.097L100.228 153.287L100.217 153.457L100.205 153.577L100.193 153.756L100.193 153.853L100.193 153.961L100.179 154.043L100.179 154.104L100.179 154.163L100.179 154.236L100.179 154.283L100.179 154.307L100.179 154.345L100.108 159L101.307 159L101.38 154.345L101.38 154.295L101.38 154.248L101.38 154.201L101.38 154.128L101.392 154.031L101.392 153.923L101.392 153.779L101.403 153.612L101.415 153.445L101.427 153.167L101.453 152.807L101.476 152.508L101.488 152.268L101.512 152.317C101.523 152.329 101.523 152.341 101.523 152.353L101.547 152.423L101.573 152.496L101.597 152.555L101.62 152.628L101.643 152.689C101.655 152.713 101.655 152.725 101.667 152.748L101.667 152.771L102.555 155.663L103.647 155.663L104.535 152.771L104.535 152.748C104.547 152.725 104.561 152.713 104.561 152.689L104.585 152.628L104.608 152.555C104.608 152.543 104.62 152.531 104.62 152.52L104.643 152.461L104.667 152.388L104.693 152.317L104.717 152.256L104.728 152.232L104.752 152.52L104.764 152.783L104.787 153.073L104.799 153.299L104.813 153.48L104.825 153.647L104.825 153.841L104.837 153.961L104.837 154.043L104.837 154.104L104.849 154.189L104.849 154.236L104.849 154.295L104.849 154.333L104.907 159L106.12 159L106.047 154.356L106.047 154.333L106.047 154.283L106.047 154.248L106.047 154.201L106.047 154.128L106.035 154.093L106.035 154.043L106.035 153.935L106.035 153.829L106.023 153.659L106.012 153.539L106 153.349L106 153.179L105.976 152.953L105.965 152.616L105.927 152.209L105.892 151.705L105.856 151.14L105.807 150.612ZM114.321 159L114.321 157.86L108.403 157.86L108.403 159L114.321 159ZM120.659 152.221C121.236 152.713 121.488 153.337 121.488 154.201C121.488 154.201 121.488 155.016 121.368 155.543C121.283 155.941 121.163 156.179 120.972 156.48C120.6 157.055 119.927 157.5 119.364 157.644C118.825 157.775 118.62 157.799 118.38 157.811C118.104 157.825 118.008 157.825 118.008 157.825L118.008 151.717L119.291 151.717C119.856 151.717 120.263 151.872 120.659 152.221ZM116.795 159L118.213 159C118.403 159 119.089 158.977 119.663 158.795C120.551 158.531 121.5 157.931 122.015 157.14C122.496 156.407 122.701 155.628 122.736 154.559L122.736 154.488L122.736 154.415L122.736 154.345L122.736 154.271C122.736 154.248 122.736 154.225 122.736 154.201C122.736 152.988 122.341 152.077 121.5 151.333C120.899 150.817 120.143 150.577 119.256 150.601L119.232 150.601L118.008 150.601L116.795 150.601L116.795 159ZM124.887 150.601L124.887 159L130.829 159L130.492 157.799L126.089 157.799L126.089 155.197L129.593 155.197L129.593 153.996L126.089 153.996L126.089 151.799L130.492 151.799L130.829 150.601L124.887 150.601ZM137.217 153.984L137.181 154.116L137.132 154.321L137.096 154.465L137.061 154.608C137.061 154.62 137.061 154.644 137.047 154.655L137.035 154.752L137 154.884L136.965 155.016L136.929 155.147L136.903 155.232L136.88 155.303L136.856 155.423C136.748 155.821 136.616 156.217 136.472 156.624L136.449 156.683L136.112 157.547L135.763 156.683L135.74 156.624C135.596 156.217 135.465 155.821 135.356 155.423L135.333 155.303L135.309 155.232L135.283 155.147L135.248 155.016L135.213 154.884L135.177 154.752L135.151 154.655C135.151 154.644 135.151 154.62 135.139 154.608L135.104 154.465L135.069 154.321L135.019 154.116L134.996 153.984L134.348 150.601L133.147 150.601L133.809 154.225L133.821 154.248L133.856 154.403L133.903 154.597L133.941 154.74L133.976 154.884L134.011 155.027L134.047 155.159L134.073 155.244L134.085 155.329L134.12 155.461L134.155 155.581L134.181 155.663L134.205 155.748C134.325 156.193 134.468 156.647 134.635 157.104L134.635 157.116L135.391 159L136.821 159L137.565 157.116L137.577 157.104C137.744 156.647 137.887 156.193 138.008 155.748L138.031 155.663L138.057 155.581L138.092 155.461L138.116 155.329L138.139 155.244L138.163 155.159L138.201 155.027L138.236 154.884L138.271 154.74L138.309 154.597L138.356 154.403L138.391 154.248L138.391 154.225L139.053 150.601L137.864 150.601L137.217 153.984ZM141.589 151.799L143.748 151.799L143.748 157.787L141.72 157.787L141.72 159L146.965 159L146.965 157.799L144.961 157.787L144.961 151.799L147.12 151.799L147.12 150.601L141.911 150.601L141.589 151.799ZM154.815 151.837C154.229 151.008 153.497 150.601 152.536 150.601C151.299 150.601 150.315 151.345 149.823 152.531C149.585 153.108 149.489 153.791 149.489 154.62C149.489 154.632 149.489 154.644 149.489 154.655L149.489 154.729L149.489 154.799C149.489 154.811 149.489 154.825 149.489 154.837L149.489 154.896L149.489 154.969C149.489 154.98 149.489 154.992 149.489 155.004L149.489 155.065C149.489 155.077 149.489 155.089 149.489 155.101L149.5 155.171L149.5 155.232L149.5 155.291C149.5 155.388 149.512 155.484 149.524 155.581L149.524 155.64C149.536 155.701 149.536 155.771 149.547 155.845L149.559 155.903L149.559 155.953L149.571 156.012C149.585 156.085 149.597 156.144 149.609 156.205L149.609 156.264C149.691 156.683 149.823 157.055 150.016 157.392C150.593 158.423 151.419 159 152.512 159C153.617 159 154.493 158.569 155.055 157.705L154.036 157.031L154.036 157.055C153.699 157.547 153.209 157.799 152.512 157.799C152.14 157.799 151.721 157.644 151.419 157.307C151.288 157.163 151.179 156.996 151.071 156.791C151 156.659 150.939 156.516 150.88 156.36L150.869 156.311C150.857 156.24 150.833 156.167 150.819 156.085L150.807 156.047C150.807 156.035 150.807 156.035 150.795 156.023L150.795 155.977C150.784 155.915 150.772 155.856 150.76 155.795L150.76 155.748C150.748 155.725 150.748 155.713 150.748 155.701L150.748 155.651C150.737 155.628 150.737 155.616 150.737 155.593L150.737 155.543C150.737 155.531 150.737 155.531 150.725 155.52L150.725 155.473L150.725 155.411C150.725 155.411 150.725 155.399 150.725 155.388L150.713 155.341C150.713 155.329 150.713 155.317 150.713 155.303L150.713 155.256C150.713 155.244 150.713 155.232 150.713 155.221L150.699 155.171C150.699 155.147 150.699 155.136 150.699 155.112L150.699 155.051L150.699 154.992C150.699 154.98 150.699 154.98 150.699 154.969L150.699 154.907L150.699 154.849L150.699 154.787L150.699 154.729C150.699 154.717 150.699 154.705 150.699 154.693L150.699 154.632C150.699 153.935 150.772 153.396 150.939 152.988C151.264 152.232 151.815 151.813 152.536 151.813C153.075 151.813 153.447 152.004 153.795 152.484L153.819 152.52L153.833 152.531C154.012 152.783 154.132 153.155 154.167 153.647L155.284 152.915C155.187 152.496 155.032 152.136 154.815 151.837ZM157.663 150.601L157.663 159L163.605 159L163.268 157.799L158.865 157.799L158.865 155.197L162.369 155.197L162.369 153.996L158.865 153.996L158.865 151.799L163.268 151.799L163.605 150.601L157.663 150.601ZM171.841 159L171.841 157.86L165.923 157.86L165.923 159L171.841 159ZM178.179 152.221C178.756 152.713 179.008 153.337 179.008 154.201C179.008 154.201 179.008 155.016 178.888 155.543C178.803 155.941 178.683 156.179 178.492 156.48C178.12 157.055 177.447 157.5 176.884 157.644C176.345 157.775 176.14 157.799 175.9 157.811C175.624 157.825 175.528 157.825 175.528 157.825L175.528 151.717L176.811 151.717C177.376 151.717 177.783 151.872 178.179 152.221ZM174.315 159L175.733 159C175.923 159 176.609 158.977 177.183 158.795C178.071 158.531 179.02 157.931 179.535 157.14C180.016 156.407 180.221 155.628 180.256 154.559L180.256 154.488L180.256 154.415L180.256 154.345L180.256 154.271C180.256 154.248 180.256 154.225 180.256 154.201C180.256 152.988 179.861 152.077 179.02 151.333C178.419 150.817 177.663 150.577 176.776 150.601L176.752 150.601L175.528 150.601L174.315 150.601L174.315 159ZM186.427 152.221C187.004 152.713 187.256 153.337 187.256 154.201C187.256 154.201 187.256 155.016 187.136 155.543C187.051 155.941 186.931 156.179 186.74 156.48C186.368 157.055 185.695 157.5 185.132 157.644C184.593 157.775 184.388 157.799 184.148 157.811C183.872 157.825 183.776 157.825 183.776 157.825L183.776 151.717L185.059 151.717C185.624 151.717 186.031 151.872 186.427 152.221ZM182.563 159L183.981 159C184.171 159 184.857 158.977 185.431 158.795C186.319 158.531 187.268 157.931 187.783 157.14C188.264 156.407 188.469 155.628 188.504 154.559L188.504 154.488L188.504 154.415L188.504 154.345L188.504 154.271C188.504 154.248 188.504 154.225 188.504 154.201C188.504 152.988 188.109 152.077 187.268 151.333C186.667 150.817 185.911 150.577 185.024 150.601L185 150.601L183.776 150.601L182.563 150.601L182.563 159ZM191.868 154.236L191.868 151.799L193.919 151.799L193.943 151.799C194.795 151.813 195.299 152.232 195.299 152.856C195.299 153.337 195.144 153.697 194.748 153.949C194.567 154.069 194.364 154.14 194.124 154.189C194.124 154.189 194.124 154.189 194.113 154.189L194.089 154.189L194.051 154.201L194.028 154.201L193.992 154.213L193.969 154.213L193.931 154.213L193.907 154.213L193.884 154.225L193.861 154.225L193.837 154.225L193.799 154.225L193.752 154.225L193.717 154.236L193.679 154.236L193.632 154.236L193.585 154.236L193.535 154.236L193.439 154.236L193.345 154.236L193.237 154.236L191.868 154.236ZM190.667 150.601L190.667 159L191.868 159L191.868 155.435L193.128 155.435L193.248 155.435L193.357 155.435L193.38 155.435L195.205 159L196.585 159L194.652 155.291C194.915 155.221 195.167 155.112 195.396 154.969C196.163 154.465 196.512 153.721 196.512 152.856C196.512 151.5 195.396 150.601 193.919 150.601L190.667 150.601Z" opacity="0.800000012" fill="rgb(255,255,255)" fill-rule="nonzero" />
			<path id="" d="M89.3105 170.612L87.7285 170.612C87.6201 170.803 87.5234 171.043 87.415 171.295L87.3799 171.368C87.3799 171.38 87.3799 171.392 87.3682 171.403L87.3564 171.441C87.3447 171.465 87.333 171.488 87.3213 171.512L87.2949 171.597L87.2598 171.679L87.2363 171.752L87.2012 171.825L87.1748 171.907L87.1514 171.98L87.1279 172.051L87.0928 172.124C87.0928 172.136 87.0928 172.147 87.0811 172.159L87.0547 172.221L87.0312 172.291L87.0078 172.364L86.9961 172.423L86.9844 172.435L86.6123 173.671L86.2285 172.435L86.2285 172.423L86.2051 172.364L86.1787 172.291C86.1787 172.279 86.167 172.268 86.167 172.256L86.1436 172.197L86.1201 172.124L86.0967 172.051L86.0586 171.98L86.0352 171.907L86.0117 171.825L85.9766 171.752L85.9531 171.679L85.915 171.597L85.8916 171.512C85.8799 171.488 85.8682 171.465 85.8564 171.441L85.8447 171.403C85.7246 171.104 85.6045 170.853 85.4961 170.636C85.4961 170.624 85.4844 170.624 85.4844 170.612L85.0654 170.612L83.9111 170.601L83.876 171.093L83.8408 171.535L83.8174 171.907L83.791 172.303L83.7676 172.569L83.7559 172.833L83.7441 173.097L83.7324 173.287L83.7207 173.457L83.709 173.577L83.6973 173.756L83.6973 173.853L83.6973 173.961L83.6826 174.043L83.6826 174.104L83.6826 174.163L83.6826 174.236L83.6826 174.283L83.6826 174.307L83.6826 174.345L83.6123 179L84.8105 179L84.8838 174.345L84.8838 174.295L84.8838 174.248L84.8838 174.201L84.8838 174.128L84.8955 174.031L84.8955 173.923L84.8955 173.779L84.9072 173.612L84.9189 173.445L84.9307 173.167L84.957 172.807L84.9805 172.508L84.9922 172.268L85.0156 172.317C85.0273 172.329 85.0273 172.341 85.0273 172.353L85.0508 172.423L85.0771 172.496L85.1006 172.555L85.124 172.628L85.1475 172.689C85.1592 172.713 85.1592 172.725 85.1709 172.748L85.1709 172.771L86.0586 175.663L87.1514 175.663L88.0391 172.771L88.0391 172.748C88.0508 172.725 88.0654 172.713 88.0654 172.689L88.0889 172.628L88.1123 172.555C88.1123 172.543 88.124 172.531 88.124 172.52L88.1475 172.461L88.1709 172.388L88.1973 172.317L88.2207 172.256L88.2324 172.232L88.2559 172.52L88.2676 172.783L88.291 173.073L88.3027 173.299L88.3174 173.48L88.3291 173.647L88.3291 173.841L88.3408 173.961L88.3408 174.043L88.3408 174.104L88.3525 174.189L88.3525 174.236L88.3525 174.295L88.3525 174.333L88.4111 179L89.624 179L89.5508 174.356L89.5508 174.333L89.5508 174.283L89.5508 174.248L89.5508 174.201L89.5508 174.128L89.5391 174.093L89.5391 174.043L89.5391 173.935L89.5391 173.829L89.5273 173.659L89.5156 173.539L89.5039 173.349L89.5039 173.179L89.4805 172.953L89.4688 172.616L89.4307 172.209L89.3955 171.705L89.3604 171.14L89.3105 170.612ZM91.8955 170.601L91.8955 179L97.8369 179L97.5 177.799L93.0966 177.799L93.0966 175.197L96.6005 175.197L96.6005 173.996L93.0966 173.996L93.0966 171.799L97.5 171.799L97.8369 170.601L91.8955 170.601ZM105.807 170.612L104.225 170.612C104.116 170.803 104.019 171.043 103.911 171.295L103.876 171.368C103.876 171.38 103.876 171.392 103.864 171.403L103.852 171.441C103.841 171.465 103.829 171.488 103.817 171.512L103.791 171.597L103.756 171.679L103.732 171.752L103.697 171.825L103.671 171.907L103.647 171.98L103.624 172.051L103.589 172.124C103.589 172.136 103.589 172.147 103.577 172.159L103.551 172.221L103.527 172.291L103.504 172.364L103.492 172.423L103.48 172.435L103.108 173.671L102.725 172.435L102.725 172.423L102.701 172.364L102.675 172.291C102.675 172.279 102.663 172.268 102.663 172.256L102.64 172.197L102.616 172.124L102.593 172.051L102.555 171.98L102.531 171.907L102.508 171.825L102.473 171.752L102.449 171.679L102.411 171.597L102.388 171.512C102.376 171.488 102.364 171.465 102.352 171.441L102.341 171.403C102.221 171.104 102.1 170.853 101.992 170.636C101.992 170.624 101.98 170.624 101.98 170.612L101.561 170.612L100.407 170.601L100.372 171.093L100.337 171.535L100.313 171.907L100.287 172.303L100.264 172.569L100.252 172.833L100.24 173.097L100.228 173.287L100.217 173.457L100.205 173.577L100.193 173.756L100.193 173.853L100.193 173.961L100.179 174.043L100.179 174.104L100.179 174.163L100.179 174.236L100.179 174.283L100.179 174.307L100.179 174.345L100.108 179L101.307 179L101.38 174.345L101.38 174.295L101.38 174.248L101.38 174.201L101.38 174.128L101.392 174.031L101.392 173.923L101.392 173.779L101.403 173.612L101.415 173.445L101.427 173.167L101.453 172.807L101.476 172.508L101.488 172.268L101.512 172.317C101.523 172.329 101.523 172.341 101.523 172.353L101.547 172.423L101.573 172.496L101.597 172.555L101.62 172.628L101.643 172.689C101.655 172.713 101.655 172.725 101.667 172.748L101.667 172.771L102.555 175.663L103.647 175.663L104.535 172.771L104.535 172.748C104.547 172.725 104.561 172.713 104.561 172.689L104.585 172.628L104.608 172.555C104.608 172.543 104.62 172.531 104.62 172.52L104.643 172.461L104.667 172.388L104.693 172.317L104.717 172.256L104.728 172.232L104.752 172.52L104.764 172.783L104.787 173.073L104.799 173.299L104.813 173.48L104.825 173.647L104.825 173.841L104.837 173.961L104.837 174.043L104.837 174.104L104.849 174.189L104.849 174.236L104.849 174.295L104.849 174.333L104.907 179L106.12 179L106.047 174.356L106.047 174.333L106.047 174.283L106.047 174.248L106.047 174.201L106.047 174.128L106.035 174.093L106.035 174.043L106.035 173.935L106.035 173.829L106.023 173.659L106.012 173.539L106 173.349L106 173.179L105.976 172.953L105.965 172.616L105.927 172.209L105.892 171.705L105.856 171.14L105.807 170.612ZM114.321 179L114.321 177.86L108.403 177.86L108.403 179L114.321 179ZM120.659 172.221C121.236 172.713 121.488 173.337 121.488 174.201C121.488 174.201 121.488 175.016 121.368 175.543C121.283 175.941 121.163 176.179 120.972 176.48C120.6 177.055 119.927 177.5 119.364 177.644C118.825 177.775 118.62 177.799 118.38 177.811C118.104 177.825 118.008 177.825 118.008 177.825L118.008 171.717L119.291 171.717C119.856 171.717 120.263 171.872 120.659 172.221ZM116.795 179L118.213 179C118.403 179 119.089 178.977 119.663 178.795C120.551 178.531 121.5 177.931 122.015 177.14C122.496 176.407 122.701 175.628 122.736 174.559L122.736 174.488L122.736 174.415L122.736 174.345L122.736 174.271C122.736 174.248 122.736 174.225 122.736 174.201C122.736 172.988 122.341 172.077 121.5 171.333C120.899 170.817 120.143 170.577 119.256 170.601L119.232 170.601L118.008 170.601L116.795 170.601L116.795 179ZM124.887 170.601L124.887 179L130.829 179L130.492 177.799L126.089 177.799L126.089 175.197L129.593 175.197L129.593 173.996L126.089 173.996L126.089 171.799L130.492 171.799L130.829 170.601L124.887 170.601ZM137.217 173.984L137.181 174.116L137.132 174.321L137.096 174.465L137.061 174.608C137.061 174.62 137.061 174.644 137.047 174.655L137.035 174.752L137 174.884L136.965 175.016L136.929 175.147L136.903 175.232L136.88 175.303L136.856 175.423C136.748 175.821 136.616 176.217 136.472 176.624L136.449 176.683L136.112 177.547L135.763 176.683L135.74 176.624C135.596 176.217 135.465 175.821 135.356 175.423L135.333 175.303L135.309 175.232L135.283 175.147L135.248 175.016L135.213 174.884L135.177 174.752L135.151 174.655C135.151 174.644 135.151 174.62 135.139 174.608L135.104 174.465L135.069 174.321L135.019 174.116L134.996 173.984L134.348 170.601L133.147 170.601L133.809 174.225L133.821 174.248L133.856 174.403L133.903 174.597L133.941 174.74L133.976 174.884L134.011 175.027L134.047 175.159L134.073 175.244L134.085 175.329L134.12 175.461L134.155 175.581L134.181 175.663L134.205 175.748C134.325 176.193 134.468 176.647 134.635 177.104L134.635 177.116L135.391 179L136.821 179L137.565 177.116L137.577 177.104C137.744 176.647 137.887 176.193 138.008 175.748L138.031 175.663L138.057 175.581L138.092 175.461L138.116 175.329L138.139 175.244L138.163 175.159L138.201 175.027L138.236 174.884L138.271 174.74L138.309 174.597L138.356 174.403L138.391 174.248L138.391 174.225L139.053 170.601L137.864 170.601L137.217 173.984ZM141.589 171.799L143.748 171.799L143.748 177.787L141.72 177.787L141.72 179L146.965 179L146.965 177.799L144.961 177.787L144.961 171.799L147.12 171.799L147.12 170.601L141.911 170.601L141.589 171.799ZM154.815 171.837C154.229 171.008 153.497 170.601 152.536 170.601C151.299 170.601 150.315 171.345 149.823 172.531C149.585 173.108 149.489 173.791 149.489 174.62C149.489 174.632 149.489 174.644 149.489 174.655L149.489 174.729L149.489 174.799C149.489 174.811 149.489 174.825 149.489 174.837L149.489 174.896L149.489 174.969C149.489 174.98 149.489 174.992 149.489 175.004L149.489 175.065C149.489 175.077 149.489 175.089 149.489 175.101L149.5 175.171L149.5 175.232L149.5 175.291C149.5 175.388 149.512 175.484 149.524 175.581L149.524 175.64C149.536 175.701 149.536 175.771 149.547 175.845L149.559 175.903L149.559 175.953L149.571 176.012C149.585 176.085 149.597 176.144 149.609 176.205L149.609 176.264C149.691 176.683 149.823 177.055 150.016 177.392C150.593 178.423 151.419 179 152.512 179C153.617 179 154.493 178.569 155.055 177.705L154.036 177.031L154.036 177.055C153.699 177.547 153.209 177.799 152.512 177.799C152.14 177.799 151.721 177.644 151.419 177.307C151.288 177.163 151.179 176.996 151.071 176.791C151 176.659 150.939 176.516 150.88 176.36L150.869 176.311C150.857 176.24 150.833 176.167 150.819 176.085L150.807 176.047C150.807 176.035 150.807 176.035 150.795 176.023L150.795 175.977C150.784 175.915 150.772 175.856 150.76 175.795L150.76 175.748C150.748 175.725 150.748 175.713 150.748 175.701L150.748 175.651C150.737 175.628 150.737 175.616 150.737 175.593L150.737 175.543C150.737 175.531 150.737 175.531 150.725 175.52L150.725 175.473L150.725 175.411C150.725 175.411 150.725 175.399 150.725 175.388L150.713 175.341C150.713 175.329 150.713 175.317 150.713 175.303L150.713 175.256C150.713 175.244 150.713 175.232 150.713 175.221L150.699 175.171C150.699 175.147 150.699 175.136 150.699 175.112L150.699 175.051L150.699 174.992C150.699 174.98 150.699 174.98 150.699 174.969L150.699 174.907L150.699 174.849L150.699 174.787L150.699 174.729C150.699 174.717 150.699 174.705 150.699 174.693L150.699 174.632C150.699 173.935 150.772 173.396 150.939 172.988C151.264 172.232 151.815 171.813 152.536 171.813C153.075 171.813 153.447 172.004 153.795 172.484L153.819 172.52L153.833 172.531C154.012 172.783 154.132 173.155 154.167 173.647L155.284 172.915C155.187 172.496 155.032 172.136 154.815 171.837ZM157.663 170.601L157.663 179L163.605 179L163.268 177.799L158.865 177.799L158.865 175.197L162.369 175.197L162.369 173.996L158.865 173.996L158.865 171.799L163.268 171.799L163.605 170.601L157.663 170.601ZM171.841 179L171.841 177.86L165.923 177.86L165.923 179L171.841 179ZM178.179 172.221C178.756 172.713 179.008 173.337 179.008 174.201C179.008 174.201 179.008 175.016 178.888 175.543C178.803 175.941 178.683 176.179 178.492 176.48C178.12 177.055 177.447 177.5 176.884 177.644C176.345 177.775 176.14 177.799 175.9 177.811C175.624 177.825 175.528 177.825 175.528 177.825L175.528 171.717L176.811 171.717C177.376 171.717 177.783 171.872 178.179 172.221ZM174.315 179L175.733 179C175.923 179 176.609 178.977 177.183 178.795C178.071 178.531 179.02 177.931 179.535 177.14C180.016 176.407 180.221 175.628 180.256 174.559L180.256 174.488L180.256 174.415L180.256 174.345L180.256 174.271C180.256 174.248 180.256 174.225 180.256 174.201C180.256 172.988 179.861 172.077 179.02 171.333C178.419 170.817 177.663 170.577 176.776 170.601L176.752 170.601L175.528 170.601L174.315 170.601L174.315 179ZM186.427 172.221C187.004 172.713 187.256 173.337 187.256 174.201C187.256 174.201 187.256 175.016 187.136 175.543C187.051 175.941 186.931 176.179 186.74 176.48C186.368 177.055 185.695 177.5 185.132 177.644C184.593 177.775 184.388 177.799 184.148 177.811C183.872 177.825 183.776 177.825 183.776 177.825L183.776 171.717L185.059 171.717C185.624 171.717 186.031 171.872 186.427 172.221ZM182.563 179L183.981 179C184.171 179 184.857 178.977 185.431 178.795C186.319 178.531 187.268 177.931 187.783 177.14C188.264 176.407 188.469 175.628 188.504 174.559L188.504 174.488L188.504 174.415L188.504 174.345L188.504 174.271C188.504 174.248 188.504 174.225 188.504 174.201C188.504 172.988 188.109 172.077 187.268 171.333C186.667 170.817 185.911 170.577 185.024 170.601L185 170.601L183.776 170.601L182.563 170.601L182.563 179ZM191.868 174.236L191.868 171.799L193.919 171.799L193.943 171.799C194.795 171.813 195.299 172.232 195.299 172.856C195.299 173.337 195.144 173.697 194.748 173.949C194.567 174.069 194.364 174.14 194.124 174.189C194.124 174.189 194.124 174.189 194.113 174.189L194.089 174.189L194.051 174.201L194.028 174.201L193.992 174.213L193.969 174.213L193.931 174.213L193.907 174.213L193.884 174.225L193.861 174.225L193.837 174.225L193.799 174.225L193.752 174.225L193.717 174.236L193.679 174.236L193.632 174.236L193.585 174.236L193.535 174.236L193.439 174.236L193.345 174.236L193.237 174.236L191.868 174.236ZM190.667 170.601L190.667 179L191.868 179L191.868 175.435L193.128 175.435L193.248 175.435L193.357 175.435L193.38 175.435L195.205 179L196.585 179L194.652 175.291C194.915 175.221 195.167 175.112 195.396 174.969C196.163 174.465 196.512 173.721 196.512 172.856C196.512 171.5 195.396 170.601 193.919 170.601L190.667 170.601Z" opacity="0.800000012" fill="rgb(255,255,255)" fill-rule="nonzero" />
			<path id="" d="M86.4922 191.945C86.4922 191.667 86.4922 191.368 86.9346 191.069C87.3564 190.779 88.3174 190.829 88.8799 190.864C88.8916 190.864 88.8916 190.864 88.8916 190.864L89.2754 189.689C89.2754 189.689 89.085 189.689 89.0117 189.675C88.2793 189.64 87.043 189.569 86.2754 190.085C85.8564 190.372 85.5693 190.721 85.4229 191.128C85.3027 191.477 85.3027 191.775 85.3027 191.957L85.3027 192.411L83.5889 192.411L83.5889 193.601L85.3027 193.601L85.3027 199L86.4922 199L86.4922 193.601L89.2051 193.601L89.2051 192.411L86.4922 192.411L86.4922 191.945ZM96.0693 193.132C95.6474 192.675 95.0351 192.435 94.2793 192.423C93.6669 192.411 92.9492 192.604 92.3134 193.085L92.3134 192.423L91.124 192.423L91.124 201.783L92.3134 201.783L92.3134 199.035C92.8876 199.035 93.8603 199 94.4492 198.795C95.8994 198.303 96.705 197.201 96.7636 195.616C96.8134 194.488 96.5966 193.671 96.0693 193.132ZM95.5654 195.555C95.5156 196.659 95.0351 197.321 94.0507 197.655C93.6201 197.811 92.6826 197.825 92.3134 197.837L92.3134 194.175C92.7793 193.744 93.6201 193.551 94.2324 193.551C94.2441 193.551 94.2441 193.551 94.2558 193.551C94.6894 193.565 95 193.744 95.1933 193.949C95.4804 194.248 95.6005 194.787 95.5654 195.555ZM103.209 194.403C102.799 194.081 102.26 193.864 101.671 193.791L104.047 191.813L104.061 191.813L104.061 191.799L104.085 191.775L104.061 191.764L104.061 190.601L98.6239 190.601L98.287 191.813L102.163 191.813L99.2831 194.213L100.065 195.136L100.077 195.112L100.077 195.124C100.976 194.837 101.923 194.931 102.453 195.353C102.787 195.616 102.931 196 102.884 196.516C102.837 196.996 102.345 197.729 101.167 197.787C99.9452 197.86 98.8759 197.043 98.8642 197.031L98.12 197.992C98.1786 198.027 99.4413 199 101.023 199C101.097 199 101.155 199 101.228 199C102.98 198.903 103.988 197.729 104.085 196.624C104.167 195.713 103.856 194.919 103.209 194.403ZM106.785 197.799L108.332 196.445C108.44 196.36 108.537 196.264 108.643 196.179C109.147 195.736 109.724 195.232 110.143 194.679C110.696 193.949 110.913 193.24 110.755 192.543C110.48 191.26 109.316 190.527 107.696 190.612C106.281 190.683 105.367 191.415 105.057 191.837L106.015 192.555C106.041 192.531 106.568 191.872 107.755 191.813C109.196 191.729 109.507 192.473 109.58 192.795C109.759 193.612 108.704 194.535 107.852 195.268C107.743 195.364 107.635 195.449 107.541 195.543L104.972 197.799L104.948 197.825L104.948 199L110.72 199L110.383 197.799L106.785 197.799Z" opacity="0.800000012" fill="rgb(255,255,255)" fill-rule="nonzero" />
		</g>
	</g>
</svg>
