<svg viewBox="0 0 48 46" xmlns="http://www.w3.org/2000/svg" xmlns:xlink="http://www.w3.org/1999/xlink" width="48.000000" height="46.000000" fill="none" customFrame="#000000">
	<mask id="mask_1" width="28.000000" height="26.000000" x="10.000000" y="10.000000" maskUnits="userSpaceOnUse">
		<g filter="url(#pixso_custom_mask_type_outline)">
			<ellipse id="椭圆形" rx="14.000000" ry="13.000000" cx="24" cy="23" fill="rgb(255,255,255)" />
			<ellipse id="椭圆形" rx="13.666667" ry="12.666667" cx="24" cy="23" stroke="rgb(151,151,151)" stroke-opacity="0" stroke-width="0.666666865" />
		</g>
	</mask>
	<mask id="mask_0" width="28.000000" height="26.000000" x="10.000000" y="10.000000" maskUnits="userSpaceOnUse">
		<g filter="url(#pixso_custom_mask_type_outline)">
			<ellipse id="椭圆形" rx="14.000000" ry="13.000000" cx="24" cy="23" fill="rgb(255,255,255)" />
			<ellipse id="椭圆形" rx="13.709807" ry="12.709807" cx="24" cy="23" stroke="rgb(151,151,151)" stroke-opacity="0" stroke-width="0.580385923" />
		</g>
	</mask>
	<defs>
		<g id="pixso_custom_effect_0">
			<effect visibility="visible" effectType="gaussianBlur" stdDeviation="10" />
		</g>
		<filter id="filter_0" width="48.000000" height="46.000000" x="0.000000" y="0.000000" filterUnits="userSpaceOnUse" customEffect="url(#pixso_custom_effect_0)" color-interpolation-filters="sRGB">
			<feFlood flood-opacity="0" result="BackgroundImageFix" />
			<feBlend result="shape" in="SourceGraphic" in2="BackgroundImageFix" mode="normal" />
			<feGaussianBlur stdDeviation="3.33333325" result="effect_layerBlur_1" />
		</filter>
		<filter id="pixso_custom_mask_type_outline">
			<feColorMatrix type="matrix" values="0 0 0 0 1 0 0 0 0 1 0 0 0 0 1 0 0 0 1 0 " />
		</filter>
		<radialGradient id="paint_radial_0" cx="0" cy="0" r="1" gradientUnits="userSpaceOnUse" gradientTransform="matrix(0,-13.162,14.1745,0,12.9485,4.45561)">
			<stop stop-color="rgb(191,105,250)" offset="0" stop-opacity="1" />
			<stop stop-color="rgb(203,142,251)" offset="1" stop-opacity="1" />
		</radialGradient>
		<radialGradient id="paint_radial_1" cx="0" cy="0" r="1" gradientUnits="userSpaceOnUse" gradientTransform="matrix(0,13.1391,-14.1498,0,2.03304,13.1379)">
			<stop stop-color="rgb(125,223,231)" offset="0" stop-opacity="1" />
			<stop stop-color="rgb(140,163,250)" offset="1" stop-opacity="0.501960814" />
		</radialGradient>
		<radialGradient id="paint_radial_2" cx="0" cy="0" r="1" gradientUnits="userSpaceOnUse" gradientTransform="matrix(0,-23.5999,25.4153,0,5.13791,17.653)">
			<stop stop-color="rgb(198,128,250)" offset="0" stop-opacity="1" />
			<stop stop-color="rgb(122,102,255)" offset="1" stop-opacity="0" />
		</radialGradient>
		<radialGradient id="paint_radial_3" cx="0" cy="0" r="1" gradientUnits="userSpaceOnUse" gradientTransform="matrix(0.00649182,15.385,-16.5662,0.00699025,14.8865,18.0654)">
			<stop stop-color="rgb(91,71,213)" offset="0" stop-opacity="1" />
			<stop stop-color="rgb(122,102,255)" offset="1" stop-opacity="0" />
		</radialGradient>
		<linearGradient id="paint_linear_0" x1="6.13634348" x2="5.75570154" y1="-1.1920929e-07" y2="6.05691862" gradientUnits="userSpaceOnUse">
			<stop stop-color="rgb(138,190,243)" offset="0" stop-opacity="1" />
			<stop stop-color="rgb(47,134,222)" offset="1" stop-opacity="1" />
		</linearGradient>
		<linearGradient id="paint_linear_1" x1="4.09797382" x2="4.09797382" y1="0" y2="12.7870264" gradientUnits="userSpaceOnUse">
			<stop stop-color="rgb(164,236,241)" offset="0" stop-opacity="1" />
			<stop stop-color="rgb(85,204,217)" offset="1" stop-opacity="1" />
		</linearGradient>
	</defs>
	<g style="mix-blend-mode:overlay">
		<g filter="url(#filter_0)">
			<rect id="Default/1Light" width="28.000010" height="28.000000" x="10.000000" y="9.000000" />
		</g>
	</g>
	<g id="蒙版" mask="url(#mask_0)">
		<g mask="url(#mask_1)">
			<path id="路径 11" d="M14.568 0C14.568 0 16.0948 6.54331 15.1701 8.45182C14.3653 10.1129 11.0917 9.95835 10.0313 10.7762C6.61293 13.4125 2.12068 14.5489 0.64605 13.3991C-0.828575 12.2494 0.0065136 7.8627 5.40151 8.10664C10.7965 8.35059 14.568 0 14.568 0Z" fill="url(#paint_radial_0)" fill-rule="evenodd" transform="matrix(-1,0,0,1,24.6455,21.9819)" />
			<path id="路径 11" d="M14.7912 1.04767C14.663 0.407033 14.568 0 14.568 0C14.568 0 14.4022 0.367156 14.0904 0.945245C12.915 3.1241 9.66525 8.29944 5.40151 8.10664C0.0065136 7.8627 -0.828575 12.2494 0.64605 13.3991C2.12068 14.5489 6.61293 13.4125 10.0313 10.7762C11.0917 9.95835 14.3653 10.1129 15.1701 8.45182C15.8642 7.01932 15.1771 2.97564 14.7912 1.04767ZM14.287 1.95753C14.3909 2.52464 14.4805 3.07343 14.5558 3.60393C14.7071 4.66953 14.7883 5.58021 14.7995 6.33598C14.8125 7.21031 14.7361 7.8187 14.5702 8.16114C14.4231 8.46469 14.0987 8.72401 13.5969 8.93912C13.3674 9.03754 13.087 9.13264 12.7557 9.22442C12.5502 9.28137 12.2361 9.35909 11.8132 9.45759C11.2777 9.58235 10.8907 9.68228 10.6524 9.75738C10.2108 9.89651 9.86809 10.0601 9.62413 10.2483C8.82778 10.8625 7.96426 11.4006 7.03357 11.8628C6.15532 12.2989 5.28928 12.6327 4.43545 12.864C3.61411 13.0865 2.89147 13.1913 2.26753 13.1786C1.97655 13.1726 1.72334 13.1402 1.50791 13.0815C1.31819 13.0297 1.16754 12.9604 1.05597 12.8734C0.956968 12.7962 0.87471 12.6878 0.809192 12.5483C0.734576 12.3894 0.689153 12.2068 0.672924 12.0005C0.655252 11.7759 0.674124 11.5444 0.729542 11.3058C0.733815 11.2875 0.738287 11.2691 0.742956 11.2508C0.80359 11.0133 0.897593 10.7842 1.02496 10.5637C1.08279 10.4636 1.14593 10.3674 1.21441 10.2752C1.52329 9.85928 1.94052 9.52381 2.4661 9.26879C3.25483 8.8861 4.22326 8.72071 5.37139 8.77263C5.51078 8.77893 5.65003 8.78028 5.78916 8.77666C7.03037 8.74442 8.26132 8.31752 9.48202 7.49597C10.5287 6.79153 11.5454 5.81182 12.532 4.55683C13.1549 3.7645 13.7399 2.89807 14.287 1.95753Z" fill="rgb(151,151,151)" fill-opacity="0" fill-rule="evenodd" transform="matrix(-1,0,0,1,24.6455,21.9819)" />
			<path id="路径 8" d="M0.598817 12.0119C1.08347 12.0748 1.3421 11.6989 1.4216 11.6035C2.25207 10.6073 4.12183 8.93252 9.67284 9.57591C17.7285 10.5096 23.7088 9.90608 24.2302 6.16577C24.7516 2.42546 15.0727 -1.52523 8.28357 0.593821C1.49442 2.71288 -1.34291 11.7254 0.598817 12.0119Z" fill="rgb(140,163,250)" fill-rule="evenodd" transform="matrix(-1,0,0,1,37.7522,9.75781)" />
			<path id="路径 8" d="M0.598817 12.0119C1.08347 12.0748 1.3421 11.6989 1.4216 11.6035C2.25207 10.6073 4.12183 8.93252 9.67284 9.57591C17.7285 10.5096 23.7088 9.90608 24.2302 6.16577C24.7516 2.42546 15.0727 -1.52523 8.28357 0.593821C1.49442 2.71288 -1.34291 11.7254 0.598817 12.0119Z" fill="url(#paint_radial_1)" fill-opacity="0.699999988" fill-rule="evenodd" transform="matrix(-1,0,0,1,37.7522,9.75781)" />
			<path id="路径 8" d="M1.40146 11.6284C1.30341 11.7511 1.04833 12.0702 0.598817 12.0119C-1.34291 11.7254 1.49442 2.71288 8.28357 0.593821C15.0727 -1.52523 24.7516 2.42546 24.2302 6.16577C23.7088 9.90608 17.7285 10.5096 9.67284 9.57591C4.12183 8.93252 2.25207 10.6073 1.4216 11.6035C1.41583 11.6104 1.40913 11.6188 1.40146 11.6284ZM1.87796 10.2446C1.53138 10.5072 1.20857 10.8179 0.909519 11.1767C0.902759 11.1848 0.893156 11.1966 0.88071 11.2122C0.832552 11.2724 0.793339 11.3126 0.763072 11.3327C0.754421 11.3385 0.745957 11.343 0.73768 11.3463C0.733037 11.3356 0.728453 11.3236 0.72393 11.3104C0.660402 11.1244 0.64859 10.8464 0.688493 10.4764C0.734335 10.0513 0.84488 9.57264 1.02013 9.04049C1.20827 8.46917 1.45483 7.88744 1.7598 7.29529C1.81142 7.19507 1.86423 7.0955 1.91824 6.99658C2.20924 6.46365 2.53498 5.9497 2.89547 5.45472C3.35981 4.81715 3.86407 4.2361 4.40826 3.71157C5.60624 2.55685 6.91719 1.74483 8.34108 1.27549C8.388 1.26002 8.43504 1.24493 8.48221 1.23021C9.2641 0.986164 10.1043 0.821114 11.0029 0.735061C11.8586 0.653123 12.7462 0.644601 13.6658 0.709494C14.5457 0.771581 15.4265 0.898673 16.3083 1.09077C17.161 1.27653 17.9803 1.51542 18.7661 1.80745C19.5369 2.09387 20.2394 2.41789 20.8737 2.77949C21.5018 3.13765 22.0314 3.51458 22.4624 3.91028C22.8832 4.29666 23.1875 4.68013 23.3754 5.06068C23.5499 5.41424 23.6148 5.75192 23.5699 6.07372C23.5315 6.3496 23.4548 6.60716 23.34 6.8464C23.1521 7.23798 22.8618 7.58047 22.4693 7.87387C21.8121 8.36515 20.872 8.7303 19.649 8.9693C17.3112 9.42618 14.0114 9.40764 9.7496 8.91368C7.2121 8.61957 5.14489 8.76461 3.54799 9.34877C2.91924 9.57878 2.36256 9.87739 1.87796 10.2446Z" fill="rgb(151,151,151)" fill-opacity="0" fill-rule="evenodd" transform="matrix(-1,0,0,1,37.7522,9.75781)" />
			<path id="路径 9" d="M0.0105789 0.256324C0.289314 -0.190237 5.33289 -0.190237 8.67132 1.38687C12.0098 2.96398 14.3101 5.59256 15.6457 9.2108C16.9813 12.829 15.6499 19.0713 9.96116 20.288C4.27241 21.5046 2.61926 15.4946 3.8418 9.2108C5.06434 2.927 -0.268156 0.702884 0.0105789 0.256324Z" fill="rgb(122,102,255)" fill-rule="evenodd" transform="matrix(-1,0,0,1,26.0377,9.74371)" />
			<path id="路径 9" d="M0.0105789 0.256324C0.289314 -0.190237 5.33289 -0.190237 8.67132 1.38687C12.0098 2.96398 14.3101 5.59256 15.6457 9.2108C16.9813 12.829 15.6499 19.0713 9.96116 20.288C4.27241 21.5046 2.61926 15.4946 3.8418 9.2108C5.06434 2.927 -0.268156 0.702884 0.0105789 0.256324Z" fill="url(#paint_radial_2)" fill-opacity="0.600000024" fill-rule="evenodd" transform="matrix(-1,0,0,1,26.0377,9.74371)" />
			<path id="路径 9" d="M0.616 0.0611643C0.277832 0.106052 0.0622703 0.173509 0.0105789 0.256324C-0.0457909 0.346634 0.127331 0.509643 0.429317 0.764229C0.431983 0.766476 0.434659 0.768731 0.437344 0.770992C0.481975 0.808574 0.529359 0.84813 0.579179 0.88972C1.86613 1.96406 4.77865 4.39543 3.8418 9.2108C2.61926 15.4946 4.27241 21.5046 9.96116 20.288C15.6499 19.0713 16.9813 12.829 15.6457 9.2108C14.3101 5.59256 12.0098 2.96398 8.67132 1.38687C5.96419 0.107995 2.13583 -0.133841 0.636114 0.0585396C0.629362 0.0594057 0.622657 0.0602806 0.616 0.0611643ZM1.35522 0.672619C1.43659 0.742418 1.50828 0.804885 1.57029 0.860019C1.81386 1.0766 2.03804 1.29075 2.24282 1.50247C2.79839 2.07684 3.25829 2.68114 3.62253 3.31537C3.90674 3.81024 4.13432 4.32334 4.30527 4.85465C4.74698 6.2275 4.81062 7.72198 4.4962 9.33811C4.19466 10.888 4.0786 12.352 4.14804 13.7301C4.21853 15.1293 4.47471 16.3146 4.91658 17.286C5.34481 18.2274 5.92275 18.9033 6.65043 19.3135C6.6809 19.3307 6.71164 19.3474 6.74265 19.3636C7.58358 19.8044 8.60994 19.8952 9.82173 19.636C10.76 19.4354 11.5946 19.0839 12.3256 18.5817C12.558 18.422 12.7799 18.2471 12.9914 18.057C13.0898 17.9684 13.1855 17.8772 13.2783 17.7831C13.9292 17.124 14.443 16.3295 14.8197 15.3997C14.9104 15.1756 14.9915 14.9486 15.0628 14.7186C15.3042 13.9406 15.4347 13.1282 15.4544 12.2815C15.4664 11.7661 15.4347 11.2648 15.3594 10.7776C15.2854 10.2989 15.1723 9.8536 15.0203 9.44165C14.3777 7.70072 13.5079 6.21213 12.4109 4.97588C12.1764 4.71157 11.9312 4.45852 11.6754 4.21673C10.7258 3.3192 9.62951 2.57684 8.38656 1.98966C7.6511 1.64222 6.78937 1.35641 5.80136 1.13222C4.94529 0.937976 4.05776 0.802945 3.13875 0.727131C2.47067 0.672018 1.87616 0.653847 1.35522 0.672619Z" fill="rgb(151,151,151)" fill-opacity="0" fill-rule="evenodd" transform="matrix(-1,0,0,1,26.0377,9.74371)" />
			<path id="形状结合" d="M24.9758 9.75995C25.5675 9.7965 25.9542 9.8818 26.0259 9.99663C26.033 10.008 26.0365 10.0206 26.0365 10.0344C26.0365 10.1465 25.8068 10.3382 25.4573 10.63C24.3435 11.5598 22.0122 13.5059 22.0122 17.1342C22.0122 17.6983 22.0686 18.3031 22.1947 18.9511C22.2447 19.2084 22.29 19.4653 22.3303 19.7212C17.3075 19.7484 13.9095 18.7006 13.5223 15.9229C13.5087 15.8257 13.5021 15.7283 13.5021 15.6309C13.5021 12.7606 19.288 9.86262 24.9758 9.75995Z" opacity="0.600000024" fill="rgb(201,246,249)" fill-opacity="0" fill-rule="evenodd" />
			<path id="形状结合" d="M24.9758 9.75995C25.5675 9.7965 25.9542 9.8818 26.0259 9.99663C26.033 10.008 26.0365 10.0206 26.0365 10.0344C26.0365 10.1465 25.8068 10.3382 25.4573 10.63C24.3435 11.5598 22.0122 13.5059 22.0122 17.1342C22.0122 17.6983 22.0686 18.3031 22.1947 18.9511C22.2447 19.2084 22.29 19.4653 22.3303 19.7212C17.3075 19.7484 13.9095 18.7006 13.5223 15.9229C13.5087 15.8257 13.5021 15.7283 13.5021 15.6309C13.5021 12.7606 19.288 9.86262 24.9758 9.75995Z" opacity="0.600000024" fill="url(#paint_radial_3)" fill-rule="evenodd" />
			<path id="形状结合" d="M24.9758 9.75995C25.5675 9.7965 25.9542 9.8818 26.0259 9.99663C26.033 10.008 26.0365 10.0206 26.0365 10.0344C26.0365 10.1465 25.8068 10.3382 25.4573 10.63C24.3435 11.5598 22.0122 13.5059 22.0122 17.1342C22.0122 17.6983 22.0686 18.3031 22.1947 18.9511C22.2447 19.2084 22.29 19.4653 22.3303 19.7212C17.3075 19.7484 13.9095 18.7006 13.5223 15.9229C13.5087 15.8257 13.5021 15.7283 13.5021 15.6309C13.5021 12.7606 19.288 9.86262 24.9758 9.75995ZM24.6564 10.4356Q22.8092 10.5041 20.9431 10.9642Q18.9989 11.4436 17.408 12.2519Q15.8468 13.0451 14.9825 13.9718Q14.1687 14.8444 14.1687 15.6309C14.1687 15.6981 14.1734 15.7647 14.1826 15.8309Q14.2448 16.2773 14.4377 16.6574Q14.5969 16.971 14.8451 17.2395Q15.4058 17.8461 16.434 18.2543C17.6662 18.7435 19.3664 19.0086 21.5347 19.0495C21.4086 18.3925 21.3456 17.7541 21.3456 17.1342Q21.3456 15.7299 21.7728 14.4707L21.7728 14.4706Q22.1248 13.4331 22.7667 12.494Q23.2764 11.7483 23.9811 11.0536C24.1643 10.8729 24.3894 10.667 24.6564 10.4356Z" opacity="0.600000024" fill="rgb(151,151,151)" fill-opacity="0" fill-rule="evenodd" />
			<path id="形状结合" d="M10.6898 3.65085C8.52747 5.16863 5.90441 6.05763 3.07688 6.05763C2.0181 6.05763 0.987986 5.93298 0 5.69734C5.29394 5.36334 6.98717 0.353238 9.07508 0.036534C10.6116 -0.196536 11.5342 0.718282 11.5342 1.84844C11.5342 2.25415 11.4153 2.68761 11.1632 3.10568C11.0586 3.27914 10.8984 3.46294 10.6898 3.65085Z" fill="rgb(138,190,243)" fill-rule="evenodd" transform="matrix(-0.657255,0.753668,0.799254,0.600993,32.4836,25.0226)" />
			<path id="形状结合" d="M10.6898 3.65085C8.52747 5.16863 5.90441 6.05763 3.07688 6.05763C2.0181 6.05763 0.987986 5.93298 0 5.69734C5.29394 5.36334 6.98717 0.353238 9.07508 0.036534C10.6116 -0.196536 11.5342 0.718282 11.5342 1.84844C11.5342 2.25415 11.4153 2.68761 11.1632 3.10568C11.0586 3.27914 10.8984 3.46294 10.6898 3.65085Z" fill="url(#paint_linear_0)" fill-rule="evenodd" transform="matrix(-0.657255,0.753668,0.799254,0.600993,32.4836,25.0226)" />
			<path id="形状结合" d="M10.6898 3.65085C8.52747 5.16863 5.90441 6.05763 3.07688 6.05763C2.0181 6.05763 0.987986 5.93298 0 5.69734C5.29394 5.36334 6.98717 0.353238 9.07508 0.036534C10.6116 -0.196536 11.5342 0.718282 11.5342 1.84844C11.5342 2.25415 11.4153 2.68761 11.1632 3.10568C11.0586 3.27914 10.8984 3.46294 10.6898 3.65085ZM10.2726 3.12911C10.4197 2.99356 10.5262 2.87102 10.5923 2.76148Q10.8673 2.30522 10.8675 1.84888L10.8675 1.84844C10.8675 1.66156 10.8316 1.48993 10.76 1.33357C10.6905 1.18197 10.5913 1.0542 10.4624 0.950246C10.3222 0.837252 10.1534 0.757701 9.95596 0.711594C9.72337 0.657286 9.46307 0.651975 9.17506 0.695661C8.94779 0.730135 8.67109 0.884313 8.34496 1.1582Q8.1081 1.3571 7.79363 1.6764Q7.59529 1.87778 7.1698 2.33317Q6.39383 3.16368 5.94265 3.59279Q5.16231 4.33495 4.40624 4.85062Q3.9742 5.14529 3.52496 5.38322Q4.46002 5.35078 5.36997 5.18252L5.37016 5.18249Q6.15874 5.03666 6.92846 4.78882Q7.67799 4.54749 8.38609 4.21731L8.38613 4.21729L8.38621 4.21725Q9.36933 3.75882 10.2726 3.12911Z" fill="rgb(151,151,151)" fill-opacity="0" fill-rule="evenodd" transform="matrix(-0.657255,0.753668,0.799254,0.600993,32.4836,25.0226)" />
			<path id="路径 10" d="M3.79692 0.0582995C4.96638 0.293505 5.72756 1.23853 5.97672 2.21335C6.22588 3.18817 6.11463 7.21164 6.46975 8.77104C6.82486 10.3304 8.19595 12.7869 8.19595 12.7869C8.19595 12.7869 4.73296 12.4122 2.37839 9.03713C0.0238209 5.66207 -0.366479 3.18998 0.27698 1.73662C0.920439 0.283267 2.62746 -0.176906 3.79692 0.0582995Z" fill="url(#paint_linear_1)" fill-rule="evenodd" transform="matrix(-0.995271,0.0971355,0.112471,0.993655,37.1179,21.3152)" />
			<path id="路径 10" d="M5.97672 2.21335C5.72756 1.23853 4.96638 0.293505 3.79692 0.0582995C2.62746 -0.176906 0.920439 0.283267 0.27698 1.73662C-0.366479 3.18998 0.0238209 5.66207 2.37839 9.03713C4.0054 11.3693 6.16165 12.2689 7.33887 12.6021C7.8653 12.7512 8.19595 12.7869 8.19595 12.7869C8.19595 12.7869 8.02923 12.4882 7.79701 12.033C7.36328 11.1828 6.70103 9.78667 6.46975 8.77104C6.11463 7.21164 6.22588 3.18817 5.97672 2.21335ZM6.91858 11.7637C6.90067 11.7266 6.8827 11.6892 6.86466 11.6515C6.32702 10.528 5.97871 9.61721 5.81972 8.91907C5.72675 8.5108 5.65423 7.90936 5.60217 7.11474C5.57227 6.65849 5.54006 5.94273 5.50552 4.96748C5.47812 4.19364 5.45487 3.65051 5.43575 3.33808C5.40631 2.85684 5.37133 2.53696 5.33082 2.37844C5.27046 2.1423 5.17999 1.92434 5.05939 1.72456C4.97164 1.57918 4.86793 1.44342 4.74828 1.3173C4.57208 1.13157 4.37628 0.985599 4.16088 0.879388C4.00589 0.802969 3.84075 0.747132 3.66547 0.711879C3.43018 0.664556 3.17804 0.654071 2.90905 0.680423C2.67767 0.703091 2.4551 0.751302 2.24134 0.825058C2.19112 0.842387 2.14139 0.861125 2.09214 0.881274C1.81955 0.9928 1.5828 1.13969 1.38191 1.32194C1.26359 1.42927 1.16026 1.54694 1.07189 1.67495C1.00028 1.77868 0.938511 1.8892 0.886573 2.00652C0.755242 2.30315 0.682723 2.64736 0.669014 3.03916C0.653531 3.48163 0.713668 3.96909 0.849424 4.50153C1.16521 5.74004 1.85712 7.12476 2.92515 8.65569C3.305 9.20017 3.73496 9.68914 4.21504 10.1226C4.36822 10.2609 4.52649 10.3935 4.68987 10.5205C4.93002 10.7072 5.17879 10.88 5.43615 11.0387C5.75764 11.2371 6.09255 11.4137 6.44088 11.5685C6.60036 11.6393 6.75959 11.7044 6.91858 11.7637Z" fill="rgb(151,151,151)" fill-opacity="0" fill-rule="evenodd" transform="matrix(-0.995271,0.0971355,0.112471,0.993655,37.1179,21.3152)" />
		</g>
	</g>
</svg>
