<svg viewBox="0 0 16 16" xmlns="http://www.w3.org/2000/svg" xmlns:xlink="http://www.w3.org/1999/xlink" width="16.000000" height="16.000000" fill="none">
	<rect id="ic_public_image" width="16.000000" height="16.000000" x="0.000000" y="0.000000" />
	<path id="path1" d="M1.66378e-05 7.99332C1.66378e-05 6.74332 -0.0033167 5.49332 1.66378e-05 4.24332C-0.0033167 3.63665 0.07335 3.03332 0.220017 2.44999C0.550017 1.20999 1.35668 0.47332 2.59668 0.186653C3.21668 0.0533195 3.85335 -0.0100138 4.48668 -1.37885e-05C6.88335 -1.37885e-05 9.28002 -1.37885e-05 11.68 -1.37885e-05C12.2833 -0.00334712 12.8867 0.0633195 13.4767 0.206653C14.7533 0.516653 15.52 1.32665 15.81 2.59999C15.9434 3.19999 16.0033 3.81332 15.9967 4.42999C15.9967 6.85332 15.9967 9.27665 15.9967 11.6967C16 12.2967 15.9333 12.8967 15.7934 13.48C15.48 14.7567 14.6667 15.5167 13.3967 15.81C12.7733 15.9433 12.14 16.0067 11.5033 15.9967C9.11668 15.9967 6.73002 15.9967 4.34335 15.9967C3.73335 16.0033 3.12668 15.9333 2.53335 15.7933C1.25002 15.4833 0.480017 14.67 0.190017 13.39C0.0400166 12.74 1.66378e-05 12.09 1.66378e-05 11.4333C1.66378e-05 10.2867 1.66378e-05 9.13999 1.66378e-05 7.99332Z" fill="rgb(255,255,255)" fill-opacity="0" fill-rule="evenodd" />
	<circle id="path2" cx="8" cy="8" r="8" fill="rgb(255,255,255)" fill-opacity="0" />
	<path id="path3" d="M14.8334 3.16669L14.8334 12.8334C14.8334 13.9367 13.9367 14.8334 12.8334 14.8334L3.57675 14.8334L3.16675 14.8334C2.06008 14.8334 1.16675 13.9367 1.16675 12.8334L1.16675 3.16669C1.16675 2.06002 2.06008 1.16669 3.16675 1.16669L12.8334 1.16669C13.9367 1.16669 14.8334 2.06002 14.8334 3.16669ZM3.57675 14.8334L9.76342 8.64669C10.5434 7.86669 11.8101 7.86669 12.5901 8.64669L14.8334 10.8867" fill-rule="nonzero" stroke="rgb(25,25,25)" stroke-linejoin="round" stroke-width="1.5" />
	<circle id="path4" cx="4.16674805" cy="4.16668701" r="0.5" fill="rgb(25,25,25)" />
	<circle id="path4" cx="4.16674805" cy="4.16668701" r="0.5" stroke="rgb(25,25,25)" stroke-linejoin="round" stroke-width="1.5" />
	<path id="path5" d="M12.8324 0.666687C13.1778 0.666687 13.4975 0.727724 13.7921 0.849794C14.0868 0.97174 14.3562 1.15481 14.6003 1.39895C14.8445 1.64296 15.0275 1.91233 15.1495 2.20705C15.2716 2.50165 15.3324 2.82147 15.3324 3.16669L15.3326 5.91582C15.3331 5.92585 15.3334 5.93589 15.3334 5.94605L15.3334 12.8333C15.3334 13.1785 15.2724 13.4984 15.1503 13.793C15.0283 14.0876 14.8453 14.357 14.6012 14.6011C14.3571 14.8451 14.0877 15.0282 13.7931 15.1502C13.4985 15.2723 13.1786 15.3333 12.8334 15.3333L3.58773 15.3333C3.58467 15.3333 3.5816 15.3334 3.57854 15.3334L3.16577 15.3334C2.82072 15.3334 2.50073 15.2723 2.20614 15.1503C1.91154 15.0282 1.64201 14.8452 1.39787 14.6011C1.15479 14.3579 0.972148 14.0896 0.849978 13.796L0.849958 13.796L0.848715 13.793C0.726645 13.4984 0.665771 13.1786 0.665771 12.8334L0.665771 3.16669C0.665771 2.82151 0.726748 2.50165 0.848715 2.20705C0.849121 2.20603 0.849551 2.20506 0.849958 2.20404C0.972128 1.9105 1.15476 1.64215 1.39787 1.39895C1.64201 1.15481 1.91142 0.97178 2.20612 0.849794L2.20614 0.849794C2.50063 0.727724 2.8205 0.666687 3.16577 0.666687L12.8324 0.666687ZM4.78567 14.3333L12.8334 14.3333C13.0405 14.3333 13.2325 14.2967 13.4092 14.2235C13.586 14.1502 13.7476 14.0404 13.8941 13.894C14.0405 13.7475 14.1503 13.5859 14.2236 13.4091C14.2968 13.2323 14.3334 13.0404 14.3334 12.8333L14.3334 11.0974L12.238 9.00212C12.0916 8.85565 11.9301 8.74579 11.7533 8.67255C11.5766 8.59945 11.3845 8.56285 11.1775 8.56285C10.9705 8.56285 10.7784 8.59945 10.6016 8.67255C10.4249 8.74579 10.2634 8.85565 10.1169 9.00212L4.78567 14.3333ZM4.16627 3.16669C3.61387 3.16669 3.16626 3.61445 3.16626 4.16669C3.16626 4.71892 3.61387 5.16669 4.16627 5.16669C4.71867 5.16669 5.16627 4.71892 5.16627 4.16669C5.16627 3.61445 4.71867 3.16669 4.16627 3.16669Z" fill="rgb(255,255,255)" fill-opacity="0" fill-rule="evenodd" />
</svg>
