<svg viewBox="0 0 1254.97 778.429" xmlns="http://www.w3.org/2000/svg" xmlns:xlink="http://www.w3.org/1999/xlink" width="1254.965454" height="778.429443" fill="none" customFrame="#000000">
	<g id="线">
		<path id="矩形 4187" d="M0 0L671.526 0.0013152" stroke="rgb(166,168,169)" stroke-linejoin="round" stroke-width="1.75519598" transform="matrix(-1,0,0,1,811.942,0.877686)" />
		<path id="矩形 4004" d="M0 0L280.173 0.00105556" stroke="rgb(166,168,169)" stroke-linejoin="round" stroke-width="1.75519598" transform="matrix(-1,0,0,1,420.588,190.439)" />
		<path id="矩形 4005" d="M0 0L149.81 0C153.687 0 156.83 3.14331 156.83 7.02078L156.83 55.2886C156.83 59.1661 159.974 62.3094 163.851 62.3094L673.995 62.3095" stroke="rgb(166,168,169)" stroke-linejoin="round" stroke-width="1.75519598" transform="matrix(-1,0,0,-1,814.411,86.8823)" />
		<path id="矩形 4004" d="M0 0L193.949 0" stroke="rgb(166,168,169)" stroke-linejoin="round" stroke-width="1.75519598" transform="matrix(-1,0,0,-1,813.533,123.741)" />
		<path id="矩形 4004" d="M0 0L193.949 0" stroke="rgb(166,168,169)" stroke-linejoin="round" stroke-width="1.75519598" transform="matrix(-1,0,0,-1,813.533,190.439)" />
		<path id="矩形 1905" d="M0 0L81.6168 0" stroke="rgb(166,168,169)" stroke-linejoin="round" stroke-width="1.75519598" transform="matrix(-1,0,0,-1,1003.97,104.434)" />
		<path id="矩形 1905" d="M0 0L82.4941 0" stroke="rgb(166,168,169)" stroke-linejoin="round" stroke-width="1.75519598" transform="matrix(-1,0,0,-1,1004.85,190.439)" />
		<path id="矩形 4188" d="M0 0L200.97 0" stroke="rgb(166,168,169)" stroke-linejoin="round" stroke-width="1.75519598" transform="matrix(-1,0,0,-1,1123.33,288.73)" />
		<path id="矩形 1905" d="M0 0L277.994 0" stroke="rgb(166,168,169)" stroke-linejoin="round" stroke-width="1.75519598" transform="matrix(-1,0,0,-1,422.797,408.083)" />
		<path id="矩形 4179" d="M0 0L126.975 0" stroke="rgb(166,168,169)" stroke-linejoin="round" stroke-dasharray="4 3 " stroke-width="1.75519598" transform="matrix(-1,0,0,-1,698.292,464.25)" />
		<path id="矩形 4179" d="M0 0L118.231 0" stroke="rgb(166,168,169)" stroke-linejoin="round" stroke-dasharray="4 3 " stroke-width="1.75519598" transform="matrix(-1,0,0,-1,944.928,436.166)" />
		<path id="矩形 4186" d="M0 0C4.88166 0 79.3679 0 84.2495 0" stroke="rgb(166,168,169)" stroke-linejoin="round" stroke-dasharray="4 3 " stroke-width="1.75519598" transform="matrix(-1,0,0,-1,1089.98,436.167)" />
		<path id="矩形 4185" d="M0 0L79.8616 0C83.739 0 86.8823 3.14331 86.8823 7.02078L86.8823 29.8383C86.8823 33.7158 83.739 36.8591 79.8616 36.8591L0 36.8591" stroke="rgb(166,168,169)" stroke-linejoin="round" stroke-dasharray="4 3 " stroke-width="1.75519598" transform="matrix(-1,0,0,1,1176.86,417.737)" />
		<path id="矩形 1904" d="M0 0L37.8799 0" stroke="rgb(166,168,169)" stroke-linejoin="round" stroke-width="1.75519598" transform="matrix(0,-1,1,0,764.388,693.446)" />
		<path id="矩形 4179" d="M0 0L126.374 0" stroke="rgb(166,168,169)" stroke-linejoin="round" stroke-dasharray="4 3 " stroke-width="1.75519598" transform="matrix(-1,0,0,-1,697.69,772.286)" />
		<path id="矩形 4179" d="M0 0L114.102 0" stroke="rgb(166,168,169)" stroke-linejoin="round" stroke-dasharray="4 3 " stroke-width="1.75519598" transform="matrix(-1,0,0,-1,939.922,744.203)" />
		<path id="矩形 4182" d="M0 0C9.81415 0 159.562 0 169.376 0" stroke="rgb(166,168,169)" stroke-linejoin="round" stroke-dasharray="4 3 " stroke-width="1.75519598" transform="matrix(-1,0,0,-1,1179.49,744.204)" />
		<path id="矩形 4003" d="M0 0.00105556L280.556 0" stroke="rgb(166,168,169)" stroke-linejoin="round" stroke-width="1.75519598" transform="matrix(-1,0,0,1,420.972,602.91)" />
		<g id="组合 4192">
			<path id="矩形 4004" d="M145.681 641.525L425.528 641.524" stroke="rgb(166,168,169)" stroke-opacity="0.100000001" stroke-linejoin="round" stroke-width="8.77598" />
			<path id="矩形 4003" d="M145.682 641.525L425.529 641.524" stroke="rgb(166,168,169)" stroke-linejoin="round" stroke-width="1.75519598" />
		</g>
		<path id="矩形 1905" d="M0 0.00105556L137.923 0" stroke="rgb(166,168,169)" stroke-linejoin="round" stroke-width="1.75519598" transform="matrix(-1,0,0,1,1127.71,622.217)" />
		<path id="直线 2" d="M147.437 330.149L1247.06 330.855C1250.94 330.855 1254.09 327.709 1254.09 323.829L1254.09 194.827" stroke="rgb(166,168,169)" stroke-linejoin="round" stroke-width="1.75519598" />
		<path id="矩形 1905" d="M0 0L82.4941 0" stroke="rgb(166,168,169)" stroke-linejoin="round" stroke-width="1.75519598" transform="matrix(-1,0,0,-1,1197.04,121.109)" />
		<path id="矩形 1905" d="M7.02075 420.37L51.7774 420.37" stroke="rgb(166,168,169)" stroke-linejoin="round" stroke-width="1.75519598" />
		<path id="矩形 1905" d="M0 0L44.7575 0" stroke="rgb(166,168,169)" stroke-linejoin="round" stroke-width="1.75519598" transform="matrix(-1,0,0,-1,44.7576,346.651)" />
		<path id="矢量 1286" d="M619.584 44.7191L642.839 44.7191C646.717 44.7191 649.735 41.0242 652.728 38.5583C654.019 37.4945 655.651 36.8591 657.427 36.8591C659.203 36.8591 660.836 37.4945 662.127 38.5583C665.119 41.0242 668.138 44.7191 672.016 44.7191L813.024 44.7191" stroke="rgb(166,168,169)" stroke-linejoin="round" stroke-width="1.75519598" />
		<path id="矩形 1905" d="M0 0L82.4941 0" stroke="rgb(166,168,169)" stroke-linejoin="round" stroke-width="1.75519598" transform="matrix(-1,0,0,-1,1003.97,18.4263)" />
		<path id="矩形 1905" d="M0 0L124.024 0" stroke="rgb(166,168,169)" stroke-linejoin="round" stroke-width="1.75519598" transform="matrix(-1,0,0,-1,699.446,408.083)" />
		<path id="矩形 4184" d="M0 0L79.8616 0C83.739 0 86.8823 3.14331 86.8823 7.02078L86.8823 103.557C86.8823 107.434 83.739 110.577 79.8616 110.577L0 110.577" stroke="rgb(166,168,169)" stroke-linejoin="round" stroke-dasharray="4 3 " stroke-width="1.75519598" transform="matrix(-1,0,0,1,1176.86,380.878)" />
		<path id="矩形 4179" d="M0 0L279.954 0.00105556" stroke="rgb(166,168,169)" stroke-linejoin="round" stroke-dasharray="4 3 " stroke-width="1.75519598" transform="matrix(-1,0,0,1,420.369,464.25)" />
		<path id="矩形 1904" d="M0 0L276.717 0.00105556" stroke="rgb(166,168,169)" stroke-linejoin="round" stroke-width="1.75519598" transform="matrix(-1,0,0,1,422.398,716.12)" />
		<path id="矩形 4183" d="M0 0L78.9838 0C82.8613 0 86.0046 3.14331 86.0046 7.02078L86.0046 59.6767C86.0046 63.5541 82.8613 66.6975 78.9838 66.6975L0 66.6975" stroke="rgb(166,168,169)" stroke-linejoin="round" stroke-dasharray="4 3 " stroke-width="1.75519598" transform="matrix(-1,0,0,1,1180.37,710.854)" />
		<path id="矩形 4179" d="M0 0L280.013 0.00105556" stroke="rgb(166,168,169)" stroke-linejoin="round" stroke-dasharray="4 3 " stroke-width="1.75519598" transform="matrix(-1,0,0,1,420.429,772.286)" />
		<path id="矩形 1905" d="M0 0L121.986 0" stroke="rgb(166,168,169)" stroke-linejoin="round" stroke-width="1.75519598" transform="matrix(-1,0,0,-1,697.69,716.12)" />
		<path id="矩形 1905" d="M0 0L14.9192 0" stroke="rgb(166,168,169)" stroke-linejoin="round" stroke-width="1.75519598" transform="matrix(0,1,-1,0,522.928,315.446)" />
	</g>
</svg>
