<svg viewBox="0 0 24 24.0195" xmlns="http://www.w3.org/2000/svg" xmlns:xlink="http://www.w3.org/1999/xlink" width="24.000000" height="24.019531" fill="none" customFrame="#000000">
	<g id="组合 4225">
		<path id="矢量 1286" d="M10.6685 13.2784C10.6685 13.2784 6.01549 17.2536 1.77401 14.7987C0.602277 14.1209 -0.0755845 12.8378 0.00672734 11.4821C0.0890392 10.0489 0.689431 8.94007 1.70622 8.09274C2.6165 7.33257 3.94317 7.41004 4.80018 8.23316C6.306 9.68572 8.32022 10.4749 10.6734 10.8187L12.0097 12.0147L10.6734 13.2784L10.6685 13.2784Z" fill="rgb(242,242,242)" fill-rule="nonzero" />
		<path id="矢量 1287" d="M13.2686 13.351C13.2686 13.351 17.2438 18.004 14.789 22.2455C14.1111 23.4172 12.828 24.0951 11.4723 24.0128C10.0391 23.9305 8.9303 23.3301 8.08298 22.3133C7.3228 21.403 7.40027 20.0763 8.22339 19.2193C9.67595 17.7135 10.4652 15.6993 10.809 13.3461L12.0049 12.0098L13.2686 13.3461L13.2686 13.351Z" fill="rgb(242,242,242)" fill-rule="nonzero" />
		<path id="矢量 1288" d="M13.3314 10.7412C13.3314 10.7412 17.9845 6.76599 22.226 9.22082C23.3977 9.89868 24.0755 11.1818 23.9932 12.5375C23.9109 13.9707 23.3105 15.0795 22.2937 15.9268C21.3835 16.687 20.0568 16.6095 19.1998 15.7864C17.694 14.3338 15.6797 13.5446 13.3266 13.2008L11.9902 12.0049L13.3266 10.7412L13.3314 10.7412Z" fill="rgb(242,242,242)" fill-rule="nonzero" />
		<path id="矢量 1289" d="M10.7315 10.6685C10.7315 10.6685 6.75635 6.01549 9.21118 1.77401C9.88904 0.602277 11.1721 -0.0755845 12.5279 0.00672734C13.9611 0.0890392 15.0698 0.689431 15.9172 1.70622C16.6773 2.6165 16.5999 3.94317 15.7768 4.80018C14.3242 6.306 13.535 8.32022 13.1912 10.6734L11.9953 12.0097L10.7315 10.6734L10.7315 10.6685Z" fill="rgb(242,242,242)" fill-rule="nonzero" />
	</g>
</svg>
